<?xml version="1.0" encoding="utf-8"?>
<!-- Designed by Levi Lo -->
<!-- for use in levi-lo.com only -->

<svg version="1.1" id="Icon" xmlns="http://www.w3.org/2000/svg" xmlns:xlink="http://www.w3.org/1999/xlink" x="0px" y="0px" viewBox="0 0 360 360" style="enable-background:new 0 0 360 360;" xml:space="preserve">
	<circle id="RLL-icon-area" cx="180" cy="180" r="180"/>
	<path
		id="RLL-icon-graphic"
		d="M246.2,155h-1.5v-9.5c0-2.5-2-4.5-4.5-4.5h-120c-2.5,0-4.5,2-4.5,4.5v60
	c0,22.3,18.2,40.5,40.5,40.5h48c15.7,0,29.3-8.9,36-22h6c15.7,0,28.5-12.8,28.5-28.5v-12C274.7,167.7,261.9,155,246.2,155z
	 M204.2,237h-48c-17.4,0-31.5-14.1-31.5-31.5V150h111v55.5C235.7,222.8,221.5,237,204.2,237z M265.7,195.5
	c0,10.8-8.7,19.5-19.5,19.5h-2.6c0.7-3,1.1-6.2,1.1-9.5V164h1.5c10.8,0,19.5,8.7,19.5,19.5V195.5z M144.3,92.8c2.5-2.5,4-5.9,4-9.5
	s-1.4-7-4-9.5c-1.8-1.8-1.8-4.6,0-6.4c1.8-1.8,4.6-1.8,6.4,0c4.2,4.2,6.6,9.9,6.6,15.9c0,6-2.3,11.7-6.6,15.9
	c-5.3,5.3-5.3,13.8,0,19.1c1.8,1.8,1.8,4.6,0,6.4c-0.9,0.9-2,1.3-3.2,1.3s-2.3-0.4-3.2-1.3C135.6,115.9,135.6,101.6,144.3,92.8z
	 M177,92.8c5.3-5.3,5.3-13.8,0-19.1c-1.8-1.8-1.8-4.6,0-6.4c1.8-1.8,4.6-1.8,6.4,0c8.8,8.8,8.8,23,0,31.8c-5.3,5.3-5.3,13.8,0,19.1
	c1.8,1.8,1.8,4.6,0,6.4c-0.9,0.9-2,1.3-3.2,1.3s-2.3-0.4-3.2-1.3C168.2,115.9,168.2,101.6,177,92.8z M209.6,92.8
	c5.3-5.3,5.3-13.8,0-19.1c-1.8-1.8-1.8-4.6,0-6.4c1.8-1.8,4.6-1.8,6.4,0c8.8,8.8,8.8,23,0,31.8c-5.3,5.3-5.3,13.8,0,19.1
	c1.8,1.8,1.8,4.6,0,6.4c-0.9,0.9-2,1.3-3.2,1.3s-2.3-0.4-3.2-1.3C200.8,115.9,200.8,101.6,209.6,92.8z M274.7,253.5
	c0,9.1-7.4,16.5-16.5,16.5h-156c-9.1,0-16.5-7.4-16.5-16.5c0-2.5,2-4.5,4.5-4.5s4.5,2,4.5,4.5c0,4.1,3.4,7.5,7.5,7.5h156
	c4.1,0,7.5-3.4,7.5-7.5c0-2.5,2-4.5,4.5-4.5S274.7,251,274.7,253.5z"/>
</svg>
