<?xml version="1.0" encoding="utf-8"?>
<!-- Designed by Levi Lo -->
<!-- for use in levi-lo.com only -->

<svg version="1.1" id="Icon" xmlns="http://www.w3.org/2000/svg" xmlns:xlink="http://www.w3.org/1999/xlink" x="0px" y="0px" viewBox="0 0 360 360" style="enable-background:new 0 0 360 360;" xml:space="preserve">
	<circle id="RLL-icon-area" cx="180" cy="179" r="180"/>
	<path
		id="RLL-icon-graphic"
		d="M180,111.1c22.4,0,25.1,0.1,34,0.6c8.2,0.4,12.6,1.8,15.6,2.9c3.6,1.3,6.9,3.5,9.7,6.3
	c2.8,2.7,4.9,6.1,6.3,9.7c1.1,2.9,2.5,7.4,2.9,15.6c0.5,8.9,0.6,11.6,0.6,34s-0.1,25.1-0.6,34c-0.4,8.2-1.8,12.6-2.9,15.6
	c-2.8,7.3-8.6,13.2-15.9,15.9c-2.9,1.1-7.4,2.5-15.6,2.9c-8.9,0.5-11.6,0.6-34,0.6s-25.1-0.1-34-0.6c-8.2-0.4-12.6-1.8-15.6-2.9
	c-3.6-1.3-6.9-3.5-9.7-6.3c-2.8-2.7-4.9-6.1-6.3-9.7c-1.1-2.9-2.5-7.4-2.9-15.6c-0.5-8.9-0.6-11.6-0.6-34s0.1-25.1,0.6-34
	c0.4-8.2,1.8-12.6,2.9-15.6c1.3-3.6,3.5-6.9,6.3-9.7c2.7-2.8,6.1-4.9,9.7-6.3c2.9-1.1,7.4-2.5,15.6-2.9
	C154.9,111.2,157.6,111.1,180,111.1 M180,96c-22.9,0-25.7,0.1-34.6,0.6s-15,1.9-20.3,3.9c-5.6,2.1-10.6,5.4-14.8,9.7
	c-4.3,4.2-7.6,9.2-9.7,14.8c-2.1,5.3-3.5,11.5-3.9,20.3c-0.5,9-0.6,11.9-0.6,34.6s0.1,25.7,0.6,34.6s1.9,15,3.9,20.3
	c2.1,5.6,5.4,10.6,9.7,14.8c4.2,4.3,9.2,7.6,14.8,9.7c5.3,2.1,11.5,3.5,20.3,3.9c9,0.5,11.9,0.6,34.6,0.6s25.7-0.1,34.6-0.6
	s15-1.9,20.3-3.9c11.3-4.4,20.2-13.3,24.5-24.5c2.1-5.3,3.5-11.5,3.9-20.3c0.5-9,0.6-11.9,0.6-34.6s-0.1-25.7-0.6-34.6
	s-1.9-15-3.9-20.3c-2.1-5.6-5.4-10.6-9.7-14.8c-4.2-4.3-9.2-7.6-14.8-9.7c-5.3-2.1-11.5-3.5-20.3-3.9C205.7,96.1,202.9,96,180,96
	L180,96L180,96z M180,136.9c-23.8,0-43.1,19.3-43.1,43.1s19.3,43.1,43.1,43.1s43.1-19.3,43.1-43.1l0,0
	C223.1,156.2,203.8,136.9,180,136.9z M180,208c-15.5,0-28-12.5-28-28s12.5-28,28-28s28,12.5,28,28S195.5,208,180,208z M224.9,125
	c5.6,0,10.1,4.6,10.1,10.1c0,5.6-4.6,10.1-10.1,10.1c-5.6,0-10.1-4.6-10.1-10.1C214.7,129.6,219.3,125,224.9,125z"/>
</svg>
