<?xml version="1.0" encoding="utf-8"?>
<!-- Designed by Levi Lo -->
<!-- for use in levi-lo.com only -->

<svg version="1.1" id="RLL-icon-graphic" xmlns="http://www.w3.org/2000/svg" xmlns:xlink="http://www.w3.org/1999/xlink" x="0px" y="0px"
	 viewBox="0 0 360 360" style="enable-background:new 0 0 360 360;" xml:space="preserve">
<style type="text/css">
	.RLL-icon-colour{fill:none;stroke:#000000;stroke-miterlimit:10;}
	.st1{fill:#FBFBFB;stroke:#000000;stroke-miterlimit:10;}
	.st2{fill:#FBFBFB;stroke:#000000;stroke-width:9;stroke-linejoin:round;stroke-miterlimit:10;}
	.st3{stroke:#000000;stroke-width:9;stroke-linejoin:round;stroke-miterlimit:10;}
	.st4{fill:#FBFBFB;stroke:#FBFBFB;stroke-width:9;stroke-linejoin:round;stroke-miterlimit:10;}
	.st5{stroke:#FBFBFB;stroke-width:9;stroke-linejoin:round;stroke-miterlimit:10;}
	.st6{fill:none;stroke:#FBFBFB;stroke-width:9;stroke-linejoin:round;stroke-miterlimit:10;}
	.st7{fill:#FBFBFB;}
	.st8{fill:none;stroke:#FBFBFB;stroke-width:9;stroke-linecap:round;stroke-linejoin:round;stroke-miterlimit:10;}
</style>
<circle cx="180" cy="180" r="180"/>
<path class="st7" d="M274.5,125.9c0-0.3,0-0.5-0.1-0.8c0,0,0-0.1,0-0.1c0-0.2-0.1-0.4-0.2-0.6c0-0.1-0.1-0.2-0.1-0.2
	c-0.1-0.2-0.2-0.3-0.3-0.5c0-0.1-0.1-0.1-0.1-0.2c-0.1-0.2-0.3-0.4-0.5-0.6c0,0,0,0,0,0l-25-25c-1.8-1.8-4.6-1.8-6.4,0l-23.7,23.7
	h-76.3l-23.7-23.7c-1.8-1.8-4.6-1.8-6.4,0l-25,25c-0.2,0.2-0.3,0.4-0.5,0.6c0,0.1-0.1,0.1-0.1,0.2c-0.1,0.2-0.2,0.3-0.3,0.5
	c0,0.1-0.1,0.2-0.1,0.2c-0.1,0.2-0.2,0.4-0.2,0.7c0,0,0,0.1,0,0.1c-0.1,0.3-0.1,0.5-0.1,0.8c0,0,0,0.1,0,0.1v120
	c0,2.5,2,4.5,4.5,4.5h180c2.5,0,4.5-2,4.5-4.5L274.5,125.9C274.5,126,274.5,125.9,274.5,125.9z M220,130.5h39.1L198,191.6
	c-9.9,9.9-26.1,9.9-36.1,0l-61.1-61.1H140H220z M94.5,136.9l49.1,49.1l-49.1,49.1V136.9z M150,192.4l5.6,5.6
	c6.5,6.5,15.2,10.1,24.4,10.1c9.2,0,17.9-3.6,24.4-10.1l5.6-5.6l49.1,49.1H100.9L150,192.4z M216.4,186l49.1-49.1v98.3L216.4,186z"
	/>
</svg>
