<?xml version="1.0" encoding="utf-8"?>
<!-- Designed by Levi Lo -->
<!-- for use in levi-lo.com only -->

<svg version="1.1" id="Icon" xmlns="http://www.w3.org/2000/svg" xmlns:xlink="http://www.w3.org/1999/xlink" x="0px" y="0px" viewBox="0 0 360 360" style="enable-background:new 0 0 360 360;" xml:space="preserve">

	<circle id="RLL-icon-area" cx="180" cy="180" r="180"/>
	<path
		id="RLL-icon-graphic"
		d="M273.5,142.2c0,0-1.9-13-7.5-18.8c-7.2-7.5-15.2-7.6-18.9-8c-26.5-1.9-66.1-1.9-66.1-1.9h-0.1
	c0,0-39.7,0-66.1,1.9c-3.7,0.4-11.8,0.5-18.9,8c-5.7,5.7-7.5,18.8-7.5,18.8s-1.9,15.3-1.9,30.6v14.3c0,15.3,1.9,30.6,1.9,30.6
	s1.9,13,7.5,18.8c7.2,7.5,16.6,7.3,20.8,8.1c15.1,1.4,64.3,1.9,64.3,1.9s39.7-0.1,66.2-2c3.7-0.4,11.8-0.5,18.9-8
	c5.7-5.7,7.5-18.8,7.5-18.8s1.9-15.3,1.9-30.6v-14.3C275.4,157.5,273.5,142.2,273.5,142.2z M161.4,204.5v-53.1l51.1,26.6
	L161.4,204.5z"/>
</svg>
