<?xml version="1.0" encoding="utf-8"?>

<svg version="1.1" id="svg2529" xmlns:svg="http://www.w3.org/2000/svg"
	 xmlns="http://www.w3.org/2000/svg" xmlns:xlink="http://www.w3.org/1999/xlink" x="0px" y="0px" viewBox="0 0 200 200"
	 style="enable-background:new 0 0 200 200;" xml:space="preserve">
<style type="text/css">
	.BSH{fill-rule:evenodd;clip-rule:evenodd;fill:#231F20;}
</style>
<path id="path2466" class="BSH" d="M69,77.8l-17,44.4h2.8l17-44.4H69z M116.8,77.8l-16.9,44.4h2.8l16.9-44.4H116.8z M172.2,77.8
	l-16.9,44.4h2.8L175,77.8H172.2z M85.7,81.8c-6.9,0-11.5,4.1-11.5,10.2c0,2.3,0.8,4.3,2.3,5.8c1.4,1.5,3.1,2.2,6.3,3.2l3.5,1.1
	c4.2,1.3,6.1,3.3,6.1,6.3c0,2-0.8,3.6-2.4,4.8c-1.4,1.1-2.8,1.5-5.4,1.5c-3.7,0-6.5-1-9.4-3.1l-2.1,3.7c3.7,2.3,7.2,3.3,11.5,3.3
	c3.2,0,5.6-0.7,7.9-2.2c3.2-2,4.9-5.2,4.9-8.6c0-2.2-0.9-4.6-2.3-6.3c-1.5-1.7-3.1-2.6-6.2-3.6l-4-1.3c-4.1-1.3-5.6-2.8-5.6-5.5
	c0-3.4,2.5-5.5,6.8-5.5c3.5,0,5.7,1.1,8.6,3l2.1-3.4C93.2,83,89.8,81.8,85.7,81.8z M125.6,82.5v35.3h4.7v-16.9h14.9v16.9h4.8V82.5
	h-4.8v14.5h-14.9V82.5H125.6z M25,82.6v35.3h9.7c5.4,0,6.7-0.3,8.7-1c3.6-1.4,5.8-5,5.8-8.7c0-2.7-0.9-5.5-3.4-7.3
	c-1.1-0.8-2.3-1.4-4-1.8c3.7-1.4,5.8-3.9,5.8-7.5c0-3.8-2.5-6.8-6.3-8.1c-1.9-0.6-3.7-0.8-10.8-0.8H25z M29.6,86.5h5.1
	c1.8,0,2.9,0.1,3.9,0.4c2.3,0.6,3.9,2.5,3.9,5.2c0,1-0.2,1.6-0.6,2.4c-1,2.3-3.2,3-6.1,3h-6.2V86.5z M29.6,101.4H36
	c1.8,0,3.2,0.2,4.1,0.4c2.4,0.5,4.2,2.9,4.2,6c0,4.2-2,6.2-7,6.2h-7.6V101.4z"/>
</svg>
