<?xml version="1.0" encoding="utf-8"?>

<svg
	version="1.1"
	xmlns:cc="http://creativecommons.org/ns#"
	xmlns:dc="http://purl.org/dc/elements/1.1/"
	xmlns:inkscape="http://www.inkscape.org/namespaces/inkscape"
	xmlns:rdf="http://www.w3.org/1999/02/22-rdf-syntax-ns#"
	xmlns:sodipodi="http://sodipodi.sourceforge.net/DTD/sodipodi-0.dtd"
	xmlns:svg="http://www.w3.org/2000/svg"
	xmlns="http://www.w3.org/2000/svg"
	xmlns:xlink="http://www.w3.org/1999/xlink"
	x="0px"
	y="0px"
	viewBox="0 0 200 200"
	style="enable-background:new 0 0 200 200;"
	xml:space="preserve">
	<style type="text/css">
		.HKG0 {
			fill: #DE2910;
		}
		.HKG1 {
			fill: #FFFFFF;
		}
	</style>
	<sodipodi:namedview
		bordercolor="#666666"
		borderopacity="1.0"
		gridtolerance="10.0"
		guidetolerance="10.0"
		id="base"
		inkscape:current-layer="Layer_1"
		inkscape:cx="150.92075"
		inkscape:cy="275.99236"
		inkscape:pageopacity="0.0"
		inkscape:pageshadow="2"
		inkscape:window-height="975"
		inkscape:window-width="1280"
		inkscape:window-x="-4"
		inkscape:window-y="-4"
		inkscape:zoom="1.0889444"
		objecttolerance="10.0"
		pagecolor="#ffffff"
		showgrid="false"></sodipodi:namedview>
	<defs>

		<inkscape:perspective id="perspective99" inkscape:persp3d-origin="300 : 200 : 1" inkscape:vp_x="0 : 300 : 1" inkscape:vp_y="0 : 1000 : 0" inkscape:vp_z="600 : 300 : 1" sodipodi:type="inkscape:persp3d"></inkscape:perspective>
	</defs>
	<path id="path5" class="HKG0" d="M100,25c-41.4,0-75,33.6-75,75s33.6,75,75,75s75-33.6,75-75S141.4,25,100,25L100,25z"/>
	<path id="path7" class="HKG1" d="M100,174.1c-40.9,0-74.1-33.2-74.1-74.1S59.1,25.9,100,25.9s74.1,33.2,74.1,74.1
	S140.9,174.1,100,174.1L100,174.1z"/>
	<path id="path9" class="HKG0" d="M100,159.6c32.9,0,59.6-26.7,59.6-59.6S132.9,40.4,100,40.4S40.4,67.1,40.4,100
	S67.1,159.6,100,159.6L100,159.6z"/>
	<path id="path11" class="HKG1" d="M100,100c-26.4-11.2-14.7-45.5,10.6-43.8c-5.1,2.6-5.8,7.5-2.9,12.1c3.2,5.1-0.3,13.2-4.7,15.2
	C95.7,86.8,94.2,95.5,100,100L100,100z"/>
	<path id="path13" class="HKG1" d="M100,100c-18.8,21.6-47.8-0.1-38.3-23.6c0.9,5.7,5.3,7.9,10.5,6.5c5.8-1.5,12.5,4.4,13,9.2
	C86.1,100.1,93.9,104.1,100,100L100,100z"/>
	<path id="path15" class="HKG1" d="M100,100c14.8,24.5-14.8,45.4-34.2,29.2c5.7,0.9,9.2-2.7,9.4-8c0.4-6,8-10.5,12.8-9.6
	C95.8,113.2,102,107.1,100,100L100,100z"/>
	<path id="path17" class="HKG1" d="M100,100c27.9-6.5,38.6,28.2,17.2,41.6c2.6-5.1,0.3-9.5-4.7-11.5c-5.6-2.2-7.5-10.9-5.1-15.1
	C111.3,108.2,107.3,100.2,100,100L100,100z"/>
	<path id="path19" class="HKG1" d="M100,100c2.4-28.5,38.7-28,44.9-3.5c-4.1-4.1-8.9-3.2-12.4,0.9c-3.8,4.7-12.7,3.8-15.9,0.2
	C111.2,91.8,102.5,93.1,100,100L100,100z"/>
	<polygon id="polygon21" class="HKG0" points="98.6,75.2 97.1,77.5 96.6,74.8 93.9,74.1 96.3,72.8 96.1,70 98.2,71.9 100.7,70.9
	99.6,73.4 101.3,75.5 "/>
	<polygon id="polygon23" class="HKG0" points="76,93.7 77.7,95.8 75,95.5 73.5,97.8 73,95.1 70.3,94.4 72.7,93.1 72.5,90.3 74.6,92.2
	77.1,91.2 "/>
	<polygon id="polygon25" class="HKG0" points="86.6,120.9 89.2,119.9 88,122.4 89.8,124.5 87,124.2 85.5,126.5 85,123.8 82.3,123.1
	84.7,121.8 84.6,119 "/>
	<polygon id="polygon27" class="HKG0" points="115.7,119.2 115.6,116.5 117.6,118.3 120.2,117.3 119,119.8 120.8,122 118,121.7
	116.5,124 116,121.3 113.3,120.6 "/>
	<polygon id="polygon29" class="HKG0" points="123.2,91 120.5,90.3 122.9,88.9 122.7,86.2 124.8,88.1 127.3,87.1 126.2,89.6
	127.9,91.7 125.2,91.3 123.7,93.7 "/>
	<path id="path31" class="HKG0" d="M100.2,99.7c-3.2-1.6-5.8-5.1-6.9-9.1c-1.3-4.7-0.6-9.7,2-13.8l-0.6-0.3c-2.7,4.2-3.4,9.4-2.1,14.3
	c1.2,4.3,3.8,7.8,7.2,9.5L100.2,99.7L100.2,99.7z"/>
	<path id="path33" class="HKG0" d="M99.8,99.8c-2.6,2.5-6.6,3.9-10.8,3.7c-4.9-0.2-9.4-2.5-12.5-6.2L76,97.8c3.2,3.8,7.9,6.2,12.9,6.4
	c4.5,0.2,8.6-1.2,11.3-3.9L99.8,99.8L99.8,99.8z"/>
	<path id="path35" class="HKG0" d="M99.7,100.2c1.6,3.2,1.7,7.5,0.2,11.4c-1.7,4.6-5.2,8.2-9.8,10l0.2,0.6c4.7-1.8,8.3-5.6,10.1-10.3
	c1.6-4.2,1.5-8.6-0.2-11.9L99.7,100.2L99.7,100.2z"/>
	<path id="path37" class="HKG0" d="M100.1,100.3c3.6-0.6,7.6,0.7,10.9,3.3c3.8,3,6.2,7.5,6.5,12.3l0.7-0.1c-0.3-5-2.8-9.7-6.7-12.8
	c-3.5-2.8-7.7-4.1-11.4-3.5L100.1,100.3L100.1,100.3z"/>
	<path id="path39" class="HKG0" d="M120.8,87.7c-4.8-1.2-10.1-0.3-14.2,2.4c-3.7,2.4-6.2,6-6.8,9.8l0.7,0.1c0.6-3.6,3-7.1,6.6-9.4
	c4.1-2.7,9.1-3.5,13.7-2.3L120.8,87.7L120.8,87.7z"/>
	<polygon id="polygon41" class="HKG0" points="46.9,138.7 48.4,141 45.7,140.4 44,142.6 43.8,139.8 41.2,138.8 43.7,137.8 43.8,135
	45.7,137.1 48.3,136.3 "/>
	<polygon id="polygon43" class="HKG0" points="153.4,138.7 151.8,141 154.5,140.4 156.2,142.6 156.5,139.9 159.1,138.9 156.6,137.8
	156.4,135 154.6,137.1 151.9,136.3 "/>
	<path
		id="path45"
		class="HKG0"
		d="M55.8,155.9c1,0.6,1.2,0.4,1.8-0.4l3.4-4.8c0.6-0.8,0.5-1.1-0.3-1.7l0.2-0.2l3.1,2.2l-0.2,0.2
	c-0.9-0.5-1.1-0.5-1.7,0.3l-1.5,2.2l3.4,2.4l1.5-2.2c0.6-0.8,0.5-1.1-0.3-1.7l0.2-0.2l3.1,2.2l-0.2,0.2c-0.9-0.5-1.1-0.5-1.7,0.3
	l-3.5,4.9c-0.5,0.7-0.5,1,0.3,1.7l-0.2,0.2l-3.1-2.2l0.2-0.2c1,0.6,1.2,0.4,1.8-0.4l1.5-2.2l-3.4-2.4l-1.6,2.3
	c-0.5,0.7-0.5,1,0.3,1.7l-0.2,0.2l-3.1-2.2L55.8,155.9L55.8,155.9z"/>
	<path
		id="path47"
		class="HKG0"
		d="M67.8,158.9c1.3-2.9,4-3.4,6-2.4c2,0.9,3.4,3.3,2,6.1c-1.2,2.6-3.8,3.4-6,2.4
	C67.6,163.9,66.5,161.5,67.8,158.9L67.8,158.9z M74.4,161.9c1.3-2.8,0.4-4.4-0.9-5.1c-1.2-0.6-3.1-0.2-4.4,2.6
	c-1.3,2.7-0.5,4.4,0.8,5.1S73.2,164.7,74.4,161.9L74.4,161.9z"/>
	<path
		id="path49"
		class="HKG0"
		d="M88.1,161.6c-0.9-0.1-1.3-0.2-1.7,1.4l-1.8,6.9l-0.2-0.1l-3.9-8.8h0l-1.4,5.1
	c-0.3,1.4-0.1,1.7,0.8,2l-0.1,0.2l-3.1-0.8l0.1-0.2c1,0.2,1.3,0.1,1.7-1.4l1.5-5.8c-0.4-0.8-0.5-0.9-1.1-1.1l0.1-0.2l2.2,0.6
	l3.4,7.7h0l1.1-4.4c0.4-1.5,0.1-1.7-0.8-2l0.1-0.2l3.1,0.8L88.1,161.6L88.1,161.6z"/>
	<path
		id="path51"
		class="HKG0"
		d="M98.2,166.7c-0.6,0-0.9,0-1,1l-0.2,2.7c0,0.2-1.9,0.8-3.4,0.7c-1.3-0.1-2.8-0.6-3.7-1.8
	c-0.7-0.9-1-1.7-0.8-3.4c0.2-2.3,2.1-4.4,5-4.2c1.4,0.1,2,0.6,2.4,0.6c0.1,0,0.6,0,0.7-0.4l0.3,0l-0.1,2.9l-0.3,0
	c-0.3-1-0.9-2.4-2.8-2.6c-1.3-0.1-3.3,0.6-3.6,4c-0.2,2.4,1.1,4.1,3.2,4.3c0.9,0.1,1.9-0.2,1.9-0.6l0.2-2.2c0.1-1.1-0.2-1.2-1.1-1.3
	l0-0.2l3.5,0.3L98.2,166.7L98.2,166.7z"/>
	<path
		id="path53"
		class="HKG0"
		d="M109.4,161.5l3.6-0.4l0,0.2c-0.8,0.2-1.1,0.2-1.9,1.3l-2.2,2.9l3.6,3c1,0.9,1.6,1.3,2.3,1.2l0,0.2
	l-4.1,0.5l0-0.2c0.7-0.1,0.9-0.1,0.9-0.4c-0.1-0.4-1.5-1.6-2.1-2.1l-1.6-1.2l-0.3,0.3l0.3,2.5c0.1,0.9,0.3,1.1,1.4,1.1l0,0.2
	l-3.8,0.5l0-0.2c1.1-0.2,1.2-0.4,1.1-1.5l-0.7-5.9c-0.1-1.1-0.4-1.1-1.4-1.1l0-0.2l3.8-0.5l0,0.2c-1.1,0.2-1.2,0.4-1.1,1.4l0.3,2.8
	c2.7-3.1,3.1-3.6,3-4c-0.1-0.4-0.3-0.4-1-0.3L109.4,161.5L109.4,161.5z"/>
	<path
		id="path55"
		class="HKG0"
		d="M115.2,165.2c-0.9-3,0.8-5.1,2.9-5.8c2.2-0.6,4.7,0.2,5.6,3.2c0.8,2.8-0.6,5.1-2.9,5.8
	S116,168,115.2,165.2L115.2,165.2z M122.2,163.1c-0.9-3-2.7-3.6-4-3.2c-1.3,0.4-2.5,1.9-1.6,4.9c0.8,2.9,2.5,3.6,4,3.2
	C122.1,167.6,123.1,166,122.2,163.1L122.2,163.1z"/>
	<path
		id="path57"
		class="HKG0"
		d="M132.2,153.9c-0.7,0.5-1.1,0.7-0.4,2.1l3.2,6.4l-0.2,0.1l-8.7-4h0l2.4,4.8c0.6,1.2,1,1.4,1.9,1
	l0.1,0.2l-2.8,1.4l-0.1-0.2c0.9-0.5,1.1-0.8,0.4-2.1l-2.7-5.4c-0.8-0.4-1-0.3-1.5-0.1l-0.1-0.2l2.1-1.1l7.6,3.5l0,0l-2-4.1
	c-0.7-1.4-1.1-1.3-2-1l-0.1-0.2l2.9-1.4L132.2,153.9L132.2,153.9z"/>
	<path
		id="path59"
		class="HKG0"
		d="M143.2,151c-0.4,0.4-0.7,0.6-0.1,1.4l1.6,2.2c0.1,0.1-0.8,1.9-2,2.8c-1.1,0.8-2.5,1.4-3.9,1.1
	c-1-0.2-1.8-0.6-2.9-2c-1.4-1.8-1.3-4.7,1-6.4c1.1-0.8,1.9-0.9,2.2-1.1c0.1-0.1,0.4-0.4,0.2-0.8l0.2-0.2l1.8,2.2l-0.2,0.2
	c-0.9-0.6-2.2-1.2-3.8-0.1c-1,0.8-2.1,2.7-0.1,5.4c1.5,2,3.5,2.4,5.2,1.1c0.8-0.6,1.3-1.4,1-1.8l-1.3-1.8c-0.7-0.9-0.9-0.8-1.7-0.2
	l-0.1-0.2l2.8-2.1L143.2,151L143.2,151z"/>
	<path
		id="path61"
		class="HKG0"
		d="M41.1,118.4c0-0.2-0.1-0.3-0.3-0.6c-0.2-0.3-0.3-0.4-0.4-0.4c-0.1,0-0.2,0-0.3,0l-1.4,0.4l-2,0.6
	l-0.1,0l0-0.1l-0.6-2l0-0.1l0,0l0.6-0.2c0.1,0,0.2-0.1,0.2-0.4c0-0.2-0.2-0.4-0.4-0.7c-0.2-0.2-0.4-0.3-0.6-0.3c0,0-1.3,0.4-1.4,0.4
	l-1.2,0.3c-0.2,0.1-0.5,0-0.7-0.2c0-0.1-0.1-0.1-0.1,0c0,0-0.1,0.1-0.1,0.1l-0.5,1.2c0,0.1,0,0.1,0,0.2s0,0.1,0.1,0.1l1,0.5h0v0
	l0.5,1.8l0,0.1l0,0l-1.4,0.4c-0.2,0.1-0.5,0-0.7-0.2c0,0,0-0.1-0.1,0c-0.1,0-0.1,0.1-0.1,0.1l0,2c0.3-0.1,0.6-0.3,1.1-0.4l1.6-0.5
	l0,0l0,0.1l0.5,1.7l0,0l0,0l-0.2,1.8c0.4-0.2,0.9-0.4,1.3-0.5l2.1-0.6l1.5-0.4c0.1,0,0.1-0.1,0.1-0.1c0,0,0-0.1,0-0.1
	c0-0.1-0.1-0.3-0.3-0.6c-0.2-0.3-0.3-0.4-0.4-0.4c-0.1-0.1-0.2,0-0.3,0l-0.4,0.1l0,0l0-0.1l-0.6-1.8l0-0.1l0-0.1l2.1-0.6l1.8-0.5
	c0.1,0,0.1-0.1,0.1-0.1C41.1,118.5,41.1,118.4,41.1,118.4L41.1,118.4z M33.6,119.3L33.6,119.3L33.6,119.3l-0.7-2l0-0.1l0,0l2.7-0.8
	l0,0l0,0.1l0.6,2l0,0.1l0,0L33.6,119.3L33.6,119.3z M37.3,121.7L37.3,121.7L37.3,121.7l-2.8,0.9l-0.1,0l0-0.1l-0.5-1.8l0-0.1l0,0
	l2.7-0.8l0,0l0,0.1L37.3,121.7L37.3,121.7z"/>
	<path id="path63" class="HKG0" d="M29.8,105.1L29.8,105.1L29.8,105.1L29.8,105.1L29.8,105.1z"/>
	<path id="path65" class="HKG0" d="M34.8,104.7L34.8,104.7C34.8,104.7,34.8,104.8,34.8,104.7L34.8,104.7L34.8,104.7z"/>
	<path id="path67" class="HKG0" d="M36.2,105.1L36.2,105.1C36.2,105.1,36.2,105.2,36.2,105.1L36.2,105.1L36.2,105.1z"/>
	<path id="path69" class="HKG0" d="M33.1,105.5L33.1,105.5C33.1,105.6,33.1,105.6,33.1,105.5L33.1,105.5L33.1,105.5z"/>
	<path id="path71" class="HKG0" d="M31.5,104.7L31.5,104.7C31.4,104.7,31.4,104.8,31.5,104.7L31.5,104.7L31.5,104.7z"/>
	<polygon id="polygon73" class="HKG0" points="28.2,100.9 28.2,100.9 28.2,100.9 "/>
	<polygon id="rect75" class="HKG0" points="28.5,100.9 28.5,100.9 28.5,100.9 "/>
	<polygon id="polygon77" class="HKG0" points="29.5,95.3 29.5,95.3 29.5,95.3 "/>
	<path
		id="path79"
		class="HKG0"
		d="M30.7,99.7c0.1,0,0.1-0.1,0.1-0.2c0-0.2,0-0.4-0.1-0.6c-0.1-0.2-0.1-0.4-0.2-0.5
	c0-0.1-0.1-0.1-0.2-0.1h-0.6h-0.1v-0.1v-2.9c0-0.1,0-0.1,0-0.1c0,0,0,0,0,0c0,0-0.1,0-0.1,0.1s-0.8,1.1-0.8,1.1c0,0.1,0,0.1,0,0.1
	c0,0.1,0,0.1,0.1,0.1l0.7,0.6l0,0v0v0.9v0.1h0h-0.7h0l0,0L28.4,98c0-0.1,0-0.1-0.1-0.1c0,0-0.1,0-0.1,0.1l-0.5,1.8
	c0.2,0,1-0.1,1-0.1h0.7h0v0.1v1.4v0.1h0h-0.7h0l0,0c-0.2-0.3-0.2-0.3-0.2-0.3c0,0,0,0-0.1,0c-0.1,0-0.1,0-0.1,0.1l-0.5,1.7
	c0.2,0,0.9-0.1,0.9-0.1h0.8h0.1v0.1v2.8l0.4-0.3c-0.1-0.3-0.1-0.6-0.1-0.8v-1.7v-0.1h0h0.5l0.5,0c0,0,0.1,0,0.1,0s0-0.1,0-0.2
	s0-0.3-0.1-0.6c-0.1-0.3-0.1-0.4-0.2-0.4c-0.1-0.1-0.1-0.1-0.2-0.1h-0.6h0v-0.1v-1.4v-0.1h0L30.7,99.7L30.7,99.7z"/>
	<polygon id="polygon81" class="HKG0" points="28.2,98 28.2,98 28.2,98 "/>
	<path id="polygon83" class="HKG0" d="M32.8,95.2L32.8,95.2L32.8,95.2z"/>
	<path
		id="path85"
		class="HKG0"
		d="M38.4,100.2c-0.1-0.2-0.2-0.5-0.4-0.5l-0.9,0h-1h0v-0.1v-4.5c0-0.1,0-0.1,0-0.1s-0.1,0-0.1,0.1
	l-0.9,1c0,0.1,0,0.1,0,0.1c0,0.1,0,0.1,0.1,0.1l0.8,0.7l0,0v0v2.5v0.1h0h-1.1h0v-0.1v-4c0-0.1,0-0.1,0-0.1c0,0,0,0-0.1,0
	c0,0-0.1,0-0.1,0.1l-0.8,0.9c-0.1,0.1-0.1,0.1-0.1,0.2s0,0.1,0.1,0.1l0.7,0.5l0,0v0v0v0.1h-0.1H33h0v-0.1v-2.3c0-0.1,0-0.1-0.1-0.1
	s-0.1,0-0.1,0.1c0,0.1-0.9,1-0.9,1c0,0,0,0.1,0,0.1s0,0.1,0.1,0.1l0.8,0.6l0,0v0v0.4v0.1h0h-1.3h0v-0.1v-1.8c0-0.1,0-0.1,0-0.1
	c0,0-0.1,0-0.1,0.1l-0.9,1c0,0.1,0,0.1,0,0.2s0,0.1,0,0.1l0.8,0.7l0,0v0v7.4l0.3-0.3c-0.1-0.2-0.1-0.5-0.1-0.7v-0.5v-0.1h0.1h1.3h0
	v0.1v2.3l0.3-0.2c-0.1-0.4-0.1-0.7-0.1-1v-1v-0.1H33h1.4h0v0.1v1.5l0.4-0.3c-0.1-0.4-0.2-0.8-0.2-1.1v-2.4v-0.1h0h1.1h0v0.1v4.2
	l0.4-0.3c-0.1-0.3-0.1-0.7-0.1-0.9v-2.9v-0.1h0h1.2l1,0c0.2,0,0.2,0,0.3,0c0,0,0-0.1,0-0.2C38.5,100.9,38.5,100.6,38.4,100.2
	L38.4,100.2z M31.3,99.8V99v-0.1h0h1.3h0V99v0.8v0.1h0L31.3,99.8L31.3,99.8L31.3,99.8L31.3,99.8z M32.7,102.1h-1.3h0v-0.1v-0.8v-0.1
	h0h1.3h0v0.1L32.7,102.1L32.7,102.1L32.7,102.1L32.7,102.1z M33,99.8V99v-0.1h0h1.4h0V99v0.8v0.1h0L33,99.8L33,99.8L33,99.8L33,99.8
	z M34.4,102.1H33h0v-0.1v-0.8v-0.1h0h1.4h0v0.1L34.4,102.1L34.4,102.1L34.4,102.1L34.4,102.1z"/>
	<path
		id="path87"
		class="HKG0"
		d="M34.9,81.2L34.9,81.2L34.9,81.2c1.4,0.2,2.6,0.2,3.8,0c1.1-0.2,2.2-0.7,3.3-1.5
	c-0.6-0.6-0.8-1.2-0.6-1.8c0-0.1,0.1-0.2,0.1-0.2l-0.2-0.2c-0.5,0.6-1,1.1-1.3,1.3s-0.8,0.6-1.5,0.9c-0.6,0.3-1.3,0.5-1.9,0.6
	c-0.6,0.1-1.3,0.2-2.1,0.1c-0.8,0-1.4-0.2-1.9-0.3c-0.3-0.1-0.4-0.2-0.5-0.5c-0.1-0.3-0.2-0.3-0.2-0.4c0,0-0.1,0-0.2,0l-1.2,1.8
	c0.2,0.1,0.4,0.1,0.6,0.2c0.8,0.2,1.9,0.7,3.1,1.2c1.2,0.6,2.3,1.3,3.2,2.3c0.9,1,1.5,2.1,1.8,3.4l0.2,0c-0.1-1.8-0.5-3.2-1.2-4.3
	C37.5,82.8,36.4,81.9,34.9,81.2L34.9,81.2L34.9,81.2L34.9,81.2L34.9,81.2z"/>
	<path id="path89" class="HKG0" d="M44.5,70.1L44.5,70.1L44.5,70.1L44.5,70.1L44.5,70.1z"/>
	<path id="path91" class="HKG0" d="M46.4,60L46.4,60L46.4,60L46.4,60L46.4,60z"/>
	<path
		id="path93"
		class="HKG0"
		d="M50.8,62.7c0-0.1-0.1-0.2-0.2-0.2s-0.2-0.1-0.4-0.1c-0.6-0.1-1.2-0.3-1.9-0.8
	c-0.2-0.2-0.5-0.3-0.7-0.5l-0.2,0.2c0.4,0.5,0.8,1,1.1,1.7l0,0l0,0l0,0.1c-0.1,0.2-0.5,0.4-1,0.6c-0.5,0.2-1.1,0.2-1.6,0.2
	s-1-0.2-1.4-0.3l0,0l0,0l2.1-3.2c0.1-0.1,0-0.2,0-0.2c0,0-0.1,0-0.2,0c-0.1,0-1.4,0.3-1.4,0.3c0,0-0.1,0-0.1,0.1c0,0,0,0.1,0,0.1
	l0,0l0,0l0.4,1.2v0l0,0l-1,1.6l0,0h-0.1c-0.6-0.2-1.1-0.4-1.6-0.7l0,0l0,0l0.8-1.2l0,0l0,0l0.5,0.3c0.1,0,0.2,0.1,0.3-0.1
	c0.1-0.1,0.2-0.4,0.2-0.7c0.1-0.3,0-0.5-0.1-0.7l-1-0.5l-0.6-0.4c-0.2-0.1-0.3-0.3-0.3-0.6l0,0l0,0c0,0,0-0.1,0-0.1
	c-0.1,0-0.1,0-0.2,0l-1,0.3c-0.1,0-0.1,0.1-0.2,0.1c0,0,0,0.1,0,0.2l0.2,1.1v0v0l-2.2,3.5l0,0l0,0l-1.5,1c0.3,0.2,0.8,0.4,1.4,0.8
	l5.4,3.5c0.2,0.1,0.2,0.3,0.1,0.5c0,0.1,0,0.2,0,0.2s0,0.1,0.1,0.1c0.1,0,1.5,0.2,1.5,0.2c0.1,0,0.1,0,0.2-0.1c0-0.1,0-0.1,0-0.2
	c-0.1-0.3-0.2-1-0.3-2.1L45.8,66l-0.2,0c-0.1,0.6-0.3,1.3-0.5,2l0,0.1l-0.1,0l-2.3-1.5l0,0l0-0.1l1.1-1.7l0,0l0,0
	c0.4,0.2,0.9,0.3,1.4,0.4c0.5,0.1,1.1,0.1,1.6,0.1c0.5,0,1.1-0.1,1.6-0.3s1-0.5,1.4-0.9c0.5-0.4,0.7-0.7,0.8-0.8l0.1-0.2
	C50.8,62.9,50.8,62.8,50.8,62.7L50.8,62.7z M40.6,65.2L40.6,65.2l-1.5-1l0,0l0-0.1l2.4-3.8l0,0l0,0l1.5,1l0.1,0l0,0L40.6,65.2
	L40.6,65.2L40.6,65.2z M43.4,64.7l-1,1.6l0,0.1l0,0l-1.5-0.9l0,0l0,0l0.9-1.4l0,0l0,0C42.3,64.1,42.8,64.4,43.4,64.7L43.4,64.7
	L43.4,64.7L43.4,64.7z"/>
	<path id="polygon95" class="HKG0" d="M55,44.7L55,44.7L55,44.7z"/>
	<path
		id="path97"
		class="HKG0"
		d="M60.9,47.4C60.9,47.4,60.9,47.4,60.9,47.4C60.9,47.3,60.9,47.3,60.9,47.4c0-0.1-0.1-0.1-0.1-0.2
	c-0.1,0-1.5-0.1-1.5-0.1c0,0,0,0-0.1,0.1c-0.1,0-0.1,0.1-0.1,0.1l0.1,1.2v0l0,0l-0.7,0.6l0,0l0,0L56.5,47l0,0l0.1,0l2-1.8
	c0,0,0-0.1,0-0.1s0,0,0,0c0,0-0.1,0-0.2-0.1L57,44.9c-0.1,0-0.1,0-0.2,0.1c0,0,0,0.1,0,0.1l0,0l0,0l0.1,1.1v0l0,0l-0.5,0.5l-0.1,0
	l0,0l-1.1-1.2C55,45.4,54.9,45.2,55,45c0.1-0.2,0.1-0.3,0-0.3c0,0-0.1,0-0.1,0l-1.8,0.8c0.1,0.1,0.4,0.4,0.9,0.8l1.2,1.4l0,0l-0.1,0
	l-1,0.9l0,0l0,0L53,47.4c-0.2-0.2-0.2-0.5-0.1-0.8c0,0,0-0.1,0-0.1c0-0.1-0.1-0.1-0.2-0.1l-1.8,0.8c0.1,0.1,0.4,0.4,0.8,0.8l1.3,1.5
	l0,0l0,0l-1.9,1.7l0.5,0c0.2-0.3,0.4-0.5,0.6-0.7l1-0.8l0,0l0,0.1l1.9,2.2l0,0.1l0,0l-2.4,2.1l0.5,0c0.1-0.2,0.3-0.5,0.6-0.7
	L60.9,47.4L60.9,47.4z M54.3,48.9L54.3,48.9L54.3,48.9l1.1-1l0,0l0,0l1.9,2.2l0,0l0,0l-1,0.9l-0.1,0l0,0L54.3,48.9L54.3,48.9z"/>
	<path id="path99" class="HKG0" d="M57.6,51.9L56,52c0.2,1.5,0,3.2-0.6,5.2l0.2,0.1c1.1-1.8,1.7-3.4,1.9-4.8v0l0,0l0.3-0.3
	c0-0.1,0-0.1,0-0.2C57.7,51.9,57.7,51.9,57.6,51.9L57.6,51.9z"/>
	<path id="path101" class="HKG0" d="M62.5,51.1c0-0.2-0.2-0.4-0.3-0.6c-0.4-0.5-1-0.7-1.8-0.6c-0.8,0.1-1.8,0.4-3,1.1l0,0.2
	c1.4-0.2,2.7-0.1,4,0.6c0.3,0.1,0.6,0.1,0.8,0C62.5,51.5,62.6,51.3,62.5,51.1L62.5,51.1z"/>
	<path id="path103" class="HKG0" d="M67.2,40.6L67.2,40.6C67.1,40.5,67.1,40.5,67.2,40.6L67.2,40.6L67.2,40.6z"/>
	<polygon id="rect105" class="HKG0" points="71.7,45.5 71.7,45.5 71.7,45.5 "/>
	<path
		id="path107"
		class="HKG0"
		d="M77.7,40.8l-0.8-1.6l-1.6-3.4c-0.1-0.1,0-0.3,0.1-0.4c0.1-0.1,0.1-0.2,0.1-0.3
	c0,0-0.1-0.1-0.1-0.1l-0.9-0.2c-0.1,0-0.2,0-0.2,0c-0.1,0-0.1,0.1-0.1,0.2l0,0l0,0l-0.3,0.8v0h0l-1,0.5l0,0l0,0h-1.6
	c0.2,0.3,0.3,0.5,0.5,0.9l0.3,0.7l0,0.1l-0.1,0L71,37.6c-0.1,0-0.1,0-0.1,0c0,0-0.1,0-0.1,0.2l-0.2,1v0h0l-0.2,0.1l0,0l0,0l-0.8-1.7
	l0,0l0,0c0.5-0.4,0.8-0.6,0.9-0.7c0.1-0.1,0.2-0.1,0.3-0.2c0.1-0.1,0.2-0.1,0.3-0.1c0.1,0,0.2,0,0.2-0.1c0,0,0.1-0.1,0-0.1
	c0,0-0.1,0-0.1-0.1L69.6,35c-0.9,1.4-2,2.6-3.3,3.8l0.1,0.1c0.8-0.4,1.4-0.8,1.9-1.1l0,0l0,0l0.7,1.5l0,0l0,0l-2.2,1l0.4,0.2
	c0.3-0.2,0.6-0.4,0.8-0.5l0.6-0.2l0.1,0l0,0.1c0.3,1.5,0.3,3.3,0,5.2l0.2,0c0.6-1.1,1-2.2,1.1-3.4v0l0,0l0,0l0.1,0l0,0l1.1,2.4
	l0.5,1.2l0.1,0.1c0.1,0.1,0.1,0.2,0.3,0.1c0.1-0.1,0.3-0.2,0.5-0.5c0.3-0.3,0.3-0.4,0.3-0.5c0-0.1,0-0.2-0.1-0.2l-0.2-0.2L72,42.6
	l-1.1-2.5l0,0l0,0l0,0l0,0l0,0c0,0,0.2,0.1,0.4,0.2c0.2,0.1,0.5,0.3,0.7,0.6c0.2,0.2,0.4,0.3,0.6,0.2c0.1,0,0.2-0.1,0.2-0.2
	c0.1-0.1,0.1-0.3,0-0.4v0l0.1,0l0,0l0,0l0,0.1l0.7,1.5l0.6,1.5c0.1,0.1,0.1,0.2,0.2,0.2c0,0,0.1,0,0.1,0c0.1,0,0.2-0.2,0.5-0.4
	c0.2-0.2,0.3-0.4,0.4-0.5c0.1-0.1,0-0.2,0-0.4l-0.5-1l0,0l0,0l1.1-0.5l0,0l0,0.1l0.5,1.1c0,0.1,0.1,0.1,0.1,0.1c0,0,0.1,0,0.1,0
	c0.2-0.1,0.4-0.3,0.6-0.6C77.8,41.2,77.8,41,77.7,40.8L77.7,40.8z M72.6,39.7L72.6,39.7l0,0.1L72.6,39.7c-0.4-0.3-1-0.4-2,0l-0.1,0
	l0-0.1L70.3,39l0,0l0.1,0l1.6-0.7l0,0l0,0L72.6,39.7L72.6,39.7L72.6,39.7L72.6,39.7z M76.1,40.7l-1.1,0.5l-0.1,0l0,0l-2.1-4.7l0,0
	l0.1,0l1.1-0.5l0,0l0,0.1L76.1,40.7L76.1,40.7L76.1,40.7L76.1,40.7z"/>
	<path id="path109" class="HKG0" d="M70.8,37.5C70.8,37.5,70.8,37.5,70.8,37.5C70.8,37.5,70.8,37.5,70.8,37.5
	C70.8,37.5,70.8,37.5,70.8,37.5L70.8,37.5z"/>
	<path
		id="path111"
		class="HKG0"
		d="M95.2,37l-1-7.1v0l0,0l0.3-0.3c0.1,0,0.1-0.1,0.1-0.2c0-0.1-0.1-0.1-0.1-0.1l-1-0.6
	c-0.1,0-0.1,0-0.2,0s-0.1,0-0.1,0.1l-0.6,0.8l0,0h0l-5.7,0.8l0,0l0,0l-1.7-0.5c0.1,0.5,0.2,0.9,0.2,1.2l1,7.4l0.2,1.6
	c0,0.1,0,0.1,0.1,0.2c0,0,0.1,0,0.2,0c0.1,0,0.3-0.1,0.6-0.2c0.3-0.2,0.4-0.2,0.5-0.3c0.1-0.1,0.1-0.1,0.1-0.2l-0.2-0.7v0h0l6.1-0.9
	H94v0l0.1,0.3l0.1,0.7c0,0,0,0.1,0.1,0.1c0.1,0,0.1,0,0.2,0s0.2-0.1,0.6-0.3c0.3-0.2,0.5-0.4,0.4-0.6C95.4,38.1,95.2,37,95.2,37
	L95.2,37z M93.1,31.6L93.1,31.6l0.1,0.9v0.1l-0.1,0l-1.3-0.4c-0.1,0.8-0.1,1.3-0.2,1.6v0h0h0h-0.1l0-0.1c-0.1-0.3-0.2-0.9-0.4-1.8v0
	h0.1L93.1,31.6L93.1,31.6L93.1,31.6z M91.8,29.8l1.1-0.1h0.1v0.1L93,31l0,0.1L93,31l-0.3-0.2l-0.1,0l0-0.1c0.1-0.1,0.1-0.2,0.1-0.3
	c0-0.1-0.1-0.3-0.3-0.4s-0.4-0.2-0.6-0.2h-0.1L91.8,29.8L91.8,29.8L91.8,29.8L91.8,29.8L91.8,29.8z M90.4,30L90.4,30L90.4,30
	L90.4,30l0.8-0.1l0.1,0l-0.1,0.1L91.3,30c0.2,0.1,0.4,0.3,0.4,0.6c0.1,0.3,0.2,0.4,0.3,0.5l0.1,0L92,31.2l-0.2,0.3l0,0h0l-0.6,0.1
	h-0.1v0L91,30.7v0l0,0c0.2-0.2,0.2-0.3,0.2-0.3c0-0.1-0.1-0.1-0.1-0.1L90.4,30l-0.2,0L90.4,30L90.4,30z M86.9,32.2l-0.2-1.6v-0.1
	h0.1l2.9-0.4h0.1v0l0.1,0.6l0.2,1v0h-0.1L86.9,32.2L86.9,32.2L86.9,32.2L86.9,32.2z M93.9,37.5l-6,0.9h-0.1v0l-0.2-1.6v0h0h0h0l0,0
	c0.1,0.1,0.2,0.2,0.3,0.5c0.2,0.2,0.2,0.3,0.3,0.4s0.1,0.1,0.1,0.1c0.1,0,0.2-0.1,0.2-0.2c0.1-0.2,0.2-0.4,0.4-0.5l1.5-1.2l-0.1-0.1
	c-1,0.3-2,0.6-2.9,0.8h-0.1v0L87,32.4l0-0.1l0.1,0l0.3,0.2c0.3-0.1,0.6-0.2,0.7-0.2l2-0.3H90v0.1l0.2,0.8l0,0.1l-0.1-0.1l-0.6-0.4
	c-0.1,0-0.1,0-0.1,0c-0.1,0-0.1,0-0.1,0.1l0,0l0,0l-0.3,0.5l0,0h0l-0.4,0l0,0l0,0l-1.1-0.3c0.1,0.2,0.1,0.5,0.2,0.8l0.2,1.1l0.1,1
	c0,0.1,0,0.2,0.1,0.2c0,0,0.1,0,0.1,0c0,0,0.1,0,0.4-0.2s0.3-0.2,0.4-0.2c0,0,0-0.1,0-0.1l0-0.3V35h0l0.2,0h0.1v0l0.1,0.4
	c0,0,0,0.1,0.1,0.1c0,0,0.1,0,0.2,0c0.1,0,0.2-0.1,0.5-0.2s0.3-0.3,0.3-0.5c0,0-0.1-0.5-0.1-0.5l-0.2-1v0l0,0l0.1-0.2l0.1-0.1l0,0.1
	c0.2,0.9,0.4,1.7,0.7,2.2v0l0,0c-0.5,0.8-1.2,1.6-2,2.3l0.1,0.1c0.9-0.4,1.8-1,2.4-1.6l0.1,0l0.1,0c0.3,0.4,0.6,0.7,1,0.9
	c0.3,0.2,0.6,0.3,0.8,0.2c0.3-0.1,0.4-0.2,0.3-0.4c0-0.1-0.1-0.3-0.2-0.5c-0.1-0.2-0.2-0.5-0.2-0.8c-0.1-0.3-0.1-0.8-0.1-1.4h-0.1
	C93,35.5,93,35.5,93,35.6c0,0.1-0.1,0.1-0.2,0.1c-0.1,0-0.2,0-0.2,0c0,0-0.1-0.1-0.4-0.5l0,0l0,0c0.3-0.5,0.5-1.2,0.8-2l0,0l0,0
	c0.1-0.1,0.2-0.2,0.2-0.2l0.1,0l0,0.1L93.9,37.5L93.9,37.5L93.9,37.5L93.9,37.5z M89.2,34.8L89.2,34.8l-0.3,0h0v0l-0.2-1.4v-0.1h0
	l0.2,0h0.1v0L89.2,34.8L89.2,34.8L89.2,34.8z"/>
	<path id="path113" class="HKG0" d="M89.5,32.5L89.5,32.5C89.5,32.5,89.5,32.5,89.5,32.5L89.5,32.5L89.5,32.5z"/>
	<path id="path115" class="HKG0" d="M87.3,32.5L87.3,32.5C87.3,32.5,87.3,32.5,87.3,32.5L87.3,32.5L87.3,32.5z"/>
	<path id="path117" class="HKG0" d="M89.5,32.5L89.5,32.5C89.5,32.5,89.5,32.5,89.5,32.5L89.5,32.5L89.5,32.5z"/>
	<polygon id="polygon119" class="HKG0" points="113.5,30.6 113.5,30.6 113.5,30.6 "/>
	<path
		id="path121"
		class="HKG0"
		d="M111,32.5L111,32.5L111,32.5l3.6,0.4c0.1,0,0.1,0,0.2,0c0,0,0,0,0-0.1c0,0,0-0.1-0.1-0.1l-0.8-1.1
	c0,0-0.1-0.1-0.1-0.1s-0.1,0-0.2,0.1l-0.9,0.8l0,0h0l-2.1-0.3h-0.1v0l0.2-1.2v0h0.1c0.2,0,0.7,0,1.2,0c0.6,0,0.9,0,1.1,0
	c0.1,0,0.2,0,0.2,0.1c0.1,0,0.1,0,0.2,0c0.1,0,0.1-0.1,0.1-0.1c0,0,0-0.1,0-0.1l-1-1.2c-1.3,0.4-3.6,0.6-6.7,0.7v0.1
	c0.9,0.1,2.1,0.2,3.4,0.4h0.1v0.1l-0.2,1.1v0h-0.1l-4.5-0.6l0.3,0.4c0.2,0,0.6,0,1.2,0.1l1.6,0.2l0.1,0l-0.1,0.1
	c-0.9,1.2-2.2,2.2-3.8,3l0.1,0.2c1.3-0.3,2.2-0.6,2.6-0.8l0.1-0.1v0.1l-0.1,1.2l-0.3,2.2l-0.2,1c0,0,0,0.1,0,0.1
	c0,0,0.1,0.1,0.3,0.1c0.2,0,0.5,0,0.8,0c0.3-0.1,0.4-0.2,0.4-0.2l0.1-0.7v-0.1h0.1l2.7,0.4h0.1v0l-0.1,0.8c0,0,0,0.1,0.2,0.2
	c0.2,0,0.5,0,0.8-0.1c0.3-0.1,0.4-0.2,0.4-0.2c0,0,0.1-1,0.1-1l0.3-2.3c0-0.1,0.1-0.2,0.2-0.2c0.1,0,0.1-0.1,0.1-0.1l0-0.1l0.1,0
	c0.4,0.3,0.7,0.5,0.8,0.6c0.2-0.4,0.4-0.6,0.7-0.8c0.2-0.1,0.4-0.2,0.7-0.1c0.1,0,0.1,0,0.2,0l0.1-0.2
	C113.3,34.6,112.1,33.7,111,32.5L111,32.5z M110.5,36.9l-0.2,1.3v0h-0.1l-2.7-0.4h-0.1v0l0.2-1.3v0h0.1L110.5,36.9L110.5,36.9
	L110.5,36.9L110.5,36.9z M110.8,35.3l-0.2,1.3v0.1h-0.1l-2.7-0.4h-0.1v0l0.2-1.3v0h0.1L110.8,35.3L110.8,35.3L110.8,35.3L110.8,35.3
	z M111.6,34.8L111.6,34.8L111.6,34.8L111.6,34.8c-0.2-0.1-0.3-0.1-0.3-0.1s0,0,0,0l0,0l0,0l-0.6,0.4h0h0l-2.6-0.4h0l0,0l-0.8-0.6
	l-0.1,0l0.1-0.1c0.6-0.4,1.2-0.8,1.6-1.4l0,0h0h0h0.1v0l-0.1,0.7l-0.2,1.3l0,0l0,0c0,0,0,0,0.2,0c0.2,0,0.5,0,0.8,0
	c0.4-0.1,0.4-0.2,0.5-0.2l0.1-1l0.1-0.9v0h0.1h0h0v0c0.2,0.8,0.5,1.5,1.2,2.2l0,0.1V34.8L111.6,34.8z"/>
	<path id="path123" class="HKG0" d="M130.3,44.8L130.3,44.8C130.3,44.8,130.3,44.8,130.3,44.8L130.3,44.8L130.3,44.8z"/>
	<path id="polygon125" class="HKG0" d="M133.1,38.7L133.1,38.7L133.1,38.7z"/>
	<path id="polygon127" class="HKG0" d="M132.7,40.7L132.7,40.7L132.7,40.7z"/>
	<path
		id="path129"
		class="HKG0"
		d="M132.7,37.8c-0.1-0.1-0.1-0.1-0.1-0.2c-0.1,0-0.1,0-0.2,0l-0.8,0.4h0h0l-0.2-0.1l-0.1,0l0-0.1
	l0.4-0.9c0-0.1,0.1-0.1,0.3-0.2c0.2,0,0.2-0.1,0.2-0.1s0,0-0.2-0.2l-1.2-1c-0.1,0.2-0.3,0.8-0.3,0.8l-0.5,1l0,0l-0.1,0l-0.7-0.3
	l-0.1,0l0,0l0.5-1c0-0.1,0.1-0.1,0.3-0.2c0.2,0,0.2-0.1,0.2-0.1s0-0.1-0.2-0.2l-1.2-1c-0.1,0.2-0.3,0.9-0.3,0.9l-0.5,1l0,0.1l-0.1,0
	l-1.1-0.5l0.2,0.5c0.3,0,0.5,0.1,0.7,0.2l0.2,0.1l0.1,0l0,0l-0.7,1.5l0,0l-0.1,0l-1.3-0.6l-0.1,0l0.1-0.1l0.8-0.9l-0.1-0.1
	c-0.7,0.6-1.4,1.2-2.1,1.7c-0.7,0.5-1.1,0.7-1.3,0.7s-0.4,0-0.7-0.2c-0.1,0-0.2-0.1-0.3-0.2l-0.1,0.2c0.3,0.3,0.6,0.5,0.6,0.7
	c0.1,0.2,0,0.4-0.1,0.6c-0.1,0.2-0.2,0.4-0.5,0.7c-0.2,0.3-0.4,0.5-0.4,0.6c-0.1,0.2-0.1,0.5,0,0.9s0.3,0.6,0.5,0.7
	c0.3,0.1,0.6,0,0.8-0.5c0.2-0.3,0.2-0.7,0.3-1s0.1-0.5,0.2-0.7l0,0h0.1c0.8,0.1,1.5,0,2.2-0.3l0.1,0l-0.1,0.1l-1,2.1
	c-0.1,0.2-0.1,0.5,0,0.8c0.1,0.3,0.3,0.6,0.7,0.8c0.4,0.2,0.8,0.4,1.2,0.6c1,0.5,1.7,0.7,2.2,0.8c0.4,0.1,0.9-0.1,1.2-0.6
	c-0.3-0.3-0.4-0.7-0.4-0.9c0-0.2,0.1-0.5,0.2-0.8l-0.1-0.1c-0.1,0.1-0.2,0.2-0.3,0.5c-0.2,0.3-0.3,0.4-0.5,0.5
	c-0.1,0.1-0.3,0.1-0.6,0c-0.3-0.1-0.6-0.2-1.1-0.4c-0.6-0.2-0.9-0.5-1-0.6c-0.1-0.1-0.1-0.3,0-0.5l0.4-0.8l0,0l0.1,0l1.2,0.6l0.1,0
	l0,0l-0.2,0.3c0,0,0,0.1,0,0.1c0,0,0.1,0.1,0.2,0.1c0.2,0.1,0.4,0.1,0.8,0.1c0.4,0,0.5-0.1,0.5-0.2l0.3-0.6l0-0.1l0.1,0.1
	c0.1,0.3,0.4,0.7,0.8,1.1c0.5-0.4,1-0.6,1.5-0.4l0.1-0.1c-1.2-0.9-1.9-1.9-2.1-3l0-0.1l0.1,0.1l2.4,1.1c0,0,0.1,0,0.1,0
	c0,0,0.1,0,0.1-0.1c0,0,0,0,0-0.1c0,0-0.6-1.1-0.6-1.1c-0.1-0.1-0.1-0.1-0.1-0.1c0,0-0.1,0-0.1,0l0,0l0,0l-0.9,0.4h0h0l-0.4-0.2l0,0
	l0,0l0.6-1.5l0,0l0.1,0l1.6,0.7c0.1,0,0.2,0,0.2,0c0,0,0,0,0.1,0c0,0,0-0.1,0-0.2C133.1,38.6,132.7,37.8,132.7,37.8L132.7,37.8z
	 M124,40.1l-0.2,0.1L124,40.1c0.4-0.8,1-1.5,1.8-2.4l0.1,0l0,0.1l0.1,0.2c0.2,0,0.3,0,0.6,0.2l0.4,0.2l0.1,0l-0.1,0
	C126.3,39.1,125.3,39.7,124,40.1L124,40.1z M128.8,40.8l-0.5,1.1l0,0l0,0l-1.3-0.6l-0.1,0l0,0l0.5-1.1l0,0l0.1,0L128.8,40.8
	L128.8,40.8L128.8,40.8L128.8,40.8z M129.6,39.5c-0.1,0.4-0.1,0.7-0.1,0.9v0h-0.1l-0.6,0.1h0h0l-1.2-0.5l0,0l0,0l-0.2-0.3l-0.1-0.1
	l0.1,0c0.1,0,0.3-0.2,1-0.7l0,0h0L129.6,39.5L129.6,39.5L129.6,39.5L129.6,39.5z M130,37.6l-0.6,1.5l0,0l-0.1,0l-0.7-0.3l-0.1,0l0,0
	l0.7-1.5l0,0l0.1,0L130,37.6L130,37.6L130,37.6L130,37.6z"/>
	<path id="path131" class="HKG0" d="M125.7,35c-0.1,0.5,0,0.7,0.2,0.8c0.2,0.1,0.4,0.1,0.6,0s0.4-0.3,0.4-0.5c0.2-0.5-0.3-1.1-1.4-2.1
	l-0.2,0.1l0.2,0.5C125.8,34.1,125.8,34.5,125.7,35L125.7,35z"/>
	<path id="path133" class="HKG0" d="M124,36.3c-0.1,0.7-0.1,1,0,1c0.1,0.1,0.1,0.2,0.2,0.2c0.2,0.1,0.3,0,0.6-0.1s0.4-0.3,0.5-0.5
	c0.1-0.2,0.1-0.5,0-0.7c-0.1-0.3-0.5-0.7-1.2-1.3l-0.2,0.1C124,35.3,124.1,35.7,124,36.3L124,36.3z"/>
	<path id="path135" class="HKG0" d="M148.4,52.5L148.4,52.5L148.4,52.5L148.4,52.5L148.4,52.5z"/>
	<polygon id="polygon137" class="HKG0" points="147.1,53.8 147.1,53.8 147.1,53.8 "/>
	<path id="polygon139" class="HKG0" d="M148.7,47.8L148.7,47.8L148.7,47.8z"/>
	<path id="polygon141" class="HKG0" d="M149.1,50.6L149.1,50.6L149.1,50.6z"/>
	<path
		id="path143"
		class="HKG0"
		d="M148.9,49.4C148.9,49.3,148.9,49.3,148.9,49.4c-0.1-0.1-0.1-0.2-0.2-0.1l0,0l0,0l-0.9,0.2h0l0,0
	l-0.5-0.4l0,0l0,0l0.8-1l0,0h0l0.4,0.1c0,0,0.1,0,0.1,0c0.1-0.1,0.1-0.1,0-0.2l-0.9-1.5c-0.2,0.2-0.9,1.1-0.9,1.1l-0.6,0.7l0,0
	l-0.1,0l-1.5-1.3l0,0.5c0.2,0.1,0.5,0.2,0.6,0.4l0.7,0.6l0.1,0l0,0l-1.1,1.2l0,0l-0.1,0l-1.7-1.4v0.5c0.3,0.1,0.5,0.2,0.7,0.4
	l1.6,1.4l0,0l0,0c0,0-0.5,0.6-0.5,0.7l-0.4,0.5l0,0l-0.1,0l-2.6-2.2l0,0.5c0.2,0.1,0.4,0.2,0.6,0.4l1.8,1.5l0.1,0l0,0l-1.8,2.1
	c-0.1,0-0.1,0.1-0.2,0.1c-0.1,0-0.2,0-0.3-0.1c-0.1-0.1-0.4-0.5-0.9-1l-0.1,0.1c0.1,0.2,0.2,0.5,0.4,0.7c0.1,0.3,0.1,0.5,0.1,0.6
	c0,0.1-0.2,0.3-0.4,0.7c0.2,0.1,0.7,0.3,0.7,0.3c0.1,0,0.3,0.1,0.6,0.1c0.3,0.1,0.6,0,0.8-0.3l2-2.3l0,0l0.1,0L147,54c0,0,0,0,0.1,0
	s0,0,0,0c0,0,0-0.1,0-0.1c0-0.1-0.1-1.2-0.1-1.2c0-0.1,0-0.1,0-0.2c-0.1,0-0.1,0-0.2,0l-0.8,0.3h0l0,0l-0.1-0.1l-0.1,0l0-0.1
	l0.4-0.5l0,0h0c0.4,0.1,0.4,0,0.4,0c0,0,0,0,0-0.1l-0.9-1.3l0,0l0,0l0,0l0,0l0.1,0l2.5,2.1c0,0,0.1,0,0.1,0s0,0,0,0c0,0,0,0,0-0.1
	c0-0.1-0.1-1.3-0.1-1.3c0-0.1,0-0.1-0.1-0.1c0,0-0.1,0-0.2,0l-0.9,0.2h0l0,0l-0.9-0.8l-0.1,0l0,0l1.1-1.2l0,0l0.1,0l1.7,1.5
	c0.1,0.1,0.1,0,0.1,0c0,0,0,0,0-0.1C149.1,50.5,148.9,49.4,148.9,49.4L148.9,49.4z"/>
	<polygon id="polygon145" class="HKG0" points="145.7,45.3 145.7,45.3 145.7,45.3 "/>
	<polygon id="polygon147" class="HKG0" points="143.6,49.2 143.5,49.2 143.5,49.2 "/>
	<path
		id="path149"
		class="HKG0"
		d="M142,49L142,49l1.5,0.2l0.1-0.2l-1.1-0.4l-0.1,0l0.1,0l0.9-1l0,0l0.1,0l0.9,0.8
	c0.1,0.1,0.1,0,0.2,0s0,0,0-0.1l0-1c0,0,0-0.1-0.1-0.1c-0.1,0-0.1,0-0.1,0l0,0l0,0l-0.6,0.2h0l0,0l0,0l0,0l0,0l1.5-1.7l0,0h0
	l0.4,0.1c0,0,0.1,0,0.2,0c0.1,0,0.1-0.1,0-0.2l-1-1.6c-0.1,0.2-0.6,0.8-0.6,0.8l-0.4,0.4l-0.1,0l0-0.1l-0.6-1.1
	c-0.9,1-2.2,2-3.7,2.9l0,0.2c0.8-0.1,1.6-0.4,2.6-0.8l0,0l0,0l0.4,0.3l0.1,0l0,0l-1.3,1.5l0,0l0,0l-2.1-0.8
	c-0.1,0.2-0.5,1.4-0.5,1.4c0,0.1,0,0.1,0.1,0.2c0,0,0.1,0.1,0.3,0c0.1,0,0.3,0,0.5,0l0.9,0.1h0.1l-0.1,0.1l-1.3,1.5l-0.9,1
	c-0.1,0.1-0.1,0.1-0.1,0.2c0,0,0,0.1,0.1,0.2c0.1,0.1,0.4,0.2,0.7,0.3c0.3,0.1,0.5,0.1,0.7-0.1l0.8-1L142,49L142,49L142,49z
	 M142.2,46.1L142.2,46.1L142.2,46.1c0-0.1,0.2-0.2,0.8-0.7l0,0h0l0.2,0.1l0.1,0l0,0.1l-0.7,0.8l0,0l-0.1,0L142.2,46.1L142.2,46.1z"/>
	<path id="path151" class="HKG0" d="M141.8,52.7c0.2,0.1,0.4,0.2,0.6,0.1c0.2,0,0.4-0.1,0.5-0.3c0.1-0.2,0.2-0.4,0.2-0.7
	c0-0.3-0.2-0.7-0.5-1.3l-0.2,0c0,0.4-0.2,0.9-0.6,1.3C141.5,52.2,141.5,52.5,141.8,52.7L141.8,52.7z"/>
	<path id="polygon153" class="HKG0" d="M160.4,64.5L160.4,64.5L160.4,64.5z"/>
	<path
		id="path155"
		class="HKG0"
		d="M162.1,64c-0.2,0.2-0.5,0.5-0.9,0.7l-6.3,4.1c-0.2,0.1-0.4,0.1-0.5-0.1c-0.1-0.2-0.3-0.7-0.6-1.3
	l-0.2,0.1c0.1,0.4,0.2,0.8,0.2,1c0,0.3-0.3,0.6-0.8,0.9c0.9,0.8,1.6,1,2.2,0.6l6.5-4.2c0.2-0.1,0.4-0.1,0.6,0l0,0c0.1,0,0.1,0,0.2,0
	s0.1-0.1,0.1-0.1L162.1,64L162.1,64z"/>
	<path id="path157" class="HKG0" d="M159.7,62.7L159.7,62.7L159.7,62.7L159.7,62.7L159.7,62.7z"/>
	<path
		id="path159"
		class="HKG0"
		d="M155.4,65.1L155.4,65.1L155.4,65.1l0.5,0.1c0.1,0,0.1,0,0.1,0c0,0,0.1,0,0.1-0.1l0.1-1.2
	c0,0,0-0.1-0.1-0.2c-0.1-0.1-0.1-0.1-0.1-0.1l-0.9-0.2h0v0l-0.4-0.7l0,0l0.1,0l0.6-0.3l0,0l0,0l0.4,0.2c0.1,0,0.1,0,0.1,0
	c0.1,0,0.1-0.1,0.1-0.2l-0.4-1.3v0l0,0l0.2-0.1l0.1,0l0,0l1,1.5l0,0l-0.1,0l-0.6,0.4c0,0-0.1,0-0.1,0.1c0,0,0,0.1,0,0.1
	c0.1,0.1,0.2,0.2,0.4,0.5c0.3,0.2,0.4,0.3,0.5,0.3c0.1,0,0.1,0,0.2,0l0,0l0,0l0.7-0.5l1-0.7c0.3-0.2,0.5-0.2,0.7-0.1
	c0.1,0,0.1,0,0.1,0c0.1,0,0.1-0.1,0.1-0.1s0.1-1.2,0.1-1.2c0,0,0-0.1-0.1-0.2c-0.1-0.1-0.1-0.1-0.1-0.1l-0.9-0.2h0v0l-0.8-1.2l0,0
	l0,0l-0.3-1.7c-0.2,0.2-0.5,0.4-0.9,0.7l-1.5,1l-1.1,0.7c-0.1,0-0.1,0.1-0.1,0.1c0,0,0,0,0,0.1c0.1,0.2,0.3,0.3,0.6,0.6l0.1,0
	l-0.1,0l-0.7,0.5c-0.7,0.5-1.5,0.8-2.3,0.9s-1.8,0.2-2.7,0l-0.1,0.2c1.9,0.8,3.8,0.9,5.4,0.2l0.1,0l0,0l0.6,0.9l0,0l-0.1,0
	c-0.6,0.3-1.1,0.6-1.8,0.9c-0.9,0.5-1.1,0.5-1.1,0.5c-0.1,0-0.2-0.1-0.2-0.2c-0.1-0.2-0.3-0.6-0.5-1.3l-0.2,0c0,0.5,0,0.9-0.1,1.1
	c-0.1,0.2-0.3,0.4-0.6,0.5c0.2,0.2,0.3,0.4,0.5,0.6c0.2,0.2,0.4,0.3,0.6,0.4c0.2,0.1,0.4,0.2,0.6,0.2c0.2,0,0.6-0.2,1.2-0.4
	C154.1,65.8,154.8,65.4,155.4,65.1L155.4,65.1z M156.1,60.8l1.7-1.1l0.1,0l0,0l1,1.5l0,0l-0.1,0l-1.7,1.1l-0.1,0l0,0L156.1,60.8
	L156.1,60.8L156.1,60.8L156.1,60.8z"/>
	<polygon id="polygon161" class="HKG0" points="159.9,62.5 159.9,62.5 159.9,62.5 "/>
	<path
		id="path163"
		class="HKG0"
		d="M160.4,64.7c0.1,0,0.1-0.1,0.1-0.2l-0.4-1.7c-0.1,0.1-0.3,0.2-0.5,0.3c-0.2,0.2-0.4,0.2-0.5,0.3
	l-3.4,2.2l-1.2,0.7c-0.1,0-0.1,0.1-0.1,0.1s0,0.1,0.1,0.2c0,0,0.1,0.1,0.5,0.4c0.3,0.2,0.6,0.3,0.7,0.2c0,0,0.9-0.7,0.9-0.7l3.1-1.9
	c0.2-0.1,0.4-0.1,0.6,0l0,0C160.3,64.7,160.4,64.7,160.4,64.7L160.4,64.7z"/>
	<path
		id="path165"
		class="HKG0"
		d="M163.3,79.6c0.2-0.1,0.5,0,0.6,0.2c0.1,0.1,0.1,0.1,0.1,0.1c0,0,0.1-0.1,0.1-0.1l0.1-0.6v-0.1
	l0.1,0c0.4,0.2,0.6,0.2,0.8,0.3l0,0l0,0c0.3,0.1,0.5,0.3,0.6,0.5c0,0.1,0.1,0.1,0.1,0.1c0.1,0,0.1-0.1,0.1-0.2l0.5-1.7l0-0.1l0.1,0
	c0.8,0.4,1.1,0.7,1.3,1c0,0.1,0.1,0.1,0.1,0.1c0.1,0,0.1-0.1,0.1-0.2l0.5-1.6c-1.8-0.2-3.3-0.7-4.3-1.3l-0.1,0.2
	c0.7,0.7,1.4,1.2,2.1,1.7l0.1,0l0,0l0,0l0,0h0c-1.9-0.1-3.8-0.6-5.4-1.4l-0.1,0.2c0.6,0.6,1.3,1.1,1.8,1.4l0.1,0l-0.1,0l-3,0.9
	l-1.3,0.3c-0.1,0-0.1,0-0.1,0.1c0,0,0,0.1,0,0.3c0.1,0.2,0.2,0.5,0.4,0.7c0.2,0.3,0.4,0.3,0.4,0.3l1.2-0.4L163.3,79.6L163.3,79.6z"/>
	<path id="path167" class="HKG0" d="M169.6,83.2c0-0.1-0.1-0.1-0.1-0.1l-1-0.4h0v0l-0.9-3.3l-0.2,0.4c0.1,0.2,0.3,0.4,0.4,0.8l1.1,3.8
	c0.1,0.2,0.1,0.2,0.1,0.2h0c0,0,0.1,0,0.1-0.2l0.6-1.1C169.6,83.4,169.6,83.3,169.6,83.2L169.6,83.2z"/>
	<path
		id="path169"
		class="HKG0"
		d="M167.2,84.8l-1-0.5h0v0l-1.3-4.6l-0.3,0.4c0.2,0.2,0.4,0.6,0.4,0.9l0.5,1.8l0,0.1l-0.1,0l-4.1,1.2
	c-0.1,0-0.2,0-0.3,0c-0.1,0-0.1-0.1-0.1-0.2c0-0.1-0.1-0.6-0.2-1.6h-0.2c-0.1,1.1-0.4,1.7-1.1,2c0.6,1,1.1,1.5,1.8,1.2l4.7-1.4
	l0.1,0l0,0.1l0.6,1.9c0,0.1,0.1,0.1,0.1,0.1h0c0,0,0.1,0,0.1-0.1l0.6-1.1c0.1-0.1,0.1-0.1,0.1-0.2C167.3,84.8,167.3,84.8,167.2,84.8
	L167.2,84.8z"/>
	<polygon id="polygon171" class="HKG0" points="171.5,102.9 171.5,102.9 171.5,102.9 "/>
	<path
		id="path173"
		class="HKG0"
		d="M167.7,100.3l-0.1,0L167.7,100.3l0.5-0.5c0.1-0.1,0.1-0.1,0.1-0.1c0,0,0-0.1,0-0.1l-0.6-0.4
	l-0.1-0.1h0.2h2.4h0.1v0.1v1.4c0,0,0,0.1,0,0.1h0c0,0,0.1,0,0.1,0s1.1-1,1.1-1c0,0,0-0.1,0-0.1c0-0.1,0-0.1-0.1-0.1l-0.9-0.7l0,0v0
	v-3.4l-0.4,0.3c0.1,0.3,0.1,0.6,0.1,0.8v1.5v0.1H170h-5.6h-0.1v-0.1l-0.1-0.3l0-0.1h0.1h3.3c0.1,0,0.3,0.1,0.4,0.2
	c0.1,0.1,0.1,0.1,0.2,0.1s0.1,0,0.1,0l0.6-1.6c-0.2,0-1.1,0.1-1.1,0.1h-3.5h-0.1v-0.1L164,95c-0.3,0.1-1.4,0.6-1.4,0.6
	c-0.2,0.1-0.2,0.2-0.2,0.2c0,0,0,0.1,0.1,0.2c0.1,0.1,0.2,0.2,0.2,0.2c0,0,0.1,0.2,0.3,0.7c0.2,0.4,0.4,0.9,0.6,1.5l1.1,2.8l0.2-0.1
	l-0.4-1.9l0-0.1h0.1h2.6h0.1v0.1v1v0.1l-0.1,0c-0.6-0.2-1.2-0.4-1.9-0.7l-0.1,0.1c0.5,0.5,1.1,1,1.7,1.4l0,0v0v0v0.1h-0.1
	c-1.1,0.1-1.9,0.2-2.4,0.4h0l0,0c-1.4-1.1-2.4-2.4-3-3.9l-0.1,0.1c0.5,2.1,1.2,3.6,2.2,4.6l0.1,0.1l-0.1,0c-0.6,0.5-1.3,1.1-1.9,1.7
	c0.6,0.4,1,1,1,1.8l0.2,0.1c0.4-1.3,1-2.3,1.6-2.8l0,0l0,0c0.8,0.5,1.9,0.8,3.1,1l0,0l0,0c0.2,0.1,0.4,0.2,0.5,0.5l0,0l0,0
	c0,0.1,0.1,0.1,0.1,0.1c0,0,0.1,0,0.1-0.1l0.2-0.5l0,0h0h0.1h0.1v0.1v1.4c0,0.1,0,0.1,0.1,0.1c0,0,0.1,0,0.1-0.1l1.1-1.2
	c0.1-0.1,0.1-0.1,0.1-0.2s0-0.1-0.1-0.1l0,0l0,0l-0.9-0.7l0,0v0V102v-0.1l0.1,0c0.1,0,0.4,0.1,0.9,0.2c0.6,0.1,0.9,0.2,0.9,0.2
	c0.1,0,0.2,0.1,0.3,0.3c0.1,0.1,0.1,0.2,0.1,0.2c0.1,0,0.1,0,0.1-0.1l0.6-1.8C170.7,100.9,169.2,100.7,167.7,100.3L167.7,100.3z
	 M168.8,102.8c-1.3-0.1-2.4-0.2-3.1-0.4l-0.1,0l0.1-0.1c0.4-0.3,1-0.6,1.9-0.9h0h0c0.5,0.2,0.9,0.4,1.1,0.5l0,0v0L168.8,102.8
	L168.8,102.8L168.8,102.8L168.8,102.8z"/>
	<path id="polygon175" class="HKG0" d="M166.5,124.8L166.5,124.8L166.5,124.8z"/>
	<polygon id="polygon177" class="HKG0" points="158.4,123 158.4,123 158.4,123 "/>
	<path
		id="path179"
		class="HKG0"
		d="M168.5,116.1l-6.6-1.9c-0.2-0.1-0.4-0.3-0.4-0.6c0-0.1,0-0.1-0.1-0.1c-0.1,0-0.1,0-0.1,0l0,0l0,0
	l-1.1,0.7c-0.1,0-0.1,0.1-0.1,0.2c0,0.1,0,0.2,0.1,0.2l0,0l0,0l0.4,0.8v0v0l-2.2,7.7c0,0.1,0,0.1,0.1,0.1c0,0,0.1,0,0.1,0
	c0,0,1.2-0.7,1.2-0.7c0.1,0,0.1-0.1,0.1-0.1c0,0,0-0.1,0-0.1l-0.6-0.9l0,0v0l1.8-6l0-0.1l0.1,0l7.7,2.2l0.1,0l0,0.1l-2.1,7.3
	c0,0.1,0,0.1,0,0.1c0,0,0.1,0,0.1,0c0,0,1.2-0.8,1.2-0.8c0.1,0,0.1-0.1,0.1-0.1c0-0.1,0-0.1-0.1-0.2l-0.6-1l0,0v0l1.5-5.1l0,0l0,0
	l1.1-1.4C169.5,116.3,168.5,116.1,168.5,116.1L168.5,116.1z"/>
	<polygon id="rect181" class="HKG0" points="165.8,123.2 165.8,123.2 165.8,123.2 "/>
	<path
		id="path183"
		class="HKG0"
		d="M166.8,122.4c0-0.1,0-0.1,0-0.2l-0.4-0.8v0v0l0.4-1.6l0,0l0,0l1-1.3c-0.2-0.1-1-0.2-1-0.2
	l-0.9-0.3l-0.9-0.3c-0.1,0-0.1,0-0.1,0c0,0,0,0-0.1,0.1c0,0.1-0.1,0.3-0.1,0.7c0,0.2,0,0.6,0.2,0.6l0.1,0.1l0.1,0l0,0.1l-0.6,1.9
	l0,0.1l-0.1,0l-0.4-0.1c-0.1,0-0.1,0-0.1,0s-0.1,0.1-0.1,0.1c0,0.1,0,0.2,0,0.6s0.1,0.5,0.1,0.6c0,0.1,0.1,0.1,0.1,0.1l0.5,0.1
	l0.9,0.2h0v0l0.2,0.4c0,0.1,0.1,0.1,0.1,0.1s0.1,0,0.1,0c0,0,0.9-0.6,0.9-0.6C166.8,122.5,166.8,122.5,166.8,122.4L166.8,122.4z
	 M166.1,121.6L166.1,121.6l-1.3-0.4l-0.1,0l0-0.1l0.6-1.9l0-0.1l0.1,0l1.2,0.3l0.1,0l0,0.1L166.1,121.6L166.1,121.6L166.1,121.6z"/>
	<polygon id="polygon185" class="HKG0" points="162.6,123.4 162.6,123.4 162.6,123.4 "/>
	<path
		id="path187"
		class="HKG0"
		d="M163.1,121.9L163.1,121.9L163.1,121.9l0.1-0.5l0,0l0,0l0.9-1l-0.5-0.1l-0.1,0l0.1-0.1l0.8-0.7
	c0,0,0.1-0.1,0.1-0.1c0-0.1,0-0.1,0-0.1l0,0l0,0l-0.5-0.7l0,0v0l0.1-0.5v0l0,0l1.1-1.1c-0.2-0.1-1-0.3-1-0.3l-1.8-0.5l-1.3-0.4
	c-0.1,0-0.1,0-0.1,0c0,0-0.1,0.1-0.1,0.1c0,0.1-0.1,0.4-0.1,0.7c0,0.3,0.1,0.5,0.2,0.6l0.7,0.2l0.1,0l0,0.1l-0.1,0.5l0,0.1l-0.1,0
	l-0.3-0.1l-0.5-0.2c-0.1,0-0.1,0-0.1,0c0,0-0.1,0.1-0.1,0.1c0,0.1,0,0.2,0,0.6c0,0.4,0.1,0.5,0.1,0.6c0,0.1,0.1,0.1,0.1,0.1l0,0l0,0
	c0,0,1,0.2,1,0.2l1.5,0.4h0v0l0.1,0.4l0.1,0.1l-0.1,0l-1.9-0.6l-1.2-0.4c-0.1,0-0.1,0-0.1,0c0,0-0.1,0-0.1,0.1
	c0,0.1-0.1,0.3-0.1,0.5c0,0.2,0,0.4,0.1,0.5c0,0.1,0.1,0.2,0.1,0.2l0.5,0.2l0.1,0l0,0.1l-0.1,0.5l0,0.1l-0.1,0l-0.4-0.1
	c-0.1,0-0.1,0-0.2,0.1c0,0.1,0,0.2,0,0.6c0,0.4,0.1,0.5,0.1,0.6s0.1,0.1,0.1,0.1c0,0,0.7,0.2,0.8,0.2l1.3,0.4h0v0l0.1,0.3
	c0,0.1,0.1,0.1,0.1,0.1s0.1,0,0.1,0s1-0.7,1-0.7c0,0,0.1-0.1,0.1-0.1c0,0,0-0.1,0-0.1L163.1,121.9L163.1,121.9z M161.9,118
	L161.9,118L161.9,118l0.1-0.6l0-0.1l0.1,0l1.9,0.6l0.1,0l0,0.1l-0.1,0.5l0,0.1l-0.1,0L161.9,118L161.9,118z M163,121.3l-0.1,0.5
	l0,0.1l-0.1,0l-1.9-0.6l-0.1,0l0-0.1l0.1-0.5l0-0.1l0.1,0L163,121.3L163,121.3L163,121.3L163,121.3z"/>
</svg>
