<?xml version="1.0" encoding="utf-8"?>

<svg version="1.1" id="Layer_1" xmlns="http://www.w3.org/2000/svg" xmlns:xlink="http://www.w3.org/1999/xlink" x="0px" y="0px"
	 viewBox="0 0 200 200" style="enable-background:new 0 0 200 200;" xml:space="preserve">
<style type="text/css">
	.st0{fill:#1056A2;}
	.st1{fill:#EFBD17;}
</style>
<path class="st0" d="M115.6,104.8c2.8,0.5,3,1,2.1,4.5c-0.5,2.1-0.9,4.2-1.3,6.3c-0.1,0.9-0.3,1.2-1.3,0.9c-8.8-2.8-17.7-3.3-26.8-2
	c-2.9,0.4-5.7,1.1-8.5,2c-0.9,0.3-1.1,0.1-1.2-0.7c-0.5-3-1.1-5.9-1.7-8.9c-0.2-0.8-0.1-1.3,0.8-1.5c1.5-0.3,2-1.1,1.9-2.7
	c-0.1-7.9,0-15.7-0.1-23.6c0-1.1,0.3-1.4,1.4-1.4c11,0,22,0,33,0c1.2,0,1.4,0.4,1.4,1.5c0,8,0,15.9,0,23.9
	C115.5,103.6,115.6,104.2,115.6,104.8c-0.4,0-0.8-0.1-1.3-0.1c-11.1,0-22.3,0-33.4,0c-1,0-1.2,0.4-1.2,1.3c0.1,1.8,0.1,3.7,0,5.5
	c0,1,0.3,1.3,1.3,1.3c11,0,22.1,0,33.1,0c1,0,1.3-0.3,1.3-1.3C115.5,109.3,115.3,107,115.6,104.8z M113.3,91.3
	c0.1-2.8-0.2-5.5-1.3-8c-0.9-2.1-2.4-3.3-4.2-3.2c-2,0.1-3.3,1.4-3.9,3.2c-1.9,5.4-1.9,10.9,0.1,16.3c0.7,1.7,1.9,2.9,3.9,2.9
	c2,0,3.2-1.3,4-3C113,96.9,113.4,94.1,113.3,91.3z M98.8,91.3c0-1.5,0-3,0-4.5c0-0.2-0.1-0.5-0.1-0.5c-0.4,0-0.2,0.3-0.2,0.5
	c-0.2,1-0.1,2.1-0.6,3.1c-0.2,0.3-0.3,0.7-0.7,0.6c-0.5-0.1-0.3-0.5-0.3-0.8c0-2.3,0-4.5,0-6.8c0-0.6-0.2-1.3,0.7-1.5
	c0.8-0.1,1.5,0,1.9,0.7c0.4,0.8,0.7,1.6,1.1,2.5c0.1,0.2,0,0.5,0.4,0.5c0.1,0,0.2-0.3,0.2-0.5c0-1.3,0-2.6,0-3.9
	c0-0.5-0.2-0.7-0.7-0.7c-2.6,0-5.1,0-7.7,0c-0.3,0-0.6,0-0.6,0.4c0,0.3,0.3,0.4,0.5,0.4c0.9,0.2,1.1,0.8,1.1,1.6
	c0,5.9,0,11.9,0,17.8c0,0.8-0.3,1.3-1.1,1.5c-0.2,0-0.7,0-0.6,0.4c0,0.1,0.4,0.3,0.6,0.3c2.6,0,5.2,0,7.8,0c0.5,0,0.7-0.2,0.7-0.7
	c0-1.3,0-2.7,0-4c0-0.2-0.1-0.5-0.2-0.5c-0.3,0-0.3,0.3-0.3,0.5c-0.3,0.9-0.5,2-1.2,2.8c-0.5,0.6-1.1,0.8-1.9,0.6
	c-0.7-0.2-0.7-0.8-0.7-1.4c0-2.2,0-4.4,0-6.6c0-0.3-0.2-0.8,0.4-0.9c0.4-0.1,0.5,0.3,0.7,0.6c0.5,0.9,0.4,2,0.6,3
	c0,0.2-0.1,0.5,0.2,0.6c0.1-0.2,0.2-0.4,0.2-0.6C98.8,94.1,98.8,92.7,98.8,91.3z M86.1,102.3c0.9,0,1.7-0.1,2.6,0
	c1.5,0.2,1.9-0.5,2-1.8c0.1-1.8,0.4-3.5,0.6-5.3c0.1-0.4,0.4-1,0-1.1c-0.5-0.1-0.5,0.6-0.5,1c-0.1,1.8-0.6,3.5-1.7,5
	c-0.4,0.6-0.9,1-1.7,0.9c-0.8-0.2-0.8-1-0.8-1.7c0-5.5,0-11.1,0-16.6c0-1,0.2-1.7,1.3-1.9c0.2,0,0.3-0.2,0.4-0.2
	c-0.2-0.1-0.3-0.3-0.5-0.3c-1.8,0-3.7,0-5.5,0c-0.2,0-0.4,0.2-0.4,0.3c-0.1,0.2,0.2,0.3,0.4,0.3c1,0,1.2,0.8,1.3,1.6
	c0,5.9,0,11.8,0,17.6c0,0.7-0.1,1.5-1.1,1.6c-0.3,0-0.7-0.1-0.6,0.4c0.1,0.4,0.4,0.3,0.7,0.3C83.9,102.3,85,102.3,86.1,102.3z"/>
<path class="st0" d="M49.3,124.3c-0.7,0-1.4,0-2.2-0.1c-1.4-0.2-2.7-0.7-3-2.4c-0.5-2.7-2.3-4.7-3.7-6.9c-1.1-1.8,0-3.3-0.1-4.9
	c0-0.6,0.7-0.2,1.1-0.1c0.9,0.3,1.6,1.5,2.7,0.5c1.2-1.2,1.3-2.7,0.8-4.1c-0.5-1.5-1.4-2.9-1.7-4.6c0-0.3-0.5-0.6-0.8-0.8
	c-2.3-1.2-3.4-3.6-2.7-6.1c0.3-1.2,0.1-2-0.9-2.8c-1.1-0.8-2.1-1.7-2.2-3.2c0-0.4-0.3-1,0.3-1.3c0.5-0.2,0.8,0.2,1.1,0.5
	c0.3,0.3,0.6,0.7,0.9,0.4c0.3-0.3-0.4-0.4-0.6-0.6c-1.7-1.3-2-2.5-1.2-4.6c0.2-0.4-0.4-0.6-0.5-0.9c-0.7-1.3-1.7-2.5-0.3-4
	c0.5-0.6-0.2-1-0.4-1.4c-1.4-3.2,0.1-6.2,3.5-6.6c1.7-0.2,3.3,0.4,4.3,1.8c0.8,1.1,1.2,2.3,0.5,3.8c-0.5,1-1.2,1.5-2.2,1.4
	c-0.3,0-0.7,0-0.8,0.2c-0.1,0.4,0.3,0.5,0.6,0.7c1.2,0.6,2.1,1.4,3,2.3c0.2,0.2,0.7,0.6,0.6,0.2c-0.3-1,1-1.7,0.2-2.8
	c-0.4-0.6-0.8-1.8,0.6-2.4c0.4-0.2,0.2-0.7,0-1c-0.5-1.3-0.6-2.5,0.9-3.3c0.4-0.2,0.5-0.8,0.6-1.3c0.2-0.7,0.4-1.6,1.5-0.9
	c0.5,0.3,0.6-0.2,0.7-0.4c0.4-1.4,1-1.3,2-0.5c0.9,0.7,2,0.7,3.1,0.4c1.8-0.4,3.5-0.7,5.4,0.7c1.3,0.9,2.9,2.2,4.9,1.9
	c0.9-0.2,1.8,0.4,2.7,0.6c0.4,0.1,0.6,0.4,0.6,0.8c0,0.6,0,1.3,0,1.9c-0.1,2.3-0.7,2.7-2.8,1.8c-0.3-0.1-0.5-0.3-0.8-0.4
	c-0.4-0.1-1-0.2-1.2,0.2c-0.2,0.6,0.6,0.2,0.8,0.4c0.9,0.6,1.7,0.9,2.8,0.9c1.2-0.1,0.6,1,0.6,1.6c0,0.7-0.7,1.2-0.4,1.9
	c0.7-0.4,1-1.1,1.5-1.7c1.2-1.7,0.3-3.5,0-5.3c-0.2-1.5,1.7-3.4,2.9-2.6c0.7,0.4,1.3,1.5,2,2c1.4,1,0.2,1.6,0,2.4
	c-0.3,1.5-0.5,3.2,0.2,4.6c0.4,0.8,0.5,1.6-0.2,2.1c-2.2,1.6-3.4,4.1-5.4,5.9c-0.2,0.2-0.5,0.2-0.6,0.4c-0.4,0.6-0.4,1.3-0.1,1.8
	c0.4,0.5,1.2,0.3,1.7,0c1-0.6,1.4-1.5,1.5-2.6c0.2-1.9,1.9-3,3.8-2.6c0.7,0.2,0.6,0.7,0.9,1.2c1.1,2.2,1,2.7-0.8,4.5
	c-0.5,0.5-1.6,1.2-0.4,2.2c0.7,0.5-0.2,1-0.5,1.3c-1.5,1.1-3.2,1.7-5.1,1.6c-1.4-0.1-2.4,0.2-3.3,1.4c-1.1,1.5-2.9,2.3-4.8,2.7
	c-0.9,0.2-1.5,0.4-0.6,1.4c1,1.2,1,2.8,0.9,4.3c-0.1,1.8,1,2.6,2.6,1.9c2.7-1.1,3.5-0.8,4.9,1.6c0.3,0.6,0.3,0.9-0.3,1.5
	c-1.4,1.1-2.7,1.8-4.6,1.5c-1.9-0.3-3.8-0.1-5.8-0.2c-1.5,0-2-0.6-1.5-2.1c0.3-0.9,0.6-1.8-0.3-2.5c-0.7-0.6-1.3-0.4-2-0.1
	c-1,0.4-1.4,0.9-1.4,2.1c0.1,3.2-0.6,4-3.8,4.7c-1.4,0.3-2.3,1-2.1,2.6c0.4,2.2,1.4,3,3.2,2.7c2.6-0.5,3.1-0.1,3.8,1.7
	c0.6,1.5,0.1,2.3-1.3,2.5c-0.7,0.1-1.2,0.6-1.8,0.6C50.7,124.3,50,124.2,49.3,124.3C49.3,124.2,49.3,124.3,49.3,124.3z M37.5,79.1
	c-0.1-0.2-0.1-0.3-0.2-0.5c-0.1,0.1-0.2,0.1-0.2,0.2C37.1,79,37.2,79.3,37.5,79.1c0,1.1,0.9,1,1.6,1.1c0.1,0,0.2,0.1,0.3,0.2
	c0,0,0,0.1-0.1,0.1c-0.1,0-0.3,0-0.4,0C38.3,80.2,38.4,79.1,37.5,79.1z M72.2,73.6c-0.3,0-0.6,0-0.9,0.1c-0.5,0.1-0.2-0.8-0.6-0.5
	c-0.2,0.2-0.1,0.7-0.1,1.1c0,0.1,0.1,0.3,0.2,0.4c0.4,1.8,0.6,3.9-0.8,5.2c-1.9,1.8-2.6,3.7-2.1,6.2c0.1,0.3-0.3,0.8,0.1,1
	c0.2,0.1,0.7-0.2,1-0.5c1.3-1.5,2.2-3.4,3.9-4.5c0.1-0.1,0.1-0.3,0.2-0.5c0.4-2.1,0-4.2,0.2-6.3c0-0.2,0.1-0.5-0.3-0.4
	C71.9,74.9,71.9,74.9,72.2,73.6c0-0.1,0.1-0.1,0.2-0.1c0,0-0.1,0-0.1-0.1C72.3,73.5,72.3,73.5,72.2,73.6z M61.2,71
	c0.1,0.4,0.4,0.3,0.7,0.3c0,0,0.1-0.1,0.1-0.2C61.8,71.1,61.5,71,61.2,71c-0.1-0.7-0.7-0.4-1.1-0.5c-1.7-0.5-3,1.2-4.7,0.9
	c-1.1-0.2-0.8,0.4-0.5,1c0.2,0.3,0.4,0.6,0.7,0.8c1.4,1,1.4,2.2,0.4,3.4c-0.5,0.7-0.3,1.2,0.2,1.8c1.1,1.1,2.6,1.3,4,1.1
	c1.9-0.3,3.7-0.2,5.6,0c0.5,0.1,1,0.3,1.2-0.4c0.1-0.1,0.1-0.5,0-0.5c-0.4-0.2-0.8,0-1.2,0.2c-1.5,0.5-2.5,0-3.2-1.3
	c-0.6-1.1-0.2-2.1,0.6-2.9c1-1,2.1-0.3,3.2-0.1c0.4,0.1,0.8,1.4,1.2,0.2c0.3-0.8,0.5-1.9-0.7-2.3c-0.7-0.2-1.4-0.2-2.1-0.2
	c-0.6,0-1.2,0.1-1.7-0.3c-0.6-0.5-0.8-0.4-1.2,0.3c-0.7,1.1-1.7,0.4-2.6,0.2c-0.2,0-0.6-0.2-0.4-0.6c0.4-0.7,1.2-0.7,1.9-0.7
	C61,71.1,61.1,71,61.2,71z M58.1,87.5c0,0.1,0,0.1,0,0.2c0.1,0,0.1-0.1,0.2-0.1C58.2,87.5,58.1,87.5,58.1,87.5
	c-0.1-0.5-0.2-1-0.1-1.5c0-0.9,0.7-1.4,1.3-0.9c1.9,1.5,4.4,1.6,6.3,3c0.4,0.3,0.7,0.4,0.9-0.2c0.6-1.8,0.9-3.7-0.3-5.2
	c-1.3-1.7-3.1-2.6-5.3-2c-1.1,0.3-2.2,0.1-3.3-0.2c-2.1-0.6-3.5-2.4-2.7-3.8c1-1.6,0.5-2.5-0.8-3.5c-0.3-0.2-0.5-0.6-0.6-1
	c-0.2-1-0.3-2,1.3-1.8c0.7,0.1,1.3,0.1,2-0.3c0.5-0.3,1-0.5,1.5-0.8c-0.7-0.4-1.4-0.2-2.1,0c-1.5,0.4-3,0.7-4.5-0.1
	c-0.1-0.1-0.4-0.1-0.5,0c-0.3,0.2-0.1,0.5,0,0.8c0.3,0.4,0.5,0.7,0.1,1.1c-0.4,0.4-0.9,0.2-1.4,0.1c-0.4-0.1-0.7-0.8-1.1-0.2
	c-0.3,0.5,0.4,0.8,0.7,1.2c0.1,0.1,0.3,0.2,0.5,0.3c0.3,0.3,0.7,0.6,0.4,0.9c-0.1,0.2-0.6,0.3-0.9,0.3c-0.4,0-0.8-0.1-1.1-0.1
	c-0.4,0-0.7-0.6-1-0.2c-0.3,0.4,0.1,0.8,0.4,1.1c0.3,0.3,0.5,0.7,0.7,1c0.2,0.3,0.9,0.5,0.7,1c-0.2,0.5-0.8,0.6-1.3,0.6
	c-0.3,0-0.7-0.2-0.9,0.3c-0.1,0.4,0.3,0.7,0.5,0.9c0.2,0.2,0.4,0.3,0.6,0.4c0.4,0.3,0.9,0.5,0.7,1.1c-0.2,0.5-0.6,0.5-1.1,0.6
	c-1.2,0.1-0.7,0.6-0.3,1.1c0.6,0.8,1.6,0.8,2.4,1.2c0.7,0.3,1.4,0.8,0.4,1.4c-1.9,1.2-0.3,1.3,0.5,1.7c0.8,0.4,1.7,0.4,2.5,0
	c0.7-0.3,1.2-0.4,1.8,0.4C55.8,86.9,56.8,87.5,58.1,87.5z M51.2,89.3c0,3.6-0.8,4.9-3.8,6.8c-0.7,0.5-1.4,1-2,1.6
	c-0.5,0.4-0.7,1.3-1.5,1.1c-0.9-0.3-1.4-1.1-1.5-2.1c-0.4-2.5,0.9-4.3,2.1-6.2c2.8-4.3,1.8-8.5-2.7-11.1c-1.3-0.7-2.3-1.7-3.2-2.8
	c-1-1.2-0.9-2.8,0.2-3.6c0.8-0.6,1.7-0.6,2.5,0.1c0.5,0.4,0.7,0.9,0.2,1.5c-0.6,0.6-0.7,1.1,0.1,1.4c0.7,0.3,1.4,0.1,1.7-0.6
	c0.5-1.3,0.2-2.5-1-3.3c-1.4-1-3.5-1-4.7,0.1c-1.2,1-1.3,3-0.3,4.6c0.9,1.5,2.3,2.2,3.6,3.2c1.3,0.9,2.8,1.7,3.4,3.3
	c0.2,0.5,0.6,1,0,1.5c-0.7,0.6-1.1-0.2-1.6-0.5c-0.5-0.4-1-0.8-1.6-1.2C41,83,40.5,82.9,40.4,83c-0.3,0.4,0.1,0.6,0.4,0.7
	c1.6,0.8,2.5,2.1,3,3.8c0.1,0.4,0.2,0.8-0.2,1.1c-0.4,0.2-0.7,0-1-0.3c-1.2-0.9-2.3-1.9-3.7-2.4c-0.2-0.1-0.5-0.6-0.7-0.3
	s0.2,0.6,0.5,0.7c1.4,0.9,2.7,1.9,3.5,3.5c0.3,0.5,0.5,1-0.2,1.4c-0.5,0.3-1,0.5-1.3-0.2c-0.2-0.5-0.7-0.7-1.1-0.9
	C39.4,90,39,89.7,38.8,90c-0.2,0.3,0.1,0.5,0.4,0.7c1.6,1,1.9,2.4,1.6,4.2c-0.3,1.6-0.1,3.4,1.3,4.3c1.3,0.8,2.1,1.7,2.5,3.2
	c0.5,2,1.8,3.9,1.4,6.2c-0.2,1.4-0.7,2.6-2,3.2c-0.8,0.4-2-0.6-2.4,1.2c-0.1,0.6-0.4,0.9,0,1.5c1.1,1.6,2.4,3.2,2.9,5.1
	c0.9,3,1.4,3.5,4.6,3.7c1.5,0.1,2.2-1.2,3.4-1.5c0.3-0.1,1.1,0.7,0.9-0.4c-0.1-0.7-0.5-1.2-1.4-1c-0.5,0.1-1.1,0.1-1.6,0.3
	c-1.3,0.6-2.2,0.1-2.9-1.1c-0.3-0.5-0.6-1.1-0.9-1.6c-0.9-2.1,0.3-4.6,2.3-4.9c3-0.5,3.2-0.9,3.4-3.9c0.1-1.8-0.2-3.7,0.5-5.4
	c1.2-2.7,3.7-3.7,6.4-4.3c2-0.5,4-0.8,5.6-2.3c0.2-0.2,0.4-0.5,0.6-0.8c-0.3-0.3-0.6,0-0.9,0.1c-1.2,0.4-2.4,1-3.4,1.8
	c-0.6,0.5-1.4,0.9-1.7-0.4c-0.2-0.8-0.6-0.6-1.2-0.4c-1,0.4-1.8,0.3-1.5-1.1c0.2-0.9,0-1.2-0.9-0.8c-0.6,0.2-1.2,0.1-1.2-0.6
	c0-1.1,0.2-2.1,0.8-3c0.2-0.2,0.4-0.5,0.7-0.3c0.3,0.2,0.4,0.5,0.3,0.7c-0.5,1.1-0.7,1.7,1,1.9c0.6,0.1,0.7,2.2,2.3,1.6
	c0.5,1.7,1.3,0.8,2.2,0.3c0.8-0.4,1.8-0.7,2.7-1c1.8-0.7,3.7-0.5,5.6-0.5c1,0,2.3-0.1,2.4-1c0.3-1.4,1-2.5,1.7-3.6
	c0.3-0.5,0.6-0.7-0.1-1.1c-0.4-0.3-0.4-1.2-0.9-1.7c-0.4-0.3,1-0.6,0.2-0.8c-0.7-0.2-0.7,0.6-0.7,1.1c-0.4,3.1-1.7,4.1-4.9,4
	c-0.7,0-1.5,0-0.8-1.1c0.2-0.3,0.4-0.8-0.4-0.4c-0.2,0.1-0.7,0.1-0.8-0.1c-1.4-2-3.9-1.8-5.7-3c-0.2-0.1-0.5-0.5-0.7-0.1
	c-0.1,0.1,0.1,0.5,0.2,0.6c0.3,0.4,0.5,0.8,0.1,1.3c-0.3,0.4-0.6,0.5-1,0.3c-1.5-0.5-3.1-0.8-4.3-1.9c-1-0.8-2.1-0.3-3-0.2
	c-0.8,0.1-0.1,1.2-0.3,1.8C51.2,89,51.2,89.2,51.2,89.3z M63,111.1c1-0.2,2.5,0.7,2.8-1.1c0-0.1,0.3-0.2,0.4-0.2
	c0.7,0.2,1-0.4,1.3-0.8c0-0.1-0.3-0.5-0.6-0.7c-0.5-0.3-1.1-0.2-1.6,0.1c-0.9,0.6-2,1.3-3,0.5c-1.1-0.8-2.4-1.7-1.8-3.5
	c0.3-1,0-1.9-0.3-2.8c-0.3-0.9-1-1.9-2.1-1.8c-1.7,0-4.4,2.5-4.6,4.2c-0.2,1.3,0.1,1.7,1.4,1.1c1.8-0.7,4.1,0.8,3.6,2.5
	c-0.9,2.8,1,2.2,2.3,2.3C61.6,111.1,62.3,111.1,63,111.1z M43.3,95.7c0,0.6,0,1.3,0.5,1.5c0.5,0.3,0.8-0.5,1.1-0.7
	c0.6-0.4,1.1-1,1.7-1.3c2-1,3.1-2.6,3.5-4.8c0.4-2.2,0-4.2-2.3-5.3c-0.8-0.4-0.8-1.1,0-1.5c0.5-0.3,0.7-0.4,0-0.6
	c-0.5-0.2-1-0.5-1.5-0.8C46.3,83,46.8,83.5,47,84c0.1,0.2,0.1,0.5,0.1,0.7c0.5,3-1,5.5-2.6,7.8C43.9,93.5,43.3,94.5,43.3,95.7z
	 M38,83.2c-0.4,0-0.5,0.1-0.2,0.3c0.8,0.8,1.8,1.4,2.8,1.8c0.1,0,0.5,0,0.2-0.2C39.9,84.5,38.9,83.8,38,83.2z M39.9,74
	c0,0,0-0.2-0.2-0.1c-0.3,0.3-0.6,0.7-0.7,1c0,0.3,0.4,0.7,0.6,1C39.7,75.4,39.8,74.8,39.9,74z M37.8,81.3c-0.1-0.1-0.3,0.1-0.2,0.1
	c0.4,0.7,1.1,1.1,1.8,1.4c0.2,0.1,0.6-0.1,0.5-0.3C39.3,81.9,38.6,81.6,37.8,81.3z M40.2,89c-0.1,0-0.1,0.1-0.2,0.1c0,0-0.1,0-0.1,0
	c0-0.1,0-0.2,0.1-0.2C40,89,40.1,89,40.2,89z"/>
<path class="st0" d="M145.6,124.3c-1.2,0.4-2.6-0.3-3.9-0.7c-0.5-0.1-2,0-1.5-1.5c0.4-1.3,0.5-2.9,2.3-3.1c0.6-0.1,1.2,0.1,1.8,0.3
	c1.8,0.6,2.8-0.1,3.4-2.5c0.3-1.2-0.5-2.4-2-2.6c-1.8-0.3-3.4-0.8-4-2.7c-0.3-0.8-0.1-1.5-0.2-2.3c-0.1-1.1-1.5-2.4-2.6-2.1
	c-1.2,0.4-1.6,1.1-1.2,2.4c0.7,2,0.3,2.4-1.8,2.5c-2.4,0.1-4.8-0.1-7.2,0.3c-0.5,0.1-3.2-1.8-3.3-2.2c-0.3-1.2,2.4-3.5,3.7-3.1
	c3.8,1.2,3.8,1.2,4.1-2.9c0.1-1,0.3-2,0.9-2.8c0.7-0.9,0.3-1.1-0.5-1.3c-2.3-0.5-4.3-1.6-5.6-3.6c-0.5-0.7-1.4-0.6-2.1-0.6
	c-2,0.1-3.8-0.3-5.4-1.5c-0.6-0.5-1.5-1.1-0.2-1.8c0.5-0.3,0.1-0.4,0-0.7c-0.4-0.6-0.7-1.1-1.1-1.6c-1-1.3-1-3.7,0.1-4.9
	c0.6-0.7,3.4,0.1,3.7,1c0.2,0.6,0.3,1.3,0.5,2c0.3,1,0.7,2,1.9,2.1c0.4,0,1.1,0.4,1.3-0.2c0.2-0.6,0.4-1.4-0.3-1.8
	c-2.3-1.5-3.2-4.4-5.5-5.9c-0.7-0.5-0.8-1.4-0.3-2.5c0.5-1.4,0.7-3.2-0.1-4.7c-0.4-0.8-0.7-1.4,0.2-2.3c0.6-0.5,1.9-0.5,1.7-1.9
	c1.1-0.2,2.1,0.2,2.9,0.9c0.5,0.4,0.6,0.9,1.2,0c0.7-0.9,2-1,3.2-1c2.1,0,3.7-1.2,5.3-2.3c1.6-1.1,3.2-0.8,4.7-0.4
	c1.5,0.4,2.7,0.2,3.9-0.6c0.2-0.2,0.5-0.3,0.7-0.4c0.3,1.8,2.8,0.9,3.1,2.6c0,0.3,0.1,0.7,0.3,0.8c1.6,1,1,2.6,1.3,3.9
	c0.4,1.5,0.6,2.8,0.3,4.3c0,0.1,0.3,0.6,0.4,1c0.1,0.7,0.3,0.7,0.8,0.3c1-0.8,2-1.6,3-2.4c0.1-0.1,0.2-0.3,0.4-0.4
	c-0.2-0.1-0.3-0.2-0.5-0.2c-2,0.2-2.7-1-2.8-2.7c-0.1-1.7,1.3-3.6,3.1-4.1c1.9-0.5,3.6-0.2,4.9,1.4c1.3,1.6,1.2,3.3,0.4,5.1
	c-0.3,0.6-0.5,1,0.1,1.8c0.9,1.2,0,2.5-0.8,3.5c-0.3,0.5-0.5,0.5,0,1.2c0.7,0.9,0.2,2.1-0.5,3.1c-0.4,0.5-0.9,0.9-1.4,1.3
	c-0.3,0.3-0.7,0.5-1.1,0.8c0.7,0.2,1.1-0.2,1.6-0.5c0.4-0.3,0.7-1,1.3-0.6c0.6,0.4,0.4,1.2,0.2,1.7c-0.4,1.2-1.2,2.1-2.2,2.8
	c-0.8,0.6-1.1,1.4-0.9,2.4c0.6,2.8-0.2,4.8-2.6,6.5c-0.1,0.1-0.3,0.2-0.3,0.3c-0.5,2.4-2.3,4.3-2.2,6.9c0.1,2.4,1.2,3,3.3,1.9
	c0.7-0.4,1-0.4,1.4,0.7c1.1,3.5-1.5,5.6-2.6,8.3c-0.2,0.4-0.4,0.9-0.6,1.3C150.6,123.8,150.2,124.2,145.6,124.3z M127.2,80.8
	c0.3,0.3,0.5,0.7,1.1,0.5c0.1,0,0.1-0.2,0.2-0.3c-0.4,0-0.7-0.1-1.1-0.1C127.2,80.9,127.2,80.9,127.2,80.8c-0.2-0.7-0.4-1.5-0.7-2.3
	c-0.4-1.2,0-1.6,1.2-1.4c0.7,0.1,1.2-0.2,1.6-0.7c0.1,0,0.3-0.1,0.4-0.1c0.4-0.2,1.2,0.1,1.1-0.4c-0.1-0.6-0.9-0.2-1.4-0.2
	c-0.2,0-0.4,0.2-0.6,0.3c-2.4,0.7-2.7,0.5-2.7-2.1c0-0.3,0-0.6,0-0.9c0-0.1-0.1-0.2-0.2-0.3c-0.1,0.1-0.1,0.1-0.2,0.2
	C124.1,75.5,124.7,79,127.2,80.8z M132.7,71.2c-0.7,0.5-1.4,0.9-2.4,0.9c-0.9-0.1-1.7,0-2.6,0.4c-1.2,0.5-0.8,1.6-0.5,2.4
	c0.3,1,0.7-0.2,1.1-0.2c0.6,0,1.2-0.4,1.9-0.5c1.6-0.1,1.9,1.1,2.1,2.2c0.2,1-0.3,1.8-1.3,2.3c-0.8,0.3-1.6,0.5-2.5,0.1
	c-0.3-0.1-0.7-0.1-1,0c-0.2,0.1,0.1,0.4,0.2,0.6c0.2,0.4,0.5,0.4,0.9,0.3c1.7-0.3,3.3-0.4,5-0.2c1.3,0.2,2.7,0.3,4-0.4
	c0.9-0.5,1.9-1.2,1.1-2.5c-1-1.4-0.9-2.4,0.5-3.4c0.4-0.3,0.9-1.1,0.9-1.5c-0.1-0.4-0.9-0.1-1.4-0.2c-0.4-0.1-0.8-0.2-1.1-0.3
	C135.9,70.1,134.3,70.1,132.7,71.2L132.7,71.2z M136.7,87.5c1.3,0.1,2.3-0.5,3.1-1.4c0.6-0.7,1.1-0.7,1.7-0.4
	c1.3,0.7,2.5,0.2,3.7-0.3c0.4-0.2,0.9-0.6,0-1c-0.4-0.2-0.9-0.4-0.8-1.1c0.1-0.7,0.7-0.7,1.2-0.9c0.7-0.2,1.3-0.3,1.8-0.8
	c0.3-0.3,0.5-0.6,0.5-1c0-0.5-0.5-0.2-0.8-0.3c-0.4-0.1-0.8-0.1-0.9-0.6c-0.1-0.4,0.2-0.7,0.5-0.9c0.3-0.2,0.6-0.4,0.9-0.7
	c0.2-0.2,0.6-0.5,0.4-0.8c-0.1-0.3-0.5-0.2-0.8-0.2c-0.6,0-1.2,0-1.4-0.5c-0.3-0.6,0.5-0.8,0.8-1.2c0.4-0.6,1.3-1.3,1-1.9
	c-0.3-0.6-1,0.4-1.6,0.2c-0.2-0.1-0.5,0.1-0.7,0c-0.3,0-0.7,0-0.8-0.5c-0.1-0.4,0.2-0.5,0.4-0.7c0.3-0.2,0.6-0.4,0.8-0.6
	c0.2-0.3,0.7-0.5,0.4-1c-0.3-0.3-0.6,0.1-0.9,0.2c-0.5,0.2-1,0.3-1.5-0.1c-0.5-0.5-0.1-0.8,0.1-1.3c0.1-0.2,0-0.4-0.1-0.7
	c-0.2,0-0.4,0-0.5,0.1c-1.5,0.7-3,0.5-4.6,0.1c-0.5-0.2-1.1-0.2-1.7-0.2c-0.1,0-0.3,0.1-0.4,0.2c-0.1,0.2,0.1,0.2,0.2,0.2
	c1,0.2,1.7,1.1,2.8,0.9c0.6-0.1,1.3-0.4,1.6,0.4c0.3,0.7,0.1,1.4-0.4,2c-0.3,0.4-0.6,0.8-0.9,1.1c-0.7,0.6-1,1.1-0.3,2
	c0.9,1.2,0.6,2.3-0.4,3.3c-1.6,1.4-3.4,1.8-5.4,1.3c-2-0.4-3.7,0.3-5,1.8c-1.4,1.6-1.1,3.6-0.5,5.5c0.1,0.3,0.2,0.8,0.7,0.4
	c1.8-1.4,4.3-1.4,6.1-2.8c0.5-0.4,1-0.6,1.4-0.3c0.5,0.4,0.6,0.9,0.3,1.6C136.8,86.9,136.8,87.2,136.7,87.5c0,0.1-0.1,0.1-0.2,0.1
	c0.1,0,0.1,0,0.2,0.1C136.7,87.6,136.7,87.5,136.7,87.5z M157.3,81.4c-0.2,0-0.5-0.1-0.7,0c-1.5,0.9-3.2,1.6-4.3,3
	c-0.3,0.4-0.8,1-1.5,0.5c-0.7-0.5-0.2-1,0-1.5c0.4-1.1,1.1-1.8,2-2.4c1.2-0.9,2.5-1.8,3.7-2.7c2.6-2.1,2.5-5.6-0.3-6.7
	c-1.2-0.5-2.4-0.2-3.4,0.6c-1,0.8-1.3,1.7-1.1,2.9c0.1,0.6,0.5,0.9,1,1.1c0.4,0.1,0.8-0.1,1-0.5c0.3-0.4,0-0.7-0.3-1.1
	c-0.8-1,0-1.5,0.8-1.8c0.8-0.3,1.7-0.2,2.3,0.7c0.6,0.8,0.6,1.6,0.2,2.4c-1.1,2.1-3.1,3.1-4.8,4.5c-2.9,2.3-3.6,5.6-2,8.8
	c0.6,1.3,1.6,2.4,2.2,3.7c0.8,1.6,1.1,3.3,0.2,5c-0.7,1.3-1.4,1.3-2.4,0.2c-0.6-0.6-1.2-1.3-2-1.7c-3.2-1.5-4.3-4.1-4.1-7.5
	c0-0.6,0.5-1.6-0.3-1.8c-1-0.2-2.1-0.6-3.1,0.1c-1.2,0.8-2.5,1.4-3.9,1.7c-1.7,0.4-1.9,0.2-1.5-1.4c0.2-0.6,0-0.7-0.5-0.5
	c-3.5,0.9-4.8,1.8-6.8,4.4c-0.1,0.1-0.3,0.1-0.4,0.2c-1.9,0.7-4.1-0.2-5-2c-0.3-0.7-0.7-1.4-0.6-2.2c0-0.4-0.1-1-0.7-0.9
	c-0.7,0.2,0.2,0.4,0.1,0.7c0,0.2-0.1,0.4-0.3,0.6c-0.6,1-1.5,2-0.2,3.2c0.5,0.4,0.9,1.2,0.9,1.8c0,1.9,1.3,1.8,2.5,2
	c0.7,0.1,1.3,0,2,0c2.5-0.1,4.9,0.6,7,1.9c0.8,0.5,0.9,0,1.4-0.3c1-0.6,2.2-0.9,2.5-2.3c0,0,0.2-0.1,0.3-0.1c2.2,0.6,1-0.7,0.8-1.4
	c-0.1-0.4-0.3-0.7,0.2-1c0.5-0.2,0.8,0.2,0.9,0.5c0.3,0.7,0.5,1.5,0.7,2.3c0.3,0.9-0.2,1.3-1.1,1.1c-0.8-0.2-1.2-0.2-1,0.8
	c0.2,1.3-0.4,1.6-1.5,1.1c-0.5-0.2-1-0.4-1.1,0.3c-0.4,1.5-1.1,1-1.9,0.4c-1-0.8-2.2-1.3-3.4-1.7c-0.2-0.1-0.4-0.3-0.6,0
	c-0.1,0.1,0.1,0.4,0.2,0.5c0.8,0.7,1.7,1.2,2.7,1.6c1.9,0.8,4,0.8,5.9,1.7c2,1,4,2.3,4,4.8c0,1.9,0.6,3.7,0.6,5.7
	c0,1.5,1,2.2,2.4,2.3c2.5,0.2,3.6,1.6,3.2,4.2c-0.3,2.5-2,3.8-4.3,3.3c-0.4-0.1-0.8-0.1-1.1-0.3c-1.1-0.4-1.5,0.5-1.7,1.1
	c-0.3,1.2,0.7,0.2,1,0.4c0.4,0.2,1.2,0.1,1.4,0.4c1.2,1.9,2.8,0.8,4.3,0.7c0.7,0,1.4-0.3,1.5-1c0.7-2.8,2.2-5.2,3.7-7.7
	c0.2-0.3,0.3-0.6,0.1-0.9c-0.5-0.9-0.9-1.8-2.3-1.5c-0.8,0.1-1.4-0.7-1.8-1.5c-0.7-1.6-0.8-3.2-0.2-4.9c0.6-1.5,1.4-2.8,1.6-4.4
	c0-0.4,0.3-0.6,0.6-0.8c2.6-1.3,2.9-3.5,2.4-6c-0.2-1,0.1-1.9,0.8-2.6c0.4-0.5,1.6-0.9,1.2-1.4c-0.4-0.5-1.2,0.5-1.9,0.9
	c-0.3,0.2-0.6,0.8-1.1,0.3c-0.4-0.3-0.4-0.8-0.2-1.2c0.2-0.4,0.4-0.9,0.6-1.3c0.1-0.4,1-0.7,0.5-1.1c-0.6-0.5-0.8,0.3-1.2,0.6
	c-0.4,0.2-0.6,0.7-1.1,0.5c-0.5-0.3-0.3-0.9-0.2-1.3c0.4-1.6,1.4-2.7,2.6-3.6C155.1,82.9,156.6,82.6,157.3,81.4
	c0-0.1,0.1-0.1,0.1-0.2c0,0,0.3-0.1,0-0.1C157.5,81.1,157.4,81.3,157.3,81.4z M131.5,111.2c1.7-0.1,3.1-0.2,4.5-0.3
	c0.6,0,0.9-0.2,0.7-0.9c-0.7-3.2,0.9-4.7,3.9-3.7c0.8,0.3,0.8,0.1,0.8-0.6c0-2-2.6-4.9-4.6-5c-0.9,0-1.4,0.6-1.8,1.2
	c-0.8,1.2-0.7,2.5-0.6,3.9c0.2,2.2-1.8,3.8-3.9,3.1c-0.5-0.2-0.9-0.4-1.3-0.7c-0.6-0.4-1.2-0.2-1.6,0.5c-0.1,0.2-0.8,0.2-0.4,0.4
	c0.4,0.2,0.6,1,1.3,0.7c0.6-0.2,0.9,0.3,0.9,0.6c-0.2,0.8,0.4,0.6,0.7,0.6C130.7,111.2,131.2,111.2,131.5,111.2z M144.9,88.5
	c0.1,3.2,0.9,5.4,3.4,6.7c0.7,0.4,1.3,0.9,2,1.4c0.4,0.3,0.9,0.9,1,0.8c0.5-0.3,0.6-0.9,0.6-1.5c0.1-1.8-1.1-3.1-2-4.5
	c-1.5-2.4-2.6-4.9-1.4-7.8c0.1-0.4,0.2-0.8,0.3-1.2c-0.5-0.1-0.6,0.4-0.9,0.5c-0.7,0.5-0.9,0.7-0.8,0.7c2,1.1,0.2,1.8-0.4,2.2
	C145.1,86.5,144.8,87.7,144.9,88.5z M121.9,80.8c0,0.7,0,1.2,0.1,1.3c1.7,1.3,2.6,3.3,4.1,4.8c0.2,0.2,0.5,0.6,0.8,0.3
	c0.1-0.1,0-0.5,0-0.8c-0.1-0.8-0.2-1.6,0.1-2.3c0.5-1.2,0-1.8-0.8-2.5c-2.2-1.9-2.9-4.2-2-7c0.1-0.5,0.1-1,0.1-1.6
	c0-0.1-0.2-0.2-0.3-0.3c0,0.1,0,0.3,0,0.4c-0.1,1.4-1.2,0.2-1.3,0.4c-0.3,0.5,0.7,1.2-0.1,1.7c-0.1,0-0.3,0-0.4-0.1
	c-0.6-0.7-0.5-0.1-0.5,0.3C122.1,77.3,121,79.3,121.9,80.8z M154.6,85.3c0.9-0.5,1.8-0.8,2.4-1.7c0.1-0.1,0-0.2,0-0.3
	c-0.6,0.4-1.2,0.7-1.8,1.1c-0.2,0.1-0.5,0.3-0.7,0.5c-0.1,0.1-0.1,0.2-0.1,0.4C154.5,85.2,154.5,85.3,154.6,85.3z M155.4,75.9
	c0-0.4,0.6-0.7,0.4-1.1c-0.2-0.3-0.2-0.9-0.8-0.9c0,0.6,0.1,1.1,0.1,1.7C155.2,75.7,155.1,75.9,155.4,75.9z M156.9,85.7
	c-0.2-0.1-0.3-0.2-0.4-0.1c-0.5,0.5-1.4,0.4-1.7,1.1c0.2,0.1,0.4,0.2,0.6,0.2C156.1,86.8,156.4,86.2,156.9,85.7z M157.9,78.9
	c-0.1-0.1-0.1-0.4-0.3-0.2c-0.4,0.3-0.8,0.6-1.1,1c-0.2,0.2,0.2,0.3,0.3,0.2C157.3,79.7,157.6,79.3,157.9,78.9z"/>
<path class="st0" d="M90.3,76.6c-1.9,0.6-2.7-0.9-3.5-2.5c-1.8-3.5-2.5-7.1-0.2-10.6c1.2-1.8,2.6-2.4,4.6-1.8
	c0.7,0.2,0.9-0.1,1.2-0.6c1.1-1.7,2.5-3,4.7-3.2c2.3-0.2,3.9,1,5.1,2.7c0.6,0.9,1.1,1.2,2.2,0.8c1.2-0.4,2.3,0.1,3.1,1
	c2.7,2.7,3.4,6.6,1.4,10c-0.2,0.3-0.4,0.6-0.4,0.9c-0.8,2.7-2.5,3.6-5.2,3.1c-0.3-0.1-0.7,0.2-0.9-0.2c-0.2-0.3,0.1-0.6,0.3-0.9
	c1.4-2.1,3-4.1,3.7-6.6c0.5-1.7,0.9-3.4,0.1-5.2c-0.3-0.6-0.6-1.1-1.2-1.3c-1-0.2-1.9-0.3-1.5,1.3c0.7,2.4,0.4,4.7-0.9,6.9
	c-0.5,0.8-1.1,1.8-2.2,1.6c-1.1-0.2-1.5-1.3-1.6-2.3c-0.1-2.1-0.1-4.2,1.7-5.8c0,0,0.1-0.1,0.1-0.1c0.1-1.6-1.1-2.5-2-3.6
	c-0.6-0.7-1.3-1.3-2.4-0.6c-1.2,0.9-1.9,2.1-2.6,3.3c-0.2,0.3-0.1,0.6,0.3,1c1.6,1.5,2.1,5.1,1.1,7c-0.7,1.4-1.7,1.6-2.7,0.3
	c-1.8-2.2-2.2-4.7-1.6-7.5c0.1-0.5,1.1-1.2-0.1-1.6c-1.1-0.4-1.9,0.1-2.4,1.1c-0.9,1.8-0.6,3.7,0,5.6c0.7,2.4,2.2,4.3,3.6,6.3
	c0.9,1.4,0.3,1.3-0.8,1.2C91.2,76.5,90.9,76.6,90.3,76.6z M92.9,68.3c0.1,0.8,0.1,1.4,0.2,2.1c0.1,0.6,0.5,1.4,1.1,1.3
	c0.5-0.1,0.7-0.9,0.6-1.5c-0.1-0.7-0.2-1.3-0.4-2c-0.3-0.9-0.7-1.9-1-2.8C92.8,66.4,93.2,67.5,92.9,68.3z M102.1,68.5
	c-0.1-1-0.2-1.9-0.3-2.8c0-0.1-0.1-0.3-0.1-0.4c-0.1,0.1-0.2,0.1-0.2,0.2c-0.5,1.9-1.4,3.7-1.1,5.7c0,0.2,0.3,0.6,0.5,0.6
	c0.3,0.1,0.5-0.2,0.6-0.5C102,70.4,101.9,69.4,102.1,68.5z"/>
<path class="st0" d="M127.5,137.7c0,0.6-0.1,1.3,0,1.9c0.2,1.1-0.2,1.8-1.3,2.1c-4,1.2-9.9-0.4-10-6c-0.1-6.7,5.9-8.1,10.3-6.8
	c1,0.3,0.5,1.2,0.4,1.9c-0.1,0.7-0.8,0.5-1.2,0.3c-1.1-0.5-2.2-0.5-3.3-0.3c-2.4,0.4-3.7,2.6-3.4,5.3c0.3,2.2,2,3.6,4.5,3.6
	c1.1,0,1.4-0.5,1.3-1.5c-0.1-0.9,0.2-1.9-1.3-1.8c-0.7,0-1.6,0.3-1.6-1c0-1.3,0.7-1.3,1.6-1.2c0,0,0.1,0,0.1,0
	C127.5,134,127.5,134,127.5,137.7z"/>
<path class="st0" d="M139.5,135.1c-0.1-4.8,2.6-6.6,6.6-6.7c3.8-0.1,6.2,2.7,6.3,6.7c0.1,3.6-2.8,6.9-6.1,6.9
	C142,142,139.1,138.8,139.5,135.1z M142.3,135.1c-0.2,2.2,1.9,4.6,3.7,4.5c2.2-0.2,3.5-1.8,3.5-4.6c0-2.6-1.4-4.4-3.5-4.4
	C144,130.6,142.3,132.6,142.3,135.1z"/>
<path class="st0" d="M48.9,141.9c-3.4,0.3-6.4-3-6.3-6.8c0.1-4.1,2.5-6.8,6.4-6.8c3.8,0,6.2,2.7,6.4,6.8
	C55.6,138.5,52.6,142.4,48.9,141.9z M45.6,135c-0.1,2.6,1,4.2,3,4.6c1.8,0.3,3.3-0.7,3.9-2.9c0.4-1.5,0.2-3-0.5-4.3
	c-0.9-1.7-2.9-2.3-4.5-1.2C46,132,45.6,133.4,45.6,135z"/>
<path class="st0" d="M101.4,135.2c0-1.8,0-3.7,0-5.5c0-0.5-0.2-1.1,0.6-1c2.2,0.1,4.4-0.2,6.6,0.5c1.2,0.4,1.7,1.1,1.8,2.3
	c0.1,1.3,0.1,2.7-1.3,3.3c-0.8,0.3-0.8,0.7-0.3,1.2c1.2,1.4,1.5,3.2,2.3,4.9c0.4,0.8,0.1,1-0.8,1.1c-1.6,0.2-2.5-0.2-2.9-1.9
	c-0.2-1-0.7-1.9-1.1-2.8c-0.3-0.7-0.9-1-1.6-0.9c-0.9,0.1-0.6,0.9-0.6,1.4c0,0.9-0.1,1.8,0,2.7c0.1,1.2-0.4,1.5-1.6,1.5
	c-1,0-1.2-0.3-1.2-1.2C101.4,138.9,101.4,137,101.4,135.2z M104.1,132.4c0.1,0.7-0.4,1.8,1.1,1.6c1-0.1,2.3-0.1,2.3-1.6
	c0-1.6-1.3-1.6-2.3-1.7C103.8,130.7,104.2,131.7,104.1,132.4z"/>
<path class="st0" d="M129.3,135.1c0-1.8,0-3.6,0-5.4c0-0.8,0.1-1.2,1-1.1c1.6,0.1,3.3,0,4.9,0.1c1.4,0.1,2.5,0.9,2.9,2.2
	c0.4,1.4,0.2,2.7-1.1,3.6c-0.7,0.4-0.6,0.7-0.3,1.4c0.7,1.4,1.3,2.9,1.9,4.3c0.2,0.4,0.8,1.3,0,1.4c-0.8,0.1-2,0.7-2.6-0.5
	c-0.6-1.2-1-2.5-1.5-3.7c-0.3-0.9-0.9-1.4-1.8-1.3c-0.9,0.2-0.5,1-0.6,1.6c-0.1,0.8,0,1.5,0,2.3c0,0.9,0.1,1.7-1.4,1.7
	c-1.5,0-1.3-0.9-1.3-1.7C129.3,138.5,129.3,136.8,129.3,135.1z M132,132c0,1.1-0.3,2.2,1.1,2c1-0.1,2.3,0,2.3-1.6
	c0-1.5-1.2-1.5-2.3-1.6C131.9,130.7,131.9,131.6,132,132z"/>
<path class="st0" d="M75,128.7c1.1-0.2,1.7,0.1,2.2,1.3c1.2,3.5,2.6,6.8,4,10.3c0.2,0.5,0.8,1.4,0,1.5c-0.8,0.2-2.3,0.8-2.6-0.6
	c-0.6-2.7-2.4-2.8-4.6-2.7c-1.4,0-2,0.5-2.3,1.7c-0.2,0.7-0.2,1.6-1.4,1.7c-2,0.1-2.1,0-1.4-1.9c1.3-3.3,2.7-6.5,3.9-9.9
	C73.1,129,73.7,128.4,75,128.7z M74.9,136.5c1.9,0.5,1.8-0.5,1.2-1.8c-0.1-0.2-0.1-0.5-0.2-0.7c-0.3-0.6-0.8-1.8-1.1-1.8
	c-0.9,0.1-0.6,1.2-1,1.8c-0.1,0.2-0.2,0.5-0.3,0.7C73,136,73,136.9,74.9,136.5z"/>
<path class="st0" d="M164.4,134c-0.2,1.5,0.5,3.5-0.4,5.3c-0.9,1.9-2.4,2.9-6.2,2.6c-1.7-0.1-3.4-1.6-3.7-3.4
	c-0.6-3-0.2-6.1-0.2-9.2c0-1.1,1.1-0.5,1.7-0.6c0.6-0.1,1,0,1,0.8c0,2.3-0.1,4.5,0,6.8c0,1.2,0.2,2.4,1.4,3c1.8,0.9,3.6-0.2,3.7-2.3
	c0.1-2.4,0.1-4.7,0-7.1c0-1.2,0.5-1.2,1.4-1.2c0.9,0,1.5,0,1.4,1.2C164.3,131.1,164.4,132.4,164.4,134z"/>
<path class="st0" d="M33.5,135.1c0-1.8,0-3.6,0-5.3c0-0.8,0.3-1.1,1.1-1.1c1.9,0,3.9,0,5.8,0c0.8,0,0.9,0.4,0.9,1.1
	c0,0.7,0,1.3-1,1.2c-0.8,0-1.6,0.1-2.3,0c-1.7-0.2-1.9,0.6-1.8,2c0.1,0.7,0.3,0.9,0.9,0.9c0.8,0,1.5,0,2.3,0c0.7,0,1.4-0.1,1.4,1
	c0,1.2-0.6,1.2-1.4,1.1c-0.4,0-0.8,0-1.2,0c-1.8,0-2.7,1.3-2,3c0.2,0.4,0.5,0.4,0.8,0.4c0.9,0,1.8,0,2.7,0c0.9,0,1.5-0.1,1.5,1.2
	c0,1.2-0.5,1.4-1.5,1.3c-1.6-0.1-3.3-0.1-4.9,0c-1,0.1-1.4-0.4-1.4-1.3C33.5,138.8,33.5,136.9,33.5,135.1z"/>
<path class="st0" d="M92.1,135.2c0-1.8,0-3.6,0-5.3c0-0.9,0.2-1.3,1.2-1.2c1.8,0.1,3.7,0,5.5,0c0.7,0,1.2,0.1,1.2,1
	c0,0.8-0.2,1.3-1.1,1.2c-0.7,0-1.5,0.1-2.2,0c-1.4-0.2-1.8,0.4-1.7,1.8c0.1,0.9,0.2,1.2,1.1,1.1c0.8-0.1,1.5,0,2.3,0
	c0.8-0.1,1.1,0.2,1.1,1.1c0,0.8-0.3,1.2-1.1,1.1c-0.6,0-1.2,0.1-1.7,0c-1.3-0.2-1.7,0.3-1.7,1.6c0,1.5,0.4,2,1.9,1.8
	c0.6-0.1,1.2,0,1.9,0c0.8,0,1.4,0,1.4,1.1c0,1-0.2,1.5-1.4,1.4c-1.8-0.1-3.6-0.1-5.3,0c-0.8,0-1.1-0.2-1.1-1
	C92.1,139,92.1,137.1,92.1,135.2z"/>
<path class="st0" d="M61.2,135.1c0-1.8,0-3.7,0-5.5c0-0.5,0-1,0.7-1c1.8,0,3.6-0.2,5.3,0.3c1.9,0.6,2.9,2,2.8,3.9
	c-0.1,1.9-1.5,3.5-3.4,3.8C64,137,64,137,64,140c0,0.8,0.5,1.9-1.1,2c-1.3,0.1-1.7-0.3-1.6-1.6C61.3,138.6,61.2,136.9,61.2,135.1z
	 M63.9,132.7c0.2,0.7-0.5,1.9,1.1,1.8c1.2-0.1,2.1-0.5,2.1-1.8c0-1.4-1-1.8-2.1-1.8C63.4,130.7,64.1,132,63.9,132.7z"/>
<path class="st0" d="M82.3,135.2c0-1.8,0-3.7,0-5.5c0-0.8,0.2-1.1,1.1-1.1c1.7,0.1,3.4-0.2,5,0.4c1.8,0.6,2.8,2,2.7,3.7
	c-0.2,2.1-1.6,3.6-3.5,3.9c-2.5,0.3-2.4,0.3-2.5,2.8c0,0.8,0.5,2-0.6,2.4c-1.4,0.5-2.1,0-2.1-1.6C82.3,138.6,82.3,136.9,82.3,135.2z
	 M85,132.6c0.2,0.7-0.5,2,1.1,1.9c1.1,0,2-0.5,2.1-1.7c0.1-1.4-0.9-1.9-2.1-2C84.6,130.7,85.1,131.9,85,132.6z"/>
<path class="st0" d="M166.3,135.2c0-1.8,0-3.7,0-5.5c0-0.6,0-1.1,0.8-1.1c1.7,0,3.5-0.2,5.2,0.3c2.1,0.6,2.9,1.9,2.8,4.2
	c-0.1,1.7-1.5,3.1-3.3,3.5c-0.9,0.2-2.2-0.6-2.7,0.6c-0.3,0.8-0.2,1.9-0.1,2.9c0.2,1.4-0.3,2-1.8,1.8c-0.8-0.1-1-0.4-0.9-1.1
	C166.3,139,166.3,137.1,166.3,135.2z M169.9,130.8c-1-0.1-1.1,0.5-0.9,1.2c0.2,0.9-0.9,2.3,0.8,2.5c1.1,0.1,2.3-0.2,2.4-1.7
	C172.3,131.3,171.1,131,169.9,130.8z"/>
<path class="st0" d="M73.2,124.2c-0.8,0-0.7-0.2-0.4-0.7c0.6-1.1,0.9-2.2,1.6-3.2c0.6-0.9,0.3-1.3-0.5-1.8c-0.8-0.5-1.5-1-2.2-1.6
	c-0.2-0.2-0.7-0.2-0.5-0.5c0.1-0.2,0.4-0.4,0.6-0.5c1.6-0.5,3.3-1,4.9-1.5c0.6-0.2,1.1,0,1.1,0.8c0.1,0.9,0.4,1.8,0.5,2.7
	c0.1,0.9,0.8,1.1,1.5,1.3c1.2,0.4,2.4,0.7,3.5,1.1c0.2,0.1,0.3,0.2,0.4,0.3c-0.1,0.1-0.2,0.2-0.3,0.2C80,122,76.6,123.1,73.2,124.2z
	"/>
<path class="st0" d="M118.3,114.4c1.7,0.5,3.5,1,5.2,1.6c0.5,0.2,0.5,0.5,0,0.8c-0.9,0.6-1.7,1.2-2.6,1.8c-0.7,0.5-0.8,0.9-0.4,1.6
	c0.6,1,1.1,2.1,1.6,3.2c0.1,0.2,0.4,0.4,0.2,0.6c-0.1,0.1-0.5,0.1-0.7,0.1c-3.3-1.1-6.6-2.2-9.9-3.2c-0.1,0-0.2-0.1-0.3-0.2
	c0.1-0.1,0.3-0.2,0.4-0.3c0.4-0.2,0.8-0.4,1.2-0.5c3.7-0.9,3.7-0.9,4.4-4.5C117.5,114.4,117.5,114.4,118.3,114.4z"/>
<path class="st0" d="M25,135.2c0-1.9,0.1-3.8,0-5.6c0-1.1,0.6-1,1.3-0.9c0.7,0,1.5-0.3,1.5,1c-0.1,2.9,0,5.8,0,8.7
	c0,0.8,0.2,1.1,1,1.1c0.9-0.1,1.7,0,2.6,0c0.9,0,1.5,0.1,1.4,1.2c0,1.1-0.5,1.4-1.5,1.3c-1.7-0.1-3.5-0.1-5.2,0
	c-0.8,0-1.1-0.2-1.1-1C25.1,139,25,137.1,25,135.2z"/>
<path class="st0" d="M154.1,119.7c0-2.7,1.9-4.5,4.7-4.5c2.6,0,4.6,2,4.6,4.6c0,2.5-2.1,4.6-4.7,4.6
	C156.1,124.4,154.1,122.4,154.1,119.7z M158.6,123.4c2.1,0.2,3.6-1.9,3.7-3.5c0.1-1.9-1.4-3.6-3.4-3.7c-2-0.1-3.7,1.4-3.8,3.3
	C155,121.5,156.6,123.3,158.6,123.4z"/>
<path class="st0" d="M84.3,119.7c-1.7-0.5-3.1-0.9-4.5-1.3c-0.2-0.1-0.4-0.4-0.6-0.5c0.2-0.2,0.4-0.5,0.6-0.6c1.1-0.4,2.3-0.7,3.4-1
	c0.5-0.1,0.7,0.1,0.9,0.5c0.2,0.7,0.4,1.4,0.5,2.1C84.8,119.5,84.7,119.9,84.3,119.7z"/>
<path class="st0" d="M111.2,119.6c-0.3,0-0.5,0.1-0.6,0c-0.5-1,0.4-1.8,0.4-2.7c0-0.4,0.3-0.7,0.8-0.5c1.1,0.3,2.3,0.6,3.4,1
	c0.2,0.1,0.5,0.3,0.6,0.6c0,0.1-0.2,0.4-0.4,0.5C113.9,118.8,112.5,119.2,111.2,119.6z"/>
<path class="st1" d="M115.6,104.8c-0.4,2.2-0.1,4.4-0.1,6.6c0,1-0.3,1.3-1.3,1.3c-11,0-22.1,0-33.1,0c-1,0-1.3-0.3-1.3-1.3
	c0.1-1.8,0.1-3.7,0-5.5c0-0.9,0.2-1.3,1.2-1.3c11.1,0,22.3,0,33.4,0C114.8,104.7,115.2,104.8,115.6,104.8
	C115.6,104.9,115.6,104.8,115.6,104.8z M91.9,111.5c0,0,0.7,0.3,0.8-0.4c0.1-0.4-0.3-0.4-0.6-0.4c-0.5,0-1,0.1-1-0.7
	c0-0.7,0.3-1,0.9-0.9c0.3,0,0.4-0.2,0.5-0.4c0-0.3-0.1-0.5-0.4-0.5c-0.6,0-1-0.1-1-0.9c0-0.7,0.5-0.7,1-0.7c0.2,0,0.5-0.2,0.5-0.3
	c0-0.4-0.4-0.4-0.6-0.4c-1.3,0.1-2.6,0.6-4,0c-0.6-0.2-0.7,0.4-0.7,0.8c0,0.7,0,1.4,0,2c0,0.4,0.1,1-0.4,1.1c-0.5,0-0.5-0.5-0.6-1
	c-0.1-0.8-0.3-1.6-0.5-2.3c-0.1-0.3-0.2-0.6-0.6-0.5c-0.3,0-0.5,0.3-0.5,0.6c-0.3,1.4-0.7,2.8-1,4.2c0,0.2,0,0.6,0.1,0.6
	c0.3,0.2,0.4-0.2,0.5-0.3c0.6-1,1.2-1.1,1.9,0c0.4,0.7,1.7,0.5,1.7,0c0.1-1.1,0.7-1.4,1.5-1.9c0.3-0.2,0.5-0.5,0.7-0.8
	c0.3,0.4,0.2,0.9,0.2,1.4C90.4,110.6,90,111.8,91.9,111.5z M101.4,108.7C101.4,108.7,101.4,108.7,101.4,108.7c0,0.5,0,1.1,0,1.6
	c0,0.4-0.3,1,0.3,1.1c0.6,0,0.4-0.6,0.5-1c0-0.3-0.1-0.6,0.3-0.7c0.1,0,0.4,0.2,0.4,0.3c0.4,1.2,1.2,1.6,2.5,1.7
	c1.2,0.1,1.9-0.2,2.1-1.3c0.2-1,0.2-2,0.1-3c-0.1-0.7-0.5-1.2-1.2-1.4c-0.6-0.2-1.2,0-1.5,0.6c-0.3,0.7-0.4,0.5-0.8,0
	c-0.6-0.7-1.4-0.7-2.1-0.5c-0.8,0.2-0.3,1.1-0.4,1.6C101.4,108,101.4,108.3,101.4,108.7z M93.5,108.7c0,0.6,0,1.3,0,1.9
	c0,0.3-0.2,0.9,0.3,0.9c0.4,0,0.4-0.4,0.4-0.8c0-0.3-0.1-0.8,0.2-0.9c0.4-0.1,0.5,0.5,0.7,0.8c0.1,0.1,0.1,0.4,0.3,0.5
	c0.2,0.2,0.4,0.7,0.8,0.4c0.5-0.3,0-0.7-0.1-0.8c-0.6-0.9-0.6-1.8-0.1-2.8c0.3-0.5,0.3-1.1-0.3-1.6c-0.6-0.4-1.3-0.5-1.9-0.3
	c-0.7,0.2-0.3,0.9-0.4,1.4C93.5,107.8,93.5,108.2,93.5,108.7z M100.9,110.3c-0.3-0.4,0.5-1.5-0.7-1.4c-1.4,0.2,0.1,0.8-0.1,1.3
	c-0.1,0.3-0.1,0.5-0.4,0.7c-0.2,0.1-0.4,0-0.6-0.2c-1-1.2-0.3-3.6,1.2-3.9c0.3-0.1,0.6-0.1,0.6-0.5c0-0.4-0.3-0.4-0.6-0.4
	c-0.5-0.1-1.1,0-1.5,0.4c-1.2,1.1-1.3,4,0,5c0.5,0.4,1.1,0.6,1.8,0.4C101.2,111.4,100.8,110.8,100.9,110.3z M110.9,108.5
	C111,108.5,111,108.5,110.9,108.5c0-0.5,0.1-1,0-1.4c0-0.4,0.2-1-0.3-0.9c-0.4,0-0.3,0.6-0.3,1c0,0.9,0,1.7,0,2.6
	c0,0.6-0.1,1.2-0.9,1.2c-0.8,0-0.9-0.6-0.9-1.2c0-1,0-2,0-3c0-0.3-0.1-0.6-0.5-0.6c-0.3,0-0.3,0.3-0.3,0.5c0,1.3,0,2.6,0.1,3.9
	c0.1,0.9,0.7,1.2,1.5,1.2c0.8,0,1.4-0.3,1.5-1.2C111,109.8,110.9,109.1,110.9,108.5z M111.3,108.6
	C111.3,108.6,111.3,108.6,111.3,108.6c0.1,0.8,0,1.5,0.1,2.3c0,0.2,0,0.5,0.3,0.5c0.1,0,0.4-0.2,0.4-0.4c-0.1-1,0.5-1.3,1.3-1.7
	c1.1-0.5,1.1-1.7,0.8-2.6c-0.3-0.9-1.3-0.9-2.1-0.8c-1.3,0.2-0.5,1.2-0.7,1.8C111.2,108.1,111.3,108.4,111.3,108.6z M80.9,108.7
	C80.9,108.7,80.9,108.7,80.9,108.7c0,0.8,0,1.5,0,2.3c0,0.1,0.2,0.3,0.3,0.4c0.1-0.1,0.3-0.2,0.2-0.3c-0.4-1.5,1.1-1.4,1.7-2
	c0.8-0.7,0.8-1.7,0.4-2.5c-0.4-0.9-1.4-0.7-2.2-0.6c-1,0.1-0.5,1.1-0.6,1.6C80.9,108,80.9,108.4,80.9,108.7z"/>
<path class="st1" d="M113.3,91.3c0.1,2.8-0.3,5.6-1.4,8.2c-0.8,1.8-1.9,3-4,3c-2,0-3.2-1.2-3.9-2.9c-2.1-5.4-2.1-10.9-0.1-16.3
	c0.6-1.8,1.9-3.1,3.9-3.2c1.8-0.1,3.2,1.1,4.2,3.2C113.1,85.8,113.4,88.5,113.3,91.3z M109.9,91.1c-0.1-2.6,0.4-5.6-1-8.3
	c-0.3-0.5-0.1-1.5-1.1-1.4c-1,0.1-1.2,0.9-1.3,1.7c-1.1,5.3-1,10.7-0.1,16c0.1,0.9,0.3,2.1,1.4,2c1.1,0,1.1-1.4,1.7-2.1
	c0.1-0.1,0-0.4,0.1-0.6C110.1,96.1,109.9,93.8,109.9,91.1z"/>
<path class="st1" d="M98.8,91.3c0,1.4,0,2.8,0,4.2c0,0.2-0.1,0.4-0.2,0.6c-0.3-0.1-0.2-0.4-0.2-0.6c-0.2-1-0.1-2-0.6-3
	c-0.2-0.3-0.3-0.7-0.7-0.6c-0.6,0.1-0.4,0.6-0.4,0.9c0,2.2,0,4.4,0,6.6c0,0.6,0,1.2,0.7,1.4c0.8,0.2,1.4,0,1.9-0.6
	c0.7-0.8,0.8-1.8,1.2-2.8c0.1-0.2,0-0.5,0.3-0.5c0.1,0,0.2,0.3,0.2,0.5c0,1.3,0,2.7,0,4c0,0.5-0.2,0.7-0.7,0.7c-2.6,0-5.2,0-7.8,0
	c-0.2,0-0.6-0.2-0.6-0.3c-0.1-0.4,0.4-0.3,0.6-0.4c0.8-0.2,1.1-0.7,1.1-1.5c0-5.9,0-11.9,0-17.8c0-0.8-0.2-1.4-1.1-1.6
	c-0.2,0-0.5-0.1-0.5-0.4c0-0.4,0.3-0.4,0.6-0.4c2.6,0,5.1,0,7.7,0c0.5,0,0.7,0.2,0.7,0.7c0,1.3,0,2.6,0,3.9c0,0.2-0.1,0.5-0.2,0.5
	c-0.3,0-0.3-0.3-0.4-0.5c-0.4-0.8-0.7-1.7-1.1-2.5c-0.4-0.7-1.1-0.8-1.9-0.7c-0.9,0.2-0.7,0.9-0.7,1.5c0,2.3,0,4.5,0,6.8
	c0,0.3-0.1,0.7,0.3,0.8c0.4,0.1,0.5-0.3,0.7-0.6c0.6-1,0.4-2.1,0.6-3.1c0-0.2-0.2-0.5,0.2-0.5c0,0,0.1,0.3,0.1,0.5
	C98.8,88.3,98.8,89.8,98.8,91.3z"/>
<path class="st1" d="M86.1,102.3c-1.1,0-2.2,0-3.3,0c-0.3,0-0.7,0.1-0.7-0.3c-0.1-0.4,0.3-0.3,0.6-0.4c1-0.1,1.1-0.9,1.1-1.6
	c0-5.9,0-11.8,0-17.6c0-0.8-0.2-1.6-1.3-1.6c-0.2,0-0.4-0.1-0.4-0.3c0-0.1,0.3-0.3,0.4-0.3c1.8,0,3.7,0,5.5,0c0.2,0,0.3,0.2,0.5,0.3
	c-0.1,0.1-0.3,0.2-0.4,0.2c-1.1,0.2-1.3,1-1.3,1.9c0,5.5,0,11.1,0,16.6c0,0.7,0,1.5,0.8,1.7c0.7,0.2,1.3-0.3,1.7-0.9
	c1-1.5,1.5-3.2,1.7-5c0-0.4,0-1.1,0.5-1c0.4,0.1,0,0.7,0,1.1c-0.3,1.8-0.5,3.5-0.6,5.3c-0.1,1.4-0.5,2-2,1.8
	C87.9,102.2,87,102.3,86.1,102.3z"/>
<path class="st0" d="M91.9,111.5c-2,0.3-1.6-0.9-1.6-1.7c0-0.5,0.1-0.9-0.2-1.4c-0.2,0.3-0.4,0.6-0.7,0.8c-0.8,0.4-1.3,0.8-1.5,1.9
	c-0.1,0.5-1.3,0.7-1.7,0c-0.7-1.2-1.3-1-1.9,0c-0.1,0.2-0.2,0.5-0.5,0.3c-0.1-0.1-0.2-0.4-0.1-0.6c0.3-1.4,0.7-2.8,1-4.2
	c0.1-0.3,0.2-0.5,0.5-0.6c0.4,0,0.5,0.3,0.6,0.5c0.2,0.8,0.4,1.6,0.5,2.3c0.1,0.5,0.1,1,0.6,1c0.6,0,0.4-0.7,0.4-1.1
	c0-0.7,0-1.3,0-2c0-0.5,0.1-1.1,0.7-0.8c1.4,0.6,2.7,0.1,4,0c0.3,0,0.6,0,0.6,0.4c0,0.1-0.3,0.3-0.5,0.3c-0.5,0.1-1,0-1,0.7
	c0,0.8,0.4,0.9,1,0.9c0.3,0,0.4,0.2,0.4,0.5c0,0.3-0.2,0.5-0.5,0.4c-0.7,0-0.9,0.2-0.9,0.9c0,0.8,0.5,0.7,1,0.7c0.3,0,0.7,0,0.6,0.4
	C92.6,111.8,92,111.5,91.9,111.5z M88.1,107.8c0.1,0.4-0.2,1,0.5,1c0.8,0,0.7-0.7,0.8-1.3c0.1-0.5-0.2-0.8-0.7-0.8
	C87.9,106.8,88.1,107.4,88.1,107.8z"/>
<path class="st0" d="M101.4,108.7c0-0.4-0.1-0.8,0-1.2c0.1-0.6-0.4-1.4,0.4-1.6c0.7-0.2,1.6-0.2,2.1,0.5c0.4,0.4,0.5,0.6,0.8,0
	c0.3-0.6,0.8-0.8,1.5-0.6c0.7,0.2,1.1,0.7,1.2,1.4c0.1,1,0.2,2-0.1,3c-0.3,1.1-0.9,1.5-2.1,1.3c-1.2-0.1-2.1-0.5-2.5-1.7
	c0-0.1-0.3-0.3-0.4-0.3c-0.3,0.1-0.2,0.5-0.3,0.7c-0.1,0.4,0.1,1.1-0.5,1c-0.5,0-0.2-0.7-0.3-1.1
	C101.4,109.8,101.4,109.3,101.4,108.7C101.4,108.7,101.4,108.7,101.4,108.7z M105,108.7c0.2,0.7-0.3,1.9,0.9,1.9
	c1,0,0.9-1.1,0.9-1.9c0-0.8,0.1-1.9-0.9-1.9C104.8,106.8,105.2,108,105,108.7z M103.3,107.6c0-0.6-0.1-0.8-0.6-0.8
	c-0.6,0-0.5,0.4-0.5,0.8c0,0.3,0,0.7,0.5,0.7C103.2,108.2,103.3,107.8,103.3,107.6z"/>
<path class="st0" d="M93.5,108.7c0-0.4,0-0.9,0-1.3c0.1-0.5-0.3-1.2,0.4-1.4c0.6-0.2,1.3-0.1,1.9,0.3c0.6,0.4,0.6,1.1,0.3,1.6
	c-0.5,1-0.5,1.8,0.1,2.8c0.1,0.2,0.6,0.6,0.1,0.8c-0.4,0.2-0.6-0.2-0.8-0.4c-0.1-0.1-0.1-0.4-0.3-0.5c-0.3-0.3-0.3-0.9-0.7-0.8
	c-0.3,0.1-0.2,0.6-0.2,0.9c0,0.3,0,0.8-0.4,0.8c-0.5,0-0.3-0.6-0.3-0.9C93.5,109.9,93.5,109.3,93.5,108.7z"/>
<path class="st0" d="M100.9,110.3c-0.2,0.5,0.3,1.1-0.4,1.3c-0.6,0.2-1.3,0-1.8-0.4c-1.3-1-1.2-3.9,0-5c0.4-0.4,0.9-0.5,1.5-0.4
	c0.3,0,0.6,0,0.6,0.4c0,0.4-0.3,0.4-0.6,0.5c-1.5,0.3-2.2,2.8-1.2,3.9c0.2,0.2,0.4,0.3,0.6,0.2c0.3-0.2,0.3-0.4,0.4-0.7
	c0.2-0.4-1.3-1.1,0.1-1.3C101.5,108.8,100.6,109.9,100.9,110.3z"/>
<path class="st0" d="M110.9,108.5c0,0.7,0.1,1.4,0,2c-0.1,0.8-0.7,1.2-1.5,1.2c-0.8,0-1.5-0.3-1.5-1.2c-0.1-1.3-0.1-2.6-0.1-3.9
	c0-0.2,0-0.5,0.3-0.5c0.4,0,0.5,0.3,0.5,0.6c0,1,0,2,0,3c0,0.7,0.1,1.2,0.9,1.2c0.8,0,0.9-0.6,0.9-1.2c0-0.9,0-1.7,0-2.6
	c0-0.4-0.2-1,0.3-1c0.5,0,0.3,0.6,0.3,0.9C111,107.5,111,108,110.9,108.5C111,108.5,111,108.5,110.9,108.5z"/>
<path class="st0" d="M111.3,108.6c0-0.3-0.1-0.6,0-0.9c0.2-0.6-0.6-1.7,0.7-1.8c0.8-0.1,1.8-0.1,2.1,0.8c0.3,1,0.3,2.1-0.8,2.6
	c-0.8,0.4-1.4,0.7-1.3,1.7c0,0.1-0.2,0.4-0.4,0.4c-0.3,0-0.3-0.3-0.3-0.5C111.3,110.2,111.3,109.4,111.3,108.6
	C111.3,108.6,111.3,108.6,111.3,108.6z M112.1,107.9c0.1,0.3-0.1,0.9,0.5,1c0.8,0,0.7-0.7,0.9-1.2c0.1-0.5-0.2-0.8-0.7-0.9
	C111.9,106.7,112.2,107.4,112.1,107.9z"/>
<path class="st0" d="M80.9,108.7c0-0.3-0.1-0.7,0-1c0.1-0.6-0.4-1.5,0.6-1.6c0.8-0.1,1.8-0.3,2.2,0.6c0.3,0.8,0.4,1.7-0.4,2.5
	c-0.6,0.6-2.1,0.5-1.7,2c0,0.1-0.2,0.2-0.2,0.3c-0.1-0.1-0.3-0.3-0.3-0.4C80.9,110.2,80.9,109.5,80.9,108.7
	C80.9,108.7,80.9,108.7,80.9,108.7z M82.3,106.8c-0.4,0-0.8,0-0.5,0.6c0.2,0.5-0.5,1.4,0.5,1.4c0.8,0.1,0.7-0.7,0.7-1.2
	C83.1,107.2,82.9,106.7,82.3,106.8z"/>
<path class="st0" d="M109.9,91.1c0,2.7,0.1,5-0.4,7.4c0,0.2,0,0.4-0.1,0.6c-0.5,0.7-0.6,2.1-1.7,2.1c-1.1,0-1.3-1.2-1.4-2
	c-0.9-5.3-0.9-10.7,0.1-16c0.1-0.7,0.4-1.6,1.3-1.7c1-0.1,0.8,0.9,1.1,1.4C110.3,85.6,109.8,88.5,109.9,91.1z"/>
<path class="st0" d="M132.7,71.3c0.9,0.2,1.8-0.4,2.7,0.1c0.3,0.2,0.6,0.4,0.6,0.7c0,0.2-0.4,0.4-0.7,0.4
	C133.6,73.1,132.9,72.7,132.7,71.3C132.7,71.2,132.7,71.3,132.7,71.3z"/>
<path class="st0" d="M156.7,119.7c0-0.2,0-0.4,0-0.6c0.1-0.6-0.4-1.6,0.4-1.8c1.1-0.2,2.3-0.5,3.3,0.3c0.2,0.2,0.4,0.5,0.4,0.7
	c-0.3,1.2-0.2,2.4,0,3.5c0.1,0.3-0.2,0.4-0.4,0.4c-0.4,0-0.7-0.1-0.6-0.5c0-0.8-0.3-1.3-1.2-1.3c-0.9,0-0.5,0.8-0.5,1.2
	c-0.1,0.4-0.2,0.6-0.6,0.6c-0.4,0-0.6-0.2-0.7-0.6C156.7,121,156.7,120.4,156.7,119.7C156.7,119.7,156.7,119.7,156.7,119.7z
	 M159.5,118.8c-0.1-0.6-0.6-0.6-1-0.6c-0.5,0-0.5,0.2-0.5,0.6c0,0.5,0.2,0.7,0.7,0.7C159.1,119.5,159.4,119.2,159.5,118.8z"/>
<path class="st1" d="M88.1,107.8c0.1-0.4-0.2-1,0.6-1.1c0.5,0,0.8,0.3,0.7,0.8c-0.1,0.5,0,1.3-0.8,1.3
	C87.9,108.8,88.1,108.2,88.1,107.8z"/>
<path class="st1" d="M105,108.7c0.2-0.7-0.3-1.9,0.9-1.9c1,0,0.9,1.1,0.9,1.9c0,0.8,0.1,1.9-0.9,1.9
	C104.8,110.7,105.2,109.4,105,108.7z"/>
<path class="st1" d="M103.3,107.6c0,0.2-0.1,0.6-0.6,0.7c-0.5,0-0.5-0.4-0.5-0.7c0-0.4-0.1-0.8,0.5-0.8
	C103.2,106.8,103.3,107,103.3,107.6z"/>
<path class="st1" d="M112.1,107.9c0.1-0.5-0.2-1.2,0.7-1.2c0.5,0,0.8,0.4,0.7,0.9c-0.1,0.5,0,1.3-0.9,1.2
	C111.9,108.8,112.2,108.2,112.1,107.9z"/>
<path class="st1" d="M82.3,106.8c0.7-0.1,0.9,0.4,0.8,0.9c-0.1,0.5,0,1.2-0.7,1.2c-1-0.1-0.3-1-0.5-1.4
	C81.4,106.8,81.8,106.8,82.3,106.8z"/>
</svg>
