<?xml version="1.0" encoding="utf-8"?>

<svg version="1.1" id="Layer_1" xmlns="http://www.w3.org/2000/svg" xmlns:xlink="http://www.w3.org/1999/xlink" x="0px" y="0px"
	 viewBox="0 0 200 200" style="enable-background:new 0 0 200 200;" xml:space="preserve">
<style type="text/css">
	.MarineDept0{fill:#7FA2D5;}
	.MarineDept1{fill:none;}
	.MarineDept2{fill:#006BB6;}
	.MarineDept3{fill:#FFFFFF;}
	.MarineDept4{clip-path:url(#MarineDeptSVGID_2_);fill:#FFFFFF;}
	.MarineDept5{clip-path:url(#MarineDeptSVGID_4_);fill:#006BB6;}
</style>
<g>
	<path class="MarineDept0" d="M44.5,128.9c0-11.5-7.2-16.3-7.2-28.1s9.2-21.7,9.4-28.7c0.2-7.1-7.3-19-7.3-27c0-7.8,4.2-15.4,4.2-15.4h-3.3
		c0,0-4.2,7.7-4.2,15.4c0,8,7.5,20,7.3,27C43.2,79.2,34,89,34,100.8s7.2,16.6,7.2,28.1c0,8.4-8.7,19.6-8.7,31.5c0,8.2,3.8,13,3.8,13
		h3.3c0,0-3.8-4.8-3.8-13C35.7,148.5,44.5,137.3,44.5,128.9z"/>
	<rect x="25" y="25.6" class="MarineDept1" width="150" height="148.8"/>
	<path class="MarineDept2" d="M36.2,173.4c0,0-3.8-4.8-3.8-13c0-11.9,8.7-23.1,8.7-31.5c0-11.5-7.2-16.3-7.2-28.1s9.2-21.7,9.4-28.7
		c0.2-7.1-7.3-19-7.3-27c0-7.8,4.2-15.4,4.2-15.4h-7c0,0-4.2,7.7-4.2,15.4c0,8,7.5,20,7.3,27c-0.2,7.1-9.4,16.9-9.4,28.7
		s7.2,16.6,7.2,28.1c0,8.4-8.7,19.6-8.7,31.5c0,8.2,3.8,13,3.8,13H36.2"/>
	<rect x="25" y="25.6" class="MarineDept1" width="150" height="148.8"/>
	<path class="MarineDept2" d="M155.7,66.7c0,0-2.6-1.5-2.6-6.1s3.4-7.2,7.3-7.2s7.9,2.4,7.9,7.1s-3.3,6.4-3.3,6.4l-4.6,34.2
		c0,0,7-0.8,9.2-0.5c3.9,0.5,5.7,4,5,10.1c-0.3,1-3.2,2.1-5.9,2.3c-3.9-0.2-9.4-1.3-9.4-1.3l-8,61.6h-9.5l0.6-5.6l-6.2,4.8
		l-31.6-20.3l38.4,9.6l2.1-16.2c0,0-12,5.3-28.4,5.3s-22.7-4.4-31.4-4.6c-16.2-0.4-24.2,1.3-26.7,1.7c9.9-12,11-26.8,12-37.5
		c0,0-9.3,1.3-10.6,0.6c-1.6-0.8-6.1-8.2-6-7.8c0.1,0.4-1.2-2.2,1-3.2s15.7-0.7,15.7-0.7c-0.2-15,7.9-32.7,15.9-37.4
		c0,0,6.4-0.5,9.3-0.4c14.3,0.6,28.3,7.8,39.9,7.8C144.1,69.6,155.7,66.7,155.7,66.7"/>
	<path class="MarineDept3" d="M134.5,96.4c-6.1-9.3-23.2-18.5-33.9-18.8c-2.3,1.4-3.2,4-3.2,7.6C104.5,91.6,121.3,97.6,134.5,96.4"/>
	<g>
		<g>
			<defs>
				<rect id="MarineDeptSVGID_1_" x="25" y="25.6" width="150" height="148.8"/>
			</defs>
			<clipPath id="MarineDeptSVGID_2_">
				<use xlink:href="#MarineDeptSVGID_1_"  style="overflow:visible;"/>
			</clipPath>
			<path class="MarineDept4" d="M129.1,129.8c-6.1-9.3-23.2-18.5-33.9-18.8c-2.3,1.4-3.2,4-3.2,7.6C99.1,125,115.9,131,129.1,129.8"/>
		</g>
	</g>
	<g>
		<g>
			<defs>
				<rect id="MarineDeptSVGID_3_" x="25" y="25.6" width="150" height="148.8"/>
			</defs>
			<clipPath id="MarineDeptSVGID_4_">
				<use xlink:href="#MarineDeptSVGID_3_"  style="overflow:visible;"/>
			</clipPath>
			<path class="MarineDept5" d="M70.3,60.8c-0.8,1.3-2.4,1.9-3.4,2c0,0.1-0.2-0.7-0.3-0.6c0.5-0.4-0.9,0.9-1.7,0.9c-1.1,0.7,2.5-2.1,2.5-2.9
				c-1.1,1.1-3.4,2.8-5.6,2.5c7.7-7,16.7-25.8,16.3-27.4c-0.4-1.6-1.2-2-0.6-4s5.8-5.6,6.8-5.4c1.6,0.4,0.6,1.4,1.6,2s1.6,0.2,2.4,1
				s3.2,2.2,3.4,3.4c0.2,1.2,0.6,4.8,0.2,5.4c-0.4,0.6-2.2,3-2.6,4.4c3.2,2.2,2.8,0.8,3.8,1s12.7,0.4,17.7,0.2
				c5-0.2,23.2-2.6,27.8-2.6s14.9-1.7,20.3-1.6c1.4,0,2.6,0.2,3.6,0.4c2.5-0.1,5.3,4.3,6,5.9c0.9,1.4,1.3,0.9,1.6,1.8
				c0.8,2.7,1.3,4.9-0.3,5.3c-2.6,0.6-4.1,0.1-5.7-0.6c-9.4-0.3-27.2-0.4-33.7,0C125,52.2,100,56,92.6,55.6
				c-4.2,0.8-8.7-6.4-8.7-6.4C81.7,52.2,72.8,60.4,70.3,60.8"/>
		</g>
	</g>
	<path class="MarineDept2" d="M46.6,173.4c0,0-3.8-4.8-3.8-13c0-11.9,8.7-23.1,8.7-31.5c0-11.5-7.2-16.3-7.2-28.1s9.2-21.7,9.4-28.7
		c0.2-7.1-7.3-19-7.3-27c0-7.8,4.2-15.4,4.2-15.4h-7.1c0,0-4.2,7.7-4.2,15.4c0,8,7.5,20,7.3,27c-0.2,7.1-9.4,16.9-9.4,28.7
		s7.2,16.6,7.2,28.1c0,8.4-8.7,19.6-8.7,31.5c0,8.2,3.8,13,3.8,13H46.6"/>
</g>
</svg>
