<?xml version="1.0" encoding="utf-8"?>

<svg version="1.1" xmlns="http://www.w3.org/2000/svg" xmlns:xlink="http://www.w3.org/1999/xlink" x="0px" y="0px"
	 viewBox="0 0 200 200" style="enable-background:new 0 0 200 200;" xml:space="preserve">
<style type="text/css">
	.MSTI0{fill:#FFFFFF;}
	.MSTI1{fill:#55AAE1;}
	.MSTI2{fill:#042956;}
	.MSTI3{fill:#DA8B04;}
</style>
<g>
	<path class="MSTI0" d="M130.6,74c0,0-0.1,0.1-0.1,0.1c-1,0.9-1.9,1.8-2.7,2.8c-2,2.5-3.4,5.3-4.2,8.4c-0.8,3-1,5.9-0.5,9
		c0.1,0.8,0.3,1.7,0.5,2.5c-0.3,0-0.6,0.1-0.9,0.2c-4.6,1-9.1,2.4-13.6,3.8c-3.9,1.2-7.7,2.5-11.6,3.6c-5.8,1.7-11.7,3-17.7,3.5
		c-2.1,0.2-4.1,0.3-6.2,0.3c-0.9,0-1.8,0-2.8,0c-1.4,0-2.8-0.1-4.3-0.2c-2-0.2-4-0.4-6-0.7c-4.1-0.7-8.1-1.7-12-2.9
		c-4.5-1.4-8.9-3.1-13.2-5.1c-0.7-0.3-1.5-0.7-2.2-1c-0.4-0.2-0.8-0.4-1.3-0.7c0.2,0.3,0.3,0.3,0.5,0.4c0.7,0.4,1.4,0.7,2,1.1
		c3.7,2,7.4,3.8,11.3,5.5c5.6,2.3,11.3,4.1,17.3,5.2c3.1,0.6,6.2,1,9.3,1.1c2.4,0.1,4.7,0.1,7.1,0c1.6-0.1,3.2-0.3,4.8-0.4
		c2.1-0.3,4.1-0.6,6.2-1c4.4-0.9,8.6-2.1,12.8-3.4c4-1.3,7.9-2.5,11.9-3.8c3.1-1,6.2-1.9,9.4-2.7c0.1,0.1,0.2,0.3,0.3,0.5
		c0.6,1.3,1.3,2.5,2,3.7c-0.1,0-0.2,0-0.3,0c-3.4,0.5-6.7,1.2-10,2.1c-4.5,1.2-8.9,2.6-13.3,4c-5.7,1.8-11.5,3.6-17.4,4.8
		c-4.4,0.9-8.8,1.5-13.2,1.7c-4,0.2-8.1,0-12.1-0.5c-3.8-0.5-7.5-1.2-11.2-2.2c-7-1.9-13.7-4.5-20.3-7.8c-0.2-0.1-0.3-0.3-0.6-0.2
		c0.2,0.1,0.3,0.3,0.6,0.3c2.4,1.4,4.9,2.7,7.5,4c6.2,3.1,12.7,5.5,19.5,7.1c3.9,0.9,7.9,1.5,11.9,1.8c3.1,0.2,6.3,0.2,9.4,0
		c2.4-0.2,4.9-0.5,7.3-0.9c3.8-0.7,7.6-1.6,11.3-2.6c4.3-1.2,8.6-2.6,12.8-4c4.3-1.4,8.6-2.7,12.9-3.8c2.3-0.6,4.6-1,6.9-1.4
		c0.1,0.1,0.2,0.2,0.3,0.3c1.7,1.8,3.7,3.3,5.8,4.5c0.7,0.3,1.4,0.7,2.1,1c-0.7,0-1.3,0-2-0.1c-1.8,0-3.6,0-5.3,0
		c-1.9,0.1-3.8,0.3-5.8,0.5c-3.2,0.4-6.4,1.1-9.6,1.9c-4.5,1.1-8.8,2.5-13.2,3.8c-4.1,1.3-8.3,2.6-12.5,3.8
		c-2.8,0.7-5.6,1.4-8.5,1.9c-2.3,0.4-4.6,0.7-7,1c-2.1,0.2-4.2,0.3-6.3,0.3c-1.1,0-2.3,0-3.4,0c-2-0.1-3.9-0.2-5.9-0.4
		c-2.2-0.2-4.3-0.6-6.5-1c-3.6-0.7-7.2-1.7-10.7-2.8c-5.1-1.7-9.9-3.7-14.7-6.1c-0.2-0.1-0.3-0.2-0.7-0.2c0.1,0.1,0.2,0.1,0.2,0.1
		c3.9,2.2,7.8,4.2,11.9,6c4.6,2.1,9.4,3.7,14.3,5c2.4,0.6,4.7,1.1,7.1,1.4c1.5,0.2,3.1,0.4,4.6,0.5c1.9,0.2,3.8,0.2,5.6,0.2
		c1.4,0,2.7,0,4.1-0.1c1.8-0.1,3.6-0.3,5.4-0.5c3.1-0.4,6.2-1,9.2-1.7c4.4-1,8.7-2.4,13-3.8c4-1.3,7.9-2.6,11.9-3.8
		c5.6-1.7,11.3-3,17.1-3.6c2-0.2,4-0.3,5.9-0.3c1.8,0,3.7,0,5.5,0.2c1.6,0.1,3.3,0.3,4.9,0.5c3.3,0.5,6.5,1.2,9.7,2.1
		c4,1.2,7.9,2.7,11.7,4.4c0.1,0,0.3,0.2,0.4,0.1c-0.2-0.2-0.4-0.3-0.6-0.3c-2.2-1.1-4.5-2.2-6.7-3.2c-3.9-1.7-7.9-3.1-12.1-4.1
		c-0.3-0.1-0.7-0.1-1-0.3c0.2,0,0.3-0.1,0.5-0.1c3.7-0.4,7.1-1.6,10.1-3.7c0.7-0.5,1.4-1,2-1.5c0,0,0,0,0.1,0c3.6,1.1,7,2.4,10.4,4
		c0.4,0.3,0.9,0.4,1.4,0.6c-0.4-0.3-0.8-0.6-1.3-0.7c-3.2-1.7-6.5-3.2-9.9-4.5c0.1-0.1,0.3-0.3,0.3-0.4c1.5-1.4,2.7-3,3.8-4.7
		c0.3-0.6,0.7-1.1,1-1.7c3.1,1.1,6.2,2.4,9.2,3.7c-0.1-0.1-0.2-0.2-0.3-0.2c-1.7-0.9-3.4-1.7-5.2-2.6c-1.1-0.5-2.3-1-3.4-1.5
		c0.3-0.7,0.5-1.3,0.8-2c1-2.8,1.5-6.2,1.2-8.9c0,0.3-0.1,0.6-0.1,0.8c-0.3,3.3-1.2,6.3-2.8,9.1c-4.5,7.9-13.6,12.2-22.5,10.5
		c-7.6-1.4-13-5.8-16.1-12.9c-1.7-3.9-2.1-8-1.4-12.2c0.5-2.7,1.5-5.2,2.9-7.6c0.6-1,1.4-1.9,2.1-2.8c0.1-0.1,0.3-0.3,0.3-0.5
		C130.5,74,130.6,74,130.6,74c0-0.1,0-0.1,0.1-0.1c0,0,0-0.1,0.1,0c0,0,0,0-0.1,0C130.7,73.9,130.7,74,130.6,74z M31.5,97.5
		C31.6,97.5,31.6,97.5,31.5,97.5C31.6,97.5,31.6,97.5,31.5,97.5C31.5,97.5,31.5,97.5,31.5,97.5C31.5,97.5,31.5,97.5,31.5,97.5z
		 M158.1,84.2c-2.1,0.3-4.3,0.6-6.5,0.9c0.6-4.4,1.2-8.7,1.7-13c0,0,0,0-0.1,0c-2.6,3.4-5.3,6.9-7.9,10.4c-0.5-0.6-0.9-1.2-1.4-1.8
		c-0.4-0.6-0.9-1.2-1.4-1.8c-0.4-0.6-0.9-1.1-1.4-1.7c0,0.3,0,0.7,0.1,1c0.2,1.7,0.5,3.5,0.7,5.2c0,0.3,0,0.4-0.3,0.3
		c-1.3-0.2-2.6-0.3-3.9-0.5c-2.5-0.3-5.1-0.7-7.5-1c-0.3,0-0.7-0.1-1.1-0.1c0,0,0,0,0,0.1c3.4,2.6,6.9,5.3,10.4,7.9
		c-1.7,1.4-3.5,2.7-5.2,4.1c2.2-0.2,4.4-0.6,6.6-0.8c-0.6,4.4-1.2,8.7-1.7,13c0,0,0.1,0,0.1,0c2.6-3.4,5.3-6.9,7.9-10.4
		c1.4,1.8,2.7,3.5,4,5.3c0,0,0,0,0.1,0c-0.3-2.2-0.6-4.3-0.9-6.6c4.4,0.6,8.7,1.2,13,1.7c0,0,0-0.1,0-0.1c-3.4-2.6-6.9-5.3-10.4-7.9
		C154.7,86.8,156.4,85.6,158.1,84.2c0.1,0.1,0.2,0,0.2,0C158.2,84.1,158.1,84.1,158.1,84.2z M75.2,75.4c-0.3,0-0.4,0-0.6,0
		c-1,0-1.9,0-2.9,0c-0.4,0-0.6,0.1-0.8,0.4c-2.6,3.7-5.1,7.3-7.7,11c-1.4,1.9-2.7,3.8-4,5.7c-0.1,0.2-0.2,0.4-0.5,0.3
		c-0.3-0.1-0.1-0.3-0.1-0.6c0-2.3,0.1-4.6,0.1-7c0.1-3.2,0.2-6.3,0.2-9.5c0-0.3,0-0.3-0.3-0.3c-1.1,0-2.2,0-3.4,0
		c-0.5,0-0.5,0-0.6,0.4c-2.4,6.7-4.8,13.4-7.3,20c0,0.1-0.1,0.3,0,0.5c0.6,0,1.1,0,1.7,0c0.2,0,0.3-0.1,0.4-0.3
		c0-0.1,0.1-0.2,0.1-0.3c2.1-5.8,4.2-11.6,6.3-17.4c0-0.1,0.1-0.3,0.1-0.4c0.1-0.2,0.2-0.2,0.3-0.1c0.1,0,0.1,0.1,0.1,0.3
		s0,0.3,0,0.3c-0.1,4.7-0.2,9.5-0.3,14.2c0,1.1,0,2.2,0,3.3c0,0.4,0,0.4,0.4,0.4c0.4,0,0.9,0,1.4,0c0.4,0,0.6-0.1,0.8-0.4
		c2.3-3.3,4.6-6.6,6.9-9.9c1.8-2.6,3.7-5.2,5.5-7.9c0.2-0.3,0.3-0.4,0.7-0.3c-2.2,6.1-4.5,12.2-6.7,18.4c0.2,0.1,0.3,0,0.5,0
		c0.5,0,1,0,1.6,0c0.7,0,0.5,0,0.7-0.5c1.8-5,3.6-9.9,5.4-14.9C73.9,79.1,74.5,77.3,75.2,75.4z M90.8,75.5c-0.9-0.2-1.7-0.3-2.6-0.4
		c-1.8-0.2-3.6-0.2-5.4,0.4c-2.7,0.9-4.6,2.6-5.5,5.5c-0.4,1.5-0.1,2.8,1,4c0.4,0.4,0.8,0.7,1.2,1c0.6,0.4,1.3,0.9,1.9,1.3
		c0.6,0.4,1.2,0.9,1.6,1.5c0.5,0.7,0.7,1.4,0.6,2.3c-0.3,1.4-1.1,2.4-2.4,3.1c-0.9,0.5-1.8,0.7-2.8,0.7c-1.7,0-3.4-0.5-4.8-1.4
		c-0.2-0.1-0.3-0.3-0.5-0.3c-0.3,0.9-0.6,1.7-1,2.6c0,0.2,0,0.2,0.1,0.3c0.1,0,0.3,0.1,0.4,0.1c1,0.3,2,0.4,2.9,0.5
		c1.7,0.1,3.4,0,5.1-0.5c3.1-0.9,5.1-2.9,6.2-5.9c0.6-1.8,0.2-3.3-1.2-4.6c-0.5-0.4-1-0.8-1.6-1.2c-0.7-0.4-1.3-0.9-1.9-1.3
		c-0.4-0.3-0.7-0.6-1-1c-0.7-0.8-0.8-1.7-0.4-2.6c0.6-1.5,1.7-2.4,3.2-2.7c1-0.3,2.1-0.2,3.1,0c0.9,0.2,1.7,0.5,2.5,1
		c0.2,0.1,0.3,0.1,0.4-0.1C90.3,77,90.5,76.3,90.8,75.5z M91.3,96.3c0.9,0,1.7,0,2.5,0c0.5,0,0.4,0,0.6-0.4c1.3-3.5,2.5-7,3.8-10.5
		c1-2.7,1.9-5.3,2.9-8c0.2-0.5,0.1-0.4,0.6-0.4c1.1,0,2.3,0,3.4,0c0.3,0,0.7,0,1.1,0c0.1,0,0.3,0,0.3-0.2c0.2-0.4,0.3-0.9,0.5-1.4
		c-0.2,0-0.4,0-0.6,0c-4.1,0-8.1,0-12.1,0c-0.1,0-0.3,0-0.3,0c-0.1,0-0.2,0-0.2,0.1c-0.2,0.5-0.4,0.9-0.5,1.5c1.7,0,3.4,0,5.1,0
		C95.9,83.5,93.6,89.8,91.3,96.3z M113,75.4c-0.7,0-1.3,0-1.9,0c-0.3,0-0.7-0.1-1,0c-0.3,0.2-0.3,0.6-0.4,1
		c-2.4,6.4-4.7,12.8-7,19.2c-0.1,0.2-0.2,0.4-0.2,0.7c0.8,0,1.6,0,2.4,0c0.6,0,0.5,0,0.7-0.5c1.8-5,3.7-10,5.5-15.1
		C111.7,79,112.3,77.2,113,75.4z"/>
	<path class="MSTI1" d="M147.4,113.6c0.3,0.2,0.7,0.2,1,0.3c4.1,1,8.2,2.4,12.1,4.1c2.3,1,4.5,2.1,6.7,3.2c0.2,0.1,0.4,0.2,0.6,0.3
		c-0.2,0-0.3,0-0.4-0.1c-3.8-1.7-7.7-3.2-11.7-4.4c-3.2-0.9-6.4-1.7-9.7-2.1c-1.6-0.2-3.2-0.4-4.9-0.5c-1.8-0.1-3.7-0.2-5.5-0.2
		c-2,0-4,0.2-5.9,0.3c-5.8,0.6-11.5,1.9-17.1,3.6c-4,1.2-7.9,2.5-11.9,3.8c-4.3,1.4-8.6,2.7-13,3.8c-3.1,0.7-6.1,1.4-9.2,1.7
		c-1.8,0.2-3.6,0.4-5.4,0.5c-1.4,0.1-2.7,0.1-4.1,0.1c-1.9,0-3.8,0-5.6-0.2c-1.5-0.1-3.1-0.3-4.6-0.5c-2.4-0.3-4.8-0.8-7.1-1.4
		c-4.9-1.2-9.7-2.9-14.3-5c-4.1-1.8-8-3.8-11.9-6c0,0-0.1-0.1-0.2-0.1c0.3,0,0.5,0.1,0.7,0.2c4.8,2.4,9.7,4.4,14.7,6.1
		c3.5,1.2,7.1,2.1,10.7,2.8c2.1,0.4,4.3,0.8,6.5,1c2,0.2,3.9,0.3,5.9,0.4c1.1,0,2.3,0.1,3.4,0c2.1,0,4.2-0.2,6.3-0.3
		c2.4-0.2,4.7-0.6,7-1c2.8-0.5,5.7-1.2,8.5-1.9c4.2-1.1,8.3-2.4,12.5-3.8c4.4-1.4,8.7-2.7,13.2-3.8c3.1-0.8,6.3-1.4,9.6-1.9
		c1.9-0.3,3.8-0.4,5.8-0.5c1.8-0.1,3.6-0.1,5.3,0c0.7,0,1.3,0.1,2,0.1c0.2,0,0.3,0.1,0.5,0.2c2.4,0.9,4.8,1.4,7.4,1.4
		C145.7,113.7,146.6,113.6,147.4,113.6z"/>
	<path class="MSTI2" d="M29.1,106c6.5,3.2,13.3,5.9,20.3,7.8c3.7,1,7.4,1.7,11.2,2.2c4,0.5,8,0.7,12.1,0.5c4.5-0.2,8.9-0.8,13.2-1.7
		c5.9-1.2,11.6-3,17.4-4.8c4.4-1.4,8.8-2.8,13.3-4c3.3-0.9,6.6-1.6,10-2.1c0.1,0,0.2,0,0.3,0c0.3,0.4,0.6,0.8,0.9,1.2
		c0.3,0.4,0.7,0.9,1,1.3c-2.3,0.4-4.6,0.9-6.9,1.4c-4.4,1-8.6,2.4-12.9,3.8c-4.3,1.4-8.5,2.8-12.8,4c-3.8,1-7.5,2-11.3,2.6
		c-2.4,0.4-4.8,0.7-7.3,0.9c-3.1,0.2-6.3,0.3-9.4,0c-4-0.3-8-0.9-11.9-1.8c-6.8-1.6-13.2-4.1-19.5-7.1c-2.5-1.2-5-2.6-7.5-4
		C29.1,106.1,29.1,106.1,29.1,106z"/>
	<path class="MSTI1" d="M124.5,99.6c-3.2,0.8-6.3,1.7-9.4,2.7c-4,1.3-7.9,2.5-11.9,3.8c-4.2,1.3-8.5,2.5-12.8,3.4
		c-2.1,0.4-4.1,0.7-6.2,1c-1.6,0.2-3.2,0.3-4.8,0.4c-2.4,0.1-4.7,0.1-7.1,0c-3.1-0.1-6.2-0.5-9.3-1.1c-6-1.1-11.7-2.9-17.3-5.2
		c-3.9-1.6-7.6-3.4-11.3-5.5c-0.7-0.3-1.4-0.7-2-1.1c-0.2-0.1-0.3-0.2-0.5-0.4c0.5,0.2,0.9,0.4,1.3,0.7c0.7,0.4,1.5,0.7,2.2,1
		c4.3,2,8.6,3.7,13.2,5.1c3.9,1.2,7.9,2.2,12,2.9c2,0.3,4,0.6,6,0.7c1.4,0.1,2.8,0.2,4.3,0.2c0.9,0,1.8,0.1,2.8,0
		c2.1-0.1,4.1-0.2,6.2-0.3c6-0.6,11.9-1.9,17.7-3.5c3.9-1.1,7.8-2.4,11.6-3.6c4.5-1.4,9-2.8,13.6-3.8c0.3-0.1,0.6-0.1,0.9-0.2
		C123.8,97.7,124.1,98.6,124.5,99.6z"/>
	<path class="MSTI2" d="M158.1,84.3c-1.7,1.3-3.4,2.6-5.2,3.9c3.5,2.7,6.9,5.3,10.4,7.9c0,0,0,0.1,0,0.1c-4.3-0.6-8.6-1.2-13-1.7
		c0.3,2.2,0.6,4.4,0.9,6.6c0,0,0,0-0.1,0c-1.3-1.7-2.7-3.5-4-5.3c-2.7,3.5-5.3,6.9-7.9,10.4c0,0-0.1,0-0.1,0c0.6-4.3,1.2-8.6,1.7-13
		c-2.2,0.3-4.4,0.6-6.6,0.8c1.7-1.4,3.5-2.7,5.2-4.1c-3.5-2.7-6.9-5.3-10.4-7.9c0,0,0,0,0-0.1c0.3,0,0.7,0.1,1.1,0.1
		c2.5,0.3,5.1,0.7,7.5,1c1.3,0.2,2.6,0.3,3.9,0.5c0.4,0,0.4,0,0.3-0.3c-0.2-1.7-0.5-3.5-0.7-5.2c0-0.3-0.1-0.6-0.1-1
		c0.5,0.5,0.9,1.1,1.4,1.7c0.5,0.6,0.9,1.2,1.4,1.8c0.4,0.6,0.9,1.2,1.4,1.8c2.7-3.5,5.3-7,7.9-10.4c0,0,0,0,0.1,0
		c-0.6,4.3-1.2,8.6-1.7,13C153.8,84.8,155.9,84.5,158.1,84.3C158.1,84.2,158.1,84.2,158.1,84.3z M135.3,93.6c0.2,0,0.3,0,0.5-0.1
		c1.2-0.5,2.4-1,3.5-1.5c0.6-0.2,1.1-0.5,1.7-0.7c-0.1-0.2-0.3-0.3-0.4-0.4c-0.3-0.2-0.5-0.6-0.8-0.6c-0.3,0-0.6,0.3-0.9,0.6
		C137.7,91.8,136.5,92.7,135.3,93.6L135.3,93.6L135.3,93.6z M141.7,78.2L141.7,78.2L141.7,78.2c0,0.2,0,0.3,0.1,0.5
		c0.7,1.7,1.4,3.4,2.1,5c0,0.1,0,0.2,0.2,0.2c0.3-0.3,0.5-0.7,0.8-1c0.2-0.2,0.1-0.3,0-0.5c-0.6-0.8-1.2-1.6-1.8-2.4
		C142.6,79.4,142.2,78.8,141.7,78.2z M146.2,89c0.1,0,0.2,0,0.2,0c1.4-0.6,2.8-1.1,4.2-1.7c0.2-0.1,0.2-0.2,0.3-0.3
		c0-0.5,0.1-0.9,0.2-1.4c0.3-1.8,0.5-3.7,0.8-5.5c0.3-2.1,0.6-4.1,0.9-6.2c0-0.1,0.1-0.2-0.1-0.4C150.5,78.7,148.3,83.8,146.2,89z
		 M145.9,89.1c0.1-0.1,0-0.1,0-0.2c-0.6-1.4-1.1-2.7-1.7-4.1c-0.1-0.2-0.2-0.3-0.5-0.3c-1-0.1-2-0.3-3-0.4c-3.1-0.4-6.2-0.9-9.2-1.3
		c-0.3,0-0.7-0.2-1.1,0C135.7,84.9,140.8,87,145.9,89.1z M161.2,95.5c-0.2-0.2-0.3-0.2-0.5-0.3c-1.9-0.8-3.8-1.6-5.8-2.4
		c-2.7-1.1-5.4-2.2-8.1-3.4c-0.2-0.1-0.3-0.2-0.6-0.1c0.6,1.4,1.2,2.7,1.8,4.1c0.1,0.2,0.2,0.2,0.4,0.3c1.2,0.2,2.4,0.3,3.5,0.5
		c2.6,0.3,5.2,0.7,7.8,1.1C160.2,95.4,160.6,95.5,161.2,95.5z M146,89.4c-0.1,0-0.2,0-0.2,0c-1.3,0.5-2.6,1.1-3.9,1.6
		c-0.2,0.1-0.3,0.2-0.3,0.4c-0.1,0.8-0.2,1.6-0.3,2.3c-0.5,3.3-1,6.6-1.4,9.9c0,0.1-0.1,0.3,0.1,0.4C142,99.2,144,94.3,146,89.4z
		 M151.4,87.1c0.3,0.2,0.5,0.4,0.7,0.5c0.7,0.5,0.4,0.5,1.1,0c1.1-0.8,2.2-1.6,3.3-2.4c0.1-0.1,0.2-0.2,0.3-0.3l0,0
		C155,85.6,153.2,86.3,151.4,87.1z M148.3,94.3c-0.3,0.4-0.5,0.7-0.7,1c-0.2,0.2-0.2,0.4,0,0.6c0.9,1.2,1.8,2.4,2.7,3.6
		c0,0,0,0.1,0.2,0.1C149.7,97.9,149,96.1,148.3,94.3z"/>
	<path class="MSTI3" d="M124.5,99.6c-0.3-1-0.6-1.9-0.9-2.8c-0.1-0.8-0.3-1.7-0.5-2.5c-0.4-3-0.3-6,0.5-9c0.8-3.1,2.2-5.9,4.2-8.4
		c0.8-1,1.7-2,2.7-2.8l0,0c0,0.2-0.2,0.3-0.3,0.5c-0.7,0.9-1.5,1.7-2.1,2.8c-1.4,2.4-2.4,4.9-2.9,7.6c-0.7,4.2-0.3,8.3,1.4,12.2
		c3.1,7.1,8.5,11.5,16.1,12.9c8.9,1.7,18-2.6,22.5-10.5c1.6-2.8,2.6-5.8,2.8-9.1c0-0.2,0.1-0.5,0.1-0.8c0.3,2.7-0.2,6.1-1.2,8.9
		c-0.2,0.7-0.5,1.3-0.8,2c-0.1,0.2-0.2,0.3-0.3,0.6c-0.3,0.6-0.6,1.1-1,1.7c-1,1.7-2.3,3.3-3.8,4.7c-0.1,0.1-0.3,0.3-0.3,0.4
		c-0.2,0.2-0.5,0.3-0.7,0.6c-0.7,0.5-1.3,1-2,1.5c-3.1,2.1-6.5,3.3-10.1,3.7c-0.2,0-0.3,0-0.5,0.1c-0.8,0-1.7,0-2.5,0
		c-2.5,0-5-0.5-7.4-1.4c-0.2-0.1-0.3-0.1-0.5-0.2c-0.7-0.3-1.4-0.7-2.1-1c-2.2-1.1-4.1-2.6-5.8-4.5c-0.1-0.1-0.2-0.2-0.3-0.3
		c-0.3-0.4-0.7-0.9-1-1.3c-0.3-0.4-0.6-0.8-0.9-1.2c-0.7-1.2-1.5-2.4-2-3.7C124.7,99.9,124.6,99.7,124.5,99.6z"/>
	<path class="MSTI2" d="M75.2,75.4c-0.7,1.9-1.4,3.8-2,5.5c-1.8,5-3.6,9.9-5.4,14.9c-0.2,0.6-0.1,0.5-0.7,0.5c-0.5,0-1,0-1.6,0
		c-0.1,0-0.3,0-0.5,0c2.2-6.2,4.5-12.3,6.7-18.4c-0.3-0.2-0.5,0-0.7,0.3c-1.8,2.6-3.7,5.2-5.5,7.9c-2.3,3.3-4.6,6.5-6.9,9.9
		c-0.2,0.3-0.4,0.4-0.8,0.4c-0.4,0-0.9,0-1.4,0c-0.4,0-0.4,0-0.4-0.4c0-1.1,0-2.2,0.1-3.3c0.1-4.7,0.2-9.4,0.3-14.1
		c0-0.1,0-0.3,0-0.3c0-0.1,0-0.2-0.1-0.3c-0.1,0-0.3,0-0.3,0.1c0,0.1-0.1,0.3-0.1,0.4c-2.1,5.8-4.2,11.6-6.3,17.4
		c0,0.1-0.1,0.2-0.1,0.3c-0.1,0.2-0.2,0.3-0.4,0.3c-0.6,0-1.1,0-1.7,0c-0.1-0.2,0-0.3,0-0.5c2.4-6.7,4.8-13.4,7.3-20
		c0.2-0.4,0.2-0.4,0.6-0.4c1.1,0,2.2,0,3.4,0c0.3,0,0.3,0,0.3,0.3c-0.1,3.2-0.2,6.3-0.2,9.5c0,2.3-0.1,4.6-0.1,7
		c0,0.2-0.1,0.4,0.1,0.6c0.3,0.1,0.4-0.2,0.5-0.3c1.4-1.9,2.7-3.8,4-5.7c2.6-3.7,5.1-7.3,7.7-11c0.2-0.3,0.4-0.4,0.8-0.4
		c1,0,1.9,0,2.9,0C74.8,75.4,75,75.4,75.2,75.4z"/>
	<path class="MSTI2" d="M90.8,75.5c-0.3,0.7-0.5,1.4-0.8,2.1c-0.1,0.3-0.2,0.3-0.4,0.1c-0.8-0.5-1.6-0.8-2.5-1c-1-0.2-2.1-0.3-3.1,0
		c-1.5,0.4-2.6,1.3-3.2,2.7c-0.3,1-0.2,1.8,0.4,2.6c0.3,0.3,0.7,0.7,1,1c0.6,0.4,1.3,0.9,1.9,1.3c0.6,0.4,1.1,0.7,1.6,1.2
		c1.4,1.3,1.8,2.8,1.2,4.6c-1,3.1-3.1,5-6.2,5.9c-1.7,0.5-3.4,0.6-5.1,0.5c-1-0.1-2-0.2-2.9-0.5c-0.1,0-0.3-0.1-0.4-0.1
		c-0.1,0-0.2-0.1-0.1-0.3c0.3-0.8,0.6-1.7,1-2.6c0.2,0,0.3,0.2,0.5,0.3c1.5,0.9,3.1,1.5,4.8,1.4c1,0,1.9-0.2,2.8-0.7
		c1.3-0.7,2-1.7,2.4-3.1c0.2-0.9,0-1.6-0.6-2.3c-0.4-0.6-1-1-1.6-1.5c-0.6-0.4-1.3-0.9-1.9-1.3c-0.4-0.3-0.8-0.7-1.2-1
		c-1.1-1.1-1.5-2.4-1-4c0.8-2.8,2.7-4.6,5.5-5.5c1.7-0.6,3.6-0.6,5.4-0.4C89,75.2,89.9,75.3,90.8,75.5z"/>
	<path class="MSTI2" d="M91.3,96.3c2.4-6.5,4.6-12.9,7-19.3c-1.7,0-3.4,0-5.1,0c0.1-0.6,0.3-1,0.5-1.5c0-0.1,0.1-0.1,0.2-0.1
		c0.1,0,0.3,0,0.3,0c4.1,0,8.1,0,12.1,0c0.2,0,0.3,0,0.6,0c-0.2,0.5-0.3,1-0.5,1.4c0,0.2-0.2,0.2-0.3,0.2c-0.3,0-0.7,0-1.1,0
		c-1.1,0-2.3,0-3.4,0c-0.5,0-0.4-0.1-0.6,0.4c-1,2.7-1.9,5.3-2.9,8c-1.3,3.5-2.5,7-3.8,10.5c-0.1,0.4,0,0.4-0.6,0.4
		C93,96.3,92.2,96.3,91.3,96.3z"/>
	<path class="MSTI2" d="M113,75.4c-0.7,1.8-1.3,3.6-2,5.4c-1.8,5-3.7,10-5.5,15.1c-0.2,0.5-0.1,0.5-0.7,0.5c-0.8,0-1.6,0-2.4,0
		c0-0.3,0.1-0.5,0.2-0.7c2.3-6.4,4.7-12.8,7-19.2c0.1-0.3,0.1-0.8,0.4-1c0.3-0.1,0.7,0,1,0C111.8,75.3,112.3,75.4,113,75.4z"/>
	<path class="MSTI2" d="M160,108.4c0.2-0.2,0.4-0.4,0.7-0.6c3.4,1.3,6.7,2.8,9.9,4.5c0,0,0,0.1-0.1,0.1
		C167.1,110.9,163.7,109.5,160,108.4C160.1,108.5,160.1,108.4,160,108.4z"/>
	<path class="MSTI1" d="M165.8,101c0-0.2,0.1-0.4,0.3-0.6c1.2,0.4,2.3,1,3.4,1.5c1.7,0.8,3.5,1.7,5.2,2.6c0.1,0,0.2,0.1,0.3,0.2
		C172,103.4,168.9,102.1,165.8,101z"/>
	<path class="MSTI1" d="M170.5,112.4c0,0,0-0.1,0.1-0.1c0.5,0.1,0.9,0.4,1.3,0.7C171.4,112.9,170.9,112.7,170.5,112.4z"/>
	<path class="MSTI1" d="M29.1,106c0,0,0,0.1,0,0.1c-0.2,0-0.4-0.2-0.6-0.3C28.8,105.8,29,105.9,29.1,106z"/>
	<path class="MSTI1" d="M158.1,84.3c0,0,0-0.1,0-0.1c0,0,0.1,0,0.1,0C158.2,84.2,158.2,84.3,158.1,84.3z"/>
	<path class="MSTI1" d="M31.5,97.5C31.5,97.5,31.5,97.5,31.5,97.5C31.5,97.4,31.5,97.5,31.5,97.5L31.5,97.5z"/>
	<path class="MSTI3" d="M130.7,73.8C130.8,73.8,130.8,73.8,130.7,73.8C130.8,73.8,130.7,73.8,130.7,73.8L130.7,73.8z"/>
	<path class="MSTI1" d="M31.5,97.5C31.6,97.5,31.6,97.5,31.5,97.5C31.6,97.5,31.6,97.5,31.5,97.5L31.5,97.5z"/>
	<path class="MSTI3" d="M130.5,74c0,0,0.1-0.1,0.1-0.1l0,0C130.6,74,130.5,74,130.5,74L130.5,74z"/>
	<path class="MSTI3" d="M130.7,73.8c-0.1,0-0.1,0-0.1,0.1l0,0C130.7,74,130.7,73.9,130.7,73.8L130.7,73.8z"/>
	<path class="MSTI3" d="M146.2,89c2.2-5.2,4.3-10.4,6.5-15.6c0.2,0.2,0.1,0.3,0.1,0.4c-0.3,2.1-0.6,4.1-0.9,6.2
		c-0.3,1.8-0.5,3.7-0.8,5.5c-0.1,0.5-0.1,0.9-0.2,1.4c0,0.2-0.1,0.3-0.3,0.3c-1.4,0.6-2.8,1.1-4.2,1.7C146.3,89,146.3,89,146.2,89z"
		/>
	<path class="MSTI3" d="M145.9,89.1c-5.1-2.1-10.2-4.2-15.4-6.4c0.4-0.1,0.7,0,1.1,0c3.1,0.4,6.2,0.9,9.2,1.3c1,0.1,2,0.3,3,0.4
		c0.2,0,0.4,0.1,0.5,0.3c0.6,1.4,1.1,2.7,1.7,4.1C146,89,146,89,145.9,89.1z"/>
	<path class="MSTI3" d="M161.2,95.5c-0.5,0-1-0.1-1.4-0.2c-2.6-0.3-5.2-0.7-7.8-1.1c-1.2-0.2-2.4-0.3-3.5-0.5c-0.2,0-0.3-0.1-0.4-0.3
		c-0.6-1.4-1.2-2.7-1.8-4.1c0.3-0.1,0.4,0,0.6,0.1c2.7,1.1,5.4,2.2,8.1,3.4c1.9,0.8,3.8,1.6,5.8,2.4C160.8,95.3,161,95.3,161.2,95.5
		z"/>
	<path class="MSTI3" d="M146,89.4c-2.1,4.9-4.1,9.8-6.1,14.7c-0.2-0.1-0.1-0.3-0.1-0.4c0.5-3.3,1-6.6,1.4-9.9c0.1-0.8,0.2-1.6,0.3-2.3
		c0-0.2,0.1-0.3,0.3-0.4c1.3-0.5,2.6-1.1,3.9-1.6C145.9,89.4,145.9,89.4,146,89.4z"/>
	<path class="MSTI3" d="M141.7,78.2c0.4,0.6,0.9,1.2,1.4,1.8c0.6,0.8,1.2,1.6,1.8,2.4c0.1,0.2,0.2,0.3,0,0.5c-0.3,0.3-0.5,0.7-0.8,1
		c-0.2,0-0.2-0.1-0.2-0.2c-0.7-1.7-1.4-3.4-2.1-5C141.8,78.6,141.7,78.4,141.7,78.2L141.7,78.2z"/>
	<path class="MSTI3" d="M135.3,93.6c1.2-0.9,2.4-1.8,3.6-2.7c0.3-0.2,0.6-0.6,0.9-0.6c0.3,0,0.6,0.4,0.8,0.6c0.1,0.1,0.3,0.2,0.4,0.4
		c-0.6,0.3-1.2,0.5-1.7,0.7c-1.2,0.5-2.4,1-3.5,1.5C135.6,93.6,135.5,93.7,135.3,93.6L135.3,93.6z"/>
	<path class="MSTI3" d="M151.4,87.1c1.8-0.8,3.6-1.5,5.4-2.2l0,0c-0.1,0.1-0.2,0.2-0.3,0.3c-1.1,0.8-2.2,1.7-3.3,2.4
		c-0.7,0.5-0.4,0.5-1.1,0C151.9,87.4,151.7,87.3,151.4,87.1z"/>
	<path class="MSTI3" d="M148.3,94.3c0.7,1.8,1.5,3.6,2.2,5.3c-0.1,0-0.1,0-0.2-0.1c-0.9-1.2-1.8-2.4-2.7-3.6c-0.2-0.2-0.2-0.4,0-0.6
		C147.8,95,148,94.7,148.3,94.3z"/>
	<path class="MSTI3" d="M135.3,93.6L135.3,93.6L135.3,93.6z"/>
	<path class="MSTI3" d="M141.7,78.2L141.7,78.2L141.7,78.2z"/>
</g>
</svg>
