<?xml version="1.0" encoding="utf-8"?>

<svg version="1.1" xmlns="http://www.w3.org/2000/svg" xmlns:xlink="http://www.w3.org/1999/xlink" x="0px" y="0px"
	 viewBox="0 0 200 200" style="enable-background:new 0 0 200 200;" xml:space="preserve">
<style type="text/css">
	.OOCL{fill:#E5001D;}
</style>
<g>
	<path class="OOCL" d="M175,120.2c-10.6,0-21.2,0-31.7-0.1c0-3.6,0-7.2,0-10.8c0,0,0,0-0.1,0c0,0.1-0.1,0.1-0.1,0.2
		c-1.1,2.3-2.6,4.4-4.5,6.2c-2.7,2.5-5.8,4.3-9.4,5.1c-1.9,0.5-3.8,0.6-5.8,0.6c-5-0.1-9.5-1.7-13.4-4.9c-2.3-1.9-4.1-4.2-5.4-6.9
		c0-0.1-0.1-0.2-0.2-0.3c-2.6,4.9-6.5,8.5-11.7,10.4c-5.3,1.9-10.5,1.7-15.6-0.5c-5.1-2.2-8.8-6-11.1-11.1
		c-2.4,5.5-6.3,9.5-11.9,11.7c-4.4,1.7-8.9,2-13.5,0.7c-9-2.5-15.5-10.8-15.5-20.4c0-9.4,6.1-17.6,14.9-20.3
		c5.2-1.6,10.3-1.3,15.2,1c4.9,2.3,8.4,5.9,10.6,10.9c2.3-5.2,5.9-9.1,11.1-11.4c5.2-2.3,10.5-2.4,15.9-0.5c4.2,1.5,9,4.9,11.8,10.7
		c0.1-0.1,0.1-0.1,0.1-0.2c1.1-2,2.4-3.9,4.1-5.4c2.2-2.1,4.8-3.7,7.7-4.8c1.6-0.6,3.2-0.9,4.9-1.1c0.8-0.1,1.6-0.1,2.4-0.1
		c0.9,0,1.8,0,2.7,0.1c2.4,0.3,4.6,0.9,6.8,2c3.8,1.8,6.7,4.6,8.9,8.2c0.3,0.5,0.6,1.1,0.9,1.6c0,0.1,0.1,0.2,0.2,0.3
		c0-4,0-8,0-12.1c4.6,0,9.3,0,13.9,0c0,9,0,18.1,0,27.2c1,0,2,0,3,0c1,0,2,0,3,0c1,0,2,0,3,0c1,0,2,0,2.9,0c1,0,2,0,3,0s2,0,3,0
		C175,110.9,175,115.5,175,120.2z M93.9,102.6c3-1,4.3-4,3.7-6.6c-0.3-1.3-1-2.3-2.1-3.1c-1.5-1.1-3.2-1.3-5-0.8
		c0-3.3-2.7-5.5-5.5-5.5c-2.6,0-5.5,2.1-5.6,5.5c-1.5-0.4-2.9-0.3-4.3,0.4c-1.4,0.7-2.3,1.8-2.7,3.3c-0.7,2.3,0.2,5.7,3.6,6.9
		c-1.9,2.8-1,6,1.1,7.6c1.1,0.8,2.3,1.2,3.7,1.1c1.7-0.1,3.1-0.9,4.2-2.3c2.1,2.8,5.8,2.8,7.9,1.1C94.9,108.5,95.7,105.3,93.9,102.6
		z M143.3,95.1c-0.2,0-0.3,0-0.4,0c-4.5,0-9,0-13.5,0c-0.2,0-0.3-0.1-0.5-0.2c-0.9-0.9-1.9-1.5-3.1-1.9c-0.6-0.2-1.3-0.3-1.9-0.3
		c-1,0-2,0.3-3,0.8c-2.7,1.4-4.4,4.4-3.9,7.6c0.4,2.4,1.7,4.2,3.9,5.3c1,0.5,2.1,0.8,3.2,0.8c1.9-0.1,3.5-0.8,4.8-2.2
		c0.4-0.4,0.7-0.8,1.1-1.3c4.4,0,8.8,0,13.3,0C143.3,100.9,143.3,98,143.3,95.1z M39.1,100c0,4.1,3.3,7.3,7.3,7.3
		c4,0,7.3-3.3,7.3-7.4c0-4-3.3-7.3-7.3-7.3C42.4,92.7,39.1,96,39.1,100z"/>
	<path class="OOCL" d="M80.1,100.5c-0.2,0.5-0.5,0.7-0.9,0.6c-0.3-0.1-0.6-0.3-0.7-0.6c-0.1-0.4,0.1-0.7,0.4-0.8
		c0.4-0.2,0.7-0.1,1.1,0.4c0.7-0.1,1.5-0.2,2.3-0.2c0-0.2,0-0.3,0.1-0.5c-1.7-0.5-3.3-1.1-5-1.6C77.2,97.8,77,98,76.6,98
		c-0.2,0-0.5,0-0.7-0.2c-0.4-0.3-0.6-0.8-0.4-1.2c0.1-0.4,0.6-0.7,1-0.7c0.5,0,0.9,0.4,1,1.1c1.7,0.5,3.3,1.1,5,1.6
		c0.1-0.2,0.2-0.3,0.3-0.5c-0.6-0.5-1.1-1-1.7-1.5c-0.2,0-0.3,0.1-0.4,0.1c-0.4,0-0.8-0.4-0.8-0.8c0-0.4,0.4-0.8,0.8-0.8
		c0.4,0,0.8,0.4,0.8,0.8c0,0.2,0.1,0.4,0.2,0.5c0.4,0.4,0.8,0.7,1.2,1.1c0.1,0.1,0.2,0.1,0.3,0.2c0.1-0.1,0.3-0.2,0.4-0.3
		c-0.3-0.7-0.6-1.4-0.9-2.1c-0.5-0.1-0.8-0.2-0.9-0.7c0-0.3,0.1-0.7,0.5-0.8c0.3-0.1,0.7,0,0.9,0.2c0.3,0.3,0.2,0.6,0,1.1
		c0.3,0.7,0.6,1.4,0.9,2.1c0.2,0,0.3-0.1,0.5-0.1c0-1.8,0-3.5,0-5.3c-0.3-0.1-0.6-0.3-0.7-0.6c-0.1-0.2-0.1-0.4,0-0.7
		c0.1-0.4,0.5-0.7,1-0.7c0.5,0,0.9,0.3,1,0.8c0.1,0.5-0.1,0.9-0.7,1.3c0,1.8,0,3.5,0,5.3c0.2,0,0.3,0.1,0.5,0.1
		c0.3-0.7,0.6-1.4,0.9-2.1c-0.3-0.5-0.3-0.9,0-1.2c0.2-0.3,0.6-0.3,0.9-0.2c0.3,0.2,0.5,0.5,0.4,0.8c-0.1,0.4-0.3,0.6-0.8,0.7
		c-0.3,0.7-0.6,1.4-0.9,2.1c0.1,0.1,0.3,0.2,0.4,0.3c0.6-0.5,1.1-1,1.7-1.5c-0.1-0.6,0.1-0.9,0.4-1.1c0.3-0.1,0.7-0.1,0.9,0.2
		c0.2,0.3,0.3,0.7,0.1,1c-0.2,0.3-0.5,0.4-1,0.3c-0.6,0.5-1.1,1-1.7,1.5c0.1,0.2,0.2,0.3,0.3,0.5c1.7-0.5,3.3-1.1,5-1.6
		c0-0.3,0.1-0.7,0.4-0.9c0.2-0.1,0.4-0.2,0.6-0.2c0.4,0,0.9,0.3,1,0.7c0.1,0.5-0.1,0.9-0.5,1.2c-0.4,0.3-0.9,0.2-1.4-0.3
		c-1.7,0.5-3.3,1.1-5,1.6c0,0.2,0,0.4,0.1,0.5c0.8,0.1,1.5,0.2,2.2,0.2c0.4-0.5,0.7-0.6,1.1-0.4c0.3,0.1,0.5,0.5,0.5,0.8
		c0,0.4-0.3,0.6-0.7,0.7c-0.4,0.1-0.7-0.1-0.9-0.6c-0.7-0.1-1.5-0.2-2.3-0.2c-0.1,0.2-0.1,0.3-0.2,0.5c0.7,0.4,1.3,0.8,2,1.1
		c0.5-0.3,0.8-0.2,1.1,0c0.2,0.2,0.3,0.7,0.1,1c-0.2,0.3-0.5,0.4-0.9,0.4c-0.4-0.1-0.6-0.4-0.6-0.9c-0.6-0.4-1.3-0.7-2-1.1
		c-0.1,0.1-0.2,0.3-0.4,0.4c1,1.4,2,2.8,3.1,4.2c0.1,0,0.2,0,0.3,0c0.5,0,0.9,0.2,1.1,0.7c0.2,0.4,0,0.9-0.4,1.2
		c-0.4,0.3-0.9,0.2-1.2,0c-0.4-0.3-0.5-0.8-0.3-1.2c0-0.1,0.1-0.1,0.1-0.2c-1-1.4-2-2.8-3.1-4.2c-0.2,0.1-0.3,0.2-0.5,0.2
		c0.2,0.7,0.3,1.5,0.5,2.2c0.5,0.2,0.7,0.5,0.7,0.9c0,0.3-0.3,0.6-0.6,0.7c-0.3,0.1-0.7-0.1-0.9-0.4c-0.2-0.3-0.1-0.7,0.2-1.1
		c-0.2-0.7-0.3-1.5-0.5-2.2c-0.2,0-0.4,0-0.6,0c-0.2,0.7-0.3,1.5-0.5,2.2c0.4,0.4,0.5,0.7,0.3,1.1c-0.2,0.3-0.5,0.5-0.9,0.4
		c-0.3-0.1-0.6-0.3-0.6-0.7c0-0.4,0.1-0.7,0.7-0.9c0.2-0.7,0.3-1.4,0.5-2.2c-0.2-0.1-0.3-0.1-0.5-0.2c-1,1.4-2.1,2.8-3.1,4.2
		c0.3,0.6,0.3,1-0.1,1.4c-0.3,0.3-0.8,0.4-1.2,0.1c-0.4-0.2-0.6-0.7-0.4-1.2c0.2-0.5,0.6-0.7,1.4-0.7c1-1.4,2-2.8,3.1-4.2
		c-0.1-0.1-0.2-0.3-0.4-0.4c-0.4,0.2-0.8,0.4-1.1,0.7c-0.2,0.1-0.4,0.2-0.6,0.4c-0.1,0.1-0.2,0.2-0.2,0.3c0,0.5-0.4,0.8-0.9,0.7
		c-0.3,0-0.5-0.2-0.7-0.5c-0.1-0.3-0.1-0.6,0.1-0.8c0.2-0.2,0.5-0.3,0.8-0.2c0.1,0,0.2,0.1,0.3,0.1c0.6-0.4,1.3-0.8,2-1.1
		c0-0.2-0.1-0.3-0.2-0.5C81.7,100.3,80.9,100.4,80.1,100.5z"/>
</g>
</svg>
