<?xml version="1.0" encoding="utf-8"?>

<svg version="1.1" xmlns="http://www.w3.org/2000/svg" xmlns:xlink="http://www.w3.org/1999/xlink" x="0px" y="0px"
	 viewBox="0 0 200 200" style="enable-background:new 0 0 200 200;" xml:space="preserve">
<style type="text/css">
	.PolyU{fill:#8F1329;}
</style>
<path class="PolyU" d="M43.6,71.4c5.8-1.2,11.8-0.7,17.3,1.5l31.1-31.1c4.3-4.3,11.5-4.2,15.9,0.2c4.3,4.3,4.3,11.6,0,15.9l-8,8
	l-12-12l-9.5,9.5L112,96.9l9.5-9.5l-12-12l7.9-7.9l0,0c9.7-9.7,9.7-25.3,0-35c-9.7-9.7-25.3-9.7-35-0.1
	C82.5,32.4,43.5,71.4,43.6,71.4 M128.9,43.9c1.2,5.8,0.7,11.8-1.5,17.3l31.1,31.1c4.3,4.3,4.2,11.5-0.2,15.9
	c-4.3,4.3-11.6,4.3-15.9,0l-8-8l12-12l-9.5-9.5l-33.6,33.6l9.5,9.5l12-12l7.9,7.9l0,0c9.7,9.7,25.3,9.7,35,0
	c9.7-9.7,9.7-25.3,0.1-35C167.8,82.8,128.8,43.8,128.9,43.9 M156.4,129.1c-5.8,1.2-11.8,0.7-17.3-1.5l-31.1,31.1
	c-4.3,4.3-11.5,4.2-15.8-0.1c-4.3-4.3-4.3-11.6,0-15.9l8-8l12,12l9.5-9.5L88,103.6l-9.5,9.5l12,12l-7.9,7.9l0,0
	c-9.7,9.7-9.7,25.3,0,35c9.7,9.7,25.4,9.7,35,0.1C117.5,168,156.4,129.1,156.4,129.1 M71.1,156.6c-1.2-5.8-0.7-11.8,1.5-17.3
	l-31.1-31.1c-4.3-4.3-4.2-11.5,0.2-15.8c4.3-4.3,11.6-4.3,15.9,0l8,8l-12,12l9.5,9.5l33.6-33.6l-9.5-9.5l-12,12l-7.9-7.9l0,0
	c-9.7-9.7-25.3-9.7-35,0c-9.7,9.7-9.7,25.3-0.1,35C32.2,117.7,71.2,156.6,71.1,156.6"/>
</svg>
