<?xml version="1.0" encoding="utf-8"?>

<svg version="1.1" xmlns="http://www.w3.org/2000/svg" xmlns:xlink="http://www.w3.org/1999/xlink" x="0px" y="0px"
	 viewBox="0 0 200 200" style="enable-background:new 0 0 200 200;" xml:space="preserve">
<style type="text/css">
	.SGG{fill:#CA990F;}
</style>
<g>
	<g>
		<path class="SGG" d="M168,26.7c0,20.1,0,40.1,0,60.2c0,8.1,0.8,16.6,0,24.7c-0.4,4.4-4,4.1-7.3,4.1c-5.9,0-11.8,0-17.7,0
			c-5.8,0-11.6,0-17.6,0c-1.1,0-2.6-0.2-3.7,0c-3,0.5-2.3,3.6-2.3,6c0,1.6-0.5,3.2,0.6,3.7c1.1,0.6,4.1,0,5.4,0c6.3,0,12.6,0,18.9,0
			c3,0,6.1,0,9.1,0c1.3,0,4.3-0.6,5.6,0c1.1,0.5,0.3-0.4,0.7,0.7c0.5,1.1,0,3.7,0,4.9c0,12.3,0,24.7,0,37.1c0,1.7,0.4,3.7,0,5.4
			c-0.4,1.5,0.4,0.8-1,1.2c-2.3,0.8-6.4,0-8.9,0c-1.1,0-3.1,0.4-3.6-0.4c-0.5-1,0-4,0-5.1c0-3.1,0-6.1,0-9.2c0-6.1,0-12.2,0-18.3
			c0-0.4,0.4-2.6,0-3c-0.5-0.5-4.1,0-4.9,0c-6.2,0-12.3,0-18.4,0c-0.5,0-3.2-0.4-3.5,0.1c-0.4,0.4,0,3.5,0,4.1c0,6.2,0,12.3,0,18.5
			c0,2.9,0,5.8,0,8.8c0,0.7,0.4,3.8,0,4.3c-0.5,0.6-4.4,0.1-5.3,0.1c-1.6,0-6.5,0.9-7.8,0c-0.9-0.6-0.4-4.8-0.4-6
			c0-5.5,0-10.9,0-16.4c0-12.5,0-25.1,0-37.7c0-2.7-0.4-5.7,0-8.5c0.5-4.8,5.2-3.9,8.7-3.9c11.7,0,23.4,0,35.1,0
			c2.7,0,4.7-0.2,4.9-3.4c0.2-3.6,0-7.3,0-11c0-12.9,0-25.7,0-38.5c0-5.4,0-10.8,0-16.2c0-0.9-0.6-5.7,0.1-6.4c0.8-0.7,5.6,0,6.7,0
			C163.5,26.7,165.8,26.7,168,26.7z"/>
		<path class="SGG" d="M90.3,102.2c-10,0-19.9,0-29.9,0c-4,0-8.6,0.7-12.5,0c-3.1-0.5-2.5-3.4-2.5-5.8c0-22.3,0-44.5,0-66.9
			c0-3.5-0.1-2.8-3.9-2.8c-2.3,0-6.7-0.9-8.8,0c-1.2,0.5-0.3-0.4-0.7,0.8c-0.4,0.9,0,2.6,0,3.6c0,2,0,4.1,0,6.1c0,5.6,0,11.2,0,16.8
			c0,13.1,0,26.2,0,39.3c0,4.7,0,9.3,0,14c0,2.5-0.6,6.3,1.9,7.7c2.6,1.5,7.9,0.5,10.8,0.5c6.5,0,13.1,0,19.7,0
			c4.4,0,9.1-0.4,13.5,0c2.2,0.3,2.7,1.3,2.8,3.4c0,1,0.6,5.6-0.1,6.4c-0.4,0.4-3.4,0-4,0c-2.7,0-5.5,0-8.2,0c-6.5,0-13,0-19.5,0
			c-1.4,0-7.8-0.8-8.6,0.2c-0.4,0.5,0,3,0,3.6c0,2.5,0,5,0,7.5c0,11.9,0,23.7,0,35.6c0,0.4-0.3,2.2,0,2.5c0.8,0.7,6,0,7.1,0
			c0.9,0,5.7,0.6,6.4,0c0.4-0.4,0-3.2,0-3.7c0-6.1,0-12.2,0-18.3c0-3,0-6,0-9c0-0.8-0.5-4.1,0-4.8c0.4-0.4,2.1-0.2,2.8-0.2
			c2.8,0,5.6,0,8.5,0c3.3,0,6.5,0,9.8,0c0.8,0,5-0.6,5.6,0c1.1,1.1,0.2,8.1,0.2,9.7c0,6.5,0,13.1,0,19.5c0,1.4-0.6,4.6,0,5.9
			c0.5,1.1,1,0.7,2.6,0.7c2.2,0,9.9,1.1,10.8-0.5c0.4-0.8,0-2.9,0-3.8c0-2.2,0-4.4,0-6.6c0-6.1,0-12.2,0-18.3c0-11.8,0-23.5,0-35.4
			C94,107.3,94.7,102.2,90.3,102.2z"/>
		<path class="SGG" d="M142.6,25.3c-22.5,0-44.9,0-67.4,0c-4.9,0-9.8,0-14.7,0c-2.5,0-5-0.4-5.4,2.7c-0.4,3.9,0,8.1,0,12
			c0,7.1,0,14.1,0,21.2c0,6.9,0,13.8,0,20.7c0,3.4-0.6,7.3,0,10.6c0.5,3.1,3.9,2.4,6.4,2.4c5.1,0,10.2,0,15.3,0
			c14.4,0,28.8,0,43.1,0c5.6,0,11.1,0,16.7,0c2,0,6.9,0.9,8-1.4c1.1-2.2,0.2-6.6,0.2-8.9c0-6.7,0-13.4,0-20c0-11.8,0.4-23.8,0-35.6
			C144.8,27.3,144.9,25.3,142.6,25.3z M131.1,82.8c0,1.6-23.5,0.7-25.5,0.7c-11.3,0-22.6,0-33.9,0c-0.5,0-1.9,0.3-2.4-0.2
			c-0.9-0.9-0.5-6.4-0.2-7.6c0.4-1.6-0.4-0.8,1.1-1.1c1.4-0.4,3.4,0,4.8,0c12.4,0,24.9,0,37.4,0c5.5,0,10.9,0,16.3,0
			c0.5,0,2.1-0.3,2.5,0.1C131.9,75.6,131.1,81.4,131.1,82.8z M131.1,64.9c-8.9,0-17.7,0-26.6,0c-11.2,0-22.8,0.9-33.9,0
			c-0.7-0.1-1.2,0.2-1.6-0.3c-0.6-0.9-0.4-7.7,0-8.6c0.5-1.1-0.2-0.5,1.2-0.8c1.6-0.4,3.5,0,5.1,0c12.8,0,25.5,0,38.3,0
			c5.2,0,10.5-0.1,15.7,0c1.6,0,1.2-0.3,1.7,0.8C131.9,58.1,131.1,62.5,131.1,64.9z M131.1,45.4c-19.9,0-40,0-59.9,0
			c-0.3,0-1.9,0.3-2.1,0c-0.6-0.5-0.3-6.6,0-7.6c0.6-2.4,4.1-1.4,6.4-1.4c12.4,0,24.9,0,37.3,0c5.3,0,10.6,0,15.8,0
			c1.2,0,2-0.3,2.6,0.8C131.9,39.1,131.1,43.5,131.1,45.4z"/>
	</g>
</g>
</svg>
