<?xml version="1.0" encoding="utf-8"?>

<svg version="1.1" id="Layer_1" xmlns="http://www.w3.org/2000/svg" xmlns:xlink="http://www.w3.org/1999/xlink" x="0px" y="0px"
	 viewBox="0 0 200 200" style="enable-background:new 0 0 200 200;" xml:space="preserve">
<style type="text/css">
	.UST0{fill:#A68137;}
	.UST1{fill:#003974;}
</style>
<g>
	<g>
		<path class="UST0" d="M120.6,55.7c0.7-0.9,1-2.5,1-2.5H79c0,0,0.5,1.8,1,2.5H120.6z"/>
		<path class="UST0" d="M118.1,59.3c0.8-0.7,1.6-2.1,1.6-2.1H80.8c0,0,0.4,1.1,1.4,2.1H118.1z"/>
		<path class="UST0" d="M115.1,62.6c1-0.5,1.8-1.6,1.8-1.6H83.5c0,0,0.8,0.9,1.6,1.6H115.1z"/>
		<path class="UST0" d="M111.2,65.7c1-0.4,2-1.2,2-1.2h-26c0,0,0,0.2,1.8,1.2H111.2z"/>
		<path class="UST0" d="M92.1,67.6c0,0,2.7,1.6,8.1,1.6c5.4,0,8.8-1.6,8.8-1.6H92.1z"/>
		<path class="UST1" d="M91.6,71.2c0,0,3.3,0.2,5.2,1.7c1.9,1.6,3.3,4.2,3.3,4.2s1.1-2.5,3-3.9c1.8-1.4,4.8-2,4.8-2h33.6l6.6,9.8H118
			c0,0-2.1,0.1-5.3,1.9c-1.7,1-2.9,2.6-2.9,2.6s-0.2,0.8-0.6,1.2c-0.4,0.4-0.6,0.8-1.1,1c-0.4,0.2-0.4,0.1-0.4,0.1H92.1
			c0,0-0.6-0.2-1-0.8c-0.4-0.5-0.1-0.3-0.4-0.8c-0.3-0.4-0.9-1.6-3.3-3.2c-2.5-1.6-4.8-1.8-4.8-1.8H51.9l6.7-10.1
			C58.6,71.2,91.6,71.2,91.6,71.2z"/>
		<path class="UST1" d="M67.9,85.1v50c0,0,0.2,4.4,3.9,10.4c3.7,6,9.1,8.7,9.1,8.7l4.2-6.6c0,0-3.7-2.2-6.5-6.4
			c-2.7-4.2-2.7-7.8-2.7-7.8V85.1L67.9,85.1L67.9,85.1z"/>
		<path class="UST1" d="M124.6,84.9v48.3c0,0-0.6,4.9-2.9,8.3c-2.3,3.5-6.1,6.3-6.1,6.3l4.1,6.5c0,0,6.2-4.5,9.1-9.2
			c3-4.7,3.7-11.9,3.7-11.9V84.9H124.6z"/>
		<path class="UST1" d="M55.3,85.1v50.2c0,0,0.5,7.8,5.4,15.9c4.9,8.1,13.7,13.7,13.7,13.7l4.1-6.6c0,0-5.6-3-10.1-9.9
			c-4.6-7-4.8-13.3-4.8-13.3v-50C63.5,85.1,55.3,85.1,55.3,85.1z"/>
		<path class="UST0" d="M91.6,90.3v53c0,0-0.2,0.2-0.3,1c-0.1,0.8-0.6,1.3-0.6,1.3L73,175h54.3l-17.7-30l-0.5-1.3l-0.2-1.4V90.4h-6.6
			v53.8c0,0,0,0.8,0.3,1.4c0.2,0.6,0.5,1.6,0.5,1.6l10.9,18H86.3l10.7-17.9c0,0,0.4-0.6,0.6-1.5c0.2-0.8,0.3-1.6,0.3-1.6V90.3H91.6z
			"/>
		<path class="UST1" d="M136.9,84.9v49.3c0,0-0.1,6.3-4.7,13.6c-4.7,7.3-10,10.4-10,10.4l4,6.7c0,0,8.1-5.1,13.2-13.2
			c5-8.1,5.6-17.5,5.6-17.5V84.9H136.9z"/>
		<path class="UST0" d="M78.8,51.9c0,0-2.7-14.9,8.2-22.3c0,0,4.9-4.6,12.9-4.6c8.6,0,13.5,4.5,13.5,4.5c11.9,8.7,8.4,22.4,8.4,22.4
			L78.8,51.9L78.8,51.9z"/>
	</g>
</g>
</svg>
