<?xml version="1.0" encoding="utf-8"?>

<svg version="1.1" id="Layer_1" xmlns="http://www.w3.org/2000/svg" xmlns:xlink="http://www.w3.org/1999/xlink" x="0px" y="0px"
	 viewBox="0 0 200 200" style="enable-background:new 0 0 200 200;" xml:space="preserve">
<style type="text/css">
	.IllustratorDraw0{fill-rule:evenodd;clip-rule:evenodd;fill:#28190E;}
	.IllustratorDraw1{fill-rule:evenodd;clip-rule:evenodd;fill:#F47C20;}
	.IllustratorDraw2{fill-rule:evenodd;clip-rule:evenodd;fill:#FFE4CA;}
</style>
<g>
	<path class="IllustratorDraw0" d="M51.8,32.4c-17.4,0-21.4,10.3-21.4,27.7l0.1,84.3c0,17.4,5.4,23.2,22.8,23.2h93c17.3,0,23.2-5.8,23.2-23.2
		V56.9c0-17.4-6.5-24.5-23.8-24.5H51.8z"/>
	<path class="IllustratorDraw1" d="M25,53.8v92.6c0,14.8,11.4,26.7,26.2,26.7h97c14.8,0,26.8-12,26.8-26.7V53.6c0-14.8-12-26.7-26.8-26.7h-97
		c-14.8,0-26.2,12-26.2,26.7C25,53.6,25,53.8,25,53.8z M146.3,33.2c11.9,0,22.4,9.8,22.4,21.7v88.9c0,11.9-9.7,22.9-21.6,22.9H52.9
		c-11.9,0-21.6-10.1-21.6-22.1l0-88.5c0-11.9,9.7-23,21.6-23C52.9,33.2,146.3,33.2,146.3,33.2z"/>
	<path class="IllustratorDraw1" d="M109.9,65.6H96.4c0,6.2-9.6,18-12.7,20.6l17.3,32.5h0.2v-22c-1.9-0.7-3.2-2.5-3.2-4.7c0-2.8,2.2-5,5-5
		c2.8,0,5.1,2.2,5.1,5c0,2.2-1.3,4-3.2,4.7v22h0.4l17.2-32.4C118.8,84.1,109.9,73.1,109.9,65.6z"/>
	<path class="IllustratorDraw2" d="M144.1,65.5c-0.6-0.3-1.4-0.1-1.7,0.5l-39.2,70.7L65.7,69.1c-1.4-2.4-2.8-3.8-5-3.8c-2.9,0-5.3,2.4-5.3,5.3
		c0,1.4,0.3,2.1,1.5,3.7c1.1,1.6,45.2,65.8,45.2,65.8l0,0l0,0c0.1,0.2,0.2,0.3,0.4,0.4c0.2,0.1,0.4,0.2,0.6,0.2
		c0.4,0,0.9-0.2,1.1-0.7l40.4-72.7C144.9,66.6,144.7,65.8,144.1,65.5z"/>
</g>
</svg>
