<?xml version="1.0" encoding="utf-8"?>

<svg version="1.1" id="Logo" xmlns="http://www.w3.org/2000/svg" xmlns:xlink="http://www.w3.org/1999/xlink" x="0px" y="0px"
	 viewBox="0 0 200 200" style="enable-background:new 0 0 200 200;" xml:space="preserve">
<style type="text/css">
	.AdobeAfterEffects0{fill-rule:evenodd;clip-rule:evenodd;fill:#1F0040;}
	.AdobeAfterEffects1{fill-rule:evenodd;clip-rule:evenodd;fill:#D291FF;}
</style>
<g>
	<g>
		<rect x="31.2" y="33.1" class="AdobeAfterEffects0" width="137.5" height="133.7"/>
	</g>
	<g>
		<path class="AdobeAfterEffects1" d="M25,26.9v146.2h150V26.9H25z M31.2,33.1h137.5v133.7H31.2V33.1z"/>
	</g>
	<path class="AdobeAfterEffects1" d="M67.4,109.7l-4.9,18.7c-0.1,0.5-0.3,0.7-0.9,0.7h-9.2c-0.6,0-0.7-0.2-0.6-0.9l17.7-62.1c0.3-1.1,0.5-2,0.6-5.1
		c0-0.4,0.2-0.6,0.5-0.6h13.1c0.4,0,0.6,0.1,0.7,0.6l19.9,67.3c0.1,0.5,0,0.8-0.5,0.8H93.5c-0.5,0-0.8-0.2-0.9-0.6l-5.2-18.8
		L67.4,109.7L67.4,109.7z M84.9,99.5c-1.8-6.9-6-22.1-7.5-29.4h-0.1C76,77.5,72.6,89.8,70,99.5L84.9,99.5z M118.4,105.9
		c0.1,8.5,4.1,14.1,13.6,14.1c3.7,0,6.9-0.5,10.2-1.9c0.4-0.2,0.7-0.1,0.7,0.4v7.8c0,0.6-0.2,0.9-0.6,1.2c-3.3,1.7-7.4,2.4-12.6,2.4
		c-16.5,0-22.7-12.2-22.7-25.8c0-14.7,7.6-26.8,21-26.8c13.6,0,18.4,11.4,18.4,20.7c0,3-0.2,5.5-0.5,6.6c-0.1,0.5-0.3,0.7-0.8,0.8
		c-1.2,0.2-4.9,0.4-10.4,0.4L118.4,105.9L118.4,105.9z M131.1,97.3c3.2,0,4.3,0,4.6-0.1c0-0.4,0.1-0.8,0.1-1.1
		c0-3.4-1.7-9.6-8.1-9.6c-6,0-8.6,5.3-9.2,10.8C118.5,97.3,131.1,97.3,131.1,97.3z"/>
</g>
</svg>
