<?xml version="1.0" encoding="utf-8"?>

<svg version="1.1" id="Layer_1" xmlns="http://www.w3.org/2000/svg" xmlns:xlink="http://www.w3.org/1999/xlink" x="0px" y="0px"
	 viewBox="0 0 200 200" style="enable-background:new 0 0 200 200;" xml:space="preserve">
<style type="text/css">
	.Fresco0{fill:#B8D433;}
	.Fresco1{fill:#212815;}
	.Fresco2{fill:#F1F4C8;}
</style>
<g>
	<path class="Fresco0" d="M51.6,26.9h96.8c14.7,0,26.6,11.9,26.6,26.6v93c0,14.7-11.9,26.6-26.6,26.6H51.6c-14.7,0-26.6-11.9-26.6-26.6
		V53.4C25,38.8,36.9,26.9,51.6,26.9z"/>
	<path class="Fresco1" d="M54,33.1h91.9c12.5,0,22.7,10.2,22.7,22.7V144c0,12.5-10.2,22.7-22.7,22.7H54c-12.5,0-22.7-10.2-22.7-22.7
		V55.8C31.2,43.3,41.4,33.1,54,33.1z"/>
	<g id="_256">
		<path class="Fresco2" d="M78.6,129c0,0.6-0.2,0.8-0.7,0.8h-9.6c-0.5,0-0.7-0.2-0.7-0.9V63.8c0-0.4,0.2-0.6,0.7-0.6h33.7
			c0.6,0,0.7,0.2,0.8,0.7l1,8.4c0.1,0.6-0.2,0.8-0.9,0.9H78.7v19.5l21.8-0.1c0.5,0,0.7,0.1,0.7,0.7v7.8c0,0.6-0.2,0.7-0.7,0.7H78.6
			V129z"/>
		<path class="Fresco2" d="M113,90.8c0-0.7,0-2.5-0.3-5.9c0-0.5,0.1-0.6,0.5-0.8c7.1-2.7,14.5-4.2,22.1-4.2c0.5,0,0.7,0.1,0.7,0.6v8.9
			c0,0.5-0.2,0.6-0.7,0.6c-3.8-0.2-9,0.5-11.2,1.4v38.1c0,0.5-0.2,0.7-0.7,0.7l-9.8-0.2c-0.5,0-0.7-0.2-0.7-0.7L113,90.8z"/>
	</g>
</g>
</svg>
