<?xml version="1.0" encoding="utf-8"?>

<svg version="1.1" id="Layer_1" xmlns="http://www.w3.org/2000/svg" xmlns:xlink="http://www.w3.org/1999/xlink" x="0px" y="0px"
	 viewBox="0 0 200 200" style="enable-background:new 0 0 200 200;" xml:space="preserve">
<style type="text/css">
	.Dreamweaver0{fill-rule:evenodd;clip-rule:evenodd;fill:#182916;}
	.Dreamweaver1{fill-rule:evenodd;clip-rule:evenodd;fill:#6FBE44;}
</style>
<g>
	<g>
		<rect x="31.2" y="33.1" class="Dreamweaver0" width="137.5" height="133.7"/>
	</g>
	<g>
		<path class="Dreamweaver1" d="M25,26.9v146.2h150V26.9H25z M31.2,33.1h137.5v133.7H31.2V33.1z"/>
	</g>
	<path class="Dreamweaver1" d="M44.5,61.3c0-0.5,0.1-0.7,0.7-0.8c2.4-0.1,9.2-0.3,16.2-0.3c20.9,0,31.3,13.5,31.3,33.3
		c0,27.5-18,35.9-32,35.9c-5.3,0-12.9-0.1-15.7-0.2c-0.4,0-0.6-0.3-0.6-0.8C44.5,128.3,44.5,61.3,44.5,61.3z M55.8,119.3
		c1.8,0.1,3.3,0.2,5.3,0.2c11.5,0,20.1-8.1,20.2-25.7c0.1-17.1-8.8-23.7-19.8-23.7c-2.2,0-3.9,0.1-5.7,0.2V119.3z M135.1,129.1
		c-0.7,0-0.9-0.3-1-0.9c-3.1-17.2-5.7-29.4-6.8-37.9h-0.1c-1.3,7.6-3.8,20.3-7.9,38c-0.2,0.6-0.4,0.8-0.9,0.8h-10.1
		c-0.7,0-0.9-0.1-1.1-0.7L96,79.1c-0.1-0.4,0.1-0.8,0.7-0.8h10.1c0.4,0,0.7,0.1,0.8,0.6c3.9,22.2,5.6,33.7,6.2,38.2h0.4
		c0.7-5.4,2.9-16.5,7.5-38c0.2-0.6,0.2-0.8,0.8-0.8h10.6c0.5,0,0.6,0.2,0.7,0.8c3.6,20.3,6,33.1,6.6,38.3h0.3
		c1-6.6,2.4-15.5,6.8-38.4c0.1-0.4,0.2-0.7,0.7-0.7h9.5c0.4,0,0.7,0.2,0.5,0.7l-12.3,49.3c-0.1,0.5-0.2,0.7-0.9,0.7L135.1,129.1
		L135.1,129.1z"/>
</g>
</svg>
