<?xml version="1.0" encoding="utf-8"?>

<svg version="1.1" id="Layer_1" xmlns="http://www.w3.org/2000/svg" xmlns:xlink="http://www.w3.org/1999/xlink" x="0px" y="0px"
	 viewBox="0 0 200 200" style="enable-background:new 0 0 200 200;" xml:space="preserve">
<style type="text/css">
	.Illustrator0{fill-rule:evenodd;clip-rule:evenodd;fill:#261300;}
	.Illustrator1{fill-rule:evenodd;clip-rule:evenodd;fill:#FF7C00;}
</style>
<g>
	<g>
		<rect x="31.2" y="33.1" class="Illustrator0" width="137.5" height="133.7"/>
	</g>
	<g>
		<path class="Illustrator1" d="M25,26.9v146.2h150V26.9H25z M31.2,33.1h137.5v133.7H31.2V33.1z"/>
	</g>
	<path class="Illustrator1" d="M77,109.7l-4.9,18.7c-0.1,0.5-0.3,0.6-0.9,0.6H62c-0.6,0-0.7-0.2-0.6-0.9L79.1,66c0.3-1.1,0.5-2.1,0.6-5.2
		c0-0.4,0.2-0.6,0.5-0.6h13.1c0.4,0,0.6,0.1,0.7,0.6l19.9,67.5c0.1,0.5,0,0.8-0.5,0.8h-10.3c-0.5,0-0.8-0.1-0.9-0.5L97,109.7
		L77,109.7L77,109.7z M94.5,99.5c-1.8-6.9-5.9-22.1-7.4-29.4h-0.1c-1.3,7.3-4.6,19.7-7.2,29.4H94.5z M122.6,64.8
		c0-4,2.8-6.4,6.4-6.4c3.8,0,6.4,2.6,6.4,6.4c0,4.1-2.7,6.4-6.5,6.4C125.2,71.2,122.6,68.9,122.6,64.8z M123.3,79
		c0-0.5,0.2-0.7,0.7-0.7h9.8c0.5,0,0.7,0.2,0.7,0.7v49.3c0,0.5-0.1,0.7-0.7,0.7h-9.7c-0.6,0-0.8-0.3-0.8-0.8V79z"/>
</g>
</svg>
