<?xml version="1.0" encoding="utf-8"?>

<svg version="1.1" id="Layer_1" xmlns="http://www.w3.org/2000/svg" xmlns:xlink="http://www.w3.org/1999/xlink" x="0px" y="0px"
	 viewBox="0 0 200 200" style="enable-background:new 0 0 200 200;" xml:space="preserve">
<style type="text/css">
	.CharacterAnimator0{fill-rule:evenodd;clip-rule:evenodd;fill:#270A3B;}
	.CharacterAnimator1{fill-rule:evenodd;clip-rule:evenodd;fill:#BE96C5;}
	.CharacterAnimator2{fill:#BE96C5;}
</style>
<g>
	<g>
		<rect x="31.2" y="33.1" class="CharacterAnimator0" width="137.5" height="133.7"/>
	</g>
	<g>
		<path class="CharacterAnimator1" d="M25,26.9v146.2h150V26.9H25z M31.2,33.1h137.5v133.7H31.2V33.1z"/>
	</g>
	<g>
		<path class="CharacterAnimator2" d="M96.9,127.3c0,0.6-0.2,0.9-0.7,1.1c-2.7,1.1-7,1.5-11.4,1.5c-16.1,0-30.3-10.5-30.3-35.3
			c0-21.2,12.6-35.5,31.8-35.5c5.1,0,8.8,0.5,10.7,1.4c0.5,0.2,0.6,0.5,0.6,1.1v8.9c0,0.8-0.4,0.8-0.7,0.7c-2.5-1.2-6.2-2-10.5-2
			c-12.1,0-20.1,9.2-20.1,25c0,19.5,11,25.3,20.1,25.3c4.1,0,6.9-0.3,9.9-1.3c0.4-0.2,0.7-0.2,0.7,0.5L96.9,127.3L96.9,127.3z"/>
		<path class="CharacterAnimator2" d="M117.7,128.3c0,0.5-0.2,0.7-0.6,0.7h-9.9c-0.5,0-0.7-0.3-0.7-0.7V60.9c0-0.4,0.1-0.6,0.7-0.6h9.9
			c0.4,0,0.6,0.2,0.6,0.6v20.5c3.2-2.5,7.1-4,12.1-4c6.7,0,15,3.4,15,18.5v32.4c0,0.6-0.2,0.8-0.7,0.8h-9.8c-0.5,0-0.7-0.3-0.7-0.8
			V97c0-6.2-2.6-9.6-7.5-9.6c-3.2,0-6,1-8.3,3.1L117.7,128.3L117.7,128.3z"/>
	</g>
</g>
</svg>
