<?xml version="1.0" encoding="utf-8"?>

<svg version="1.1" id="Layer_1" xmlns="http://www.w3.org/2000/svg" xmlns:xlink="http://www.w3.org/1999/xlink" x="0px" y="0px"
	 viewBox="0 0 200 200" style="enable-background:new 0 0 200 200;" xml:space="preserve">
<style type="text/css">
	.Photoshop0{fill:#3FC7F4;}
	.Photoshop1{fill:#0A1F26;}
	.Photoshop2{fill-rule:evenodd;clip-rule:evenodd;fill:#DBF1FD;}
</style>
<g>
	<path class="Photoshop0" d="M148.4,173.1H51.6c-14.7,0-26.6-11.9-26.6-26.6V53.4c0-14.7,11.9-26.6,26.6-26.6h96.9
		c14.7,0,26.6,11.9,26.6,26.6v93.1C175,161.2,163.1,173.1,148.4,173.1z"/>
	<path class="Photoshop1" d="M146.1,166.9H53.9c-12.5,0-22.7-10.2-22.7-22.7V55.8c0-12.5,10.2-22.7,22.7-22.7H146
		c12.6,0,22.7,10.2,22.7,22.7v88.3C168.8,156.7,158.6,166.9,146.1,166.9z"/>
	<path class="Photoshop2" d="M61.9,63.5c0-0.4,0.1-0.7,0.6-0.7c3.9-0.2,9.6-0.3,15.6-0.3c16.9,0,24.2,9.2,24.2,21.1
		c0,15.5-11.4,22.1-25.1,22.1c-2.3,0-3.1-0.1-4.7-0.1v23.7c0,0.5-0.2,0.7-0.7,0.7h-9.3c-0.5,0-0.7-0.2-0.7-0.7V63.5z M72.5,95.9
		C73.9,96,75,96,77.4,96c7.1,0,13.9-2.5,13.9-12.2c0-7.8-4.9-11.7-13.1-11.7c-2.4,0-4.8,0.1-5.8,0.2C72.5,72.3,72.5,95.9,72.5,95.9z
		 M127,88.6c-4.8,0-6.4,2.4-6.4,4.4c0,2.2,1.1,3.8,7.6,7.1c9.6,4.6,12.6,9.1,12.6,15.6c0,9.8-7.4,15-17.5,15
		c-5.3,0-10.1-1.1-12.7-2.6c-0.4-0.2-0.5-0.5-0.5-1v-9c0-0.6,0.3-0.8,0.7-0.5c3.8,2.5,8.5,3.6,12.5,3.6c4.8,0,6.8-2,6.8-4.8
		c0-2.2-1.4-4.1-7.6-7.4c-8.7-4.1-12.3-8.4-12.3-15.4c0-7.9,6.1-14.4,16.8-14.4c5.2,0,9.1,0.8,11.1,1.7c0.5,0.3,0.6,0.8,0.6,1.2v8.4
		c0,0.5-0.3,0.8-0.9,0.6C135.1,89.6,130.9,88.6,127,88.6z"/>
</g>
</svg>
