<?xml version="1.0" encoding="utf-8"?>

<svg version="1.1" id="Layer_1" xmlns="http://www.w3.org/2000/svg" xmlns:xlink="http://www.w3.org/1999/xlink" x="0px" y="0px" viewBox="0 0 200 200" style="enable-background:new 0 0 200 200;" xml:space="preserve">
	<style type="text/css">
		.Atom0 {
			fill: url("#Atom_SVGID_1_");
		}
		.Atom1 {
			fill: url("#Atom_SVGID_2_");
		}
		.Atom2 {
			fill: #F2F8F6;
		}
		.Atom3 {
			fill: #F1F9F4;
		}
	</style>
	<g>

		<linearGradient id="Atom_SVGID_1_" gradientUnits="userSpaceOnUse" x1="0.3905" y1="0.1204" x2="0.3905" y2="0.6838" gradientTransform="matrix(255.7156 0 0 255.7156 0.1422 0.1326)">
			<stop offset="0" style="stop-color:#FFFFFF"/>
			<stop offset="1" style="stop-color:#CBCBCB"/>
		</linearGradient>
		<circle class="Atom0" cx="100" cy="100" r="75"/>

		<linearGradient id="Atom_SVGID_2_" gradientUnits="userSpaceOnUse" x1="0.3804" y1="0.1099" x2="0.3804" y2="0.6733" gradientTransform="matrix(233.8133 0 0 233.8133 10.9511 11.2437)">
			<stop offset="0" style="stop-color:#B5D997"/>
			<stop offset="1" style="stop-color:#07A172"/>
		</linearGradient>
		<circle class="Atom1" cx="99.9" cy="100.1" r="68.6"/>
		<g transform="translate(45.511111, 52.622222)">
			<path
				class="Atom2"
				d="M38.3,36.9c-0.8,1.2-1.6,2.5-2.3,3.7c-0.8-2.3-1.5-4.5-2.2-6.7c2.2-0.3,4.5-0.6,7-0.7
			C40,34.4,39.1,35.6,38.3,36.9L38.3,36.9L38.3,36.9z M98.8,41.3c-2.4-2.3-5.9-4.5-10.3-6.3c-8.8-3.7-20.5-6.1-33-6.8
			C54,28,52.5,28,51.1,28c9.6-11.4,18.8-17.5,24.2-17.7c1.1,0,2.1,0.2,2.8,0.7c2.5,1.6,3.2,6.7,1.9,13.6c-0.3,1.4,0.6,2.7,2,2.9
			c1.4,0.3,2.7-0.6,2.9-2c2.3-11.8-0.9-16.7-4-18.8c-1.6-1.1-3.6-1.6-5.8-1.5C66.8,5.6,55.2,14.4,44.6,28c-4.2,0.1-8.2,0.5-12,1.1
			c-0.4-1.9-0.7-3.8-1-5.6c-0.9-7.8,0.2-13.4,3.1-14.9c0.5-0.2,1-0.4,1.6-0.4c2.6-0.2,6.2,1.5,10.3,4.9c1.1,0.9,2.6,0.7,3.5-0.3
			c0.9-1.1,0.7-2.6-0.3-3.5C44.6,5,40,2.9,36,3.2c-1.2,0.1-2.4,0.4-3.5,1C29.8,5.5,28,8.2,27,12c-0.8,3.3-0.9,7.3-0.3,12.1
			c0.2,1.9,0.6,3.8,1,5.9c-3,0.6-5.7,1.4-8.2,2.3c-10.7,3.9-13.2,9-13.4,12.6c-0.2,3.4,1.6,8.6,11,13.4c1.2,0.6,2.7,0.2,3.4-1.1
			c0.6-1.2,0.2-2.7-1.1-3.4c-5.4-2.8-8.5-6-8.3-8.7c0.2-3.9,6.7-8,17.8-10.3c1,3.7,2.3,7.5,3.9,11.4c-4,7.5-6.9,14.8-8.4,21.4
			c-1.1,4.7-1.4,8.7-0.9,12.1c0.5,3.9,2.1,6.7,4.6,8.3c1.3,0.8,3,1.5,5.3,1.5c3.3,0,7.8-1.4,13.7-5.6c1.1-0.8,1.4-2.4,0.6-3.5
			c-0.8-1.1-2.4-1.4-3.5-0.6c-5.8,4.2-10.8,5.6-13.4,4c-2.7-1.8-3.3-7.4-1.5-15.1c1.2-5.1,3.3-10.7,6.1-16.5
			c0.6,1.3,1.3,2.6,1.9,3.9C43,67.3,50,77.1,57,83.6c3.5,3.3,6.9,5.6,10,6.8c1.9,0.8,3.7,1.2,5.3,1.2c1.5,0,2.9-0.3,4.2-1
			c2.6-1.3,4.4-3.8,5.4-7.4c0.8-3.1,1-6.9,0.6-11.4c-1-9-4.4-19.8-9.5-30.5c-0.6-1.2-2.1-1.8-3.3-1.2c-1.2,0.6-1.8,2.1-1.2,3.3
			c4.9,10.3,8.1,20.5,9,28.8c0.7,7.3-0.5,12.5-3.2,13.9c-2.9,1.5-8.1-0.8-13.8-6.2c-6.6-6.1-13.2-15.4-18.6-26
			c-1.2-2.4-2.4-4.9-3.4-7.3c1.3-2.3,2.7-4.6,4.2-6.9c1.5-2.4,3.1-4.6,4.6-6.6c0.4,0,0.8,0,1.2,0c2.1,0,4.5,0.1,6.9,0.2
			c12,0.6,23.1,2.9,31.3,6.4c7.2,3.1,11.5,6.9,11.3,10.1c-0.1,2.8-3.5,5.6-9.2,7.8c-1.3,0.5-1.9,2-1.4,3.2c0.4,1,1.3,1.6,2.3,1.6
			c0.3,0,0.6-0.1,0.9-0.2c9.9-3.9,12.2-8.8,12.4-12.2C103,46.9,101.7,44,98.8,41.3L98.8,41.3L98.8,41.3z"/>
			<path class="Atom3" d="M49.3,48c0,3,2.4,5.5,5.5,5.5c3,0,5.5-2.5,5.5-5.5s-2.4-5.5-5.5-5.5C51.8,42.6,49.3,45,49.3,48"/>
		</g>
	</g>
</svg>
