<?xml version="1.0" encoding="utf-8"?>

<svg version="1.1" id="Layer_1" xmlns="http://www.w3.org/2000/svg" xmlns:xlink="http://www.w3.org/1999/xlink" x="0px" y="0px" viewBox="0 0 200 200" style="enable-background:new 0 0 200 200;" xml:space="preserve">
	<style type="text/css">
		.AutoCAD0 {
			fill: #E4E4E4;
		}
		.AutoCAD1 {
			fill: #FFFFFF;
		}
		.AutoCAD2 {
			fill: #D8D8D8;
		}
		.AutoCAD3 {
			fill: #CECECE;
		}
		.AutoCAD4 {
			fill: #381313;
		}
		.AutoCAD5 {
			fill: #F06162;
		}
		.AutoCAD6 {
			fill: #B8B8B8;
		}
		.AutoCAD7 {
			fill: #D2D2D2;
		}
		.AutoCAD8 {
			fill: #CAC9C9;
		}
		.AutoCAD9 {
			fill: #6E1010;
		}
		.AutoCAD10 {
			fill: #C0BFBF;
		}
		.AutoCAD11 {
			fill: #C6C6C6;
		}
		.AutoCAD12 {
			fill: #6C0E0F;
		}
		.AutoCAD13 {
			fill: #4C1211;
		}
		.AutoCAD14 {
			fill: #620D0D;
		}
		.AutoCAD15 {
			fill: #471212;
		}
		.AutoCAD16 {
			fill: #55100F;
		}
		.AutoCAD17 {
			fill: #5A0D0D;
		}
		.AutoCAD18 {
			fill: #ED2225;
		}
		.AutoCAD19 {
			fill: #F05656;
		}
		.AutoCAD20 {
			fill: #F04A4B;
		}
		.AutoCAD21 {
			fill: #650E0E;
		}
		.AutoCAD22 {
			fill: #F05051;
		}
		.AutoCAD23 {
			fill: #F48788;
		}
		.AutoCAD24 {
			fill: #F26D6E;
		}
		.AutoCAD25 {
			fill: #EF4444;
		}
		.AutoCAD26 {
			fill: #F37778;
		}
		.AutoCAD27 {
			fill: #F15A5A;
		}
		.AutoCAD28 {
			fill: #F37F81;
		}
		.AutoCAD29 {
			fill: #F59495;
		}
	</style>
	<g>
		<path
			class="AutoCAD0"
			d="M175.1,57.1c0,39.1,0,78.2,0,117.3c-1.7,0-3.4,0-5.1,0c-0.4-0.6-0.8-1.2-1.3-1.8c-1.7-1.9-3.4-3.8-5.1-5.6
		c-1.7-1.9-3.4-3.8-5.1-5.7c-2.2-2.4-4.3-4.8-6.5-7.2c-1.7-1.9-3.4-3.8-5.1-5.6c-2.2-2.4-4.4-4.8-6.5-7.2c-1.7-1.9-3.4-3.7-5-5.6
		c-2.4-2.6-4.8-5.3-7.2-7.9c-0.4-0.4-0.6-0.9-1-1.4c1.5-0.7,3.1-1.3,4.6-2c-0.1-0.2-0.1-0.5-0.2-0.7c-11.8-18.9-23.6-37.8-35.3-56.8
		c-2-3.3-4.1-6.6-6.1-9.9c0.3,0,0.6,0,0.9,0C119,57.1,147,57.1,175.1,57.1z"/>
		<path
			class="AutoCAD1"
			d="M175.1,57.1c-28.1,0-56.1,0-84.2,0c-0.3,0-0.6,0-0.9,0c-0.2-0.2-0.3-0.4-0.5-0.7c-2.6-4.2-5.2-8.4-7.9-12.6
		c-3.1-5-6.3-10.1-9.4-15.1c-0.1-0.2-0.4-0.5-0.6-0.5c-1-0.2-2-0.3-3.1-0.4c-2.5-0.3-5-0.7-7.5-1c-2.5-0.3-5-0.7-7.5-1
		c-0.2,0-0.4,0.1-0.6,0.2c-0.5,0.9-1.2,1.8-1.4,2.8c-0.5,2.5-0.8,5-1.1,7.5c-0.4,2.5-0.8,5.1-1.2,7.6c-0.4,2.5-0.7,5.1-1.1,7.6
		c-0.3,1.9-0.6,3.7-0.9,5.6c-7.2,0-14.3,0-21.5,0c-0.5,0-0.5,0.2-0.5,0.6c0,5.1,0,10.1,0,15.2c0,9,0,18.1,0,27.1
		c0,9.2,0,18.5,0,27.7c0,11.2,0,22.5,0,33.7c0,4.3,0,8.6,0,12.9c0,0,0,0.1,0,0.1c-0.1,0-0.2-0.1-0.3-0.1c0-0.1,0-0.3,0-0.5
		c0-49.4,0-98.8,0-148.2c50,0,100.1,0,150.1,0C175.1,36.1,175.1,46.6,175.1,57.1z"/>
		<path
			class="AutoCAD2"
			d="M127,126.4c0.3,0.5,0.6,1,1,1.4c2.4,2.6,4.8,5.3,7.2,7.9c1.7,1.9,3.4,3.7,5,5.6c2.2,2.4,4.4,4.8,6.5,7.2
		c1.7,1.9,3.4,3.8,5.1,5.6c2.2,2.4,4.3,4.8,6.5,7.2c1.7,1.9,3.4,3.8,5.1,5.7c1.7,1.9,3.4,3.7,5.1,5.6c0.5,0.6,0.9,1.2,1.3,1.8
		c-9.6,0-19.2,0-28.8,0c-0.5,0-1,0-1.5,0c-2.2,0-4.4,0-6.6,0c-0.1-0.2-0.1-0.5-0.2-0.7c-1.9-2.1-3.7-4.1-5.6-6.2
		c-1-1.1-2-2.1-2.9-3.2c-2-2.2-4-4.5-6-6.7c-1-1.1-2-2.2-3-3.3c-2-2.3-4.1-4.5-6.1-6.8c-1-1.1-2-2.1-2.9-3.2
		c-1.9-2.1-3.8-4.3-5.8-6.4c-0.4-0.4-0.7-0.8-0.5-1.4c0.1,0,0.2-0.1,0.3-0.1c4.3-1.5,8.6-2.9,12.9-4.5
		C117.8,130.1,122.4,128.2,127,126.4z"/>
		<path
			class="AutoCAD3"
			d="M99.9,136.4c-0.2,0.6,0.1,1,0.5,1.4c2,2.1,3.9,4.3,5.8,6.4c1,1.1,2,2.1,2.9,3.2c2,2.3,4.1,4.5,6.1,6.8
		c1,1.1,2,2.2,3,3.3c2,2.2,4,4.5,6,6.7c1,1.1,2,2.2,2.9,3.2c1.9,2.1,3.8,4.1,5.6,6.2c0.1,0.2,0.1,0.4,0.2,0.7c-1.2,0-2.3,0-3.5,0
		c-0.2,0-0.3-0.1-0.5-0.1c-1.8,0-3.7,0-5.5,0c-0.2,0-0.3,0.1-0.5,0.1c-0.9,0-1.9,0-2.8,0c-0.3,0-0.5-0.1-0.8-0.1
		c-3.8,0-7.5,0-11.3,0c-0.5-0.6-0.9-1.2-1.4-1.7c-1.5-1.7-3-3.3-4.5-5c-1.9-2.1-3.7-4.2-5.6-6.3c-1.5-1.7-3.1-3.4-4.6-5.1
		c-2.3-2.6-4.6-5.2-7-7.8c-1.5-1.7-3.1-3.4-4.6-5.1c-0.4-0.5-0.8-1-1.1-1.5c0.1,0,0.2-0.1,0.2-0.1c4.6-1.2,9.2-2.3,13.7-3.5
		C95.5,137.8,97.7,137.1,99.9,136.4z"/>
		<path class="AutoCAD0" d="M108.2,174.2c3.8,0,7.5,0,11.3,0c0.3,0,0.5,0.1,0.8,0.1c-31.7,0-63.4,0-95,0c0,0,0-0.1,0-0.1
		c1.6,0,3.1,0,4.7,0c11.6,0,23.3,0,34.9,0c7.2,0,14.4,0,21.6,0C93.7,174.2,100.9,174.2,108.2,174.2z"/>
		<path class="AutoCAD0" d="M123.1,174.4c0.2,0,0.3-0.1,0.5-0.1c1.8,0,3.7,0,5.5,0c0.2,0,0.3,0.1,0.5,0.1
		C127.4,174.4,125.3,174.4,123.1,174.4z"/>
		<path class="AutoCAD0" d="M139.7,174.4c0.5,0,1,0,1.5,0C140.7,174.4,140.2,174.4,139.7,174.4z"/>
		<path
			class="AutoCAD4"
			d="M99.9,136.4c-2.2,0.6-4.4,1.3-6.6,1.9c-4.6,1.2-9.1,2.3-13.7,3.5c-0.1,0-0.2,0.1-0.2,0.1
		c-1.5,0.3-3,0.6-4.5,0.9c-3.9,0.6-7.8,1.2-11.7,1.8c-0.9,0.1-1.8,0.3-2.8,0.4c-1.4,0.1-2.9,0.2-4.3,0.3c-2.2,0.2-4.4,0.4-6.6,0.5
		c-3.4,0.1-6.7-0.1-10.1-0.1c-1.1-0.3-2.3-0.6-3.3-1c-1-0.4-1.6-1.2-1.5-2.3c0-0.5,0.2-1.1,0.3-1.6c0.8-1.1,1.5-2.3,2.4-3.4
		c1.3-1.5,2.8-3,4.2-4.4c1.4-0.1,2.8-0.3,4.2-0.4c3-0.3,5.9-0.6,8.9-0.9c3.5-0.3,7-0.7,10.5-1c1-0.1,1-0.1,1-1.1
		c0.2-5.7,0.4-11.4,0.6-17c0-1.3,0.1-2.6,0.2-3.9c2.5-0.1,5-0.2,7.5-0.3c0.6,0,1.1,0,1.7,0c1.6-0.1,3.1-0.2,4.7-0.3
		c-0.3,0.2-0.6,0.4-0.9,0.5c-0.7,0.3-1.5,0.4-2.2,0.8c-1.3,0.6-2.7,1.1-3.8,2c-2,1.5-3.5,3.4-4.2,5.9c-0.3,1.1-0.7,2.2-1,3.3
		c0,0.1,0,0.3,0,0.4c0.1,1.3,0.2,2.5,0.2,3.8c0.1,1.9,0.2,3.8,0.3,5.7c0.1,2.3,0.2,4.7,0.3,7c0,1.1,0.3,1.5,1.5,1.3
		c0.4-0.1,0.8-0.2,1.2-0.3c1.1-0.2,2.2-0.4,3.2-0.5c0.8-0.1,1.5-0.3,2.3-0.4c0.8-0.2,1.6-0.4,2.4-0.5c1.3-0.3,2.5-0.5,3.8-0.8
		c0.4-0.1,0.8-0.1,1.2-0.2c5.3-1.3,10.6-2.7,15.8-4.5c3.5-1.2,7-2.6,10.4-4.3c0.8-0.4,1.7-0.8,2.6-1.2c1.5-0.1,3-0.3,4.4-0.4
		c3-0.3,6.1-0.6,9.1-0.9c1.5-0.1,3-0.2,4.6-0.4c-1.5,0.7-3.1,1.3-4.6,2c-4.6,1.8-9.2,3.7-13.9,5.5c-4.3,1.6-8.6,3-12.9,4.5
		C100.1,136.3,100,136.4,99.9,136.4z"/>
		<path
			class="AutoCAD5"
			d="M80.4,108.2c-1.6,0.1-3.1,0.2-4.7,0.3c-0.6,0-1.1,0-1.7,0c-2.5,0.1-4.9,0.2-7.5,0.3c-0.1,1.3-0.1,2.6-0.2,3.9
		c-0.2,5.7-0.4,11.4-0.6,17c0,1,0,1-1,1.1c-3.5,0.3-7,0.7-10.5,1c-3,0.3-5.9,0.6-8.9,0.9c-1.4,0.1-2.8,0.3-4.2,0.4
		c0.2-2,0.4-3.9,0.6-5.9c0.3-2.7,0.6-5.4,0.9-8c0.3-2.6,0.6-5.2,0.9-7.8c0.3-2.7,0.6-5.3,0.9-8c0.3-2.6,0.6-5.2,0.9-7.8
		c0.3-2.7,0.6-5.4,0.9-8c0.3-2.6,0.6-5.2,0.9-7.8c0.3-2.7,0.6-5.3,0.9-8c0.3-2.6,0.6-5.2,0.9-7.8c0.3-3.1,0.7-6.2,1-9.2
		c0.3-2.6,0.6-5.2,0.9-7.8c0.3-2.7,0.6-5.4,0.9-8c0.3-2.7,0.6-5.3,0.9-8c0.2-1.6,0.3-3.2,0.5-4.8c0.2-0.1,0.4-0.3,0.6-0.2
		c2.5,0.3,5,0.7,7.5,1c2.5,0.3,5,0.7,7.5,1c1,0.1,2,0.2,3.1,0.4c0.2,0,0.5,0.3,0.6,0.5c3.1,5,6.3,10.1,9.4,15.1
		c2.6,4.2,5.2,8.4,7.9,12.6c0.1,0.2,0.3,0.4,0.5,0.7c2,3.3,4.1,6.6,6.1,9.9c11.8,18.9,23.6,37.8,35.3,56.8c0.1,0.2,0.1,0.4,0.2,0.7
		c-1.5,0.1-3,0.2-4.6,0.4c-3,0.3-6.1,0.6-9.1,0.9c-1.5,0.1-3,0.3-4.4,0.4c-0.5,0.1-0.8-0.2-1-0.6c-1.3-2.4-2.7-4.8-4.1-7.1
		c-0.6-1-1.2-2.1-1.8-3.1c0,0,0-0.1-0.1-0.1c0-0.1-0.1-0.1-0.1-0.2c-0.3-0.5-0.6-1.1-0.9-1.6c-0.3-0.5-0.6-1.1-1-1.6
		c-0.5-0.9-1-1.8-1.5-2.7c-0.5-1.2-1.1-2.2-2.7-1.6c0,0,0,0-0.1,0c-2,0.1-4,0.2-5.9,0.3c-2.2,0.1-4.5,0.2-6.7,0.3
		c-1.7,0.1-3.4,0.1-5,0.1C81.9,108.1,81.2,108.2,80.4,108.2z M100.4,75.6C100.4,75.6,100.4,75.6,100.4,75.6
		C100.4,75.6,100.4,75.6,100.4,75.6c-0.1-0.1-0.1-0.3-0.2-0.4c-1.2-2-2.4-3.9-3.6-5.9c-1.1-1.8-2.2-3.6-3.3-5.3
		c-0.6-1-1.3-1.9-1.9-2.9c-0.7-1.1-1.3-2.3-2-3.4c-0.7-1-1.4-2-2-3.1c-0.1-0.1-0.1-0.3-0.2-0.4c-1.8-2.9-3.6-5.7-5.4-8.6
		c-0.6-1-1.2-2-1.8-3c-1.5-2.5-3.1-4.9-4.6-7.4c-1.2-1.9-2.4-3.8-3.6-5.7c-0.2-0.2-0.4-0.5-0.7-0.6c-0.8-0.2-1.6-0.2-2.4-0.3
		c-1.6-0.2-3.3-0.4-4.9-0.6c-1.6-0.2-3.1-0.4-4.7-0.6c-1.7-0.3-3.5-0.5-5.2-0.8c-0.1,0.5-0.1,1-0.2,1.5c-0.1,0.9-0.2,1.8-0.3,2.7
		c0,0,0,0,0,0c0,0,0,0.1,0,0.1l0,0c-0.2,1.3-0.4,2.6-0.5,3.9c0,0.3-0.1,0.5-0.1,0.8c0,0.9-0.7,2,0.7,2.4c0,0,0,0,0,0
		c1.8,1.4,3.5,2.9,5.3,4.3c2,1.6,3.9,3.2,5.9,4.8c1,0.8,2,1.6,3.2,2.5c0-1.3,0-2.4,0-3.5c0.1-0.1,0.1-0.3,0.2-0.4
		c0.6,0.9,1.1,1.8,1.7,2.7c0,0.1,0,0.2,0.1,0.3c1,1.7,2,3.5,2.9,5.2c0.1,0.1,0.2,0.2,0.3,0.2c0.2,0.1,0.5,0.1,0.7,0.3
		c0.5,0.4,1,0.8,1.5,1.2c2.7,2.1,5.3,4.3,8,6.4c2.2,1.8,4.4,3.6,6.6,5.3c2.9,2.3,5.8,4.6,8.7,7C99.3,74.8,99.9,75.2,100.4,75.6z
		 M50.7,55.8c-0.2,1.4-0.4,2.8-0.5,4.2C50.1,60.7,50,61.3,50,62c-0.2,1.4-0.3,2.8-0.4,4.2c-0.2,1.4-0.4,2.8-0.5,4.2
		c-0.2,1.5-0.3,2.9-0.4,4.4c0,0.2-0.1,0.4-0.1,0.7c-0.2,1.4-0.3,2.8-0.4,4.2c-0.3,2.3-0.5,4.6-0.8,6.9c-0.2,1.8-0.4,3.5-0.6,5.3
		c-0.3,2.2-0.5,4.5-0.8,6.7c-0.2,1.8-0.4,3.7-0.6,5.5c-0.2,2.2-0.5,4.5-0.8,6.7c-0.2,1.8-0.4,3.6-0.6,5.4c-0.2,2.2-0.5,4.5-0.8,6.7
		c-0.3,2.3-0.5,4.7-0.8,7c-0.1,0.7-0.1,1.5-0.2,2.4c0.6-0.1,1-0.1,1.5-0.2c2.1-0.2,4.2-0.4,6.3-0.6c2.5-0.2,5-0.5,7.6-0.8
		c2.3-0.2,4.6-0.5,6.9-0.7c0.5,0,0.6-0.3,0.6-0.7c0-1.1,0.1-2.1,0.1-3.2c0.1-4.1,0.3-8.2,0.4-12.3c0.1-1.8,0.1-3.6,0.2-5.5
		c0-0.1,0.1-0.3,0.1-0.4c0.9-0.1,1.7-0.1,2.6-0.2c3.1-0.1,6.2-0.3,9.4-0.4c3.2-0.1,6.4-0.3,9.6-0.4c2.8-0.1,5.7-0.2,8.5-0.3
		c1.3-0.1,2.6-0.1,4-0.2c2.8-0.2,2.8-0.2,4.1,2.2c3,5.4,6.1,10.7,9.1,16.1c0.2,0.3,0.4,0.5,0.8,0.4c2-0.2,3.9-0.4,5.9-0.6
		c2.2-0.2,4.4-0.4,6.6-0.6c1.3-0.1,2.6-0.3,4-0.4c-0.1-0.3-0.2-0.4-0.3-0.6c-0.9-1.5-1.9-3-2.8-4.5c-6.6-10.6-13.2-21.2-19.8-31.8
		c-0.3-0.4-0.6-0.6-1-0.7c-1.3-0.2-2.5-0.5-3.7-0.8c0-0.2,0-0.4-0.1-0.4c-2.7-2.2-5.4-4.4-8.2-6.6c-3.9-3.1-7.8-6.3-11.7-9.4
		c-0.4-0.4-0.9-0.7-1.4-1c-0.1,0.1-0.1,0.1-0.2,0.2c0.2,0.4,0.3,0.7,0.5,1.1c1.7,3,3.4,6.1,5.2,9.1c0.9,1.5,1.7,3,2.6,4.5
		c0.1,0.2,0.1,0.3,0.2,0.5c0.8,1.5,1.7,2.9,2.5,4.4c0.5,0.9,1,1.8,1.5,2.7c-9.1,0-18.1,0-27,0c0-1.5,0-3,0-4.5
		c0.1-2.5,0.1-5,0.2-7.5c0.1-1.8,0.1-3.5,0.2-5.3c0-0.2,0.1-0.4,0.1-0.6c0.1-1.2,0.1-2.3,0.1-3.5c0-1.9,0.1-3.9,0.1-5.8
		c0-1.6,0.1-3.2,0.1-4.8c0,0,0-0.1,0-0.1c0.3-0.9,0-1.4-0.7-1.9c-1.3-0.9-2.5-2-3.8-3c-2.9-2.3-5.8-4.7-8.7-7
		c-0.7-0.6-1.4-1.1-2.3-1.8c-0.2,2.2-0.5,4.2-0.7,6.2C51.1,52.3,50.9,54.1,50.7,55.8z M82.7,73c-1.3-2.4-2.7-4.8-4-7.1
		c0,0,0-0.1-0.1-0.1c0-0.1-0.1-0.1-0.1-0.2c0-0.1-0.1-0.2-0.1-0.2c-3.1-5.5-6.2-11-9.3-16.5c-0.1-0.1-0.2-0.2-0.3-0.4
		c0,0.2-0.1,0.4-0.1,0.5c-0.1,2.4-0.2,4.8-0.3,7.1c-0.2,5.8-0.4,11.6-0.6,17.4c-0.1,3.1-0.3,6.1-0.4,9.2c-0.1,2.3-0.1,4.6-0.2,6.9
		c0.2,0,0.5,0.1,0.7,0.1c7.8,0,15.6,0,23.5,0c0.2,0,0.4,0,0.6,0c-0.1-0.3-0.2-0.4-0.3-0.6c-1.8-3.2-3.7-6.5-5.5-9.7
		C85.1,77.1,83.9,75,82.7,73z"/>
		<path
			class="AutoCAD6"
			d="M34.8,140.9c-0.1,0.5-0.2,1-0.3,1.6c-0.1,1.1,0.6,1.9,1.5,2.3c1.1,0.4,2.2,0.7,3.3,1c0.1,0.2,0.1,0.4,0.2,0.5
		c1,1.1,2.1,2.2,3.1,3.4c1,1.1,1.9,2.1,2.9,3.2c2,2.2,4,4.5,6,6.7c1,1.1,1.9,2.1,2.9,3.2c1.9,2.1,3.8,4.3,5.7,6.4
		c1.1,1.2,2.2,2.4,3.3,3.6c0.4,0.5,0.8,1,1.2,1.6c-11.6,0-23.3,0-34.9,0c-1.6,0-3.1,0-4.7,0c0-4.3,0-8.6,0-12.9
		c0-11.2,0-22.5,0-33.7c0.2,0.1,0.5,0.3,0.6,0.4c1.3,1.4,2.5,2.8,3.8,4.2c1.6,1.8,3.2,3.5,4.9,5.3c0.2,0.2,0.4,0.2,0.7,0.4
		C35,138.9,34.9,139.9,34.8,140.9z"/>
		<path
			class="AutoCAD7"
			d="M25.2,72.9c0-5.1,0-10.1,0-15.2c0-0.4,0-0.6,0.5-0.6c7.2,0,14.3,0,21.5,0c-0.2,1.5-0.4,3-0.6,4.5
		c-0.7,4.3-1.3,8.7-2,13c-0.7,4.6-1.4,9.3-2.1,13.9c0,0.1,0,0.1-0.1,0.2c0,0.3-0.1,0.5-0.1,0.8c0,0,0,0.1,0,0.1c0,0.1,0,0.2,0,0.2
		c0,0.2-0.1,0.4-0.1,0.6c0,0.2,0,0.3,0,0.5c-0.2-0.1-0.4-0.1-0.6-0.3c-0.5-0.5-0.9-1-1.4-1.5c-2.1-2.3-4.2-4.6-6.3-6.9
		c-0.9-1-1.9-2-2.8-3.1c-1.8-2-3.6-4-5.4-6.1C25.6,73,25.4,72.9,25.2,72.9z"/>
		<path
			class="AutoCAD8"
			d="M25.2,72.9c0.2,0.1,0.4,0.1,0.5,0.2c1.8,2,3.6,4,5.4,6.1c0.9,1,1.9,2.1,2.8,3.1c2.1,2.3,4.2,4.6,6.3,6.9
		c0.5,0.5,0.9,1,1.4,1.5c0.1,0.1,0.4,0.2,0.6,0.3c-0.1,0.7-0.2,1.5-0.3,2.2c-0.6,3.8-1.1,7.5-1.7,11.3c-0.5,3.3-1,6.6-1.5,9.8
		c-0.2-0.1-0.4-0.2-0.5-0.3c-0.7-0.8-1.5-1.5-2.2-2.3c-2.1-2.3-4.1-4.6-6.2-6.8c-1-1.1-2-2.3-3-3.4c-0.5-0.5-1.1-1-1.6-1.4
		C25.2,91,25.2,81.9,25.2,72.9z"/>
		<path
			class="AutoCAD9"
			d="M38.7,114.3c0.5-3.3,1-6.6,1.5-9.8c0.6-3.8,1.1-7.5,1.7-11.3c0.1-0.7,0.2-1.5,0.3-2.2c0-0.2,0-0.3,0-0.5
		c0-0.2,0.1-0.4,0.1-0.6c0-0.1,0-0.2,0-0.2c0,0,0-0.1,0-0.1c0-0.3,0.1-0.5,0.1-0.8c0-0.1,0-0.1,0.1-0.2c0.7-4.6,1.4-9.3,2.1-13.9
		c0.7-4.3,1.3-8.7,2-13c0.2-1.5,0.4-3,0.6-4.5c0.3-1.9,0.6-3.7,0.9-5.6c0.4-2.5,0.8-5.1,1.1-7.6c0.4-2.5,0.8-5.1,1.2-7.6
		c0.4-2.5,0.6-5,1.1-7.5c0.2-1,0.9-1.8,1.4-2.8c-0.2,1.6-0.3,3.2-0.5,4.8c-0.3,2.7-0.6,5.3-0.9,8c-0.3,2.7-0.6,5.4-0.9,8
		c-0.3,2.6-0.6,5.2-0.9,7.8c-0.3,3.1-0.7,6.2-1,9.2c-0.3,2.6-0.6,5.2-0.9,7.8c-0.3,2.7-0.6,5.3-0.9,8c-0.3,2.6-0.6,5.2-0.9,7.8
		c-0.3,2.7-0.6,5.4-0.9,8c-0.3,2.6-0.6,5.2-0.9,7.8c-0.3,2.7-0.6,5.3-0.9,8c-0.3,2.6-0.6,5.2-0.9,7.8c-0.3,2.7-0.6,5.4-0.9,8
		c-0.2,2-0.4,3.9-0.6,5.9c-1.4,1.5-2.8,2.9-4.2,4.4c-0.9,1-1.6,2.3-2.4,3.4c0.1-1,0.3-2,0.4-3c0.1-0.6,0.1-1.2,0.2-1.8
		c0.3-1.6,0.6-3.2,0.8-4.7c0.5-3.4,1-6.9,1.6-10.3C38,118.8,38.4,116.6,38.7,114.3z"/>
		<path
			class="AutoCAD10"
			d="M38.7,114.3c-0.3,2.3-0.7,4.5-1,6.8c-0.5,3.4-1,6.9-1.6,10.3c-0.2,1.6-0.5,3.2-0.8,4.7
		c-0.1,0.6-0.1,1.2-0.2,1.8c-0.2-0.1-0.5-0.2-0.7-0.4c-1.6-1.7-3.2-3.5-4.9-5.3c-1.3-1.4-2.5-2.8-3.8-4.2c-0.2-0.2-0.4-0.3-0.6-0.4
		c0-9.2,0-18.5,0-27.7c0.5,0.5,1.1,0.9,1.6,1.4c1,1.1,2,2.3,3,3.4c2.1,2.3,4.1,4.6,6.2,6.8c0.7,0.8,1.4,1.5,2.2,2.3
		C38.3,114.1,38.5,114.2,38.7,114.3z"/>
		<path
			class="AutoCAD11"
			d="M60.3,145.1c0.9-0.1,1.8-0.3,2.8-0.4c3.9-0.6,7.8-1.2,11.7-1.8c1.5-0.2,3-0.6,4.5-0.9c0.4,0.5,0.7,1,1.1,1.5
		c1.5,1.7,3.1,3.4,4.6,5.1c2.3,2.6,4.6,5.2,7,7.8c1.5,1.7,3.1,3.4,4.6,5.1c1.9,2.1,3.7,4.2,5.6,6.3c1.5,1.7,3,3.3,4.5,5
		c0.5,0.5,0.9,1.1,1.4,1.7c-7.3,0-14.6,0-21.9,0c-0.1-0.2-0.2-0.4-0.4-0.6c-0.6-0.7-1.3-1.3-1.9-2c-2.3-2.5-4.5-5.1-6.8-7.6
		c-1.7-1.8-3.3-3.7-5-5.5c-2.2-2.4-4.4-4.8-6.6-7.3c-1.5-1.7-3.1-3.4-4.6-5.1C60.8,145.8,60.6,145.4,60.3,145.1z"/>
		<path
			class="AutoCAD10"
			d="M60.3,145.1c0.2,0.4,0.5,0.8,0.8,1.1c1.5,1.7,3.1,3.4,4.6,5.1c2.2,2.4,4.4,4.8,6.6,7.3c1.7,1.8,3.3,3.7,5,5.5
		c2.3,2.5,4.5,5.1,6.8,7.6c0.6,0.7,1.3,1.3,1.9,2c0.2,0.2,0.3,0.4,0.4,0.6c-7.2,0-14.4,0-21.6,0c-0.4-0.5-0.8-1.1-1.2-1.6
		c-1.1-1.2-2.2-2.4-3.3-3.6c-1.9-2.1-3.8-4.3-5.7-6.4c-1-1.1-1.9-2.1-2.9-3.2c-2-2.2-4-4.5-6-6.7c-1-1.1-1.9-2.1-2.9-3.2
		c-1-1.1-2.1-2.2-3.1-3.4c-0.1-0.1-0.2-0.4-0.2-0.5c3.4,0,6.7,0.1,10.1,0.1c2.2,0,4.4-0.3,6.6-0.5C57.5,145.3,58.9,145.2,60.3,145.1
		z"/>
		<path
			class="AutoCAD12"
			d="M108.4,118.3c1.4,2.4,2.7,4.7,4.1,7.1c0.2,0.4,0.5,0.7,1,0.6c-0.9,0.4-1.7,0.8-2.6,1.2
		c-3.3,1.7-6.8,3.1-10.4,4.3c-5.2,1.8-10.5,3.3-15.8,4.5c-0.4,0.1-0.8,0.1-1.2,0.2c-0.1-0.3-0.2-0.7-0.3-1c-0.1-1.9-0.2-3.7-0.3-5.6
		c-0.1-2.8-0.2-5.5-0.3-8.3c0-1.2,1.5-2.7,2.7-2.7c2,0,4-0.1,6-0.1c3.5-0.1,7.1-0.1,10.6-0.1C104.2,118.5,106.3,118.4,108.4,118.3z"/>
		<path
			class="AutoCAD13"
			d="M103.1,109c0.5,0.9,1,1.8,1.5,2.7c-0.4,0.1-0.7,0.3-1.1,0.3c-2.2,0.1-4.4,0.1-6.6,0.1
		c-3.4,0.1-6.8,0.1-10.2,0.1c-1.3,0-2.5-0.1-3.7,0.7c-1.1,0.8-2.5,1.1-3.5,1.9c-2,1.5-3.7,3.3-5,5.5c-0.2,0.3-0.3,0.6-0.3,0.9
		c0.1,1.3,0.2,2.5,0.2,3.8c0.1,2,0.2,3.9,0.3,5.9c0.1,2.3,0.2,4.7,0.3,7.1c-1.1,0.2-2.2,0.4-3.2,0.5c-0.1-0.8-0.2-1.7-0.3-2.5
		c-0.2-3.1-0.3-6.2-0.4-9.3c-0.1-1.7-0.1-3.4-0.1-5c0-0.3-0.2-0.7-0.1-0.9c0.5-1.1,1-2.2,1.6-3.2c1.2-2,2.7-3.7,4.7-4.9
		c0.4-0.3,0.8-0.6,1.3-0.8c1.1-0.5,2.3-1,3.4-1.4c1-0.4,2-0.9,3-0.9c3.3-0.2,6.6-0.1,9.9-0.2c2.6,0,5.2-0.1,7.8-0.1
		C102.7,109.3,102.9,109.1,103.1,109z"/>
		<path
			class="AutoCAD14"
			d="M108.4,118.3c-2.1,0.1-4.3,0.1-6.4,0.2c-3.5,0.1-7.1,0.1-10.6,0.1c-2,0-4,0.1-6,0.1c-1.2,0-2.7,1.5-2.7,2.7
		c0.1,2.8,0.2,5.5,0.3,8.3c0.1,1.9,0.2,3.7,0.3,5.6c0,0.3,0.2,0.7,0.3,1c-1.3,0.3-2.5,0.5-3.8,0.8c-0.1-0.3-0.2-0.6-0.3-0.9
		c-0.1-2.1-0.2-4.2-0.3-6.2c-0.1-1.7-0.1-3.3-0.1-5c0-1,0.1-2.1-0.2-3.1c-0.2-1.1,0.2-1.7,0.9-2.3c1.4-1.2,2.8-2.3,4.3-3.5
		c0.3-0.2,0.7-0.3,1.1-0.4c2-0.1,4.1-0.1,6.1-0.1c3.9-0.1,7.8-0.1,11.7-0.1c1.1,0,2.1-0.1,3.2-0.1c0.2,0,0.3-0.1,0.5-0.1
		C107.2,116.3,107.8,117.3,108.4,118.3z"/>
		<path
			class="AutoCAD15"
			d="M103.1,109c-0.2,0.1-0.4,0.3-0.6,0.3c-2.6,0.1-5.2,0.1-7.8,0.1c-3.3,0-6.6,0-9.9,0.2c-1,0-2,0.6-3,0.9
		c-1.1,0.4-2.3,0.9-3.4,1.4c-0.5,0.2-0.8,0.6-1.3,0.8c-2,1.2-3.5,2.9-4.7,4.9c-0.6,1-1.1,2.1-1.6,3.2c-0.1,0.2,0.1,0.6,0.1,0.9
		c0.1,1.7,0.1,3.4,0.1,5c0.1,3.1,0.3,6.2,0.4,9.3c0,0.8,0.2,1.7,0.3,2.5c-0.4,0.1-0.8,0.2-1.2,0.3c-1.1,0.1-1.4-0.2-1.5-1.3
		c-0.1-2.3-0.2-4.7-0.3-7c-0.1-1.9-0.2-3.8-0.3-5.7c-0.1-1.3-0.2-2.5-0.2-3.8c0-0.1,0-0.3,0-0.4c0.3-1.1,0.7-2.2,1-3.3
		c0.7-2.5,2.2-4.4,4.2-5.9c1.1-0.9,2.5-1.4,3.8-2c0.7-0.3,1.5-0.5,2.2-0.8c0.3-0.1,0.6-0.3,0.9-0.5c0.8,0,1.5-0.1,2.3-0.1
		c1.7-0.1,3.4-0.1,5-0.1c2.2-0.1,4.5-0.2,6.7-0.3c2-0.1,4-0.2,5.9-0.3c0,0,0,0,0.1,0C102,106.9,102.6,107.8,103.1,109z"/>
		<path
			class="AutoCAD16"
			d="M75,138.1c-0.1-2.4-0.2-4.7-0.3-7.1c-0.1-2-0.2-3.9-0.3-5.9c-0.1-1.3-0.2-2.5-0.2-3.8c0-0.3,0.1-0.7,0.3-0.9
		c1.3-2.2,3-4,5-5.5c1.1-0.8,2.4-1.2,3.5-1.9c1.2-0.8,2.4-0.7,3.7-0.7c3.4,0,6.8-0.1,10.2-0.1c2.2,0,4.4-0.1,6.6-0.1
		c0.4,0,0.7-0.2,1.1-0.3c0.3,0.5,0.6,1.1,1,1.6c-0.5,0.6-1.2,0.4-1.8,0.4c-2.3,0.1-4.6,0.1-6.9,0.2C93.4,114,90,114,86.5,114
		c-1.3,0-2.4,0.1-3.5,0.8c-1.6,1.2-3.4,2.1-4.8,3.7c-1.1,1.2-2,2.4-1.6,4.3c0.3,1.4,0.1,2.9,0.2,4.3c0,1,0.1,2.1,0.1,3.1
		c0.1,2.5,0.3,5,0.4,7.4C76.6,137.8,75.8,137.9,75,138.1z"/>
		<path
			class="AutoCAD17"
			d="M77.3,137.7c-0.1-2.5-0.3-5-0.4-7.4c-0.1-1-0.1-2.1-0.1-3.1c-0.1-1.4,0.1-2.9-0.2-4.3c-0.4-1.8,0.5-3,1.6-4.3
		c1.4-1.6,3.2-2.5,4.8-3.7c1.1-0.8,2.2-0.8,3.5-0.8c3.5,0,6.9-0.1,10.4-0.1c2.3,0,4.6,0,6.9-0.2c0.6,0,1.3,0.1,1.8-0.4
		c0.3,0.5,0.6,1.1,0.9,1.6c0,0.1,0.1,0.1,0.1,0.2c0,0,0.1,0.1,0.1,0.1c-0.2,0.1-0.3,0.1-0.5,0.1c-1.1,0.1-2.1,0.1-3.2,0.1
		c-3.9,0.1-7.8,0.1-11.7,0.1c-2,0-4.1,0.1-6.1,0.1c-0.4,0-0.8,0.1-1.1,0.4c-1.5,1.1-2.9,2.3-4.3,3.5c-0.7,0.6-1.1,1.3-0.9,2.3
		c0.2,1,0.1,2,0.2,3.1c0.1,1.7,0.1,3.3,0.1,5c0.1,2.1,0.2,4.2,0.3,6.2c0,0.3,0.2,0.6,0.3,0.9C78.9,137.3,78.1,137.5,77.3,137.7z"/>
		<path
			class="AutoCAD18"
			d="M102.7,85.3c1.2,0.3,2.5,0.5,3.7,0.8c0.5,0.1,0.8,0.3,1,0.7c6.6,10.6,13.2,21.2,19.8,31.8
		c0.9,1.5,1.9,3,2.8,4.5c0.1,0.1,0.2,0.3,0.3,0.6c-1.4,0.1-2.7,0.3-4,0.4c-2.2,0.2-4.4,0.4-6.6,0.6c-2,0.2-3.9,0.4-5.9,0.6
		c-0.4,0-0.6-0.1-0.8-0.4c-3-5.4-6.1-10.7-9.1-16.1c-1.3-2.4-1.3-2.4-4.1-2.2c-1.3,0.1-2.6,0.2-4,0.2c-2.8,0.1-5.7,0.2-8.5,0.3
		c-3.2,0.1-6.4,0.3-9.6,0.4c-3.1,0.1-6.2,0.3-9.4,0.4c-0.9,0-1.7,0.1-2.6,0.2c0,0.1-0.1,0.3-0.1,0.4c-0.1,1.8-0.1,3.6-0.2,5.5
		c-0.1,4.1-0.3,8.2-0.4,12.3c0,1.1-0.1,2.1-0.1,3.2c0,0.4-0.1,0.7-0.6,0.7c-2.3,0.2-4.6,0.4-6.9,0.7c-2.5,0.3-5,0.5-7.6,0.8
		c-2.1,0.2-4.2,0.4-6.3,0.6c-0.5,0-0.9,0.1-1.5,0.2c0.1-0.9,0.1-1.6,0.2-2.4c0.3-2.3,0.5-4.7,0.8-7c0.3-2.2,0.5-4.5,0.8-6.7
		c0.2-1.8,0.4-3.6,0.6-5.4c0.3-2.2,0.5-4.5,0.8-6.7c0.2-1.8,0.4-3.7,0.6-5.5c0.2-2.2,0.5-4.5,0.8-6.7c0.2-1.8,0.4-3.5,0.6-5.3
		c0.3-2.3,0.5-4.6,0.8-6.9c0.2-1.4,0.3-2.8,0.4-4.2c0-0.2,0.1-0.4,0.1-0.7c5,1,10.1,2,15.1,3c1,0.2,2.1,0.4,3.1,0.6
		c-0.1,2.5-0.2,5-0.2,7.5c0,1.5,0,3,0,4.5c8.9,0,17.9,0,27,0c-0.5-1-1-1.8-1.5-2.7c-0.8-1.5-1.7-2.9-2.5-4.4
		c-0.1-0.2-0.1-0.3-0.2-0.5c1.9,0.4,3.8,0.8,5.7,1.1C97.6,84.4,100.1,84.8,102.7,85.3z"/>
		<path
			class="AutoCAD15"
			d="M67.3,89.5c0.1-2.3,0.1-4.6,0.2-6.9c0.1-3.1,0.2-6.1,0.4-9.2c0.2-5.8,0.4-11.6,0.6-17.4
		c0.1-2.4,0.2-4.8,0.3-7.1c0-0.1,0-0.3,0.1-0.5c0.1,0.2,0.2,0.3,0.3,0.4c3.1,5.5,6.2,11,9.3,16.5c0,0.1,0.1,0.2,0.1,0.2
		c0,0.1,0.1,0.1,0.1,0.2c0,0,0,0.1,0.1,0.1c-0.2,0.4-0.5,0.8-0.7,1.3c-0.3,0.7-0.4,1.5-0.6,2.2c-0.2,0.8-0.5,1.6-0.7,2.3
		c-0.2,0.8-0.3,1.6-0.5,2.3c-0.3,1.2-0.6,2.3-0.8,3.5c-0.3,1.8-0.6,3.6-0.8,5.4c-0.3,2.2-0.6,4.4-0.9,6.6
		C71.5,89.5,69.4,89.5,67.3,89.5z"/>
		<path
			class="AutoCAD19"
			d="M69.9,48.4c-0.5-0.9-1.1-1.8-1.7-2.7c-0.1,0.1-0.2,0.3-0.2,0.4c-0.3-0.1-0.6-0.2-0.8-0.3
		c-1.3-1-2.5-2.1-3.8-3.1c-3.2-2.6-6.3-5.1-9.5-7.6c-0.3-0.2-0.6-0.5-1-0.3c0.2-1.3,0.4-2.6,0.5-3.9c0.2,0.1,0.5,0.2,0.6,0.3
		c1.7,1.4,3.4,2.8,5.1,4.1c2.2,1.7,4.3,3.5,6.5,5.2c2.6,2.1,5.3,4.2,8,6.4c2.2,1.8,4.4,3.6,6.6,5.4c2.9,2.3,5.8,4.6,8.6,6.9
		c0.8,0.7,1.7,1.3,2.5,1.9c0.6,1,1.3,1.9,1.9,2.9c1.1,1.8,2.2,3.6,3.3,5.3c-0.2-0.1-0.4-0.1-0.6-0.3c-2.1-1.7-4.1-3.4-6.2-5.1
		c-3.3-2.7-6.6-5.3-9.9-7.9c-3.1-2.5-6.2-5-9.3-7.5C70.4,48.4,70.1,48.5,69.9,48.4z"/>
		<path
			class="AutoCAD20"
			d="M81.8,45.6c1.8,2.9,3.6,5.7,5.4,8.6c0.1,0.1,0.1,0.3,0.2,0.4c-0.2-0.1-0.4-0.1-0.6-0.3
		c-1.6-1.3-3.2-2.6-4.8-3.9c-2.7-2.2-5.3-4.3-8-6.5c-3.3-2.6-6.6-5.3-9.9-7.9c-2.9-2.3-5.8-4.7-8.7-7c-0.5-0.4-1.1-0.7-1.6-1
		c0-0.5,0.1-0.9,0.2-1.5c1.8,0.3,3.5,0.5,5.2,0.8c0.1,0.2,0.2,0.4,0.3,0.5c0.8,0.7,1.7,1.4,2.5,2c2.4,1.9,4.8,3.8,7.2,5.7
		c2,1.6,4.1,3.3,6.1,4.9c1.5,1.2,3,2.5,4.5,3.7C80.4,44.8,81.1,45.2,81.8,45.6z"/>
		<path
			class="AutoCAD21"
			d="M67.3,89.5c2.1,0,4.1,0,6.2,0c1.5,0,3,0,4.4,0c0.2,0,0.5-0.2,0.5-0.4c0.3-1.3,0.6-2.6,0.9-4
		c0.2-0.8,0.3-1.6,0.5-2.3c0.3-1.2,0.5-2.3,0.8-3.5c0.1-0.5,0.2-0.9,0.4-1.4c0.3-0.9,0.5-1.8,0.8-2.7c0.2-0.7,0.5-1.5,0.8-2.2
		c1.2,2.1,2.4,4.2,3.6,6.2c1.8,3.2,3.7,6.5,5.5,9.7c0.1,0.2,0.2,0.4,0.3,0.6c-0.3,0-0.4,0-0.6,0c-7.8,0-15.6,0-23.5,0
		C67.8,89.6,67.6,89.5,67.3,89.5z"/>
		<path
			class="AutoCAD16"
			d="M82.7,73c-0.3,0.7-0.6,1.5-0.8,2.2c-0.3,0.9-0.6,1.8-0.8,2.7c-0.1,0.5-0.3,0.9-0.4,1.4
		c-0.3,1.2-0.6,2.3-0.8,3.5c-0.2,0.8-0.3,1.6-0.5,2.3c-0.3,1.3-0.5,2.6-0.9,4c0,0.2-0.3,0.4-0.5,0.4c-1.5,0-3,0-4.4,0
		c0.3-2.2,0.6-4.4,0.9-6.6c0.3-1.8,0.5-3.6,0.8-5.4c0.2-1.2,0.6-2.3,0.8-3.5c0.2-0.8,0.3-1.6,0.5-2.3c0.2-0.8,0.5-1.6,0.7-2.3
		c0.2-0.7,0.4-1.5,0.6-2.2c0.2-0.4,0.5-0.8,0.7-1.3C80,68.2,81.4,70.6,82.7,73z"/>
		<path
			class="AutoCAD22"
			d="M53.7,28c0.5,0.3,1.1,0.6,1.6,1c2.9,2.3,5.8,4.7,8.7,7c3.3,2.6,6.6,5.3,9.9,7.9c2.7,2.1,5.3,4.3,8,6.5
		c1.6,1.3,3.2,2.6,4.8,3.9c0.2,0.1,0.4,0.2,0.6,0.3c0.7,1,1.4,2,2,3.1c0.7,1.1,1.3,2.3,2,3.4c-0.8-0.6-1.7-1.2-2.5-1.9
		c-2.9-2.3-5.8-4.6-8.6-6.9c-2.2-1.8-4.4-3.6-6.6-5.4c-2.6-2.1-5.3-4.3-8-6.4c-2.2-1.7-4.3-3.5-6.5-5.2c-1.7-1.4-3.4-2.8-5.1-4.1
		c-0.2-0.1-0.4-0.2-0.6-0.3c0,0,0,0,0,0c0,0,0-0.1,0-0.1C53.5,29.8,53.6,28.9,53.7,28z"/>
		<path
			class="AutoCAD23"
			d="M66.8,78.3c-1-0.2-2.1-0.4-3.1-0.6c-0.2-0.3-0.2-0.6-0.5-0.8c-1.6-1.4-3.3-2.7-4.9-4
		c-2.2-1.8-4.5-3.6-6.7-5.4c-0.6-0.5-1.3-0.9-2-1.4c0.1-1.4,0.3-2.8,0.4-4.2c0.1-0.6,0.1-1.3,0.2-1.9c0.5,0.3,1.1,0.6,1.5,0.9
		c2.4,2,4.9,3.9,7.3,5.9c2,1.6,4,3.2,6,4.8c0.6,0.5,1.3,0.9,1.9,1.3C66.9,74.8,66.8,76.5,66.8,78.3z"/>
		<path
			class="AutoCAD24"
			d="M51.3,50.6c0.2-2,0.4-4,0.7-6.2c0.9,0.7,1.6,1.3,2.3,1.8c2.9,2.3,5.8,4.7,8.7,7c1.3,1,2.5,2.1,3.8,3
		c0.8,0.5,1,1.1,0.7,1.9c0,0,0,0.1,0,0.1c0,1.6-0.1,3.2-0.1,4.8c-0.3-0.2-0.6-0.3-0.8-0.5c-0.8-0.7-1.6-1.3-2.4-2
		c-3.7-3-7.3-5.9-11-8.9C52.5,51.4,51.9,51,51.3,50.6z"/>
		<path
			class="AutoCAD25"
			d="M81.8,45.6c-0.7-0.4-1.4-0.8-2-1.3c-1.5-1.2-3-2.4-4.5-3.7c-2-1.6-4.1-3.3-6.1-4.9c-2.4-1.9-4.8-3.8-7.2-5.7
		c-0.8-0.7-1.7-1.3-2.5-2c-0.2-0.1-0.2-0.4-0.3-0.5c1.6,0.2,3.1,0.4,4.7,0.6c1.6,0.2,3.3,0.4,4.9,0.6c0.8,0.1,1.6,0.2,2.4,0.3
		c0.3,0.1,0.5,0.3,0.7,0.6c1.2,1.9,2.4,3.8,3.6,5.7c1.5,2.5,3.1,4.9,4.6,7.4C80.6,43.6,81.2,44.6,81.8,45.6z"/>
		<path
			class="AutoCAD24"
			d="M102.7,85.3c-2.5-0.5-5.1-1-7.6-1.5c-1.9-0.4-3.8-0.7-5.7-1.1c-0.9-1.5-1.8-3-2.6-4.5c-1.7-3-3.4-6.1-5.2-9.1
		c-0.2-0.3-0.3-0.7-0.5-1.1c0.1-0.1,0.1-0.1,0.2-0.2c0.5,0.3,0.9,0.6,1.4,1c3.9,3.1,7.8,6.3,11.7,9.4c2.7,2.2,5.5,4.4,8.2,6.6
		C102.6,85,102.6,85.2,102.7,85.3z"/>
		<path
			class="AutoCAD26"
			d="M51.3,50.6c0.6,0.4,1.2,0.8,1.8,1.2c3.7,2.9,7.3,5.9,11,8.9c0.8,0.7,1.6,1.3,2.4,2c0.2,0.2,0.5,0.3,0.8,0.5
		c0,1.9-0.1,3.9-0.1,5.8c-0.1,0-0.2-0.1-0.3-0.1c-1.7-1.4-3.3-2.8-5-4.1c-2.9-2.4-5.9-4.7-8.8-7.1c-0.8-0.6-1.6-1.2-2.4-1.8
		C50.9,54.1,51.1,52.3,51.3,50.6z"/>
		<path
			class="AutoCAD27"
			d="M69.9,48.4c0.2,0,0.6,0,0.7,0.1c3.1,2.5,6.2,5,9.3,7.5c3.3,2.6,6.6,5.3,9.9,7.9c2.1,1.7,4.1,3.4,6.2,5.1
		c0.2,0.1,0.4,0.2,0.6,0.3c1.2,1.9,2.4,3.9,3.6,5.9c0.1,0.1,0.1,0.2,0.2,0.4v0c-0.6-0.4-1.1-0.8-1.7-1.2c-2.9-2.3-5.8-4.6-8.7-7
		c-2.2-1.8-4.4-3.5-6.6-5.3c-2.7-2.1-5.3-4.3-8-6.4c-0.5-0.4-1-0.8-1.5-1.2c-0.2-0.2-0.5-0.2-0.7-0.3c-0.1,0-0.2-0.1-0.3-0.2
		c-1-1.7-2-3.5-2.9-5.2C69.9,48.6,69.9,48.5,69.9,48.4z"/>
		<path
			class="AutoCAD28"
			d="M50.7,55.8c0.8,0.6,1.6,1.1,2.4,1.8c2.9,2.3,5.9,4.7,8.8,7.1c1.7,1.4,3.3,2.8,5,4.1c0.1,0.1,0.2,0.1,0.3,0.1
		c0,1.2-0.1,2.3-0.1,3.5c0,0.2-0.1,0.4-0.1,0.6c-0.6-0.4-1.3-0.8-1.9-1.3c-2-1.6-4-3.2-6-4.8c-2.4-2-4.9-4-7.3-5.9
		c-0.5-0.4-1-0.6-1.5-0.9C50.4,58.6,50.5,57.2,50.7,55.8z"/>
		<path class="AutoCAD29" d="M49.5,66.1c0.7,0.5,1.4,0.9,2,1.4c2.3,1.8,4.5,3.6,6.7,5.4c1.7,1.3,3.3,2.7,4.9,4c0.2,0.2,0.3,0.5,0.5,0.8
		c-5-1-10.1-2-15.1-3c0.1-1.5,0.3-2.9,0.4-4.4C49.2,68.9,49.3,67.5,49.5,66.1z"/>
		<path
			class="AutoCAD27"
			d="M52.9,34.8c0.4-0.2,0.7,0,1,0.3c3.2,2.5,6.4,5.1,9.5,7.6c1.3,1,2.5,2.1,3.8,3.1c0.2,0.2,0.5,0.2,0.8,0.3
		c0,1.1,0,2.2,0,3.5c-1.2-0.9-2.2-1.7-3.2-2.5c-2-1.6-3.9-3.2-5.9-4.8c-1.8-1.4-3.5-2.9-5.3-4.3c0,0,0,0,0,0
		c-1.4-0.4-0.8-1.5-0.7-2.4C52.8,35.3,52.9,35.1,52.9,34.8z"/>
		<path class="AutoCAD27" d="M100.4,75.6C100.4,75.6,100.4,75.6,100.4,75.6C100.4,75.6,100.4,75.6,100.4,75.6L100.4,75.6z"/>
		<path class="AutoCAD16" d="M78.6,65.7c0-0.1-0.1-0.1-0.1-0.2C78.6,65.6,78.6,65.7,78.6,65.7z"/>
		<path class="AutoCAD14" d="M106.6,115.1c0-0.1-0.1-0.1-0.1-0.2C106.5,115,106.6,115.1,106.6,115.1z"/>
		<path class="AutoCAD19" d="M53.4,30.7c0,0,0,0.1,0,0.1C53.4,30.8,53.4,30.8,53.4,30.7C53.4,30.8,53.4,30.7,53.4,30.7z"/>
		<path class="AutoCAD8" d="M42.3,89.9c0,0.2-0.1,0.4-0.1,0.6C42.3,90.3,42.3,90.1,42.3,89.9z"/>
		<path class="AutoCAD8" d="M42.6,88.5c0,0.1,0,0.1-0.1,0.2C42.5,88.6,42.5,88.6,42.6,88.5z"/>
		<path class="AutoCAD8" d="M42.4,89.5c0,0,0,0.1,0,0.1C42.4,89.6,42.4,89.5,42.4,89.5z"/>
	</g>
</svg>
