<?xml version="1.0" encoding="utf-8"?>

<svg version="1.1" id="Layer_1" xmlns="http://www.w3.org/2000/svg" xmlns:xlink="http://www.w3.org/1999/xlink" x="0px" y="0px" viewBox="0 0 200 200" style="enable-background:new 0 0 200 200;" xml:space="preserve">
	<style type="text/css">
		.FCPX0 {
			fill: #EDF3F5;
		}
		.FCPX1 {
			fill: #393F45;
		}
		.FCPX2 {
			fill: #77C043;
		}
		.FCPX3 {
			fill: #3E83C4;
		}
		.FCPX4 {
			fill: #9B52A0;
		}
		.FCPX5 {
			fill: #B9D54C;
		}
		.FCPX6 {
			fill: #00ACC1;
		}
		.FCPX7 {
			fill: #6C5EA9;
		}
		.FCPX8 {
			fill: #FEE900;
		}
		.FCPX9 {
			fill: #FAA62A;
		}
		.FCPX10 {
			fill: #FDD838;
		}
		.FCPX11 {
			fill: #E82264;
		}
		.FCPX12 {
			fill: #F37046;
		}
		.FCPX13 {
			fill: #EF4538;
		}
		.FCPX14 {
			fill: #8FC73F;
		}
		.FCPX15 {
			fill: #71B3E2;
		}
		.FCPX16 {
			fill: #AC6DAD;
		}
		.FCPX17 {
			fill: #CEE18C;
		}
		.FCPX18 {
			fill: #5BC8DA;
		}
		.FCPX19 {
			fill: #9175B5;
		}
		.FCPX20 {
			fill: #FEED59;
		}
		.FCPX21 {
			fill: #FCB74E;
		}
		.FCPX22 {
			fill: #FEEA3A;
		}
		.FCPX23 {
			fill: #F06492;
		}
		.FCPX24 {
			fill: #F58A68;
		}
		.FCPX25 {
			fill: #F05555;
		}
		.FCPX26 {
			fill: #BEDA7B;
		}
		.FCPX27 {
			fill: #95C8EC;
		}
		.FCPX28 {
			fill: #C695C3;
		}
		.FCPX29 {
			fill: #DCE9AE;
		}
		.FCPX30 {
			fill: #8AD4E2;
		}
		.FCPX31 {
			fill: #B39DCB;
		}
		.FCPX32 {
			fill: #FEF5A0;
		}
		.FCPX33 {
			fill: #FECD82;
		}
		.FCPX34 {
			fill: #FFF379;
		}
		.FCPX35 {
			fill: #F490B1;
		}
		.FCPX36 {
			fill: #F9AA92;
		}
		.FCPX37 {
			fill: #F58981;
		}
		.FCPX38 {
			fill: #E5EFC5;
		}
		.FCPX39 {
			fill: #BEDDF4;
		}
		.FCPX40 {
			fill: #DDBEDB;
		}
		.FCPX41 {
			fill: #B6E2EB;
		}
		.FCPX42 {
			fill: #D1C4E1;
		}
		.FCPX43 {
			fill: #FEF8C6;
		}
		.FCPX44 {
			fill: #FFE0B2;
		}
		.FCPX45 {
			fill: #F8BBCF;
		}
		.FCPX46 {
			fill: #FBCCBD;
		}
		.FCPX47 {
			fill: #FACCD2;
		}
	</style>
	<g>
		<path class="FCPX0" d="M164.9,157.7l-85.7,13.4l-23.8,3.7c-6.5,1-12.7-3.3-13.7-9.8L27,75.4l133.2-20.9l14.6,89.7
		C175.9,150.7,171.4,156.7,164.9,157.7z"/>
		<path class="FCPX1" d="M155.5,33.5c-1.8-6.2-8.5-9.8-14.9-8L33.7,55.5c-6.4,1.8-10.1,8.3-8.3,14.6l1.6,5.3l130.1-36.6L155.5,33.5z"/>
		<polygon class="FCPX1" points="160.2,54.6 144.2,72.9 143.9,73.1 124.9,76.1 125.1,75.9 141.2,57.5 	"/>
		<polygon class="FCPX1" points="122.1,60.5 106,78.8 87,81.8 103.1,63.5 	"/>
		<polygon class="FCPX1" points="83.8,66.5 67.8,84.8 48.9,87.8 64.9,69.5 	"/>
		<polygon class="FCPX1" points="45.9,72.5 29.9,90.7 29.6,91 29.6,90.8 27,75.4 	"/>
		<path class="FCPX0" d="M157.1,38.8l-25.2-10.9l8.8-2.5c1.1-0.3,2.2-0.5,3.3-0.5c5.2,0,10,3.3,11.5,8.5L157.1,38.8z"/>
		<polygon class="FCPX0" points="138.5,44 120,49.3 94.8,38.4 113.3,33.1 113.3,33.1 	"/>
		<polygon class="FCPX0" points="101.4,54.5 82.9,59.7 57.6,48.8 76.2,43.6 	"/>
		<path class="FCPX0" d="M64.3,64.9l-18.6,5.2l-19.5-8.4c1.4-2.9,4.1-5.2,7.5-6.2l5.4-1.5L64.3,64.9z"/>
		<g>
			<path class="FCPX2" d="M102.8,122.5l-16.2,38.5L54,166c-1.7,0.2-3.3-0.8-3.5-2.4l-0.2-1.6L102.8,122.5z"/>
			<polygon class="FCPX3" points="127.6,154.5 107.4,157.7 102.8,122.5 		"/>
			<path class="FCPX4" d="M166,145.7c0.1,0.9-0.2,1.6-0.5,2c-0.1,0.1-0.2,0.3-0.4,0.5l-62.3-25.7L161,115L166,145.7z"/>
			<polygon class="FCPX5" points="102.8,122.5 50.2,162.1 45,129.8 		"/>
			<polygon class="FCPX6" points="107.4,157.7 86.5,160.9 102.8,122.5 		"/>
			<path class="FCPX7" d="M165.1,148.1c-0.4,0.3-0.9,0.6-1.6,0.7l-35.9,5.6l-24.8-32L165.1,148.1z"/>
			<polygon class="FCPX8" points="102.8,122.5 45,129.8 39.5,96.5 		"/>
			<polygon class="FCPX9" points="102.8,122.5 78,90.4 98.2,87.3 		"/>
			<polygon class="FCPX10" points="102.8,122.5 39.5,96.5 78,90.4 		"/>
			<polygon class="FCPX11" points="161,115 102.8,122.5 155.7,82.5 		"/>
			<polygon class="FCPX12" points="119.1,84 102.8,122.5 98.2,87.3 		"/>
			<polygon class="FCPX13" points="155.7,82.5 102.8,122.5 119.1,84 155.1,78.4 		"/>
		</g>
		<g>
			<path class="FCPX14" d="M79.4,140.1c3.1,4.1,7.2,7.4,12,9.4l11.4-27L79.4,140.1z"/>
			<path class="FCPX15" d="M106.6,151.5c5.3-0.7,10.1-2.8,14.2-5.9l-17.9-23.2L106.6,151.5z"/>
			<path class="FCPX16" d="M129.9,133.6c1.4-3.5,2.2-7.2,2.2-11.2c0-1.2-0.1-2.5-0.3-3.7l-29.1,3.7L129.9,133.6z"/>
			<path class="FCPX17" d="M73.7,126.2c0.7,5.2,2.7,10,5.7,13.9l23.4-17.6L73.7,126.2z"/>
			<path class="FCPX18" d="M91.4,149.5c3.5,1.5,7.4,2.3,11.4,2.3c1.3,0,2.5-0.1,3.8-0.3l-3.8-29.1L91.4,149.5z"/>
			<path class="FCPX19" d="M120.7,145.6c4-3.1,7.2-7.2,9.2-12l-27.1-11.2L120.7,145.6z"/>
			<path class="FCPX20" d="M102.8,122.5L102.8,122.5L102.8,122.5l-27.1-11.2c-1.4,3.4-2.2,7.2-2.2,11.1c0,1.3,0.1,2.5,0.3,3.7
			L102.8,122.5L102.8,122.5z"/>
			<path class="FCPX21" d="M99,93.4c-5.3,0.7-10.1,2.8-14.2,5.9l17.9,23.2L99,93.4z"/>
			<path class="FCPX22" d="M84.8,99.2c-4,3.1-7.2,7.3-9.2,12.1l27.1,11.2L84.8,99.2z"/>
			<path class="FCPX23" d="M102.8,122.5l29.1-3.7c-0.7-5.2-2.7-10-5.7-13.9L102.8,122.5z"/>
			<path class="FCPX24" d="M99,93.4l3.8,29.1l0,0l11.5-27c-3.5-1.5-7.4-2.3-11.5-2.3C101.5,93.1,100.2,93.2,99,93.4z"/>
			<path class="FCPX25" d="M126.2,104.8c-3.1-4.1-7.2-7.3-11.9-9.4l-11.5,27L126.2,104.8z"/>
		</g>
		<g>
			<path class="FCPX26" d="M102.8,122.5l-7.3,17.3c-3.1-1.3-5.7-3.4-7.7-6L102.8,122.5z"/>
			<path class="FCPX27" d="M114.3,137.3c-2.6,2-5.7,3.3-9.1,3.8l-2.4-18.6L114.3,137.3z"/>
			<path class="FCPX28" d="M121.6,122.4c0,2.5-0.5,5-1.4,7.2l-17.4-7.2l18.7-2.4C121.6,120.9,121.6,121.6,121.6,122.4z"/>
			<path class="FCPX29" d="M102.8,122.5l-15,11.3c-1.9-2.5-3.2-5.6-3.7-9L102.8,122.5z"/>
			<path class="FCPX30" d="M105.2,141.1c-0.8,0.1-1.6,0.2-2.4,0.2c-2.6,0-5.1-0.5-7.3-1.5l7.3-17.3L105.2,141.1z"/>
			<path class="FCPX31" d="M120.2,129.6c-1.3,3.1-3.3,5.7-5.9,7.7l-11.5-14.9L120.2,129.6z"/>
			<path class="FCPX32" d="M102.8,122.5l-18.7,2.4c-0.1-0.8-0.2-1.6-0.2-2.4c0-2.5,0.5-4.9,1.4-7.1L102.8,122.5z"/>
			<path class="FCPX33" d="M102.8,122.5l-11.5-14.9c2.6-2,5.7-3.3,9.1-3.8L102.8,122.5z"/>
			<path class="FCPX34" d="M102.8,122.5l-17.4-7.2c1.2-3.1,3.3-5.7,5.9-7.8L102.8,122.5z"/>
			<path class="FCPX35" d="M121.5,120.1l-18.7,2.4l15.1-11.4C119.8,113.6,121.1,116.7,121.5,120.1z"/>
			<path class="FCPX36" d="M110.2,105.1l-7.4,17.4l-2.4-18.7c0.8-0.1,1.6-0.2,2.4-0.2C105.4,103.6,107.9,104.1,110.2,105.1z"/>
			<path class="FCPX37" d="M117.9,111.1l-15.1,11.4l7.4-17.4C113.2,106.4,115.9,108.5,117.9,111.1z"/>
		</g>
		<g>
			<path class="FCPX38" d="M102.8,122.5l-3.2,7.5c-1.3-0.6-2.5-1.5-3.3-2.6L102.8,122.5z"/>
			<path class="FCPX39" d="M107.8,128.9c-1.1,0.9-2.5,1.4-4,1.6l-1-8.1L107.8,128.9z"/>
			<path class="FCPX40" d="M111,122.5c0,1.1-0.2,2.2-0.6,3.1l-7.6-3.1l8.1-1C110.9,121.8,111,122.1,111,122.5z"/>
			<path class="FCPX38" d="M102.8,122.5l-6.5,4.9c-0.9-1.1-1.4-2.5-1.6-3.9L102.8,122.5z"/>
			<path class="FCPX41" d="M103.8,130.6c-0.3,0.1-0.7,0.1-1,0.1c-1.1,0-2.2-0.2-3.2-0.6l3.2-7.5L103.8,130.6z"/>
			<path class="FCPX42" d="M110.4,125.6c-0.6,1.3-1.4,2.5-2.6,3.4l-5-6.5L110.4,125.6z"/>
			<path class="FCPX43" d="M102.8,122.5l-8.1,1c0-0.3-0.1-0.7-0.1-1c0-1.1,0.2-2.2,0.6-3.1L102.8,122.5z"/>
			<path class="FCPX44" d="M102.8,122.5l-5-6.5c1.1-0.9,2.5-1.4,4-1.6L102.8,122.5z"/>
			<path class="FCPX43" d="M102.8,122.5l-7.6-3.1c0.6-1.3,1.4-2.5,2.6-3.4L102.8,122.5z"/>
			<path class="FCPX45" d="M110.9,121.4l-8.1,1l6.5-4.9C110.1,118.7,110.7,120,110.9,121.4z"/>
			<path class="FCPX46" d="M106,114.9l-3.2,7.5l-1-8.1c0.3,0,0.7-0.1,1-0.1C103.9,114.3,105,114.5,106,114.9z"/>
			<path class="FCPX47" d="M109.3,117.5l-6.5,4.9l3.2-7.5C107.3,115.5,108.4,116.4,109.3,117.5z"/>
		</g>
	</g>
</svg>
