<?xml version="1.0" encoding="utf-8"?>

<svg version="1.1" id="Layer_1" xmlns="http://www.w3.org/2000/svg" xmlns:xlink="http://www.w3.org/1999/xlink" x="0px" y="0px" viewBox="0 0 200 200" style="enable-background:new 0 0 200 200;" xml:space="preserve">
	<style type="text/css">
		.Rhinoceros3D0 {
			fill: #C5C4C4;
		}
		.Rhinoceros3D1 {
			fill: #E0E0E0;
		}
		.Rhinoceros3D2 {
			fill: #D8D8D8;
		}
		.Rhinoceros3D3 {
			fill: #262626;
		}
		.Rhinoceros3D4 {
			fill: #9D9C9C;
		}
		.Rhinoceros3D5 {
			fill: #1E1E1E;
		}
		.Rhinoceros3D6 {
			fill: #CFCFCF;
		}
		.Rhinoceros3D7 {
			fill: #E9E9E9;
		}
		.Rhinoceros3D8 {
			fill: #959595;
		}
		.Rhinoceros3D9 {
			fill: #8B8B8B;
		}
		.Rhinoceros3D10 {
			fill: #6E6E6E;
		}
		.Rhinoceros3D11 {
			fill: #BFBEBE;
		}
		.Rhinoceros3D12 {
			fill: #424242;
		}
		.Rhinoceros3D13 {
			fill: #7C7C7C;
		}
		.Rhinoceros3D14 {
			fill: #AFAFAF;
		}
		.Rhinoceros3D15 {
			fill: #4E4E4E;
		}
		.Rhinoceros3D16 {
			fill: #B7B7B7;
		}
		.Rhinoceros3D17 {
			fill: #585858;
		}
		.Rhinoceros3D18 {
			fill: #393939;
		}
		.Rhinoceros3D19 {
			fill: #868686;
		}
		.Rhinoceros3D20 {
			fill: #303030;
		}
		.Rhinoceros3D21 {
			fill: #656565;
		}
		.Rhinoceros3D22 {
			fill: #BCBBBB;
		}
		.Rhinoceros3D23 {
			fill: #A5A4A5;
		}
		.Rhinoceros3D24 {
			fill: #F8F3F1;
		}
		.Rhinoceros3D25 {
			fill: #747474;
		}
		.Rhinoceros3D26 {
			fill: #F0EFEF;
		}
		.Rhinoceros3D27 {
			fill: #FEFDFD;
		}
		.Rhinoceros3D28 {
			fill: #E52728;
		}
	</style>
	<g>
		<path
			class="Rhinoceros3D0"
			d="M46.7,48c4.1-1.4,8.2-2.8,12.3-4.2c0.7-0.3,1.4-0.6,2.1-0.9c0.7,0,1.5,0,2.2,0c0,0.3,0,0.6,0,0.9
		c-0.2,0-0.4,0-0.6,0c-0.1-0.1-0.3-0.2-0.4-0.2c-3,0.8-5.9,1.6-8.9,2.5c-1.1,0.5-2.3,0.9-3.4,1.4c-0.4,0.2-0.7,0.7-1,1.1
		c0.3,0.3,0.6,0.6,1,0.8c1.8,0.7,3.7,1.3,5.5,2.2c3.1,1.4,5.5,1.1,7.9-1.3c0.6-0.6,1.3-1.1,2.1-1.4c1.4-0.5,2.1-1.5,2.6-2.8
		c0-0.5,0-1.1,0-1.6c0-0.1,0-0.2,0-0.3c0-0.1,0-0.2,0-0.4c0.3,0.4,0.6,0.8,1,1.3c0.1,0.1,0.2,0.3,0.3,0.4c0,0,0,0,0,0
		c-0.1,0.8-0.2,1.5-0.3,2.3c-0.4,0.3-0.9,0.5-1.3,0.9c-0.6,0.6-0.9,1.5-1.6,2.1c-1.1,0.9-2.6,1.5-3.4,2.6c-2.1,2.8-3.5,2.6-6.8,0.5
		c-2-1.3-4.3-2.1-6.5-3.2c-1.2-0.5-2.5-1-3.7-1.5C46.1,48.7,46.4,48.3,46.7,48z"/>
		<path class="Rhinoceros3D1" d="M63.3,43.8c0-0.3,0-0.6,0-0.9c1.5,0,3,0,4.5,0c-0.1,0.2-0.2,0.4-0.3,0.6c0,0.1,0,0.2,0,0.3
		C66.1,43.9,64.7,43.8,63.3,43.8z"/>
		<path
			class="Rhinoceros3D2"
			d="M127.4,120.1c0.9,0.2,1.8,0.5,2.6,0.7c0.1,0.2,0.2,0.5,0.3,0.5c2.3,0.5,4.6,0.9,6.8-0.1
		c3.9-1.8,7.7-3.7,11.5-5.5c0.4-0.2,0.7-0.9,1-1.3c-0.1-0.1-0.1-0.2-0.2-0.3c0,0,0,0,0,0c0.1,0,0.3,0,0.4,0.1c0,0,0.1,0,0.1,0
		c0.5-0.2,1.1-0.5,1.6-0.7c0,0,0,0,0,0c0.3-0.2,0.6-0.4,1-0.6c0.1,0,0.2,0,0.3-0.1c0.5-0.4,1.1-0.8,1.6-1.2c0,0,0,0,0,0
		c2.2-0.4,3.6-2,5.1-3.5c1.3-1,2.6-1.9,3.9-2.9c1.7-1.1,3.3-2.3,5-3.4c0.1-0.1,0.1-0.3,0.1-0.4c0.5-0.3,0.9-0.7,1.4-1
		c1-0.6,2.1-1.3,3.2-1.9c0.3,0.4,0.7,0.7,1,1.1c-0.2,0.4-0.5,0.8-0.7,1.2c-0.2,0.2-0.4,0.5-0.6,0.7c-0.1,0.1-0.2,0.2-0.3,0.3
		c-0.2,0.3-0.5,0.6-0.7,0.9c-0.3,0.3-0.6,0.6-1,1c-1.4,1.2-2.8,2.3-4.2,3.5c-1.9,1.7-3.8,3.4-5.8,5.1c-0.3,0.3-0.6,0.6-1,1l0,0
		c-0.3,0.3-0.7,0.6-1,0.9c-0.1,0.1-0.2,0.2-0.3,0.3c-1.1,0.4-2.5,0.4-2.2,2.2c-0.3,0.3-0.7,0.6-1,0.9c-1.1-0.4-1.9-0.3-2.2,1
		c-0.3,0.2-0.6,0.4-1,0.6c-0.9,0.5-1.7,1.1-2.6,1.6l0,0c-0.3,0.2-0.6,0.4-1,0.6c-0.3,0.1-0.6,0.2-0.9,0.3c-0.3,0.2-0.7,0.4-1,0.6
		c-0.3,0.1-0.6,0.2-1,0.3c-1.2,0.4-2.3,1.1-3.5,1.2c-2.5,0.4-5.1,0.5-7.7,0.7c-0.2,0-0.5,0.2-0.7,0.3c-0.2,0-0.4,0-0.6,0
		c-0.2-0.2-0.5-0.4-0.7-0.6c-0.2,0-0.4,0-0.6,0c0.1-0.4,0.1-0.7,0.2-1.2C130.2,123,128.6,121.9,127.4,120.1z"/>
		<path
			class="Rhinoceros3D3"
			d="M169.4,108.3c-1,1.3-2,2.7-3.1,4c-5.2,6.1-11.5,11.1-17.9,15.9c-5.1,3.8-10.3,7.6-14.3,12.7
		c-0.1-0.1-0.2-0.2-0.3-0.3c-0.1-0.2-0.2-0.4-0.3-0.6c-0.1-0.7-0.1-1.3-0.2-2c-0.3-0.9-0.7-1.8-1-2.6c-0.2-0.4-0.4-0.8-0.7-1.3
		c-0.4-0.6-0.8-1.2-1.2-1.9c-1.1-1.6-2.1-3.3-3.2-4.9c-1.4-1.3-2.8-2.6-4.2-3.9c-0.1-0.1,0-0.3,0-0.5c0.7,0.4,1.3,0.8,2.3,1.3
		c-0.2-0.5-0.3-0.7-0.3-0.9c0.2-0.1,0.4-0.2,0.7-0.3c0.4,0.2,0.9,0.4,1.3,0.5c0.1,0,0.2,0.1,0.3,0.1c0.2,0.1,0.4,0.1,0.7,0.2
		c0.3,0.2,0.6,0.4,0.9,0.5c-0.4,0.6-0.8,1.3-1.3,2.1c0.4,0.2,0.9,0.6,1.3,0.6c1-0.1,1,0.5,1,1.1l0,0c-1.1,0.2-0.6,0.5-0.1,0.8
		c0.3,0.2,0.6,0.4,0.8,0.7c0,0-0.1,0.1-0.1,0.1c0.4,0.2,0.9,0.4,1.3,0.6c-0.1,0.1-0.1,0.2-0.2,0.4c-0.2-0.1-0.4-0.2-0.6-0.2
		c-0.1,0.2-0.1,0.3-0.2,0.5c0.6,0.2,1.3,0.4,1.8,0.5c0.7,1.7,1.4,3.3,2.1,5c0,0.7,0,1.3,0,2c0.1,0,0.2,0,0.3,0
		c0.4-0.9,0.9-1.7,1.3-2.6c0.4-0.5,0.8-0.9,1.2-1.4c1-1.4,2-2.7,3-4.1c0.9-0.7,1.8-1.4,2.6-2.2c0.4-0.4,0.6-0.9,1-1.3
		c0.1-0.2,0.2-0.4,0.3-0.6c0.6-0.3,1.2-0.5,1.8-0.8c1.9-0.5,3.5-1.5,4.6-3.1c0.7-0.5,1.4-0.9,2.1-1.4c0.2-0.2,0.5-0.4,0.7-0.6
		c0.6-0.4,1.2-0.9,1.9-1.3c0.2-0.2,0.5-0.4,0.7-0.6c0.5-0.4,1-0.7,1.5-1.1c0.3-0.3,0.7-0.6,1-0.9c0.1-0.3,0.3-0.6,0.4-0.9
		c0.1-0.1,0.2-0.3,0.3-0.4c0.1,0,0.3,0,0.4,0.1c0.8-0.6,1.7-1.1,2.5-1.7c0.4-0.4,0.8-0.7,1.2-1.1l0,0c0.6,0,1.6,0.5,1-0.9
		c0.2-0.2,0.4-0.4,0.7-0.6c0.4-0.3,0.8-0.7,1.2-1c0.7-0.6,1.5-1.3,2.2-1.9C168.7,108.3,169.1,108.3,169.4,108.3z M125.9,124.5
		c-0.3-0.1-0.5-0.3-0.8-0.4c0.1,0.2,0.3,0.4,0.4,0.7c0.3,0.3,0.7,0.5,1,0.8c0.1-0.1,0.2-0.2,0.2-0.3
		C126.5,125,126.2,124.8,125.9,124.5z"/>
		<path
			class="Rhinoceros3D4"
			d="M70.3,47.1c0.2,1.1,0.4,2.1,0.7,3.2c-0.5,0.8-1.4,1.6-1.6,2.5c-0.5,2.8-1.7,5.3-3.1,7.7
		c-0.4,0.7-1.1,1.2-1.6,1.8c-0.3,0.3-0.6,0.7-0.7,1.2c-0.6,1.7-1.1,3.4-1.9,5c-1.8,3.9-3.9,7.6-5.7,11.5c-1.1,2.3-2,4.8-3,7.2
		c-0.8,1.8-1.7,3.5-2.6,5.2c-0.4-0.1-0.8-0.3-1.2-0.4c-0.1-0.5-0.2-1-0.4-1.4c0-0.6,0-1.2,0-1.8c1-2.1,2-4.1,2.9-6.2
		c0.8-1.9,1.3-4,1.8-6c0.6-2.2,1.1-4.5,1.4-6.8c0.1-1.4-0.4-2.8-0.6-4.2c-0.2-1.6-0.2-3.2-0.4-4.8c-0.3-2.2-0.9-4.2-2.5-5.9
		c-1-1-1.9-2.2-2.9-3.3c0.7,0.3,1.5,0.6,2.2,1c0,0,0,0,0,0c0.7,0.9,1.5,1.7,2.2,2.6c0.2,0.2,0.4,0.4,0.6,0.6c0.1,0.3,0.2,0.6,0.3,1
		c1.1,4.4,2.1,8.7,3.3,13.2c0.4-0.2,0.8-0.4,0.9-0.6c1.3-2.2,2.5-4.4,3.8-6.6c0.9-1.5,1.9-2.9,3-4.3c0.7-0.9,1.4-1.8,2.1-2.7
		c0-0.1,0-0.2,0-0.3c0.3-0.6,0.6-1.3,1-1.9c0.2-1.6,0.4-3.2,0.7-4.8c0-0.2,0-0.4,0-0.6C69.5,47.7,69.9,47.4,70.3,47.1z"/>
		<path
			class="Rhinoceros3D5"
			d="M102.1,87.2c-0.9,0.8-1.7,1.8-2.8,2.5C91,95.4,82,99.8,72.3,102.8c-0.4,0.1-0.8,0.3-1.3,0.5
		c0.4,0.6,0.8,1.2,1.2,1.8c-0.3,0-0.5-0.1-0.8-0.1c-0.6-0.3-1.1-0.6-1.7-0.9c-1.1-0.4-2.2-0.8-3.2-1.2c1.2-0.6,2.4-1.3,3.6-1.9
		c7.2-3.3,14.5-6.4,21.3-10.5c1.9-1.1,3.9-1.9,5.9-2.8c1-0.4,2.1-0.6,3.1-0.9c0.2,0,0.4,0,0.6,0C101.4,86.9,101.8,87,102.1,87.2z"/>
		<path
			class="Rhinoceros3D6"
			d="M100.8,92.2c1.3-1,2.5-1.9,3.8-2.9c0.4,0.6,0.9,1.3,1.3,1.9c0,0,0,0,0,0c0.2,0.4,0.4,0.9,0.7,1.3c0,0,0,0,0,0
		c0.4,1,0.9,1.9,1.3,2.9c0,0,0,0,0,0c0.2,0.4,0.4,0.9,0.6,1.3c0,0,0,0,0,0c0.3,0.6,0.6,1.3,1,1.9c0,0,0,0,0,0c0,0.6,0,1.3,0,1.9
		c-0.6,0.1-1.3,0.1-1.8,0.4c-0.9,0.5-1.8,1.1-2.6,1.7c-0.3,0.2-0.8,0.6-0.9,0.9c-0.3,1.3-0.6,2.6-0.6,3.8c0,1.6-0.3,2.2-1.8,2.1
		c-1.1-0.1-2.1-0.4-3.1-0.8c-1-0.4-1.9-1-3-1.4c-2.6-0.9-2.9-0.7-2.9,2.1c0,0.1,0,0.1,0,0.2c-0.3-0.1-0.6-0.2-0.9-0.3
		c-0.1-0.7,0.1-1.5-0.2-2c-1-1.6,0.4-1.8,1.1-1.7c1.3,0,2.8,0.2,3.8,0.8c1.5,1,2.9,0.5,4.2,0.6c0.3-1.2,0.7-2.2,0.9-3.2
		c0.1-0.4,0.2-1.1,0-1.2c-1.3-1-0.7-2.5-1.1-3.7c-0.4-1.2-0.7-2.5-0.9-3.8c-0.1-0.6,0.3-1.2,0.5-1.8
		C100.3,92.9,100.6,92.5,100.8,92.2z"/>
		<path
			class="Rhinoceros3D7"
			d="M82.3,130.1c-2-1.3-2.2-2-1.4-4.8c0.2,0.1,0.4,0.2,0.7,0.3c0,0.2,0,0.4,0,0.6c0.1,0.2,0.1,0.5,0.2,0.6
		c3,1.2,4.8,4.2,7.9,5.3c1.6,0.5,3,1.6,4.5,2.2c1.1,0.4,2.4,0.4,3-1c0.1-0.1,0.2-0.2,0.3-0.3c0.5-0.1,1.1-0.2,1.6-0.3
		c0.5,0.1,1,0.2,1.6,0.3c0.1,0.1,0.1,0.1,0.1,0.2c0.3,0.5,0.6,0.9,0.8,1.4c0.3,0.4,0.7,0.8,1,1.2c0.3,0.4,0.7,0.8,1,1.2l0.1,0
		c0,0.1,0,0.2,0,0.3c-0.1,0.2-0.2,0.4-0.3,0.5c0.3,0.1,0.6,0.3,0.9,0.4l0.1,0c0,0,0.1,0.1,0.1,0.1c-0.5,2.4,0.2,4.1,2.4,5.4
		c1.2,0.8,2.3,1.9,3.3,3c0.4,0.4,0.5,1,0.7,1.5c-0.1,0.1-0.3,0.1-0.4,0.2c-0.3-0.1-0.6-0.2-0.8-0.4c-1.9-1.4-3.8-2.9-5.8-4.3
		c-0.4-0.3-1-0.3-1.6-0.4c-0.7-0.5-1.3-1-2-1.5c0-1.3-0.8-1.3-1.7-1.3c-2.5-1.7-5-3.5-7.5-5.1C88.3,133.7,85.3,131.9,82.3,130.1z"/>
		<path
			class="Rhinoceros3D7"
			d="M130.6,106c0.2-0.1,0.4-0.2,0.7-0.3c0.3-0.1,0.6-0.2,0.9-0.3c0.9-0.3,1.9-1,2.3,0.7c-2.2,2.9-4.9,5.2-8.2,6.8
		c0-0.3-0.1-0.5-0.1-0.8c0.1-2.3-0.2-2.4-2.6-2.7c-3-0.3-6-0.8-8.8-1.6c-2.2-0.6-4.3,0.4-4.3,2.7c0,2.5-0.6,3.1-3.2,3.2
		c-2.6,0.1-5.1-0.2-7.5-1.3c-0.3-0.1-0.8,0.1-1.2,0.2c0.1,0.4,0.1,0.9,0.3,1.2c0.5,0.5,1.2,0.8,1.8,1.3c0.3,0.3,0.6,0.8,0.8,1.2
		c-1.6-1-3.2-1.9-4.8-2.9c-0.3-0.5-0.8-1-1-1.6c-0.2-0.6-0.2-1.4,0-1.9c0.1-0.2,1.1-0.3,1.5-0.2c2.2,0.9,4.2,1.9,6.4,2.8
		c2.1,0.9,3.2,0.2,3.7-2.1c0.1-0.8,0-1.7,0.4-2.2c1.2-1.7,2.7-3.2,4.1-4.7c0.6,0.5,1.3,1.1,1.9,1.6c0,0,0,0,0,0
		c0.1,0.1,0.2,0.2,0.3,0.3c0,0,0,0,0,0c0.2,0.1,0.4,0.2,0.6,0.3c0,0,0,0,0,0c0.2,0.2,0.4,0.4,0.6,0.6c0,0,0,0,0,0
		c0.3,0.3,0.6,0.6,0.9,0.8c4.8,2.2,9.6,1.6,14.2-0.5C130.5,106.5,130.5,106.2,130.6,106z"/>
		<path
			class="Rhinoceros3D5"
			d="M103.8,137.4c0-0.1,0-0.2,0-0.3c0.3,0.1,0.5,0.1,0.8,0.2c1.4,0.6,2.3,2.3,4.1,2c0.1,0,0.3,0.4,0.4,0.6
		c0.5,1.1,1.2,2,2.6,1.8c0.5-0.1,1.5,0.4,1.6,0.7c0.4,1.8,1.7,1.7,3,1.8l0.1,0l0.1-0.1c0,0.4,0,0.9,0,1.3c-1.3,0.8-0.1,1.7,0,2.6
		c0.3,0.4,0.6,0.9,1,1.5c0.4-0.8,0.7-1.4,0.9-1.9c0.7,0.1,1.5,0.2,2.2,0.3c1.7,1,3.4,1.9,5.1,2.9c0,0.2,0,0.4,0,0.6
		c0,0.6,0.1,1.1,0.9,0.7c0.3-0.2,0.7-0.2,1-0.4l0,0c-0.1,0.4-0.2,0.9-0.3,1.3c-1,0.5-1.9,1-2.9,1.5c-0.2,0.1-0.4,0.1-0.5,0.2
		c-0.2-0.1-0.4-0.3-0.6-0.4c0.1-0.2,0.2-0.4,0.3-0.5c-0.3,0-0.6-0.1-0.8-0.1c-1-0.8-2-1.7-3-2.5c-0.1,0-0.3,0-0.4,0
		c0.1,0.1,0.1,0.2,0.2,0.3c0.5,1.5,1.7,3,0.4,4.7c-0.2-0.2-0.5-0.4-0.7-0.6c-1.1-1-2.1-1.9-3.2-2.9c-1.4-1-1.7-2.5-1.8-4
		c-0.1-0.5-0.5-1-0.7-1.5c-0.3-0.3-0.6-0.5-0.9-0.8c-1.1-1-2.2-2-3.3-3c-0.1-0.1-0.3-0.3-0.4-0.4c-0.5-0.5-1.1-1-1.6-1.4
		c-0.3-0.4-0.7-0.8-1-1.2c-0.5-0.6-1.1-1.3-1.6-1.9l-0.1-0.1c0,0-0.1,0-0.1,0C104.2,138,104,137.7,103.8,137.4z M122.2,149.5
		c-0.1,0.1-0.2,0.2-0.4,0.2c0.2,1.5,1.6,3.1,3.1,3.1C123.8,151.6,123,150.6,122.2,149.5z"/>
		<path
			class="Rhinoceros3D3"
			d="M129.6,114.6c-1.2,1-2.3,2-3.5,2.9c-0.6,0.3-1.3,0.7-1.9,1c-2-0.9-3.3-0.3-3.5,1.6c-5.4-2.7-10.9-3.2-16.7-1.4
		c-0.9,0.3-1.2,0.9-1.5,1.6c-0.4,0-0.8,0-1.2,0.1c0.1,0.3,0.3,0.6,0.4,0.9c-0.5,0.4-1,0.9-1.5,1.3c-0.1-0.1-0.2-0.3-0.3-0.4
		c-0.3-0.6-0.5-1.3-0.9-1.8c-1.4-1.3-2.3-3.2-4.6-3.3c-0.1,0-0.1-0.1-0.2-0.1c-0.3-1.5-3-3.4-4.9-3.5c0.1-0.3,0.2-0.6,0.3-1
		c0.4,0.1,0.7,0.1,1.1,0.2c2.2,1,4.4,2.1,6.6,3.1c0.2,0.1,0.5,0.1,0.7,0.2l-0.1,0.1c0.8,0.3,1.5,0.7,2.3,1c0.2,0,0.4,0.1,0.5,0.1
		c0.7,0,1.4,0.1,2,0.1c3.8-0.1,7.6-0.1,11.3-0.4c2.4-0.2,4.8-1,7.2-1.6c0.3-0.1,0.6-0.2,1-0.3c0.3-0.2,0.5-0.3,0.8-0.5
		c0.2,0,0.4,0,0.5-0.1c0.2,1.3,0.2,1.3,1,0.9c1.6-0.5,3.2-1.1,4.8-1.6C129.4,114.2,129.5,114.4,129.6,114.6z"/>
		<path
			class="Rhinoceros3D4"
			d="M65.2,96.1c2-2.6,3.9-5.1,5.9-7.7c0.2-0.1,0.3-0.2,0.5-0.3c0,0,0,0,0,0c0.1-0.2,0.2-0.4,0.3-0.7c0,0,0,0,0,0
		c1-1.4,1.9-2.8,2.9-4.2c0.3-0.5,0.6-1.1,0.9-1.6c0.2-0.5,0.4-1.1,0.6-1.6c0.2-0.4,0.4-0.9,0.7-1.3c0.1-0.4,0.2-0.8,0.4-1.3
		c0.2-0.4,0.4-0.9,0.6-1.3c0.1-0.4,0.2-0.9,0.4-1.3c0.2-0.1,0.5-0.2,0.6-0.4c0.5-1.5,1.1-2.9,1.4-4.5c0.6-2.7,1.2-5.4,1.7-8
		c0-0.1-0.3-0.3-0.5-0.5c0.1-0.9,0.2-1.7,0.3-2.6c0-0.5,0-1.1,0-1.6c-0.1-1.6-0.2-3.2-0.3-4.8c0-0.3,0-0.6,0.1-0.9
		c0.2,0,0.4,0,0.6-0.1c0.1,0.4,0.2,0.8,0.2,1.2c0,0.5,0,0.9,0.1,1.4c0.1,0.2,0.2,0.4,0.3,0.7c0,0.3,0,0.6,0,1c0,0.3,0,0.7,0,1
		c0.1,0.4,0.2,0.8,0.3,1.3c0,1,0,1.9,0,2.9c-0.2,0.2-0.4,0.4-0.4,0.6c-0.2,2.5-0.1,5.1-0.5,7.6c-1,6.3-3.2,12.1-7.1,17.2
		c-1.4,1.9-3,3.6-4.4,5.5c-0.8,1-1.2,2.2-2.5,2.9c-0.5,0.3-0.9,0.9-1.3,1.4l0,0c-0.9,0.9-1.8,1.8-2.7,2.7c0.1-0.7,0.3-1.4,0.4-2
		C64.8,96.5,65,96.3,65.2,96.1z"/>
		<path
			class="Rhinoceros3D8"
			d="M50.8,92.3c0.9-1.7,1.8-3.5,2.6-5.2c1.1-2.4,1.9-4.8,3-7.2c1.8-3.9,3.9-7.6,5.7-11.5c0.8-1.6,1.2-3.3,1.9-5
		c0.2-0.4,0.4-0.8,0.7-1.2c0.5-0.6,1.2-1.1,1.6-1.8c1.4-2.4,2.6-4.9,3.1-7.7c0.2-0.9,1-1.7,1.6-2.5c0.1,1.6,0.2,3.2,0.3,4.8
		c-1.7,0.2-2.5,1.1-2.2,2.9c0,0.1,0,0.2,0,0.3c-0.3,0.4-0.7,0.7-0.9,1.1c-0.7,1.6-1.2,3.3-2.1,4.9c-2.2,4.2-4.7,8.2-6.9,12.4
		c-1.6,3-3,6.1-4.4,9.2c-0.7,1.6-1.4,3.2-2.1,4.7c0,0.4,0,0.8-0.1,1.2c-0.4,0.2-0.8,0.4-1.2,0.6C51.2,92.5,51,92.4,50.8,92.3z"/>
		<path
			class="Rhinoceros3D0"
			d="M100.8,92.2c-0.2,0.3-0.5,0.6-0.6,1c-0.2,0.6-0.5,1.2-0.5,1.8c0.2,1.3,0.4,2.6,0.9,3.8
		c0.4,1.2-0.2,2.7,1.1,3.7c0.2,0.2,0.1,0.8,0,1.2c-0.2,1-0.6,2-0.9,3.2c-1.3-0.1-2.7,0.4-4.2-0.6c-1-0.7-2.5-0.8-3.8-0.8
		c-0.8,0-2.2,0.2-1.1,1.7c0.3,0.5,0.1,1.3,0.2,2c-0.2,0.1-0.4,0.2-0.6,0.3c-0.1,0-0.2,0-0.3,0c0-0.3,0-0.6,0-0.9
		c-0.2-0.3-0.4-0.7-0.6-1c-0.1-0.2-0.2-0.4-0.3-0.6c-0.8-2-0.5-3.1,1.1-3.1c1.4-0.1,3,0.1,4.4,0.5c1.5,0.4,3.3-0.3,3.1-1.8
		c-0.4-2.6-1-5.2-1.6-7.8C98.2,93.9,99.5,93.1,100.8,92.2z"/>
		<path
			class="Rhinoceros3D9"
			d="M103,82.3c0,0.8,0,1.5,0,2.3c-1.3,0.4-2.6,1-4,1.2c-1.2,0.2-2.5-0.3-3.6-0.2c-2,0.3-4.1-0.2-5.9,1.4
		c-1.3,1.1-2.8,1.9-4.2,2.7c-2.6,1.6-5.3,3.1-7.9,4.7c-2.9,1.7-5.8,3.5-8.6,5.3c-0.8,0.5-1.5,1.2-2.2,1.8c0,0,0,0,0,0
		c-0.5,0.1-1,0.2-1.5,0.4c-0.1-0.3-0.3-0.7-0.4-1l0.1,0l0.1,0c1.2-0.7,2.4-1.5,3.5-2.2c1.1-0.7,2.3-1.3,3.3-2c5-3.5,9.9-7.1,15-10.6
		c1-0.7,2.2-1.4,3.3-1.4c2.9-0.1,5.8,0.1,8.7,0.2c1.8,0.1,3-0.4,3.7-2.1C102.5,82.5,102.8,82.4,103,82.3z"/>
		<path class="Rhinoceros3D5" d="M49.8,101.5c-6.2-2.5-12.5-2.8-18.9-1.3c-2.9,0.7-4.2,0-5.1-2.8c6-0.5,12-1.2,18,0.3c0.8,0.1,1.7,0.3,2.5,0.4
		c0.4,0.3,0.9,0.6,1.3,0.9c0.5,0.1,1,0.2,1.6,0.4C49.4,100,49.6,100.7,49.8,101.5z"/>
		<path
			class="Rhinoceros3D4"
			d="M103,82.3c-0.2,0.1-0.5,0.2-0.6,0.4c-0.7,1.7-1.8,2.3-3.7,2.1c-2.9-0.2-5.8-0.4-8.7-0.2
		c-1.1,0-2.3,0.7-3.3,1.4c-5,3.5-10,7.1-15,10.6c-1.1,0.7-2.2,1.3-3.3,2c0.1-0.4,0.2-0.9,0.3-1.3c0.4-0.3,0.9-0.6,1.3-1
		c1-0.7,1.9-1.5,2.9-2.2l0,0c0.5-0.2,1-0.3,1.4-0.6c0.9-0.6,1.7-1.3,2.5-1.9c2.3-1.8,4.6-3.6,6.9-5.3c0.9-0.7,1.8-1.5,2.8-2
		c0.9-0.5,1.9-0.7,2.8-1c0.4,0,0.8,0,1.3,0c0.9,0,1.7,0,2.6,0c1.6,0,3.2,0,4.8,0c0.6,1,1.3,1,1.9,0c0.3,0,0.6,0,1,0
		c0.3-0.4,0.6-0.9,1-1.3c-0.2-1.2-0.4-2.3-0.6-3.5c0-0.2,0-0.4,0-0.6c0.1-0.5,0.2-1.1,0.3-1.6C102,78.3,102.5,80.3,103,82.3z"/>
		<path
			class="Rhinoceros3D10"
			d="M66.5,101.5c0.7-0.6,1.4-1.3,2.2-1.8c2.9-1.8,5.7-3.6,8.6-5.3c2.6-1.6,5.3-3.1,7.9-4.7
		c1.4-0.9,2.9-1.7,4.2-2.7c1.8-1.5,3.9-1.1,5.9-1.4c1.2-0.2,2.4,0.3,3.6,0.2c1.4-0.2,2.7-0.8,4-1.2c0,0.4,0,0.9,0,1.3
		c-0.6,0.3-1.3,0.6-1.9,0.9c-0.2,0-0.4,0-0.6,0c-1.4-0.1-2.8-0.2-4.2-0.3c-1.5,0.3-3.2,0.3-4.5,1c-1.9,1-3.6,2.5-5.4,3.8
		c-1,0.6-2,1.2-3,1.8c-4.2,2.2-8.4,4.4-12.6,6.6C69.4,100.3,67.9,100.9,66.5,101.5z"/>
		<path
			class="Rhinoceros3D7"
			d="M82.5,52.7c-0.1-0.4-0.2-0.8-0.2-1.2c-0.2-0.4-0.4-0.8-0.7-1.2c-0.1-0.5-0.1-0.9-0.3-1.6
		c2.1,0.3,2.9,2.2,4.4,3.2c0,0.1,0,0.2,0,0.3c0,0,0,0,0,0c1,1.2,1.9,2.4,2.9,3.5c0.6,1,1.3,1.9,1.9,2.9c0.2,0.1,0.4,0.2,0.6,0.3
		c0,0,0,0,0,0c0.1,0.5,0.2,1.1,0.3,1.6c0,0.5,0.1,1,0,1.4c-0.1,0.6-0.2,1.2-0.5,1.6c-0.4,0.5-1.1,0.9-1.7,1.4
		c-0.4-0.5-0.9-1-1.2-1.6c-1.1-2.6-2.2-5.2-3.3-7.7c-0.3-0.7-0.9-1.2-1.3-1.8C83.2,53.4,83.7,52.3,82.5,52.7z"/>
		<path
			class="Rhinoceros3D11"
			d="M96.9,94.8c0.5,2.6,1.2,5.2,1.6,7.8c0.2,1.5-1.6,2.2-3.1,1.8c-1.4-0.4-2.9-0.6-4.4-0.5
		c-1.6,0.1-1.9,1.1-1.1,3.1c-0.5-0.2-1.1-0.4-1.6-0.7c-0.5-0.3-0.9-0.7-1.4-0.9c-0.5-0.2-1-0.3-1.5-0.4c0-0.2,0-0.4-0.1-0.6
		c2.1-0.8,4.1-2,6.3-2.5c2.5-0.6,3.9-2.2,3.4-4.8c-0.1-0.4,0-0.7-0.1-1.1C95.7,95.6,96.3,95.2,96.9,94.8z"/>
		<path
			class="Rhinoceros3D12"
			d="M119.2,155.7c0.2,0.2,0.5,0.4,0.7,0.6c-0.7,1.1-1.6,0.9-2.5,0.4c-1-0.6-1.9-1.2-2.7-2
		c-9.2-8-18.9-15.3-29.2-21.8c-1.1-0.7-2.1-1.5-3.1-2.2c-0.1-0.1-0.1-0.4-0.2-0.6c3,1.8,6,3.6,8.9,5.5c2.5,1.6,5,3.4,7.5,5.1
		c0.6,0.4,1.2,0.8,1.7,1.3c0.7,0.5,1.3,1,2,1.5c2.9,2.3,5.7,4.6,8.6,6.9c2.2,1.8,4.4,3.6,6.6,5.3C118,155.8,118.7,155.7,119.2,155.7
		z"/>
		<path
			class="Rhinoceros3D13"
			d="M52.7,91.9c0-0.4,0-0.8,0.1-1.2c0.3-0.2,0.8-0.4,0.9-0.7c0.8-1.2,1.5-2.5,2.2-3.8c2.2-4.3,4.3-8.5,6.5-12.8
		c0.6-0.7,1.3-1.5,1.9-2.2l0,0c0.2-0.3,0.4-0.6,0.6-1c0-0.1,0-0.2,0-0.3c1.5-0.4,1.7-1.6,1.9-2.9c0-0.3,0-0.6,0-1
		c1.6-0.6,1.3-2,1.3-3.2c0-0.3,0-0.6,0-1c1.4-0.2,2.6-0.6,2.8-2.2c-0.3,2.3-0.6,4.7-0.8,7c-0.6-0.3-1.2-0.5-1.9-0.8
		c-0.5,1.3-0.9,2.7-1.4,4l0,0c-0.3,0.4-0.6,0.9-0.9,1.3c-0.1,0.4-0.2,0.8-0.3,1.3c-0.2,0.1-0.5,0.2-0.6,0.4c-2,3.1-3.9,6.2-5.8,9.3
		c-0.9,1.5-1.7,3.1-2.5,4.7c0,0.1,0,0.2,0,0.3c-0.3,0.4-0.6,0.9-1,1.3c-0.4,0.8-0.8,1.5-1.3,2.3c0,0,0,0,0,0
		c-0.2,0.4-0.4,0.8-0.6,1.3c-0.2,0.1-0.4,0.3-0.6,0.4C53,92.2,52.8,92,52.7,91.9z"/>
		<path
			class="Rhinoceros3D8"
			d="M25,93.3c0.2-1.2,0.4-2.4,0.6-3.6c0.1,0,0.2,0,0.3,0c0,0.4,0,0.9-0.1,1.3c0,0.2-0.1,0.4-0.1,0.6
		c-0.5,0.8-0.1,1.2,0.7,1.3c3.5,0.2,7,0.4,10.6,0.6c0.4,0,0.8,0,1.3,0c1.4,0.3,2.8,0.6,4.2,0.9c0.2,0,0.4,0,0.6,0c0.2,0,0.4,0,0.6,0
		c0.2,0,0.4,0,0.6,0c1.7,0.7,3.4,1.5,5.2,2.2c0.2,0,0.4,0,0.6,0c0.2,0.2,0.4,0.4,0.7,0.6c0.9,0.4,1.7,0.9,2.6,1.3
		c0.3,0.2,0.6,0.4,1,0.6c0.1,0,0.2,0,0.3,0c0.5,0.4,1.1,0.8,1.6,1.3c0.1,0,0.2,0,0.3,0c0.6,0.5,1.3,1.1,1.9,1.6
		c0.4,0.3,0.9,0.6,1.3,1c0.2,0.2,0.4,0.4,0.7,0.6c1.3,1.2,2.6,2.4,3.8,3.5c0.4,0.4,0.8,0.9,1.3,1.3c0,0.4,0,0.8,0,1.3
		c-2.3-2.1-4.4-4.3-6.8-6.2c-4.5-3.7-9.5-6.4-15.1-7.9c-5.1-1.3-10.3-1.7-15.5-1.6c-0.9,0-1.8-0.2-2.7-0.3
		C25.3,93.7,25.2,93.5,25,93.3z"/>
		<path
			class="Rhinoceros3D4"
			d="M90.9,108.6c0,0.3,0,0.6,0,0.9c-0.4-0.2-0.9-0.4-1.3-0.6c-0.1,0-0.2,0-0.3,0c-0.8-1.3-3.6-2.2-4.7-1.6
		c-0.3,0.2-0.6,0.6-0.7,0.9c0,0.2,0.4,0.6,0.7,0.8c1.2,0.5,2.5,0.8,3.7,1.3c0.1,0,0.2,0,0.3,0c0.7,0.9,1.4,1.8,2.1,2.7
		c-0.4-0.1-0.7-0.1-1.1-0.2c-2.2-0.5-4.3-1.1-6.5-1.6c-0.5,0-1,0-1.5,0c-2.5-1.4-3.3-3.1-2.4-5.2c2.1,0.1,4.2,0.3,6.3,0.4
		c0.5,0,1.1,0,1.6,0c1,0.4,1.9,0.9,2.9,1.3C90.2,108,90.5,108.3,90.9,108.6z"/>
		<path
			class="Rhinoceros3D14"
			d="M85.4,106.3c-2.1-0.1-4.2-0.3-6.3-0.4c-0.1-1.7,1-2.9,2.2-3.6c3.2-1.6,6.5-2.9,9.7-4.4
		c0.4,0.3,0.8,0.6,1.4,1.1c-1.4,0.9-2.6,1.9-3.9,2.5c-1.5,0.8-3.2,1.2-4.8,1.9c-0.4,0.2-0.7,0.7-1,1c0.4,0.3,0.7,0.7,1.1,0.9
		C84.4,105.7,84.9,106,85.4,106.3z"/>
		<path
			class="Rhinoceros3D15"
			d="M49.6,76.5c-0.2-4.1-0.2-8.3-0.7-12.4c-0.7-5.3-3.3-9.8-6.4-14.2c0.5,0,0.8-0.1,1.2-0.1c0,0.1,0,0.1,0.1,0.1
		c0.1,0.1,0.3,0.1,0.4,0.2c0.6,0.7,1.2,1.3,1.7,2c0,0.2,0,0.3,0.1,0.5c1,2.1,3,3.7,3.1,6.4c0.1,1.6,0.9,3.2,0.9,4.8
		c0.1,4.1,0,8.3,0,12.4C50,76.3,49.8,76.4,49.6,76.5z"/>
		<path
			class="Rhinoceros3D16"
			d="M85.4,106.3c-0.5-0.3-1-0.6-1.5-0.9c-0.4-0.3-0.7-0.6-1.1-0.9c0.3-0.3,0.6-0.9,1-1c1.6-0.7,3.3-1.2,4.8-1.9
		c1.3-0.6,2.5-1.6,3.9-2.5c-0.6-0.5-1-0.8-1.4-1.1c1.3-0.6,2.6-1.3,3.9-1.9c0,0.4,0,0.8,0.1,1.1c0.5,2.6-0.9,4.2-3.4,4.8
		c-2.2,0.5-4.2,1.6-6.3,2.5c0,0.2,0,0.4,0.1,0.6c0.5,0.1,1,0.2,1.5,0.4c0.5,0.2,0.9,0.6,1.4,0.9c-0.4,0-0.9,0-1.3,0
		C86.5,106.3,86,106.3,85.4,106.3z"/>
		<path
			class="Rhinoceros3D11"
			d="M71.4,104.9c0.3,0,0.5,0.1,0.8,0.1c1.3,3,2.6,6,4,8.9c-0.1,0.5-0.4,1-0.3,1.5c0.1,0.8,0.5,1.5,0.5,2.3
		c0,0.6-0.1,1.3-0.5,1.6c-0.2,0.2-1.2,0-1.5-0.3c-1.2-1.2-2.3-2.6-3.5-3.8c-0.4-0.4-0.9-0.7-1.4-1.1c-0.2-0.5-0.5-1-0.7-1.6
		c0-0.1,0-0.2,0-0.3c0.6,0.4,1.3,0.6,1.8,1.1c1.1,0.8,2,1.8,3.1,2.7c0.2,0.2,0.7,0.3,0.9,0.2c0.3-0.1,0.6-0.6,0.5-0.8
		c-0.3-1.2-0.8-2.3-1.2-3.4c-0.2-0.6-0.3-1.3-0.6-1.9c-0.4-0.8-0.9-1.5-1.3-2.3C71.8,106.9,71.6,105.9,71.4,104.9z"/>
		<path
			class="Rhinoceros3D17"
			d="M56.6,87.1c0-0.1,0-0.2,0-0.3c2.1-1.3,2.6-3.6,3.8-5.4c0.9-1.2,1.7-2.4,2.6-3.5c0.2-0.2,0.4-0.4,0.6-0.6
		c0.2-0.3,0.4-0.6,0.6-1c0-0.1,0-0.2,0-0.3c1.3-0.6,2.6-1.3,3.9-1.9c-0.4,1.1-0.9,2.2-1.3,3.3c-0.9,0.2-2.1,0.1-2.6,0.6
		c-0.9,1-1.3,2.3-1.9,3.5c0,0,0,0,0,0c-0.2,0.2-0.4,0.4-0.6,0.7c-0.2,0.4-0.4,0.8-0.7,1.3c-0.6,0.9-1.3,1.7-1.9,2.6
		c-0.1,0.3-0.2,0.6-0.3,1c-0.3,0.5-0.7,1.1-1,1.6c-0.1,0-0.2,0-0.3,0c-0.3,0.3-0.6,0.7-0.9,1c-0.1,0.3-0.2,0.6-0.4,0.9
		c-0.2,0.3-0.4,0.6-0.6,0.9c-0.1,0.2-0.2,0.5-0.3,0.7c-0.3,0.1-0.6,0.1-1,0.2c0-0.5,0-1,0-1.5c0,0,0,0,0,0c0.6-0.8,1.3-1.5,1.9-2.3
		C56.4,88,56.5,87.5,56.6,87.1z"/>
		<path
			class="Rhinoceros3D15"
			d="M25,93.3c0.2,0.2,0.3,0.4,0.5,0.6c-0.2,1.5,0.6,1.7,1.9,1.6c0.7-0.1,1.5-0.3,2.2-0.3c2.3,0.1,4.7,0.2,7,0.3
		c4.8,0.1,9.2,1.5,13.5,3.4c0.9,0.4,1.6,1.1,2.4,1.7c-0.3,0-0.7,0-1,0c-0.3-0.1-0.6-0.3-0.9-0.4c-0.4-0.3-0.9-0.6-1.3-0.9
		c-0.5-0.1-1-0.2-1.6-0.4c-0.4-0.3-0.9-0.6-1.3-0.9c-0.8-0.1-1.7-0.3-2.5-0.4c-0.5-0.3-0.9-0.8-1.4-0.9c-4.3-0.6-8.6-1.1-13-0.5
		c-1.2,0.2-2.6-0.1-3.8-0.2c0,0-0.1,0.2-0.1,0.3C25.3,95.4,25.2,94.3,25,93.3z"/>
		<path
			class="Rhinoceros3D14"
			d="M69.5,114.3c0.5,0.4,1,0.6,1.4,1.1c1.2,1.3,2.3,2.6,3.5,3.8c0.3,0.3,1.3,0.5,1.5,0.3c0.4-0.4,0.5-1.1,0.5-1.6
		c0-0.8-0.4-1.5-0.5-2.3c0-0.5,0.2-1,0.3-1.5c0.6,2.8,1.2,5.6,1.9,8.4c-0.4,0.4-0.8,0.7-1.2,1.2c-1.8-0.5-2.7-2.1-3.6-3.5
		c-1.1-1.6-2.3-3.1-3.4-4.7c-0.1-0.2-0.2-0.4-0.4-0.6C69.4,114.6,69.4,114.4,69.5,114.3z"/>
		<path class="Rhinoceros3D18" d="M71.9,121.4c-3.8-4.4-7.7-8.8-11.5-13.2c0.2-0.3,0.5-0.7,0.7-1c1.3,1.2,2.7,2.2,3.8,3.5
		c1.5,1.6,2.9,3.3,4.3,5c1.1,1.8,2.2,3.6,3.4,5.3C72.4,121.2,72.2,121.3,71.9,121.4z"/>
		<path
			class="Rhinoceros3D18"
			d="M56.3,90.3c0.1-0.3,0.2-0.6,0.4-0.9c0.2,0,0.4,0,0.6,0c0.2-0.3,0.4-0.6,0.6-1c0.3-0.5,0.7-1.1,1-1.6
		c0.3-0.3,0.6-0.6,1-1c0.4-0.5,0.9-1.1,1.3-1.6c0.8-0.1,1.5-0.2,2.3-0.3c-1.5,2.5-3,5-4.5,7.6c0,0,0,0,0,0c-1.2,0.2-2.4,0.3-3.6,0.5
		c0.1-0.2,0.2-0.5,0.3-0.7C55.8,90.9,56,90.6,56.3,90.3z"/>
		<path
			class="Rhinoceros3D7"
			d="M126.8,123.5c-0.4-0.2-0.9-0.4-1.3-0.5c-0.4-0.1-0.9-0.2-1.3-0.3c0,0,0,0,0,0c0-0.1,0-0.3,0-0.4
		c-0.4-0.3-0.8-0.7-1.2-1c0.4-1.7,1.8-1.8,3.1-2.1c0.4,0.3,0.8,0.6,1.3,0.9c1.2,1.8,2.8,2.9,5,3c-0.1,0.5-0.2,0.8-0.2,1.2
		c-0.2,0-0.5,0.1-0.7,0.1c-0.3,0-0.6,0.1-1,0.1c-0.1-0.1-0.2-0.1-0.3-0.2c-0.4-1.2-1.4-0.5-2.1-0.6c-0.2,0-0.3,0.1-0.5,0.1
		c-0.2-0.1-0.4-0.1-0.7-0.2C127,123.6,126.9,123.6,126.8,123.5z"/>
		<path
			class="Rhinoceros3D1"
			d="M44.4,84.2c1.3,0.3,2.5,0.6,3.8,0.9c-0.1,0.5-0.2,1.1-0.3,1.6c-0.1,0-0.2,0-0.2,0c-0.1-0.1-0.2-0.2-0.3-0.3
		c-1.3-0.3-2.5-0.7-3.8-0.9c-1.4-0.2-2.8-0.3-4.2-0.4c-2.5-0.2-5.1-0.5-7.7-0.5c-1.2,0-2.5,0.5-3.1,1.8c-0.1,0.3-0.7,0.4-1,0.6
		c0.1-0.4,0.2-0.9,0.3-1.3c0,0,0,0,0,0c0.2-0.2,0.4-0.4,0.6-0.6c0,0,0,0,0,0c0.1-0.1,0.2-0.2,0.3-0.3c0,0,0,0,0,0
		c0.1-0.1,0.2-0.2,0.3-0.3c0,0,0,0,0,0c0.9-0.3,1.8-0.9,2.6-0.9c3,0.1,5.9,0.3,8.9,0.5C41.8,84.2,43.1,84.2,44.4,84.2z"/>
		<path class="Rhinoceros3D14" d="M149.7,114.3c-0.3,0.4-0.6,1.1-1,1.3c-3.8,1.9-7.7,3.7-11.5,5.5c-2.2,1.1-4.5,0.7-6.8,0.1
		c-0.1,0-0.2-0.3-0.3-0.5c2.8-0.5,5.5-1.1,8.3-1.6c0.6,0,1.3,0.2,1.7,0C143.3,117.6,146.5,116,149.7,114.3z"/>
		<path class="Rhinoceros3D9" d="M72.7,121.1c-1.1-1.8-2.2-3.6-3.4-5.3c0.1-0.1,0.3-0.3,0.4-0.4c1.1,1.6,2.3,3.1,3.4,4.7c1,1.5,1.8,3.1,3.6,3.5
		c0.5-0.4,0.8-0.8,1.2-1.2c0.1,1.1,0.1,2.1,0.2,3.2c-0.6,0.8-1.2,1.6-2.4,1.3C74.8,124.9,73.7,123,72.7,121.1z"/>
		<path
			class="Rhinoceros3D19"
			d="M164.9,111.2c-0.2,0.2-0.4,0.4-0.7,0.6c-0.3,0.3-0.7,0.6-1,0.9c0,0,0,0,0,0c-0.4,0.4-0.8,0.7-1.2,1.1
		c-0.8,0.6-1.7,1.1-2.5,1.7c0.1-0.3,0.1-0.7,0.4-0.9c3.3-3.2,6.7-6.3,10-9.5c0.4-0.4,0.7-1,1-1.5c0.3-0.3,0.6-0.6,1-1
		c0.2-0.3,0.5-0.6,0.7-0.9c0.1-0.1,0.2-0.2,0.3-0.3c0.2-0.2,0.4-0.5,0.6-0.7c0.2-0.4,0.5-0.8,0.7-1.2c0,0,0,0,0,0
		c0.2-0.1,0.5-0.1,0.7-0.2c-0.7,1.3-1.4,2.6-2.1,3.9c-1.5,1.7-3,3.4-4.5,5.1c-0.7,0.6-1.5,1.3-2.2,1.9
		C165.8,110.5,165.3,110.8,164.9,111.2z"/>
		<path class="Rhinoceros3D20" d="M61.1,107.2c-0.2,0.3-0.5,0.7-0.7,1c-3.2-2.1-6.4-4.2-9.6-6.4c0.2-0.4,0.4-0.8,0.6-1.3c0.3,0,0.7,0,1,0
		c0.1,0,0.2,0,0.3,0.1c0.5,0.3,1.1,0.6,1.6,1l0,0c1.3,2.1,3.5,3,5.5,4.1C60.2,106.2,60.7,106.7,61.1,107.2z"/>
		<path class="Rhinoceros3D13" d="M126.2,112.9c3.3-1.6,6-3.9,8.2-6.8c0.1,1.8-0.5,3.5-1.9,4.7c-0.5,0.3-1.1,0.7-1.6,1c-0.4,0.3-0.9,0.6-1.3,1
		c0,0,0,0,0,0c-1.2,0.2-2.4,0.4-3.6,0.6C126.1,113.2,126.1,113,126.2,112.9z"/>
		<path class="Rhinoceros3D21" d="M68.2,74c-1.3,0.6-2.6,1.3-3.9,1.9c0.2-0.5,0.4-1,0.6-1.5c0.2-0.7,0.5-1.3,0.7-2c0.1-0.4,0.2-0.8,0.3-1.3
		c1,0.1,1-0.6,0.9-1.3c0,0,0,0,0,0c0.7,0,1.3,0.1,1.6,0.1c0.5-0.6,0.9-1,1.3-1.4C69.2,70.3,68.7,72.2,68.2,74z"/>
		<path
			class="Rhinoceros3D9"
			d="M81.5,61.5c0.2,0.2,0.5,0.4,0.5,0.5c-0.5,2.7-1.1,5.4-1.7,8c-0.4,1.5-0.9,3-1.4,4.5c-0.1,0.2-0.4,0.3-0.6,0.4
		c0-0.4,0-0.9,0-1.3c0.5-1.7,1.1-3.4,1.5-5.1c0.3-1,0.3-2.1,0.4-3.1c0.2-1.3,0.5-2.6,0.7-3.9C81.2,61.5,81.4,61.5,81.5,61.5z"/>
		<path
			class="Rhinoceros3D14"
			d="M101.4,76.2c-0.1,0.5-0.2,1.1-0.3,1.6c-0.3,0-0.6,0-0.9,0c-0.1,0-0.2,0-0.3,0c0-0.2,0-0.4,0-0.6
		c0.1-0.4,0.2-0.9,0.3-1.3c-0.2-0.5-0.4-1.1-0.6-1.6c-0.4-0.9-0.8-1.7-1.3-2.6c-0.1-0.5-0.2-1.1-0.3-1.6c-0.1-0.2-0.2-0.4-0.3-0.6
		c0,0,0,0,0,0c-0.5-1.2-1.1-2.4-1.6-3.5c0.1-0.3,0.2-0.7,0.3-1C98.5,68.5,100.4,72.2,101.4,76.2z"/>
		<path
			class="Rhinoceros3D21"
			d="M133.8,140.6c0.1,0.1,0.2,0.2,0.3,0.3c-0.2,1-0.3,2-0.6,2.9c-0.5,1.3-1.1,2.6-1.6,3.9
		c-0.3-1.1-0.9-0.5-1.4-0.3c-1.4,0.5-2.9,1-4.3,1.6c-0.1,0-0.2,0-0.3,0c0-0.2-0.1-0.4-0.1-0.7c0-0.1,0-0.2,0-0.3
		c1.1-0.3,2.3-0.6,3.4-1c1.4-0.6,2.8-1.2,3.3-2.8C132.9,143,133.3,141.8,133.8,140.6z"/>
		<path class="Rhinoceros3D20" d="M25.5,96.4c0-0.1,0.1-0.3,0.1-0.3c1.3,0.1,2.6,0.4,3.8,0.2c4.4-0.7,8.7-0.1,13,0.5c0.5,0.1,0.9,0.6,1.4,0.9
		c-6-1.5-12-0.8-18-0.3C25.7,97.1,25.6,96.8,25.5,96.4z"/>
		<path
			class="Rhinoceros3D15"
			d="M126.1,149c1.4-0.5,2.9-1,4.3-1.6c0.6-0.2,1.2-0.8,1.4,0.3c-0.1,0.2-0.2,0.4-0.4,0.6
		c-0.2,0.2-0.4,0.4-0.7,0.6c-1.3,0.3-2.6,0.6-3.9,1c-0.3,0.1-0.4,0.6-0.6,0.9l0,0c-0.2,0-0.4,0-0.7,0c-1.7-1-3.4-1.9-5.1-2.9
		c0-0.1,0-0.2,0-0.4c0.2,0,0.5-0.1,0.7-0.1c0.1,0,0.2,0.1,0.3,0.1c1.3,0.6,2.5,1.1,3.8,1.7c0.2,0.1,0.3,0.3,0.5,0.4
		C126,149.5,126.1,149.2,126.1,149z"/>
		<path
			class="Rhinoceros3D13"
			d="M78.4,73.7c0,0.4,0,0.9,0,1.3c-0.1,0.4-0.2,0.9-0.4,1.3c-0.2,0.4-0.4,0.9-0.6,1.3c-0.1,0.4-0.2,0.8-0.4,1.3
		c-0.2,0.4-0.4,0.9-0.7,1.3c-0.2,0.5-0.4,1.1-0.6,1.6c-0.3,0.5-0.6,1.1-0.9,1.6c-1,1.4-1.9,2.8-2.9,4.2c0.7-1.6,1.6-3.1,2.2-4.7
		c1.3-3,2.5-6.1,3.7-9.1C78,73.6,78.2,73.6,78.4,73.7z"/>
		<path class="Rhinoceros3D11" d="M44.4,84.2c-1.3,0-2.6,0-3.8-0.1c-3-0.2-5.9-0.5-8.9-0.5c-0.9,0-1.8,0.6-2.6,0.9c0.8-1.7,2.4-2,3.8-1.8
		c3.6,0.3,7.1,0.9,10.6,1.4C43.8,84.1,44.1,84.2,44.4,84.2z"/>
		<path class="Rhinoceros3D6" d="M81.6,125.6c-0.2-0.1-0.4-0.2-0.7-0.3c-0.2-0.9-0.2-1.7,0.7-2.3c0.4-3,0.8-5.9,1.2-8.9
		c0.4,0.3,0.8,0.6,1.3,0.9c-0.4,2-0.8,4-1.3,6c-0.3,1.5-0.6,3-0.9,4.5C81.9,125.5,81.7,125.6,81.6,125.6z"/>
		<path class="Rhinoceros3D15" d="M62.3,81.3c0.6-1.2,1-2.5,1.9-3.5c0.5-0.5,1.7-0.4,2.6-0.6c-0.4,0.9-0.9,1.9-1.3,2.8
		c-0.1,0.1-0.2,0.2-0.3,0.4c0,0,0,0,0,0C64.3,80.7,63.3,81,62.3,81.3z"/>
		<path
			class="Rhinoceros3D11"
			d="M96.3,65c-0.1,0.3-0.2,0.7-0.3,1c0,0,0,0,0,0c-0.2,0-0.4,0-0.6,0c0-0.2,0-0.4,0-0.6c-0.2-0.3-0.4-0.6-0.6-1
		c-0.2-0.3-0.4-0.6-0.6-1c0-0.1,0-0.2,0-0.3c0,0,0,0,0,0c-0.1-0.2-0.2-0.4-0.3-0.6c-0.5-0.6-1.1-1.3-1.6-1.9c0,0,0,0,0,0
		c-0.3-0.5-0.6-1.1-1-1.6c0,0,0,0,0,0c-0.1-0.2-0.2-0.4-0.3-0.6c-0.5-0.9-1.1-1.7-1.6-2.6l0.1-0.1c1.7,2,3.4,4,5,6.1
		C95.1,62.7,95.7,63.9,96.3,65z"/>
		<path class="Rhinoceros3D6" d="M130.6,106c-0.1,0.2-0.1,0.5-0.2,0.6c-4.7,2.1-9.4,2.7-14.2,0.5c-0.4-0.2-0.6-0.5-0.9-0.8
		c1.4,0.4,2.7,0.9,4.1,1.3c3.4,0.8,6.6,0.2,9.8-1.1C129.6,106.3,130.1,106.1,130.6,106z"/>
		<path class="Rhinoceros3D10" d="M69.7,68.5c-0.4,0.4-0.7,0.8-1.3,1.4c-0.3,0-0.9-0.1-1.6-0.1c0.5-1.4,0.9-2.7,1.4-4c0.7,0.3,1.3,0.6,1.9,0.8
		C70,67.2,69.8,67.9,69.7,68.5z"/>
		<path
			class="Rhinoceros3D14"
			d="M44.3,50.2c-0.1-0.1-0.3-0.1-0.4-0.2c0.1-0.2,0.2-0.4,0.2-0.6c0.9-0.5,1.7-1,2.6-1.5
		c-0.3,0.3-0.5,0.7-0.9,1.1c1.2,0.5,2.5,1,3.7,1.5c0.5,0.6,1.1,1.3,1.6,1.9c-0.7-0.3-1.5-0.6-2.2-1c-0.4-0.1-0.9-0.2-1.3-0.3
		c-0.2,0-0.4,0-0.6,0c-0.7-0.4-1.3-0.8-2-1.2C44.8,50.1,44.5,50.1,44.3,50.2z"/>
		<path
			class="Rhinoceros3D21"
			d="M47.8,86.8c0.1-0.5,0.2-1.1,0.3-1.6c0.5-2.9,1-5.8,1.4-8.7c0.2-0.1,0.4-0.2,0.6-0.3c0,0,0,0,0,0
		c-0.1,1.2-0.2,2.4-0.3,3.5c-0.1,1.3-0.3,2.5-0.4,3.8c-0.1,0.2-0.2,0.5-0.3,0.7c-0.4,1-0.8,1.9-1.2,2.9C47.9,87,47.9,86.9,47.8,86.8
		z"/>
		<path class="Rhinoceros3D8" d="M149.7,114.3c-3.2,1.6-6.4,3.3-9.6,4.8c-0.5,0.2-1.2,0-1.7,0c3.1-1.5,6.2-3,9.3-4.5c0.6-0.3,1.2-0.5,1.9-0.7
		C149.5,114.1,149.6,114.2,149.7,114.3z"/>
		<path
			class="Rhinoceros3D12"
			d="M62.3,81.3c1-0.3,2-0.6,2.9-0.9c-0.2,0.4-0.4,0.9-0.6,1.3c0,0.1-0.1,0.1-0.1,0.2c-0.1,0.1-0.2,0.3-0.2,0.4
		c-0.1,0.2-0.2,0.4-0.4,0.7c0,0,0,0,0,0c-0.1,0.2-0.2,0.4-0.4,0.7c-0.1,0.1-0.2,0.2-0.3,0.3c-0.8,0.1-1.5,0.2-2.3,0.3
		c0-0.3,0-0.6,0-1c0.2-0.4,0.4-0.8,0.7-1.3C61.9,81.8,62.1,81.6,62.3,81.3L62.3,81.3z"/>
		<path
			class="Rhinoceros3D3"
			d="M130.9,148.9c0.2-0.2,0.4-0.4,0.7-0.6c-0.6,2.3-2.3,3.6-4.1,4.9c0.1-0.4,0.2-0.9,0.3-1.3c0,0,0-0.1,0.1-0.1
		c0,0-0.1,0.1-0.1,0.1c-0.3,0.1-0.7,0.2-1,0.4c-0.8,0.4-0.9-0.1-0.9-0.7c0.2-0.2,0.4-0.4,0.6-0.6c0,0,0,0,0,0
		C128.3,151,129.8,150.4,130.9,148.9z"/>
		<path class="Rhinoceros3D21" d="M75.8,126.8c1.2,0.4,1.8-0.5,2.4-1.3c-0.4,2-0.5,4-2.2,5.6c-0.2-1.1-0.4-2.1-0.5-3.1
		C75.6,127.7,75.7,127.3,75.8,126.8z"/>
		<path class="Rhinoceros3D0" d="M58.9,91.5C58.9,91.5,58.9,91.5,58.9,91.5c1.7,1.2,3.3,2.5,5,3.7c0.5,0.3,0.9,0.6,1.4,0.9
		c-0.2,0.2-0.5,0.4-0.7,0.6c-1.8-1.4-3.6-2.7-5.4-4.1C58.9,92.4,59,91.9,58.9,91.5z"/>
		<path class="Rhinoceros3D10" d="M81.5,61.5c-0.2,0-0.4,0-0.5,0c0-0.8-0.1-1.7-0.1-2.5c0.1-1.6,0.2-3.3,0.4-4.9c0-0.5,0.2-1,0.3-1.5
		c0.1,1.6,0.2,3.2,0.3,4.8c0,0.5,0,1.1,0,1.6C81.7,59.8,81.6,60.6,81.5,61.5z"/>
		<path class="Rhinoceros3D19" d="M71,59.6c-0.2,1.7-1.5,2-2.8,2.2c0.3-1.2,0.6-2.4,0.9-3.5c0-0.1,0-0.2,0-0.3c0.5,0,1.1,0,1.6,0
		c0,0.2,0,0.4,0,0.6c0,0-0.1,0.1-0.1,0.1c0,0.1,0.1,0.2,0.1,0.2l0.1,0l0.1,0C71,59.1,71,59.3,71,59.6z"/>
		<path class="Rhinoceros3D12" d="M75.8,126.8c-0.1,0.4-0.2,0.8-0.3,1.3c-1.2-2.2-2.4-4.5-3.6-6.7c0.2-0.1,0.5-0.2,0.7-0.4
		C73.7,123,74.8,124.9,75.8,126.8z"/>
		<path class="Rhinoceros3D3" d="M84.2,115c-0.4-0.3-0.8-0.6-1.3-0.9c-0.2,0-0.4-0.1-0.6-0.1c-0.2-0.9-0.5-1.9-0.7-2.8c0.5,0,1,0,1.5,0
		c0.5,1.2,0.9,2.3,1.4,3.5C84.4,114.8,84.3,114.9,84.2,115z"/>
		<path class="Rhinoceros3D12" d="M168.4,108.2c1.5-1.7,3-3.4,4.5-5.1c-0.9,1.5-1.8,3-2.8,4.5c-0.2,0.2-0.5,0.5-0.7,0.7l0,0
		C169.1,108.3,168.7,108.3,168.4,108.2z"/>
		<path class="Rhinoceros3D22" d="M126.1,119.2c-1.3,0.3-2.7,0.5-3.1,2.1c0,0-0.1,0.1-0.1,0.1c-0.3-0.1-0.7-0.2-1-0.3l0,0
		c-0.6-1.5,0.1-2,1.5-2.1c0.3,0,0.5-0.3,0.8-0.4c0.6-0.3,1.3-0.7,1.9-1C126.1,118.1,126.1,118.6,126.1,119.2z"/>
		<path class="Rhinoceros3D10" d="M78.4,73.7c-0.2,0-0.4,0-0.5,0c0.6-2.5,1.2-4.9,1.9-7.4c0.1-0.3,0.4-0.6,0.6-0.8c-0.1,1-0.2,2.1-0.4,3.1
		C79.5,70.3,78.9,72,78.4,73.7z"/>
		<path
			class="Rhinoceros3D4"
			d="M153,112.7c-0.1,0-0.2,0-0.3,0.1c-0.3,0.2-0.6,0.4-1,0.6c0,0,0,0,0,0c-0.4,0.1-0.8,0.2-1.2,0.4
		c-0.1-0.1-0.2-0.2-0.3-0.3c0,0-0.1,0-0.1,0c2.4-1.5,4.9-3.1,7.3-4.6c0.1,0.1,0.1,0.1,0.2,0.2c-1,0.8-1.9,1.7-2.9,2.5c0,0,0,0,0,0
		C154.1,111.9,153.5,112.3,153,112.7z"/>
		<path class="Rhinoceros3D9" d="M70.7,58c-0.5,0-1.1,0-1.6,0c-0.3-1.7,0.5-2.7,2.2-2.9C71.2,56,71.1,57,71,58C70.9,58,70.8,58,70.7,58z"/>
		<path class="Rhinoceros3D8" d="M82.3,114c0.2,0,0.4,0.1,0.6,0.1c-0.4,3-0.8,5.9-1.2,8.9c0-0.6-0.2-1.2-0.1-1.7C81.8,118.8,82,116.4,82.3,114z
		"/>
		<path class="Rhinoceros3D23" d="M163.6,105.1c-1.3,1-2.6,1.9-3.9,2.9c-0.3,0-0.6,0-1,0l-0.1-0.1c1.6-1,3.2-2.1,4.8-3.1
		C163.6,104.8,163.6,105,163.6,105.1z"/>
		<path
			class="Rhinoceros3D14"
			d="M163.6,105.1c0-0.1-0.1-0.3-0.1-0.4c0,0,0,0,0,0c0.1-0.1,0.2-0.2,0.3-0.3c0,0,0,0,0,0
		c0.2-0.1,0.4-0.2,0.6-0.3c0,0,0,0,0,0c0.1-0.2,0.2-0.3,0.3-0.5c1.3-0.8,2.6-1.6,3.9-2.4c0,0.2,0,0.4-0.1,0.4
		C167,102.8,165.3,104,163.6,105.1z"/>
		<path class="Rhinoceros3D18" d="M130.9,111.8c0.5-0.3,1.1-0.7,1.6-1c-1,1.3-2,2.6-2.9,3.8c-0.1-0.2-0.2-0.4-0.3-0.7c0.1-0.4,0.2-0.8,0.3-1.2
		c0,0,0,0,0,0C130.1,112.4,130.5,112.1,130.9,111.8z"/>
		<path class="Rhinoceros3D2" d="M88.6,55.7c-1-1.2-1.9-2.4-2.9-3.5c1.2,1.1,2.4,2.3,3.5,3.4c0,0-0.1,0.1-0.1,0.1C89,55.7,88.8,55.7,88.6,55.7z
		"/>
		<path class="Rhinoceros3D6" d="M113.6,105.1c-0.6-0.5-1.3-1.1-1.9-1.6c-0.2-0.2-0.4-0.4-0.6-0.7c-0.1-0.3-0.2-0.6-0.3-0.9c0.1,0,0.3,0,0.4,0
		C112,102.9,112.8,104,113.6,105.1z"/>
		<path class="Rhinoceros3D11" d="M27.7,85.8c-0.1,0.4-0.2,0.9-0.3,1.3c-0.2,0.4-0.4,0.9-0.7,1.3c-0.2,0.4-0.4,0.9-0.6,1.3c-0.1,0-0.2,0-0.3,0
		c-0.1,0-0.2,0-0.3,0C26.3,88.4,27,87.1,27.7,85.8z"/>
		<path class="Rhinoceros3D22" d="M111.2,101.8c-0.1,0-0.3,0-0.4,0c-0.4-0.4-0.8-0.9-1.3-1.3c0-0.6,0-1.3,0-1.9
		C110,99.7,110.6,100.8,111.2,101.8z"/>
		<path class="Rhinoceros3D14" d="M70.3,47.1c-0.4,0.3-0.8,0.6-1.2,1c0-0.1,0-0.2,0-0.3c0.1-0.8,0.2-1.5,0.3-2.3C69.7,46,70,46.5,70.3,47.1z"/>
		<path class="Rhinoceros3D15" d="M101.1,86.7c0.6-0.3,1.3-0.6,1.9-0.9c-0.2,0.3-0.4,0.6-0.5,1c-0.1,0.1-0.2,0.2-0.4,0.4c0,0,0,0,0,0
		C101.8,87,101.4,86.9,101.1,86.7z"/>
		<path class="Rhinoceros3D16" d="M107.9,95.4c-0.4-1-0.9-1.9-1.3-2.9C107,93.5,107.4,94.5,107.9,95.4z"/>
		<path class="Rhinoceros3D20" d="M49.2,99.3c0.4,0.3,0.9,0.6,1.3,0.9c-0.1,0.4-0.2,0.9-0.3,1.3c-0.1,0-0.2-0.1-0.3-0.1
		C49.6,100.7,49.4,100,49.2,99.3z"/>
		<path class="Rhinoceros3D16" d="M105.9,91.3c-0.4-0.6-0.9-1.3-1.3-1.9C106.1,89.3,105.5,90.6,105.9,91.3z"/>
		<path class="Rhinoceros3D5" d="M50.2,101.5c0.1-0.4,0.2-0.9,0.3-1.3c0.3,0.1,0.6,0.3,0.9,0.4c-0.2,0.4-0.4,0.8-0.6,1.3
		C50.6,101.7,50.4,101.6,50.2,101.5z"/>
		<path class="Rhinoceros3D2" d="M175,99.2c-0.2,0.1-0.5,0.1-0.7,0.2c0-0.4,0-0.8,0-1.2c0.1,0,0.3-0.1,0.4-0.1C174.8,98.5,174.9,98.8,175,99.2z
		"/>
		<path class="Rhinoceros3D22" d="M109.5,98.6c-0.3-0.6-0.6-1.3-1-1.9C108.8,97.4,109.1,98,109.5,98.6z"/>
		<path class="Rhinoceros3D16" d="M81.6,50.3c0.2,0.4,0.4,0.8,0.7,1.2c-0.2,0-0.4,0-0.6,0.1C81.6,51.1,81.6,50.7,81.6,50.3z"/>
		<path class="Rhinoceros3D16" d="M106.6,92.6c-0.2-0.4-0.4-0.9-0.7-1.3C106.2,91.7,106.4,92.1,106.6,92.6z"/>
		<path class="Rhinoceros3D22" d="M108.5,96.7c-0.2-0.4-0.4-0.9-0.6-1.3C108.1,95.9,108.3,96.3,108.5,96.7z"/>
		<path class="Rhinoceros3D3" d="M122.8,153.8c0.3,0,0.6,0.1,0.8,0.1c-0.1,0.2-0.2,0.4-0.3,0.5C123.2,154.3,123,154,122.8,153.8z"/>
		<path class="Rhinoceros3D6" d="M132.2,105.4c-0.3,0.1-0.6,0.2-0.9,0.3C131.6,105.6,131.9,105.5,132.2,105.4z"/>
		<path class="Rhinoceros3D3" d="M169.4,108.3c0.2-0.2,0.5-0.5,0.7-0.7C169.9,107.8,169.6,108.1,169.4,108.3z"/>
		<path class="Rhinoceros3D6" d="M67.5,43.9c0-0.1,0-0.2,0-0.3c0.2,0.1,0.4,0.2,0.6,0.3c0,0.1,0,0.2,0,0.4C67.9,44.1,67.7,44,67.5,43.9z"/>
		<path class="Rhinoceros3D11" d="M28.4,85.2c-0.2,0.2-0.4,0.4-0.6,0.6C27.9,85.6,28.2,85.4,28.4,85.2z"/>
		<path class="Rhinoceros3D4" d="M157.4,108.8c0.3-0.2,0.5-0.4,0.8-0.5c0,0,0,0,0,0c-0.2,0.2-0.4,0.4-0.6,0.7
		C157.5,108.9,157.4,108.8,157.4,108.8z"/>
		<path class="Rhinoceros3D6" d="M115.2,106.3c-0.2-0.2-0.4-0.4-0.6-0.6C114.8,105.9,115,106.1,115.2,106.3z"/>
		<path class="Rhinoceros3D13" d="M70.7,58c0.1,0,0.2,0,0.3,0c0,0.3,0,0.6,0,0.9c0,0-0.1,0-0.1,0s-0.1,0-0.1,0c0-0.1,0-0.2,0-0.3
		C70.7,58.4,70.7,58.2,70.7,58z"/>
		<path class="Rhinoceros3D18" d="M63.6,83.6c0.1-0.2,0.2-0.4,0.4-0.7C63.9,83.2,63.8,83.4,63.6,83.6z"/>
		<path class="Rhinoceros3D6" d="M114.6,105.7c-0.2-0.1-0.4-0.2-0.6-0.3C114.2,105.5,114.4,105.6,114.6,105.7z"/>
		<path class="Rhinoceros3D4" d="M158.1,108.2c0.2-0.1,0.4-0.3,0.6-0.4c0,0,0.1,0.1,0.1,0.1C158.6,108,158.4,108.2,158.1,108.2
		C158.2,108.3,158.1,108.2,158.1,108.2z"/>
		<path class="Rhinoceros3D14" d="M150.1,114.1c0,0-0.1,0-0.1,0c0-0.2-0.1-0.4-0.1-0.5c0.1-0.1,0.2-0.1,0.3-0.2c0,0,0.1,0,0.1,0
		C150.2,113.6,150.2,113.8,150.1,114.1L150.1,114.1z"/>
		<path class="Rhinoceros3D23" d="M164.6,104.1c-0.2,0.1-0.4,0.2-0.6,0.3C164.1,104.3,164.3,104.2,164.6,104.1z"/>
		<path class="Rhinoceros3D13" d="M71.9,87.4c-0.1,0.2-0.2,0.4-0.3,0.7C71.7,87.9,71.8,87.6,71.9,87.4z"/>
		<path class="Rhinoceros3D12" d="M65.3,80.4c0.1-0.1,0.2-0.2,0.3-0.4C65.5,80.2,65.4,80.3,65.3,80.4z"/>
		<path class="Rhinoceros3D18" d="M64,83c0.1-0.2,0.2-0.4,0.4-0.7C64.2,82.6,64.1,82.8,64,83z"/>
		<path class="Rhinoceros3D8" d="M149.8,113.5c0,0.2,0.1,0.4,0.1,0.5c-0.1,0-0.3,0-0.4-0.1C149.6,113.9,149.7,113.7,149.8,113.5z"/>
		<path class="Rhinoceros3D11" d="M28.7,84.9c-0.1,0.1-0.2,0.2-0.3,0.3C28.5,85.1,28.6,85,28.7,84.9z"/>
		<path class="Rhinoceros3D11" d="M29,84.5c-0.1,0.1-0.2,0.2-0.3,0.3C28.8,84.8,28.9,84.6,29,84.5z"/>
		<path class="Rhinoceros3D23" d="M164.9,103.6c-0.1,0.2-0.2,0.3-0.3,0.5C164.7,103.9,164.8,103.8,164.9,103.6z"/>
		<path class="Rhinoceros3D18" d="M64.6,81.9c0-0.1,0.1-0.1,0.1-0.2C64.7,81.8,64.7,81.9,64.6,81.9z"/>
		<path class="Rhinoceros3D3" d="M124,154.9c0.2-0.1,0.4-0.1,0.5-0.2C124.3,154.8,124.2,154.9,124,154.9z"/>
		<path class="Rhinoceros3D5" d="M102.1,87.2c0.1-0.1,0.2-0.2,0.4-0.4C102.3,86.9,102.2,87.1,102.1,87.2z"/>
		<path class="Rhinoceros3D13" d="M71.6,88.1c-0.2,0.1-0.3,0.2-0.5,0.3C71.3,88.3,71.5,88.2,71.6,88.1z"/>
		<path class="Rhinoceros3D23" d="M163.9,104.4c-0.1,0.1-0.2,0.2-0.3,0.3C163.7,104.6,163.8,104.5,163.9,104.4z"/>
		<path class="Rhinoceros3D6" d="M113.9,105.4c-0.1-0.1-0.2-0.2-0.3-0.3C113.7,105.2,113.8,105.3,113.9,105.4z"/>
		<path class="Rhinoceros3D2" d="M85.7,52.2c0-0.1,0-0.2,0-0.3C85.7,52,85.7,52.1,85.7,52.2z"/>
		<path class="Rhinoceros3D13" d="M44.1,49.4c-0.1,0.2-0.2,0.4-0.2,0.6c-0.1,0-0.1-0.1-0.1-0.1C43.9,49.7,44,49.6,44.1,49.4z"/>
		<path class="Rhinoceros3D14" d="M69.4,45.5c-0.1-0.1-0.2-0.3-0.3-0.4C69.2,45.2,69.3,45.3,69.4,45.5z"/>
		<path
			class="Rhinoceros3D16"
			d="M69.1,47.7c0,0.1,0,0.2,0,0.3c0,0.2,0,0.4,0,0.6c-1.7,4.2-5.3,6.9-8.2,10.2c-0.3,0.4-1.4,0.7-1.7,0.5
		c-1.1-0.8-2-1.8-2.9-2.9c-1.4-1.7-2.8-3.4-5.2-3.9c0,0,0,0,0,0c-0.5-0.6-1.1-1.3-1.6-1.9c2.2,1,4.4,1.9,6.5,3.2
		c3.4,2.1,4.7,2.3,6.8-0.5c0.8-1.1,2.3-1.7,3.4-2.6c0.6-0.6,1-1.4,1.6-2.1C68.1,48.2,68.6,48,69.1,47.7z"/>
		<path
			class="Rhinoceros3D1"
			d="M53.4,46.1c3-0.8,5.9-1.7,8.9-2.5c0.1,0,0.3,0.1,0.4,0.2c-1.4,0.5-2.9,1.1-4.3,1.6c-1.4,0.5-2.9,0.8-3.8,2.2
		c3.3,1.7,6.2,1.1,9-0.6c1.5-0.9,3-1.7,4.5-2.6c0,0.5,0,1.1,0,1.6c-1.8,1-3.8,1.8-5.5,3c-2.3,1.5-4.7,1.9-7.3,1.4
		c-1.1-0.2-2.1-0.6-3.1-1c-0.4-0.2-0.9-0.7-0.9-1.2c0-0.4,0.5-0.8,0.8-1.1C52.5,46.8,52.9,46.5,53.4,46.1z"/>
		<path class="Rhinoceros3D7" d="M68.1,44.5c-1.5,0.9-3,1.7-4.5,2.6c-2.8,1.7-5.8,2.3-9,0.6c0.9-1.4,2.4-1.7,3.8-2.2c1.4-0.5,2.9-1.1,4.3-1.6
		c0.2,0,0.4,0,0.6,0c1.4,0,2.8,0,4.2,0c0.2,0.1,0.4,0.2,0.6,0.3C68.1,44.3,68.1,44.4,68.1,44.5z"/>
		<path
			class="Rhinoceros3D6"
			d="M53.4,46.1c-0.4,0.4-0.9,0.7-1.3,1.1c-0.3,0.3-0.8,0.8-0.8,1.1c0,0.4,0.5,1,0.9,1.2c1,0.4,2,0.8,3.1,1
		c2.6,0.5,5,0.1,7.3-1.4c1.7-1.2,3.7-2,5.5-3c-0.5,1.3-1.2,2.3-2.6,2.8c-0.8,0.3-1.5,0.8-2.1,1.4c-2.5,2.3-4.9,2.7-7.9,1.3
		c-1.8-0.8-3.7-1.4-5.5-2.2c-0.4-0.2-0.7-0.5-1-0.8c0.3-0.4,0.6-0.9,1-1.1C51.1,47,52.3,46.6,53.4,46.1z"/>
		<path
			class="Rhinoceros3D8"
			d="M130.5,124.5c0.3,0,0.6-0.1,1-0.1c0.3,0.4,0.4,1,0.8,1.2c1.3,0.7,2.6,1.4,4.1,1.8c0.8,0.2,1.9,0.1,2.8-0.2
		c1.5-0.5,2.9-1.2,4.3-1.9c2.4-1.3,4.7-2.8,7-4.2c0.6-0.4,1.3-0.9,1.9-1.3c0.6-0.4,1.1-0.8,1.7-1.2c0.5-0.4,1-0.7,1.5-1.1
		c0.3-0.3,0.7-0.6,1-0.9c0.8-0.3,1.6-0.6,2.4-0.8c-0.1,0.3-0.3,0.6-0.4,0.9c-0.3,0.3-0.7,0.6-1,0.9c-0.5,0.4-1,0.7-1.5,1.1
		c-0.2,0.2-0.5,0.4-0.7,0.6c-0.6,0.4-1.2,0.9-1.9,1.3c-0.2,0.2-0.5,0.4-0.7,0.6c-0.7,0.5-1.4,0.9-2.1,1.4c-1.5,1-3.1,2.1-4.6,3.1
		c-0.6,0.3-1.2,0.5-1.8,0.8c-0.4,0.2-0.7,0.4-1.1,0.5c-0.1,0-0.2,0-0.3,0.1c-1.3,0.7-2.6,1.4-3.9,2c-2.9,1.3-2.8,1.7-5.1-0.5
		c-0.8-0.7-1.6-1.4-2.3-2.2C131,125.7,130.8,125.1,130.5,124.5z"/>
		<path
			class="Rhinoceros3D16"
			d="M150.5,121.1c-2.3,1.4-4.6,2.9-7,4.2c-1.4,0.8-2.8,1.4-4.3,1.9c-0.9,0.3-1.9,0.4-2.8,0.2
		c-1.4-0.4-2.7-1.1-4.1-1.8c-0.4-0.2-0.5-0.8-0.8-1.2c0.2,0,0.5-0.1,0.7-0.1c0.2,0,0.4,0,0.6,0c0.2,0.2,0.5,0.4,0.7,0.6
		c0.2,0,0.4,0,0.6,0c0.3,0.2,0.6,0.5,0.9,0.6c2.5,0.2,5.1,0.3,7.5-0.8c1.2-0.6,2.3-1.3,3.5-2c0.3-0.1,0.6-0.2,1-0.3
		c0.3-0.2,0.7-0.4,1-0.6c0.3-0.1,0.6-0.2,0.9-0.3c0.3-0.2,0.6-0.4,1-0.6c0,0,0,0,0,0C150,120.9,150.2,121,150.5,121.1z"/>
		<path
			class="Rhinoceros3D16"
			d="M171,103.5c-0.3,0.5-0.6,1.1-1,1.5c-3.3,3.2-6.7,6.3-10,9.5c-0.2,0.2-0.2,0.6-0.4,0.9c-0.1,0-0.3,0-0.4-0.1
		c-0.1-0.3-0.3-0.7-0.4-1c0.1-0.1,0.2-0.2,0.3-0.3c0.3-0.3,0.7-0.6,1-0.9c0,0,0,0,0,0c0.3-0.3,0.6-0.6,1-1c1.9-1.7,3.8-3.4,5.8-5.1
		C168.2,105.8,169.6,104.6,171,103.5z"/>
		<path class="Rhinoceros3D6" d="M146,122.7c-1.1,0.7-2.3,1.4-3.5,2c-2.4,1.1-4.9,1-7.5,0.8c-0.3,0-0.6-0.4-0.9-0.6c0.2-0.1,0.5-0.3,0.7-0.3
		c2.6-0.2,5.1-0.4,7.7-0.7C143.7,123.7,144.8,123.1,146,122.7z"/>
		<path class="Rhinoceros3D14" d="M158.2,108.3c0.2-0.1,0.4-0.2,0.6-0.3c0.3,0,0.6,0,1,0c-1.5,1.5-2.9,3.1-5.1,3.5c1-0.8,1.9-1.7,2.9-2.5
		C157.7,108.7,157.9,108.5,158.2,108.3z"/>
		<path class="Rhinoceros3D6" d="M158.8,114.3c0.1,0.3,0.3,0.7,0.4,1c-0.1,0.1-0.2,0.3-0.3,0.4c-0.8,0.3-1.6,0.6-2.4,0.8
		C156.2,114.8,157.7,114.8,158.8,114.3z"/>
		<path class="Rhinoceros3D6" d="M150.5,121.1c-0.2-0.1-0.4-0.2-0.6-0.3c0.9-0.5,1.7-1.1,2.6-1.6l0,0c0,0.2,0,0.4,0,0.6
		C151.7,120.2,151.1,120.6,150.5,121.1z"/>
		<path class="Rhinoceros3D6" d="M155.5,117.5c-0.5,0.4-1,0.7-1.5,1.1c-0.2,0-0.5,0-0.7,0l0,0C153.6,117.2,154.5,117.1,155.5,117.5z"/>
		<path class="Rhinoceros3D14" d="M153,112.7c0.5-0.4,1.1-0.8,1.6-1.2C154.1,111.9,153.5,112.3,153,112.7z"/>
		<path class="Rhinoceros3D14" d="M150.5,113.7c0.4-0.1,0.8-0.2,1.2-0.4c-0.5,0.2-1.1,0.5-1.6,0.7c0,0,0.1-0.1,0.1-0.1
		C150.3,113.9,150.4,113.8,150.5,113.7z"/>
		<path class="Rhinoceros3D6" d="M160.1,113.1c-0.3,0.3-0.7,0.6-1,0.9C159.4,113.7,159.8,113.4,160.1,113.1z"/>
		<path class="Rhinoceros3D6" d="M161.1,112.1c-0.3,0.3-0.6,0.6-1,1C160.4,112.8,160.7,112.4,161.1,112.1z"/>
		<path class="Rhinoceros3D6" d="M147.9,121.7c-0.3,0.2-0.7,0.4-1,0.6C147.3,122.1,147.6,121.9,147.9,121.7z"/>
		<path class="Rhinoceros3D16" d="M172.6,101.6c-0.2,0.3-0.5,0.6-0.7,0.9C172.2,102.2,172.4,101.9,172.6,101.6z"/>
		<path class="Rhinoceros3D6" d="M149.8,120.8c-0.3,0.2-0.6,0.4-1,0.6C149.2,121.2,149.5,121,149.8,120.8z"/>
		<path class="Rhinoceros3D14" d="M151.7,113.4c0.3-0.2,0.6-0.4,1-0.6C152.4,113,152.1,113.2,151.7,113.4z"/>
		<path class="Rhinoceros3D6" d="M152.4,119.1c0.3-0.2,0.6-0.4,1-0.6c0,0,0,0,0,0C153,118.7,152.7,118.9,152.4,119.1L152.4,119.1z"/>
		<path class="Rhinoceros3D6" d="M133.5,124.9c-0.2-0.2-0.5-0.4-0.7-0.6C133,124.5,133.3,124.7,133.5,124.9z"/>
		<path class="Rhinoceros3D16" d="M173.6,100.6c-0.2,0.2-0.4,0.5-0.6,0.7C173.2,101,173.4,100.8,173.6,100.6z"/>
		<path
			class="Rhinoceros3D7"
			d="M122.9,122.9c0,0.2,0,0.4,0,0.5c1.4,1.3,2.8,2.6,4.2,3.9c0,0.7,0.1,1.4,0.1,2.2c0,0.7,0,1.6-0.3,2.1
		c-0.8,1.1-4.8,2-6,1.3c-2.5-1.4-5.1-2.8-7.2-4.6c-1.9-1.6-4.3-2.9-4.9-5.6c0.3-0.1,0.6-0.2,0.9-0.4c1-0.1,2-0.3,3-0.4
		c0.3,0,0.7-0.1,1-0.1c2-0.2,4-0.4,6.1-0.7c1.1,0.4,2.1,0.8,3.2,1.3C122.9,122.5,122.9,122.7,122.9,122.9z"/>
		<path
			class="Rhinoceros3D4"
			d="M133.3,138c0.1,0.7,0.1,1.3,0.2,2c-1.1,2.1-2.7,3.5-5.1,4.3c-1.8,0.6-3.4,0.6-5-0.1c-1.4-0.7-2.7-1.6-4-2.5
		c-4-2.6-8-5.2-12.4-7.1c-0.1,0-0.2,0-0.3,0c-0.5-0.3-1.1-0.6-1.6-1l0,0c-0.6-0.5-1.3-1.1-1.9-1.6l0,0c-0.2-0.4-0.4-0.9-0.6-1.3
		c0-0.2,0-0.4,0-0.6c0.6-0.8,0.5-1.4-0.5-1.7c0.6-1.5,1.2-2.9,1.8-4.4c0.3,0,0.6,0,0.9,0c0.1,0.2,0.2,0.5,0.3,0.7
		c-0.1,0.1-0.2,0.2-0.3,0.3c-0.2,0-0.4-0.1-0.4-0.1c-1.3,1.6-0.8,5.2,1,6.4c3.1,2,6.4,3.9,9.6,5.9c1.9,1.1,3.7,2.4,5.7,3.4
		c1.7,0.9,3.3,2.6,5.5,2c2.7-0.8,5.7-1,6.9-4.2C132.9,138.2,133.1,138.1,133.3,138z"/>
		<path
			class="Rhinoceros3D16"
			d="M133.3,138c-0.1,0.1-0.4,0.1-0.4,0.2c-1.2,3.2-4.3,3.5-6.9,4.2c-2.2,0.6-3.8-1.1-5.5-2
		c-1.9-1-3.8-2.2-5.7-3.4c-3.2-1.9-6.4-3.8-9.6-5.9c-1.8-1.2-2.3-4.8-1-6.4c0-0.1,0.3,0,0.4,0.1c-0.6,3.5,1.8,5.4,4.2,7
		c3.7,2.4,7.8,4.2,11.4,6.8c3.1,2.2,6,1.6,9.1,0.6c1.9-0.6,2.3-2.3,2.9-3.8C132.6,136.3,132.9,137.2,133.3,138z"/>
		<path
			class="Rhinoceros3D1"
			d="M108.8,122.6c0.6,2.8,3.1,4,4.9,5.6c2.1,1.8,4.7,3.2,7.2,4.6c1.2,0.7,5.2-0.2,6-1.3c0.4-0.5,0.3-1.4,0.3-2.1
		c0-0.7-0.1-1.4-0.1-2.2c1.1,1.6,2.1,3.3,3.2,4.9c-0.1,0-0.3,0-0.4,0c-0.2,0-0.4,0-0.5,0c-1,2-3.2,2-4.9,2.8
		c-0.7,0.3-1.7,0.5-2.3,0.3c-1.8-0.7-3.5-1.6-5.1-2.6c-2-1.3-3.8-3.1-5.9-4.3c-2.2-1.3-3-3.4-3.8-5.6
		C107.9,122.8,108.4,122.7,108.8,122.6z"/>
		<path
			class="Rhinoceros3D6"
			d="M130,132.3c0.1,0,0.3,0,0.4,0c0.4,0.6,0.8,1.2,1.2,1.9c-0.2,0.5-0.4,1.1-0.7,1.6c-0.6,0.8-1.2,1.8-2.1,2.2
		c-3.9,1.8-7.4,0.2-10.7-1.6c-2.1-1.1-4.1-2.6-6.1-3.9c-2.9-1.8-6-3.4-6.5-7.3c0-0.2-0.4-0.3-0.6-0.4c-0.1-0.2-0.2-0.5-0.3-0.7
		c0.6-0.3,1.2-0.5,1.8-0.8c0.6,2.4,1.4,4.8,3.8,6.1c1,0.6,2,1.3,3,2c2.9,1.9,5.8,3.8,8.8,5.6c1.3,0.8,6.1-0.2,7.3-1.1
		C130.6,134.6,129.9,133.4,130,132.3z"/>
		<path
			class="Rhinoceros3D0"
			d="M104.9,124.6c0.2,0.1,0.6,0.3,0.6,0.4c0.5,3.9,3.6,5.5,6.5,7.3c2,1.3,4,2.8,6.1,3.9c3.3,1.8,6.8,3.4,10.7,1.6
		c0.9-0.4,1.5-1.4,2.1-2.2c0.3-0.4,0.5-1.1,0.7-1.6c0.2,0.4,0.4,0.8,0.7,1.3c-0.6,1.6-1,3.2-2.9,3.8c-3.1,1-6,1.6-9.1-0.6
		c-3.6-2.5-7.7-4.4-11.4-6.8c-2.5-1.6-4.8-3.4-4.2-7C104.7,124.8,104.8,124.7,104.9,124.6z"/>
		<path
			class="Rhinoceros3D19"
			d="M106.9,134.5c4.4,1.9,8.4,4.5,12.4,7.1c1.3,0.9,2.6,1.8,4,2.5c1.6,0.8,3.2,0.7,5,0.1c2.4-0.8,4-2.1,5.1-4.3
		c0.1,0.2,0.2,0.4,0.3,0.6c-0.4,1.2-0.8,2.3-1.2,3.5c-2.5,0.9-4.9,1.7-7.4,2.6c-0.1,0-0.2,0-0.4,0c-1.2-2.3-3.5-2.8-5.7-3.5
		c-0.9-0.7-1.7-1.5-2.7-2.1c-3.1-1.9-6.3-3.7-9.5-5.6C106.9,135.2,106.9,134.9,106.9,134.5z"/>
		<path
			class="Rhinoceros3D17"
			d="M142.8,126.9c0.1,0,0.2,0,0.3-0.1c0.2,0,0.5,0.1,0.7,0.1c-0.3,0.4-0.6,1-1,1.3c-0.8,0.8-1.7,1.4-2.6,2.2
		c-2.2,1.2-3.4,3.1-4.2,5.5c-0.4,0.9-0.9,1.7-1.3,2.6c-0.1,0-0.2,0-0.3,0c0-0.7,0-1.3,0-2c0.6-1.5,0.5-2.9-0.4-4.2
		c-1-1.5-2.1-2.9-3.2-4.4c-0.2-0.3-0.2-0.7-0.3-1c1.4,1.5,2.8,3,4.3,4.4c0.3,0.3,1.2,0.5,1.6,0.3c2.1-1.3,4.1-2.7,6.1-4.1
		C142.7,127.3,142.7,127.1,142.8,126.9z"/>
		<path
			class="Rhinoceros3D12"
			d="M130.6,126.9c0.1,0.3,0.1,0.7,0.3,1c1,1.5,2.1,2.9,3.2,4.4c0.9,1.3,1,2.7,0.4,4.2c-0.7-1.6-1.4-3.3-2.1-5
		c-0.5-0.1-1.1-0.3-1.8-0.5c0.1-0.2,0.1-0.3,0.2-0.5c0.2,0.1,0.4,0.2,0.6,0.2c0.1-0.1,0.1-0.2,0.2-0.4c-0.4-0.2-0.9-0.4-1.3-0.6
		c0,0,0.1-0.1,0.1-0.1c-0.3-0.2-0.5-0.5-0.8-0.7c-0.5-0.3-1-0.6,0.1-0.8c0,0,0.1,0,0.1,0.1c0,0-0.1,0-0.1-0.1c0-0.7,0-1.3-1-1.1
		c-0.4,0.1-1-0.4-1.3-0.6c0.5-0.8,0.9-1.4,1.3-2.1c0,0,0.1-0.1,0.1-0.1c0.3,0,0.6,0.1,0.9,0.1C129.9,125.2,130.3,126,130.6,126.9z"/>
		<path class="Rhinoceros3D12" d="M136.1,135.8c0.7-2.3,1.9-4.3,4.2-5.5c-1,1.4-2,2.7-3,4.1C136.9,135,136.5,135.4,136.1,135.8z"/>
		<path class="Rhinoceros3D17" d="M145.9,125.5c1.5-1,3.1-2.1,4.6-3.1C149.4,124,147.8,124.9,145.9,125.5z"/>
		<path class="Rhinoceros3D24" d="M122.9,122.9c0-0.2,0-0.4,0-0.6c0,0,0,0,0,0c0.2,0,0.4,0,0.6,0c0.2,0.1,0.4,0.2,0.6,0.3c0,0,0,0,0,0
		c0.2,0.2,0.4,0.4,0.6,0.6c0.1,0.2,0.1,0.4,0.3,0.9C124.2,123.7,123.6,123.3,122.9,122.9z"/>
		<path class="Rhinoceros3D15" d="M163.2,112.7c0.3-0.3,0.7-0.6,1-0.9C164.8,113.2,163.8,112.7,163.2,112.7z"/>
		<path class="Rhinoceros3D15" d="M164.9,111.2c0.4-0.3,0.8-0.7,1.2-1C165.8,110.5,165.3,110.8,164.9,111.2z"/>
		<path class="Rhinoceros3D15" d="M162.1,113.7c0.4-0.4,0.8-0.7,1.2-1.1C162.8,113,162.4,113.4,162.1,113.7z"/>
		<path class="Rhinoceros3D17" d="M157.4,117.5c0.3-0.3,0.7-0.6,1-0.9C158.1,116.9,157.8,117.2,157.4,117.5z"/>
		<path class="Rhinoceros3D25" d="M143.8,126.9c-0.2,0-0.5-0.1-0.7-0.1c0.4-0.2,0.7-0.4,1.1-0.5C144,126.5,143.9,126.7,143.8,126.9z"/>
		<path class="Rhinoceros3D24" d="M125.9,124.5c0.3,0.3,0.6,0.5,0.9,0.8c-0.1,0.1-0.2,0.2-0.2,0.3c-0.3-0.3-0.7-0.5-1-0.8
		C125.7,124.7,125.8,124.6,125.9,124.5z"/>
		<path class="Rhinoceros3D12" d="M127.7,123.8c0.2,0,0.3-0.1,0.5-0.1c0.2,0.2,0.4,0.4,0.5,0.5c0,0-0.1,0.1-0.1,0.1
		C128.3,124.2,128,124,127.7,123.8z"/>
		<path class="Rhinoceros3D12" d="M124.8,123.3c-0.2-0.2-0.4-0.4-0.6-0.6c0.4,0.1,0.9,0.2,1.3,0.3C125.3,123.1,125,123.2,124.8,123.3z"/>
		<path class="Rhinoceros3D17" d="M152.6,121c0.2-0.2,0.5-0.4,0.7-0.6C153.1,120.6,152.9,120.8,152.6,121z"/>
		<path class="Rhinoceros3D17" d="M155.2,119.1c0.2-0.2,0.5-0.4,0.7-0.6C155.7,118.7,155.5,118.9,155.2,119.1z"/>
		<path class="Rhinoceros3D24" d="M125.5,124.8c-0.1-0.2-0.3-0.4-0.4-0.7c0.3,0.1,0.5,0.3,0.8,0.4C125.8,124.6,125.7,124.7,125.5,124.8z"/>
		<path class="Rhinoceros3D12" d="M126.8,123.5c0.1,0,0.2,0.1,0.3,0.1C127,123.6,126.9,123.6,126.8,123.5z"/>
		<path
			class="Rhinoceros3D7"
			d="M26.8,88.4c0.2-0.4,0.4-0.9,0.7-1.3c0.4-0.2,0.9-0.3,1-0.6c0.6-1.3,1.9-1.8,3.1-1.8c2.5,0,5.1,0.3,7.7,0.5
		c1.4,0.1,2.8,0.2,4.2,0.4c1.3,0.2,2.5,0.6,3.8,0.9c0.1,0.1,0.2,0.2,0.3,0.3c0.1,0,0.2,0,0.2,0c0,0.1,0.1,0.2,0.1,0.3
		c0,0.2,0,0.4-0.1,0.7c-1.4-0.4-2.9-1-4.3-1.2c-3.4-0.6-6.9-1.4-10.3-0.3c-0.5,0.1-0.9,0.6-1.3,0.9c0.3,0.4,0.6,1,1,1.1
		c1.3,0.3,2.6,0.4,3.9,0.7c4.3,1,8.5,2,12.8,3c0.4,0.1,0.8,0.3,1.2,0.4c0.2,0.1,0.5,0.2,0.7,0.2c0.6-0.1,1.1-0.2,1.7-0.3
		c0.2-0.1,0.4-0.3,0.6-0.4c0.2,0.1,0.4,0.2,0.6,0.3c0.3-0.1,0.6-0.1,1-0.2c1.2-0.2,2.4-0.3,3.6-0.5c0.1,0.4,0.1,0.9,0.3,1.1
		c1.8,1.4,3.6,2.7,5.4,4.1c-0.1,0.7-0.3,1.4-0.4,2c0.1,0.7,0.1,1.4,0.2,2.1c-2.8-0.2-4.6-2.4-7-3.4c-2.5-1-4.6-2.8-7.2-3.7
		c-2-0.6-3.9-1.6-6-2.1c-2.5-0.7-5.1-1.1-7.6-1.6c-1-0.2-2-0.4-3-0.4C31.2,89.7,28.9,89.4,26.8,88.4z"/>
		<path class="Rhinoceros3D26" d="M49.6,91.9c-4.3-1-8.5-2-12.8-3c-1.3-0.3-2.6-0.4-3.9-0.7c-0.4-0.1-0.6-0.7-1-1.1c0.4-0.3,0.8-0.8,1.3-0.9
		c3.5-1,6.9-0.3,10.3,0.3c1.5,0.3,2.9,0.8,4.3,1.2c0.4,0.9,0.9,1.8,1.3,2.7C49.3,91,49.4,91.4,49.6,91.9z"/>
		<path
			class="Rhinoceros3D14"
			d="M51.1,52.5c2.3,0.5,3.7,2.2,5.2,3.9c0.9,1,1.8,2.1,2.9,2.9c0.3,0.2,1.4-0.1,1.7-0.5c2.9-3.3,6.5-6,8.2-10.2
		c-0.2,1.6-0.4,3.2-0.7,4.8c-1.3,0.2-0.9,1.2-1,1.9c0,0.1,0,0.2,0,0.3c-2.8,1.5-4.8,3.9-6.5,6.6c-1,1.6-2.4,1.9-3.6,0.5
		c-0.6-0.8-0.8-1.9-1.2-2.9c-0.4-1.2-0.5-2.6-1.9-3.2c-0.1-0.3-0.2-0.6-0.3-1c-0.2-0.2-0.4-0.4-0.6-0.6
		C52.6,54.2,51.9,53.4,51.1,52.5z"/>
		<path
			class="Rhinoceros3D8"
			d="M47.6,51.2c0.4,0.1,0.9,0.2,1.3,0.3c1,1.1,1.8,2.3,2.9,3.3c1.6,1.6,2.3,3.7,2.5,5.9c0.2,1.6,0.2,3.2,0.4,4.8
		c0.2,1.4,0.7,2.8,0.6,4.2c-0.2,2.3-0.8,4.6-1.4,6.8c-0.5,2-1.1,4.1-1.8,6c-0.8,2.1-1.9,4.2-2.9,6.2c0-0.4-0.2-0.9-0.1-1.3
		c0.4-1.4,0.9-2.8,1.3-4.2c0.5-1.7,1-3.4,1.4-5.1c0.3-0.7,0.6-1.5,1-2.2c0-1,0-1.9,0-2.9c0.2-0.2,0.5-0.4,0.6-0.6
		c1.2-3.9,0.9-7.8-0.3-11.6c0-0.3,0-0.6,0-1c-0.3-0.9-0.6-1.7-1-2.6c-0.1-0.2-0.2-0.4-0.3-0.6c-0.3-0.5-0.6-1.1-1-1.6c0,0,0,0,0,0
		c-0.2-0.2-0.4-0.4-0.6-0.6c-0.3-0.2-0.6-0.4-1-0.7c0-0.1,0-0.2,0-0.3c-0.4-0.3-0.8-0.6-1.3-1c-0.1-0.1-0.2-0.2-0.3-0.3
		C47.6,51.9,47.6,51.5,47.6,51.2z"/>
		<path
			class="Rhinoceros3D23"
			d="M54.3,56.7c1.4,0.6,1.5,2,1.9,3.2c0.3,1,0.6,2.1,1.2,2.9c1.1,1.5,2.6,1.1,3.6-0.5c1.7-2.7,3.6-5.1,6.5-6.6
		c-0.7,0.9-1.5,1.8-2.1,2.7c-1,1.4-2,2.8-3,4.3c-1.3,2.2-2.5,4.4-3.8,6.6c-0.2,0.3-0.6,0.4-0.9,0.6C56.5,65.4,55.4,61,54.3,56.7z"/>
		<path
			class="Rhinoceros3D19"
			d="M52.7,73c0,1,0,1.9,0,2.9c-1.5,0.3-0.8,1.4-1,2.2c-0.5,1.7-0.9,3.4-1.4,5.1c-0.4,1.4-0.9,2.8-1.3,4.2
		c-0.1,0.4,0.1,0.9,0.1,1.3c0,0.6,0,1.2,0,1.8c-0.4-0.9-0.9-1.8-1.3-2.7c0-0.2,0-0.4,0.1-0.7c0.4-1,0.8-1.9,1.2-2.9
		c0.1-0.2,0.2-0.5,0.3-0.7c0.1-1.3,0.3-2.5,0.4-3.8c0.4-1,1.1-2,1.2-3.1c0.4-3.8,0.7-7.7,1-11.5c0-0.5-0.1-1-0.2-1.6
		c-0.2-1.8-0.3-3.7-0.8-5.5c-0.3-1-1.2-1.8-1.9-2.7c0-0.1,0-0.2,0-0.3c0-0.4,0-0.9,0-1.3c0.3,0.2,0.6,0.4,1,0.7
		c0.2,0.2,0.4,0.4,0.6,0.6c0,0,0,0,0,0c0.3,0.5,0.6,1.1,1,1.6c0.1,0.2,0.2,0.4,0.3,0.6c0.1,0.9-0.4,2.1,1,2.6c0,0.3,0,0.6,0,1
		c-0.1,0.6-0.3,1.1-0.3,1.7C52.7,66,52.7,69.5,52.7,73z"/>
		<path class="Rhinoceros3D23" d="M67.5,55.4c0.1-0.8-0.3-1.8,1-1.9C68.1,54.1,67.8,54.8,67.5,55.4z"/>
		<path class="Rhinoceros3D23" d="M53.4,55.1c0.2,0.2,0.4,0.4,0.6,0.6C53.8,55.5,53.6,55.3,53.4,55.1z"/>
		<path
			class="Rhinoceros3D1"
			d="M26.8,88.4c2.1,1,4.4,1.3,6.7,1.3c1,0,2,0.2,3,0.4c2.5,0.5,5.1,0.9,7.6,1.6c2,0.5,4,1.5,6,2.1
		c2.6,0.8,4.8,2.6,7.2,3.7c2.4,1,4.2,3.2,7,3.4c0.1,0,0.2,0,0.3,0c0.1,0.3,0.3,0.7,0.4,1c0.1,0.1,0.3,0.2,0.4,0.3
		c0.3,0.2,0.7,0.4,1,0.7c1.1,0.4,2.2,0.8,3.2,1.2c-0.6,1.7-1.2,1.9-2.6,0.8c-1-0.8-2-1.6-3.1-2.3c-1.5-1-3.1-2-4.7-2.9
		c-2.1-1.2-4.3-2.4-6.4-3.5c-0.2-0.1-0.5,0.1-0.8,0.2c-0.2-0.1-0.4-0.2-0.6-0.3c-0.9-1.7-2.6-1.8-4.2-1.9c-0.2,0-0.4,0-0.6,0
		c-0.2-0.3-0.4-0.7-0.7-0.8c-3.8-1-7.5-2.3-11.5-2.5c-2.8-0.1-5.5-0.8-8.2-1.2C26.4,89.2,26.6,88.8,26.8,88.4z"/>
		<path
			class="Rhinoceros3D15"
			d="M66.5,102.8c-0.3-0.2-0.7-0.4-1-0.7c0.3-0.2,0.7-0.4,1-0.7c0,0,0,0,0,0c1.4-0.6,2.9-1.2,4.3-1.9
		c4.2-2.2,8.4-4.4,12.6-6.6c1-0.5,2-1.2,3-1.8c0.3,0,0.7,0,0.9-0.1c2.7-1.8,5.4-3.7,8.7-4.2c0.1,0,0.2-0.3,0.3-0.5
		c1.4,0.1,2.8,0.2,4.2,0.3c-1.1,0.3-2.2,0.4-3.1,0.9c-2,0.8-4,1.7-5.9,2.8c-6.8,4.1-14.1,7.2-21.3,10.5
		C68.9,101.5,67.7,102.2,66.5,102.8z"/>
		<path
			class="Rhinoceros3D2"
			d="M52.1,96.4c0.3-0.1,0.6-0.3,0.8-0.2c2.2,1.1,4.3,2.3,6.4,3.5c1.6,0.9,3.2,1.9,4.7,2.9c1.1,0.7,2.1,1.5,3.1,2.3
		c1.3,1.1,2,0.9,2.6-0.8c0.6,0.3,1.1,0.6,1.7,0.9c0.2,1,0.4,2,0.6,3c0.1,1,0.1,2,0.2,3.1c-0.2,0.1-0.4,0.1-0.5,0.2
		c-0.5-0.5-1.1-1-1.6-1.4c-1.9-1.5-3.8-2.9-5.7-4.4l0,0c-0.3-0.3-0.6-0.6-1-1c-0.1,0-0.2,0-0.3,0c-0.2-0.2-0.4-0.4-0.6-0.6
		c-0.3,0-0.6,0-0.9,0l0,0c-0.7-0.8-1.4-1.8-2.2-2.5C56.9,99.6,54.5,98,52.1,96.4z"/>
		<path
			class="Rhinoceros3D2"
			d="M109.5,100.6c0.4,0.4,0.8,0.9,1.3,1.3c0.1,0.3,0.2,0.6,0.3,0.9c-1.9,0-3,1.4-3.9,2.6c-0.8,1.1-1,2.7-1.2,4.2
		c-0.1,1.3-0.8,2-1.9,1.8c-1.7-0.3-3.4-1-5.1-1.6c-1.2-0.4-2.4-1.1-3.7-1.5c-1-0.3-1.7,0-1.7,1.2c0,0.4,0,0.8,0,1.3
		c-0.3-0.4-0.6-0.8-1-1.3c0-0.1,0-0.1,0-0.2c0-2.7,0.2-2.9,2.9-2.1c1,0.3,2,1,3,1.4c1,0.4,2.1,0.7,3.1,0.8c1.5,0.1,1.8-0.5,1.8-2.1
		c0-1.3,0.3-2.6,0.6-3.8c0.1-0.4,0.5-0.7,0.9-0.9c0.9-0.6,1.7-1.2,2.6-1.7C108.2,100.7,108.9,100.7,109.5,100.6z"/>
		<path class="Rhinoceros3D22" d="M92.8,109.6c0.3,0.4,0.6,0.8,1,1.3c0.7,0.9,1.5,1.7,2.2,2.6c0,0.1,0,0.2,0,0.3c-0.4-0.2-0.9-0.4-1.3-0.6
		c-1.2-1.2-2.3-2.4-3.5-3.6c0.2-0.1,0.4-0.2,0.6-0.3C92.1,109.3,92.5,109.4,92.8,109.6z"/>
		<path
			class="Rhinoceros3D2"
			d="M111,150.2c-2.9-2.3-5.7-4.6-8.6-6.9c0.5,0.1,1.2,0.1,1.6,0.4c1.9,1.4,3.8,2.8,5.8,4.3
		c0.2,0.2,0.5,0.3,0.8,0.4c0.1-0.1,0.3-0.1,0.4-0.2c-0.2-0.5-0.4-1.1-0.7-1.5c-1-1.1-2.1-2.2-3.3-3c-2.2-1.3-2.9-3.1-2.4-5.4
		c0.5,0.6,1.1,1.3,1.6,1.9c0,0.7,0,1.4,1,1.2c0.5,0.5,1.1,1,1.6,1.4c0.1,0.1,0.3,0.3,0.4,0.4c1.1,1,2.2,2,3.3,3
		c0.1,0.5-0.2,1.4,0.9,0.8c0.2,0.5,0.6,1,0.7,1.5c0.2,1.6,0.4,3.1,1.8,4c-0.5-0.2-1-0.3-1.5-0.6C113.4,151.6,112.2,150.9,111,150.2z
		"/>
		<path class="Rhinoceros3D6" d="M97.3,133.3c-0.6,1.5-1.9,1.4-3,1c-1.6-0.6-3-1.6-4.5-2.2c-3.1-1.1-4.9-4.1-7.9-5.3c-0.1-0.1-0.2-0.4-0.2-0.6
		c0.8,0.2,1.6,0.3,2.5,0.5c0.4,0.1,0.9,0.3,1.3,0.5c2.1,1.4,4,3.1,6.3,4.3C93.3,132.4,95.4,132.7,97.3,133.3z"/>
		<path
			class="Rhinoceros3D0"
			d="M97.3,133.3c-1.9-0.6-4-0.8-5.7-1.7c-2.2-1.2-4.2-2.9-6.3-4.3c-0.4-0.3-0.8-0.4-1.3-0.5
		c-0.8-0.2-1.6-0.4-2.5-0.5c0-0.2,0-0.4,0-0.6c0.1,0,0.3,0,0.4,0c0.9-0.3,1.8-0.6,2.8-0.9c3.1,3.3,7,5.3,11.2,7
		c0.6,0.4,1.1,0.9,1.7,1.3C97.5,133,97.4,133.2,97.3,133.3z"/>
		<path
			class="Rhinoceros3D18"
			d="M116.4,144.2c-1.3-0.1-2.6,0-3-1.8c-0.1-0.4-1.1-0.8-1.6-0.7c-1.5,0.2-2.1-0.7-2.6-1.8
		c-0.1-0.2-0.3-0.6-0.4-0.6c-1.8,0.3-2.7-1.4-4.1-2c-0.2-0.1-0.5-0.1-0.8-0.2c0,0-0.1,0-0.1,0c0.2-0.4,0.3-0.7,0.5-1.2
		c2.6,1.6,5.2,3.1,7.7,4.7C113.6,141.6,114.9,143,116.4,144.2z"/>
		<path
			class="Rhinoceros3D17"
			d="M116.4,144.2c-1.5-1.2-2.9-2.6-4.4-3.7c-2.5-1.7-5.1-3.1-7.7-4.7c-0.2,0.5-0.3,0.8-0.5,1.2
		c-0.3-0.4-0.7-0.8-1-1.2c0-0.4,0-0.8,0-1.3c1.3,0.6,2.8,1,4,1.7c3.7,2.3,7.4,4.7,11.1,7c-0.1,0.1-0.2,0.2-0.3,0.3
		c-0.3,0.2-0.6,0.4-0.9,0.6L116.4,144.2L116.4,144.2z"/>
		<path
			class="Rhinoceros3D13"
			d="M102.7,134.5c0,0.4,0,0.8,0,1.3c-0.3-0.4-0.7-0.8-1-1.2c-0.3-0.5-0.6-0.9-0.8-1.4c0-0.1-0.1-0.2-0.1-0.2
		c0-0.2,0-0.4-0.1-0.6c-0.2-0.3-0.4-0.7-0.6-1c0.5-0.4,1-0.9,1.6-1.3c0.2,0,0.5,0,0.7,0c0,0.2,0,0.4,0,0.6c0.2,0.4,0.4,0.9,0.6,1.3
		c0,0,0,0,0,0c0.6,0.5,1.3,1.1,1.9,1.6c0,0,0,0,0,0c0.5,0.3,1.1,0.6,1.6,1c0.1,0,0.2,0,0.3,0c0,0.3,0,0.6,0,1
		c-1.4-0.7-2.8-1.5-4.5-2.4C102.5,133.8,102.6,134.2,102.7,134.5z"/>
		<path class="Rhinoceros3D14" d="M100.2,131.3c0.2,0.3,0.4,0.7,0.6,1c-0.5,0.1-1,0.2-1.5,0.3c-0.5,0.1-1.1,0.2-1.6,0.3
		c-0.6-0.4-1.1-0.9-1.7-1.3c0.3-0.2,0.7-0.4,1-0.6C98,131.6,99,132,100.2,131.3z"/>
		<path class="Rhinoceros3D2" d="M100.5,141.9c-0.6-0.4-1.2-0.8-1.7-1.3C99.7,140.6,100.5,140.7,100.5,141.9z"/>
		<path class="Rhinoceros3D6" d="M99.2,132.6c0.5-0.1,1-0.2,1.5-0.3c0,0.2,0,0.4,0.1,0.6C100.2,132.8,99.7,132.7,99.2,132.6z"/>
		<path class="Rhinoceros3D14" d="M100.9,133.2c0.3,0.5,0.6,0.9,0.8,1.4C101.5,134.1,101.2,133.6,100.9,133.2z"/>
		<path class="Rhinoceros3D2" d="M103.8,137.4c0.2,0.3,0.4,0.6,0.6,0.9c-0.3-0.1-0.6-0.3-0.9-0.4C103.6,137.8,103.7,137.6,103.8,137.4z"/>
		<path
			class="Rhinoceros3D26"
			d="M126.2,112.9c0,0.1-0.1,0.3-0.1,0.4c-0.5,0.2-1,0.4-1.4,0.6c-0.1-0.1-0.3-0.2-0.4-0.3
		c-0.1,0.2-0.1,0.4-0.2,0.6c0,0.1,0,0.1,0.1,0.2c-0.2,0.1-0.3,0.2-0.5,0.3c-0.2,0-0.4,0-0.5,0.1c-0.3,0.2-0.5,0.3-0.8,0.5
		c-0.3,0.1-0.6,0.2-1,0.3c-0.6,0-1.1,0-1.7,0c-1.5,0.2-3,0.7-4.5,0.7c-4.5,0.1-9.1,0-13.6,0c-0.3-0.4-0.5-0.9-0.8-1.2
		c-0.5-0.5-1.2-0.8-1.8-1.3c-0.3-0.2-0.2-0.8-0.3-1.2c0.4-0.1,0.9-0.3,1.2-0.2c2.4,1.1,4.9,1.4,7.5,1.3c2.6-0.1,3.2-0.7,3.2-3.2
		c0-2.3,2.1-3.4,4.3-2.7c2.9,0.8,5.8,1.3,8.8,1.6c2.4,0.3,2.7,0.4,2.6,2.7C126.1,112.4,126.2,112.6,126.2,112.9z"/>
		<path
			class="Rhinoceros3D1"
			d="M96,113.4c-0.7-0.9-1.5-1.7-2.2-2.6c0-0.4,0-0.8,0-1.3c0-1.2,0.7-1.5,1.7-1.2c1.2,0.4,2.4,1.1,3.7,1.5
		c1.7,0.6,3.3,1.2,5.1,1.6c1.1,0.2,1.7-0.5,1.9-1.8c0.1-1.4,0.4-3.1,1.2-4.2c0.9-1.2,2-2.7,3.9-2.6c0.2,0.2,0.4,0.4,0.6,0.7
		c-1.4,1.6-2.8,3.1-4.1,4.7c-0.4,0.5-0.2,1.5-0.4,2.2c-0.4,2.2-1.6,2.9-3.7,2.1c-2.2-0.9-4.2-1.9-6.4-2.8c-0.5-0.2-1.5-0.1-1.5,0.2
		c-0.2,0.6-0.2,1.3,0,1.9c0.2,0.6,0.6,1,1,1.6C96.4,113.4,96.2,113.4,96,113.4z"/>
		<path
			class="Rhinoceros3D11"
			d="M96,113.4c0.2,0,0.4,0,0.6,0c1.6,1,3.2,1.9,4.8,2.9c4.5,0,9.1,0.1,13.6,0c1.5,0,3-0.5,4.5-0.7
		c0.5-0.1,1.1,0,1.7,0c-2.4,0.6-4.8,1.4-7.2,1.6c-3.7,0.3-7.5,0.3-11.3,0.4c-0.7,0-1.4-0.1-2-0.1c-0.2,0-0.4-0.1-0.5-0.1
		c-0.8-0.3-1.5-0.7-2.3-1c0,0,0.1-0.1,0.1-0.1c-0.3-0.3-0.6-0.6-0.9-1l0,0c-0.2-0.2-0.5-0.4-0.7-0.6l0,0c-0.1-0.3-0.2-0.6-0.3-0.9
		C96,113.6,96,113.5,96,113.4z"/>
		<path
			class="Rhinoceros3D23"
			d="M116.6,144.2c0.3-0.2,0.6-0.4,0.9-0.6c-0.3,1.2,0.3,1.9,1.5,2.2c1.2,0.3,2.4,0.9,3.6,1.2
		c0.7,0.1,1.4-0.1,2.2-0.2c0.1,0,0.2,0,0.4,0c0.2,0.4,0.4,0.9,0.6,1.3c0,0.1,0,0.2,0,0.3c-1.4-0.2-2.7-0.4-4.1-0.6
		c-0.1,0-0.2-0.1-0.3-0.1c-0.4-0.2-0.7-0.3-1.1-0.5c-1.3-0.6-2.5-1.1-3.8-1.7C116.5,145,116.5,144.6,116.6,144.2z"/>
		<path class="Rhinoceros3D4" d="M111,150.2c1.2,0.6,2.3,1.3,3.5,1.9c0.5,0.2,1,0.4,1.5,0.6c1.1,1,2.1,1.9,3.2,2.9c-0.5,0-1.2,0.2-1.6-0.1
		C115.4,153.9,113.2,152,111,150.2z"/>
		<path class="Rhinoceros3D18" d="M116.5,145.4c1.3,0.6,2.5,1.1,3.8,1.7c0.1,0.2,0.3,0.4,0.4,0.5c0,0.1,0,0.2,0,0.4c-0.7-0.1-1.5-0.2-2.2-0.3
		c-0.6,0.1-1.3,0.2-1.9,0.3C116.4,147.1,115.2,146.3,116.5,145.4z"/>
		<path class="Rhinoceros3D3" d="M122.2,149.5c0.8,1,1.7,2.1,2.7,3.3c-1.5,0-2.8-1.6-3.1-3.1C121.9,149.7,122,149.6,122.2,149.5z"/>
		<path class="Rhinoceros3D3" d="M116.5,148c0.6-0.1,1.3-0.2,1.9-0.3c-0.3,0.5-0.5,1-0.9,1.9C117.1,148.9,116.8,148.4,116.5,148z"/>
		<path class="Rhinoceros3D6" d="M107.2,141.6c-1,0.1-1-0.5-1-1.2C106.6,140.7,106.9,141.2,107.2,141.6z"/>
		<path class="Rhinoceros3D6" d="M113.5,147.2c-1,0.6-0.8-0.2-0.9-0.8C112.9,146.7,113.2,147,113.5,147.2z"/>
		<path class="Rhinoceros3D18" d="M126.4,150.9c-0.2,0.2-0.4,0.4-0.6,0.6c0-0.2,0-0.4,0-0.6C126,150.9,126.2,150.9,126.4,150.9z"/>
		<path class="Rhinoceros3D27" d="M119.6,151.6c-0.1-0.1-0.1-0.2-0.2-0.3c0.1,0,0.3,0,0.4,0C119.8,151.4,119.7,151.5,119.6,151.6z"/>
		<path class="Rhinoceros3D6" d="M109.3,143.5c-0.1-0.1-0.3-0.3-0.4-0.4C109,143.2,109.2,143.3,109.3,143.5z"/>
		<path
			class="Rhinoceros3D14"
			d="M99.2,123.5c-0.9,1.3-2.1,1.6-3.5,0.7c-2.5-1.7-4.9-3.5-7.3-5.4c-2.2-1.8-1.9-3.8,0.8-5.1
		c1.9,0.1,4.6,2,4.9,3.5c-0.7,0-1.4,0-2.1,0c0.1,0.4,0.2,0.7,0.2,1c-0.5,0.3-1,0.5-1.5,0.8c1.3,1.3,2.8,1.5,3.9,0.6
		c1.2-0.9-0.4-1.5-0.3-2.3c2.2,0.1,3.2,2,4.6,3.3c0.5,0.4,0.6,1.2,0.9,1.8C99.6,122.7,99.4,123.1,99.2,123.5z M89.6,117.9
		c0.1,0,0.1,0.1,0.2,0.1C89.7,118,89.6,117.9,89.6,117.9c0-0.1-0.1-0.1-0.1-0.2C89.5,117.8,89.5,117.8,89.6,117.9z M97.2,119.4
		c-0.7,1.2-1.1,2-1.8,3.1c0.9-0.3,1.8-0.4,1.9-0.8C97.6,121.2,97.3,120.4,97.2,119.4z M94.3,121.7c0.1-0.1,0.2-0.2,0.3-0.3
		c-0.2-0.2-0.4-0.4-0.6-0.5c-0.1,0.1-0.1,0.1-0.2,0.2C94,121.3,94.2,121.5,94.3,121.7z"/>
		<path
			class="Rhinoceros3D13"
			d="M91.2,109.5c1.2,1.2,2.3,2.4,3.5,3.6c0,1.1,0.6,1.6,1.6,1.6c0,0,0,0,0,0c0.2,0.2,0.5,0.4,0.7,0.6c0,0,0,0,0,0
		c0.1,0.3,0.1,0.5,0.2,0.8c-2.2-1-4.4-2.1-6.6-3.1c-0.7-0.9-1.4-1.8-2.1-2.7c0.6,0.2,1.2,0.3,2,0.5c-0.4-0.7-0.7-1.3-1-1.8
		c0.4,0.2,0.9,0.4,1.3,0.6C91,109.5,91.1,109.5,91.2,109.5z"/>
		<path class="Rhinoceros3D15" d="M124.6,113.9c0.5-0.2,1-0.4,1.4-0.6c1.2-0.2,2.4-0.4,3.6-0.6c-0.1,0.4-0.2,0.8-0.3,1.2
		c-1.6,0.5-3.2,1.1-4.8,1.6c0-0.5,0-0.9-0.1-1.4C124.5,114.1,124.6,114,124.6,113.9z"/>
		<path class="Rhinoceros3D28" d="M94.4,117.3c-0.1,0.8,1.5,1.3,0.3,2.3c-0.8-0.5-1.6-0.9-2.4-1.4c-0.1-0.3-0.1-0.6-0.2-1c0.7,0,1.4,0,2.1,0
		C94.2,117.2,94.3,117.2,94.4,117.3z"/>
		<path class="Rhinoceros3D15" d="M121.9,121.1c-0.4-0.3-0.8-0.6-1.2-0.9c0.3-1.9,1.5-2.5,3.5-1.6c-0.3,0.2-0.5,0.4-0.8,0.4
		C122,119.1,121.3,119.6,121.9,121.1z"/>
		<path class="Rhinoceros3D13" d="M97.9,116.3c0.8,0.3,1.5,0.7,2.3,1C99.4,117,98.6,116.7,97.9,116.3z"/>
		<path class="Rhinoceros3D20" d="M124.5,114.2c0,0.5,0,0.9,0.1,1.4c-0.7,0.3-0.7,0.3-1-0.9c0.2-0.1,0.3-0.2,0.5-0.3c0.1,0,0.2,0,0.2-0.1
		C124.3,114.2,124.4,114.2,124.5,114.2z"/>
		<path class="Rhinoceros3D18" d="M102.5,120.5c-0.3,0.3-0.5,0.6-0.8,1c-0.1-0.3-0.3-0.6-0.4-0.9C101.7,120.5,102.1,120.5,102.5,120.5z"/>
		<path class="Rhinoceros3D13" d="M100.7,117.4c0.7,0,1.4,0.1,2,0.1C102,117.5,101.4,117.4,100.7,117.4z"/>
		<path class="Rhinoceros3D4" d="M97.2,116.1c-0.1-0.3-0.1-0.5-0.2-0.8c0.3,0.3,0.6,0.6,0.9,1C97.7,116.2,97.4,116.1,97.2,116.1z"/>
		<path class="Rhinoceros3D18" d="M99.2,123.5c0.2-0.4,0.5-0.7,0.7-1.1c0.1,0.1,0.2,0.3,0.3,0.4C99.9,123,99.5,123.2,99.2,123.5z"/>
		<path class="Rhinoceros3D11" d="M122.2,115.2c0.3-0.2,0.5-0.3,0.8-0.5C122.7,114.9,122.5,115,122.2,115.2z"/>
		<path
			class="Rhinoceros3D14"
			d="M64.6,100.9c-0.1,0-0.2,0-0.3,0c-0.1-0.7-0.1-1.4-0.2-2.1c0.9-0.9,1.8-1.8,2.7-2.7c0,0,0.1,0,0.1,0.1
		c0,0-0.1,0-0.1-0.1c0.4-0.5,0.8-1.2,1.3-1.4c1.3-0.6,1.8-1.8,2.5-2.9c1.4-1.9,3-3.7,4.4-5.5c3.9-5.1,6.1-10.9,7.1-17.2
		c0.4-2.5,0.3-5,0.5-7.6c0-0.2,0.3-0.4,0.4-0.6c0.1,0,0.2,0,0.3,0c0,0.2,0,0.4,0,0.6c0.3,5.5-0.4,11-1.8,16.3
		c-0.5,2,1.5,4.1,3.6,3.7c0.8-0.1,1.6-0.2,2.4-0.2c1.8,0.1,3.7,0.4,5.5,0.6c1.8,0.1,3.6,0.2,5.4,0.3c1,0.1,1.9-0.1,2-1.4
		c0.1-0.8,0.3-1.6,0.5-2.4c0.2,1.2,0.4,2.3,0.6,3.5c-0.3,0.4-0.6,0.9-1,1.3c-0.3,0-0.6,0-1,0c-0.6,0-1.3,0-1.9,0c-1.6,0-3.2,0-4.8,0
		c-0.9-1-1.7-1-2.6,0c-0.4,0-0.8,0-1.3,0c-2.2-1.2-4-0.2-5.5,1.3c-1.1,1-1.7,2.4-2.9,3.3c-1.8,1.5-3.8,2.6-5.7,4
		c-0.9,0.6-1.5,1.5-2.2,2.3c0,0,0,0,0,0c-1,0.7-1.9,1.5-2.9,2.2c-0.4,0.3-0.9,0.6-1.3,1c-2,0.4-3,1.9-3.8,3.5l-0.1,0L64.6,100.9z"/>
		<path
			class="Rhinoceros3D0"
			d="M82.5,52.7c1.2-0.4,0.7,0.7,1,1.1c0.4,1.7,0.9,3.4,1.3,5.1c0.2,1.2,0.4,2.3,0.6,3.5c0.3,4.2,1.1,8.2,2.4,12.2
		c0.9,2.8,4.2,3.4,6.1,2.4c1.5-0.8,3.4-1.1,4.4-2.8c0.3,0.3,0.6,0.6,1,1c0,0.2,0,0.4,0,0.6c-0.1,0.3-0.2,0.6-0.3,1
		c-0.1,0.3-0.3,0.6-0.3,0.9c-0.2,1.5-1.1,2.3-2.3,1.6c-1.2-0.7-2-0.2-3,0.2c-2.9,1.2-6.2-0.4-7-3.4c-0.5-1.8-0.9-3.5-1.3-5.3
		c-0.2-0.7-0.4-1.5-0.6-2.2c0-2.3,0-4.7,0-7c-0.1-0.2-0.2-0.4-0.3-0.6c-0.3-1,0.8-2.4-1-2.9c-0.1-0.4-0.2-0.8-0.3-1.3
		c0.2-0.1,0.4-0.3,0.6-0.4c-0.2-0.2-0.4-0.4-0.6-0.6c0-0.3,0-0.6,0-1c-0.1-0.2-0.2-0.4-0.3-0.7C82.5,53.6,82.5,53.2,82.5,52.7z"/>
		<path class="Rhinoceros3D16" d="M83.2,58c1.7,0.5,0.6,1.9,1,2.9c-0.2,0-0.4,0-0.6,0c-0.1,0-0.2,0-0.3,0C83.2,59.9,83.2,58.9,83.2,58z"/>
		<path class="Rhinoceros3D9" d="M74.9,83.3c0.3-0.5,0.6-1.1,0.9-1.6C75.5,82.2,75.2,82.7,74.9,83.3z"/>
		<path class="Rhinoceros3D9" d="M81.8,58.9c0-0.5,0-1.1,0-1.6C81.9,57.8,81.9,58.4,81.8,58.9z"/>
		<path class="Rhinoceros3D9" d="M76.4,80.1c0.2-0.4,0.4-0.9,0.7-1.3C76.9,79.2,76.6,79.6,76.4,80.1z"/>
		<path class="Rhinoceros3D9" d="M77.4,77.5c0.2-0.4,0.4-0.9,0.6-1.3C77.8,76.7,77.6,77.1,77.4,77.5z"/>
		<path class="Rhinoceros3D16" d="M82.9,55.7c0.2,0.2,0.4,0.4,0.6,0.6c-0.2,0.1-0.4,0.3-0.6,0.4C82.9,56.4,82.9,56,82.9,55.7z"/>
		<path class="Rhinoceros3D16" d="M82.6,54.1c0.1,0.2,0.2,0.4,0.3,0.7C82.8,54.5,82.7,54.3,82.6,54.1z"/>
		<path
			class="Rhinoceros3D9"
			d="M69.1,58.3c-0.3,1.2-0.6,2.4-0.9,3.5c0,0.3,0,0.6,0,1c-1.3,0.7-1.3,2-1.3,3.2c0,0.3,0,0.6,0,1
		c-1.6,0.4-1.4,1.8-1.9,2.9c0,0.1,0,0.2,0,0.3c-0.2,0.3-0.4,0.6-0.6,1c0,0,0,0,0,0c-1.4,0.1-1.7,1.1-1.9,2.2
		c-2.2,4.3-4.3,8.6-6.5,12.8c-0.7,1.3-1.4,2.5-2.2,3.8c-0.2,0.3-0.6,0.5-0.9,0.7c0.7-1.6,1.3-3.2,2.1-4.7c1.4-3.1,2.8-6.2,4.4-9.2
		c2.2-4.2,4.6-8.3,6.9-12.4c0.8-1.6,1.3-3.3,2.1-4.9C68.3,59,68.8,58.6,69.1,58.3z"/>
		<path class="Rhinoceros3D9" d="M53.1,92.3c-0.6,0.1-1.1,0.2-1.7,0.3c0.4-0.2,0.8-0.4,1.2-0.6C52.8,92,53,92.2,53.1,92.3z"/>
		<path class="Rhinoceros3D14" d="M87,106.4c0.4,0,0.9,0,1.3,0c0.5,0.2,1.1,0.4,1.6,0.7c0.1,0.2,0.2,0.4,0.3,0.6c-0.1,0-0.2,0-0.4,0
		C88.9,107.2,88,106.8,87,106.4z"/>
		<path class="Rhinoceros3D16" d="M89.9,107.6c0.1,0,0.2,0,0.4,0c0.2,0.3,0.4,0.7,0.6,1C90.5,108.3,90.2,108,89.9,107.6z"/>
		<path class="Rhinoceros3D23" d="M64.9,100.9c0.9-1.6,1.8-3.2,3.8-3.5c-0.1,0.4-0.2,0.9-0.3,1.3C67.3,99.4,66.1,100.1,64.9,100.9z"/>
		<path class="Rhinoceros3D10" d="M66.5,101.5c-0.3,0.2-0.7,0.4-1,0.7c-0.1-0.1-0.3-0.2-0.4-0.3C65.5,101.8,66,101.6,66.5,101.5z"/>
		<path class="Rhinoceros3D20" d="M46.3,98.1c0.4,0.3,0.9,0.6,1.3,0.9C47.2,98.7,46.8,98.4,46.3,98.1z"/>
		<path
			class="Rhinoceros3D16"
			d="M84.5,61.5c0,2.3,0,4.7,0,7c-0.2,2.2-0.5,4.5-0.6,6.7c-0.1,2.9,1.2,4.3,4.1,4.8c0.3,0,0.6,0,1,0
		c1.1,1.3,3.3,1.7,5.2,1.1c0.6-0.2,1.4-0.1,2,0c1.3,0.4,3.1-0.3,3.4-1.5c0-0.3,0-0.6,0-1c0.2-0.3,0.4-0.6,0.6-1c0.3,0,0.6,0,0.9,0
		c0,0.2,0,0.4,0,0.6c-0.2,0.8-0.4,1.6-0.5,2.4c-0.1,1.3-1,1.5-2,1.4c-1.8-0.1-3.6-0.2-5.4-0.3c-1.8-0.2-3.7-0.4-5.5-0.6
		c-0.8-0.1-1.6,0-2.4,0.2c-2,0.3-4.1-1.8-3.6-3.7c1.4-5.4,2-10.8,1.8-16.3C83.8,61.5,84.1,61.5,84.5,61.5z"/>
		<path
			class="Rhinoceros3D23"
			d="M72.9,94.2c0.7-0.8,1.4-1.7,2.2-2.3c1.9-1.4,3.9-2.5,5.7-4c1.1-0.9,1.8-2.3,2.9-3.3c1.6-1.4,3.3-2.5,5.5-1.3
		c-0.9,0.3-1.9,0.5-2.8,1c-1,0.5-1.9,1.3-2.8,2c-2.3,1.8-4.6,3.6-6.9,5.3c-0.8,0.6-1.6,1.3-2.5,1.9C73.9,93.8,73.4,94,72.9,94.2z"/>
		<path class="Rhinoceros3D23" d="M70,96.4c1-0.7,1.9-1.5,2.9-2.2C72,94.9,71,95.7,70,96.4z"/>
		<path class="Rhinoceros3D23" d="M90.5,83.3c0.9-1,1.7-1,2.6,0C92.3,83.3,91.4,83.3,90.5,83.3z"/>
		<path class="Rhinoceros3D23" d="M97.9,83.3c0.6,0,1.3,0,1.9,0C99.2,84.3,98.6,84.3,97.9,83.3z"/>
		<path class="Rhinoceros3D23" d="M100.8,83.3c0.3-0.4,0.6-0.9,1-1.3C101.4,82.4,101.1,82.8,100.8,83.3z"/>
		<path class="Rhinoceros3D17" d="M96.3,86.5C96.2,86.7,96.1,87,96,87c-3.4,0.5-6,2.4-8.7,4.2c-0.2,0.1-0.6,0.1-0.9,0.1
		c1.8-1.3,3.5-2.8,5.4-3.8C93.1,86.8,94.8,86.8,96.3,86.5z"/>
		<path
			class="Rhinoceros3D1"
			d="M84.8,58.9c-0.4-1.7-0.9-3.4-1.3-5.1c0.5,0.6,1,1.1,1.3,1.8c1.1,2.6,2.2,5.2,3.3,7.7c0.3,0.6,0.8,1.1,1.2,1.6
		c0.7-0.5,1.3-0.9,1.7-1.4c0.3-0.4,0.4-1.1,0.5-1.6c0.1-0.5,0-0.9,0-1.4c0.2,0,0.4,0,0.6,0c0,0,0,0,0,0c-0.1,1,0.1,1.8,1.3,1.9
		c0,0.2,0,0.4,0,0.6c-0.1,0.2-0.3,0.5-0.2,0.7c0.4,1.3,0.8,2.6,1.3,3.9c0.4,1-0.2,1.3-1,1.5c-0.6,0.2-1.3,0.3-1.8,0.8
		c-0.9,0.8-1.4,0.5-1.9-0.3c-2.1-2.7-2.7-6-3.6-9.2C85.9,59.9,85.2,59.4,84.8,58.9z"/>
		<path class="Rhinoceros3D1" d="M88.6,55.7c0.2,0,0.4,0,0.6,0c0.5,0.9,1.1,1.7,1.6,2.6c-0.1,0.1-0.2,0.2-0.3,0.3
		C89.9,57.6,89.3,56.7,88.6,55.7z"/>
		<path class="Rhinoceros3D2" d="M92.2,60.5c-0.2,0-0.4,0-0.6,0c-0.1-0.5-0.2-1.1-0.3-1.6C91.5,59.4,91.8,60,92.2,60.5z"/>
		<path class="Rhinoceros3D2" d="M90.5,58.6c0.1-0.1,0.2-0.2,0.3-0.3c0.1,0.2,0.2,0.4,0.3,0.6C91,58.8,90.8,58.7,90.5,58.6z"/>
		<path
			class="Rhinoceros3D10"
			d="M65.6,72.4c-0.2,0.7-0.4,1.3-0.7,2c-0.2,0.5-0.4,1-0.6,1.5c0,0.1,0,0.2,0,0.3c-0.2,0.3-0.4,0.6-0.6,1
		c-0.2,0.2-0.4,0.4-0.6,0.6c-0.9,1.2-1.7,2.4-2.6,3.5c-1.2,1.9-1.8,4.2-3.8,5.4c0.8-1.6,1.6-3.2,2.5-4.7c1.9-3.1,3.9-6.2,5.8-9.3
		C65,72.6,65.3,72.5,65.6,72.4z"/>
		<path class="Rhinoceros3D19" d="M66.8,66c0-1.2,0-2.5,1.3-3.2C68.1,64,68.4,65.4,66.8,66z"/>
		<path class="Rhinoceros3D19" d="M64.9,69.8c0.5-1,0.4-2.5,1.9-2.9C66.6,68.2,66.4,69.4,64.9,69.8z"/>
		<path class="Rhinoceros3D19" d="M62.4,73.3c0.2-1.1,0.5-2.2,1.9-2.2C63.6,71.8,63,72.6,62.4,73.3z"/>
		<path class="Rhinoceros3D21" d="M56.3,88.4c-0.6,0.8-1.3,1.5-1.9,2.3c0.4-0.8,0.8-1.5,1.3-2.3C55.8,88.4,56,88.4,56.3,88.4z"/>
		<path class="Rhinoceros3D10" d="M56.3,88.4c-0.2,0-0.4,0-0.6,0c0.3-0.4,0.6-0.9,1-1.3C56.5,87.5,56.4,88,56.3,88.4z"/>
		<path class="Rhinoceros3D10" d="M66.8,69.8c0,0.7,0.1,1.4-0.9,1.3C66.2,70.7,66.5,70.2,66.8,69.8z"/>
		<path class="Rhinoceros3D21" d="M54.3,92.2c-0.2-0.1-0.4-0.2-0.6-0.3c0.2-0.4,0.4-0.8,0.6-1.3C54.3,91.2,54.3,91.7,54.3,92.2z"/>
		<path class="Rhinoceros3D19" d="M64.3,71.1c0.2-0.3,0.4-0.6,0.6-1C64.7,70.5,64.5,70.8,64.3,71.1z"/>
		<path
			class="Rhinoceros3D25"
			d="M61.1,107.2c-0.4-0.5-0.9-1-1.3-1.5c-1.8-1.4-3.7-2.7-5.5-4.1c0,0,0,0,0,0c-0.5-0.3-1.1-0.6-1.6-1
		c-0.1,0-0.2,0-0.3-0.1c-0.8-0.6-1.5-1.3-2.4-1.7c-4.3-1.9-8.8-3.3-13.5-3.4c-2.3-0.1-4.7-0.2-7-0.3c-0.7,0-1.5,0.1-2.2,0.3
		c-1.2,0.2-2-0.1-1.9-1.6c0.9,0.1,1.8,0.3,2.7,0.3c5.2-0.1,10.4,0.2,15.5,1.6c5.6,1.5,10.6,4.2,15.1,7.9c2.4,1.9,4.5,4.2,6.8,6.2
		c0,0,0,0,0,0c0.5,0.6,1.1,1.3,1.6,1.9c0,0.1,0,0.2,0.1,0.3c0.7,0.9,1.4,1.7,2.2,2.6c0.1,0.2,0.2,0.4,0.4,0.6
		c-0.1,0.1-0.3,0.3-0.4,0.4c-1.4-1.7-2.8-3.4-4.3-5C63.8,109.5,62.4,108.4,61.1,107.2z"/>
		<path
			class="Rhinoceros3D11"
			d="M52.1,96.4c2.4,1.6,4.8,3.2,7.1,4.9c0.9,0.7,1.5,1.7,2.2,2.5c-0.3,0-0.6,0-1,0c-0.2-0.2-0.4-0.4-0.7-0.6
		c-0.4-0.3-0.9-0.6-1.3-1c-0.6-0.5-1.3-1.1-1.9-1.6c-0.1,0-0.2,0-0.3,0c-0.5-0.4-1.1-0.8-1.6-1.3c-0.1,0-0.2,0-0.3,0
		c-0.3-0.2-0.6-0.4-1-0.6c-0.9-0.4-1.7-0.9-2.6-1.3c-0.2-0.2-0.4-0.4-0.7-0.6c-0.2,0-0.4,0-0.6,0c-1.7-0.7-3.4-1.5-5.2-2.2
		c-0.2,0-0.4,0-0.6,0c-0.2,0-0.4,0-0.6,0c-0.2,0-0.4,0-0.6,0c-0.8-1-2.7-1.5-4.2-0.9c-0.4,0-0.8,0-1.3,0c-0.3-0.2-0.6-0.6-0.9-0.6
		c-2.9-0.3-5.8-0.4-8.7-0.7c-0.6-0.1-1.1-0.4-1.7-0.6c0-0.2,0.1-0.4,0.1-0.6c1.9,0.2,3.8,0.4,5.7,0.6c3,0.4,6.1,0.7,9.1,1.2
		c2,0.3,4,0.9,6,1.4c0.2,0,0.4,0,0.6,0c1.4,0.6,2.8,1.3,4.2,1.9C51.7,96.2,51.9,96.3,52.1,96.4z"/>
		<path class="Rhinoceros3D2" d="M46.6,94.2c-2-0.5-4-1-6-1.4c-3-0.5-6.1-0.8-9.1-1.2c-1.9-0.2-3.8-0.4-5.7-0.6c0-0.4,0-0.9,0.1-1.3
		c0.1,0,0.2,0,0.3,0c2.7,0.4,5.5,1.1,8.2,1.2c4,0.2,7.7,1.5,11.5,2.5C46.2,93.5,46.4,93.9,46.6,94.2z"/>
		<path class="Rhinoceros3D14" d="M25.8,91.6c0.6,0.2,1.1,0.6,1.7,0.6c2.9,0.3,5.8,0.4,8.7,0.7c0.3,0,0.6,0.4,0.9,0.6c-3.5-0.2-7-0.4-10.6-0.6
		C25.7,92.8,25.3,92.4,25.8,91.6z"/>
		<path
			class="Rhinoceros3D11"
			d="M63,104.4c0.1,0,0.2,0,0.3,0c0.3,0.3,0.6,0.6,1,1c0,0,0,0,0,0c0.3,0.5,0.6,1,0.9,1.4c0.9,1.1,1.9,2.3,2.9,3.4
		c0,0.1,0,0.2,0,0.3c-0.9-0.6-1.7-1.3-2.6-1.9c-0.4-0.4-0.8-0.9-1.3-1.3c-0.6-1-1.3-1.9-1.9-2.9l0,0C62.6,104.4,62.8,104.4,63,104.4
		z"/>
		<path class="Rhinoceros3D14" d="M65.5,108.6c0.9,0.6,1.7,1.3,2.6,1.9c0.2,0.6,0.4,1.3,0.7,1.9c0,0.1,0,0.2,0,0.3c-0.5-0.2-1-0.5-1.5-0.7
		c0-0.1,0-0.2-0.1-0.3c-0.5-0.6-1.1-1.3-1.6-1.9c0,0,0,0,0,0C65.6,109.4,65.5,109,65.5,108.6z"/>
		<path class="Rhinoceros3D14" d="M62.3,104.4c0.6,1,1.3,1.9,1.9,2.9c-1.3-1.2-2.6-2.4-3.8-3.5c0.3,0,0.6,0,1,0c0,0,0,0,0,0
		C61.7,104,62,104.2,62.3,104.4z"/>
		<path class="Rhinoceros3D14" d="M44.4,94.5c1.7,0.7,3.4,1.5,5.2,2.2C47.8,96,46.1,95.3,44.4,94.5z"/>
		<path class="Rhinoceros3D14" d="M38.3,93.5c1.5-0.5,3.4-0.1,4.2,0.9C41.1,94.2,39.7,93.8,38.3,93.5z"/>
		<path class="Rhinoceros3D14" d="M56.6,100.6c0.6,0.5,1.3,1.1,1.9,1.6C57.9,101.6,57.2,101.1,56.6,100.6z"/>
		<path class="Rhinoceros3D14" d="M54.6,99.3c0.5,0.4,1.1,0.8,1.6,1.3C55.7,100.1,55.2,99.7,54.6,99.3z"/>
		<path class="Rhinoceros3D14" d="M58.5,102.2c0.4,0.3,0.9,0.6,1.3,1C59.4,102.8,58.9,102.5,58.5,102.2z"/>
		<path class="Rhinoceros3D14" d="M53.4,98.6c0.3,0.2,0.6,0.4,1,0.6C54,99.1,53.7,98.9,53.4,98.6z"/>
		<path class="Rhinoceros3D14" d="M43.1,94.5c0.2,0,0.4,0,0.6,0C43.6,94.5,43.3,94.5,43.1,94.5z"/>
		<path class="Rhinoceros3D14" d="M50.1,96.8c0.2,0.2,0.4,0.4,0.7,0.6C50.6,97.2,50.4,97,50.1,96.8z"/>
		<path class="Rhinoceros3D13" d="M88.3,110.2c-1.2-0.4-2.5-0.8-3.7-1.3c-0.3-0.1-0.7-0.5-0.7-0.8c0.1-0.3,0.4-0.7,0.7-0.9
		c1.1-0.6,3.9,0.3,4.7,1.6c-1-0.3-2-0.6-3-1c-0.1,0.2-0.1,0.3-0.2,0.5C86.8,109,87.6,109.6,88.3,110.2z"/>
		<path class="Rhinoceros3D10" d="M88.3,110.2c-0.7-0.6-1.5-1.2-2.2-1.8c0.1-0.2,0.1-0.3,0.2-0.5c1,0.3,2,0.6,3,1c0.1,0,0.2,0,0.3,0
		c0.3,0.5,0.6,1.1,1,1.8c-0.8-0.2-1.4-0.3-2-0.5C88.5,110.2,88.4,110.2,88.3,110.2z"/>
		<path
			class="Rhinoceros3D21"
			d="M49.2,55.1c0,0.1,0,0.2,0,0.3c0.6,2.2,1.6,4.3,1.8,6.5c0.3,3.5,0.2,7.1,0,10.7c0,1.2-0.6,2.4-0.9,3.6
		c0,0,0,0,0,0c0-4.1,0.1-8.3,0-12.4c-0.1-1.6-0.8-3.2-0.9-4.8c-0.1-2.6-2.1-4.2-3.1-6.4C46,52.5,46,52.3,46,52.2
		c0.3,0.2,0.6,0.4,0.8,0.6C47.6,53.6,48.4,54.3,49.2,55.1z"/>
		<path
			class="Rhinoceros3D13"
			d="M49.2,55.1c-0.8-0.8-1.6-1.5-2.4-2.3c-0.3-0.2-0.6-0.4-0.8-0.6c-0.6-0.7-1.2-1.3-1.7-2
		c0.2-0.1,0.5-0.1,0.7-0.2c0.5,0.4,1.1,0.8,1.6,1.2c0.3,0.3,0.7,0.6,1,0.9c0.1,0.1,0.2,0.2,0.3,0.3c0.4,0.3,0.8,0.6,1.3,1
		c0,0.1,0,0.2,0,0.3C49.2,54.2,49.2,54.6,49.2,55.1z"/>
		<path
			class="Rhinoceros3D6"
			d="M68.1,110.2c-1-1.1-2-2.2-2.9-3.4c-0.4-0.4-0.6-0.9-0.9-1.4c1.9,1.5,3.8,2.9,5.7,4.4c0.6,0.4,1.1,0.9,1.6,1.4
		c0.2-0.1,0.4-0.1,0.5-0.2c-0.1-1-0.1-2-0.2-3.1c0.4,0.8,0.9,1.5,1.3,2.3c0.3,0.6,0.4,1.3,0.6,1.9c-0.1,1.3-0.5,2-1.8,1.2
		c-0.6-0.4-1.2-0.8-1.7-1.3C69.6,111.4,68.8,110.8,68.1,110.2z"/>
		<path
			class="Rhinoceros3D0"
			d="M68.1,110.2c0.7,0.6,1.4,1.2,2.2,1.8c0.6,0.4,1.1,0.9,1.7,1.3c1.4,0.9,1.8,0.1,1.8-1.2
		c0.4,1.1,0.9,2.2,1.2,3.4c0.1,0.2-0.3,0.7-0.5,0.8c-0.2,0.1-0.7,0-0.9-0.2c-1-0.9-2-1.8-3.1-2.7c-0.5-0.4-1.2-0.7-1.8-1.1
		c-0.2-0.6-0.4-1.3-0.7-1.9C68.1,110.4,68.1,110.3,68.1,110.2z"/>
		<path class="Rhinoceros3D8" d="M67.2,112.1c0.5,0.2,1,0.5,1.5,0.7c0.2,0.5,0.5,1,0.7,1.6c0,0.1-0.1,0.2-0.1,0.4
		C68.7,113.8,67.9,112.9,67.2,112.1z"/>
		<path class="Rhinoceros3D21" d="M60.4,81.4c0.9-1.2,1.7-2.4,2.6-3.5C62.1,79,61.3,80.2,60.4,81.4z"/>
		<path class="Rhinoceros3D15" d="M61.1,83.3c0,0.3,0,0.6,0,1c-0.4,0.5-0.9,1.1-1.3,1.6c-0.2,0-0.4,0-0.6,0C59.8,85,60.4,84.1,61.1,83.3z"/>
		<path class="Rhinoceros3D12" d="M59.2,85.8c0.2,0,0.4,0,0.6,0c-0.3,0.3-0.6,0.6-1,1C58.9,86.5,59,86.2,59.2,85.8z"/>
		<path class="Rhinoceros3D15" d="M57.2,89.4c-0.2,0-0.4,0-0.6,0c0.3-0.3,0.6-0.7,0.9-1C57.4,88.7,57.3,89,57.2,89.4z"/>
		<path class="Rhinoceros3D21" d="M63.6,77.2c0.2-0.3,0.4-0.6,0.6-1C64.1,76.5,63.8,76.9,63.6,77.2z"/>
		<path class="Rhinoceros3D15" d="M56.3,90.3c-0.2,0.3-0.4,0.6-0.6,0.9C55.8,90.9,56,90.6,56.3,90.3z"/>
		<path class="Rhinoceros3D12" d="M57.2,89.4c0.1-0.3,0.2-0.6,0.3-1c0.1,0,0.2,0,0.3,0C57.6,88.7,57.4,89,57.2,89.4z"/>
		<path class="Rhinoceros3D15" d="M62.3,81.3c-0.2,0.2-0.4,0.4-0.6,0.7C61.9,81.8,62.1,81.6,62.3,81.3z"/>
		<path
			class="Rhinoceros3D25"
			d="M130.6,126.9c-0.3-0.8-0.7-1.6-1-2.5c0.2,0,0.4-0.1,0.7-0.1c0.1,0,0.2,0.1,0.3,0.2c0.3,0.6,0.5,1.3,0.9,1.8
		c0.7,0.8,1.5,1.5,2.3,2.2c2.3,2.2,2.3,1.7,5.1,0.5c1.3-0.6,2.6-1.4,3.9-2c-0.1,0.2-0.1,0.5-0.2,0.6c-2,1.4-4,2.8-6.1,4.1
		c-0.4,0.2-1.2,0.1-1.6-0.3C133.4,129.9,132,128.3,130.6,126.9z"/>
		<path class="Rhinoceros3D2" d="M130.3,124.3c-0.2,0-0.4,0.1-0.7,0.1c-0.3,0-0.6-0.1-0.9-0.1c-0.2-0.2-0.4-0.4-0.5-0.5
		C128.9,123.8,129.8,123.1,130.3,124.3z"/>
		<path class="Rhinoceros3D22" d="M122.9,122.3c0-0.2,0-0.4,0-0.6c0-0.1,0-0.3,0-0.4c0,0,0.1-0.1,0.1-0.1c0.4,0.3,0.8,0.7,1.2,1
		c-0.2,0-0.4,0.1-0.7,0.1C123.4,122.4,123.1,122.4,122.9,122.3z"/>
		<path class="Rhinoceros3D12" d="M123.6,122.4c0.2,0,0.4-0.1,0.7-0.1c0,0.1,0,0.3,0,0.4C124,122.6,123.8,122.5,123.6,122.4z"/>
		<path class="Rhinoceros3D26" d="M47.6,86.8c-0.1-0.1-0.2-0.2-0.3-0.3C47.4,86.6,47.5,86.7,47.6,86.8z"/>
		<path class="Rhinoceros3D15" d="M54.3,101.6c1.8,1.4,3.7,2.7,5.5,4.1C57.8,104.5,55.6,103.6,54.3,101.6z"/>
		<path class="Rhinoceros3D15" d="M52.7,100.6c0.5,0.3,1.1,0.6,1.6,1C53.8,101.2,53.2,100.9,52.7,100.6z"/>
		<path class="Rhinoceros3D15" d="M130.9,111.8c-0.4,0.3-0.9,0.6-1.3,1C130.1,112.4,130.5,112.1,130.9,111.8z"/>
		<path
			class="Rhinoceros3D11"
			d="M99.5,78.8c0,0.3,0,0.6,0,1c-0.7,0.2-1.5,0.6-2.2,0.6c-1,0.1-2.1-0.1-3.1-0.2c-1.7-0.1-3.5-0.1-5.2-0.1
		c-0.3,0-0.6,0-1,0c-0.4-0.4-0.8-0.9-1.2-1.1c-2.5-0.9-2.9-6.3-1.8-8.2c0,0,0.1-0.1,0.1-0.1c0.4,1.8,0.8,3.5,1.3,5.3
		c0.8,3,4.1,4.5,7,3.4c1-0.4,1.8-0.8,3-0.2c1.2,0.7,2.1-0.1,2.3-1.6c0-0.3,0.2-0.6,0.3-0.9c0.3,0.1,0.6,0.2,1,0.3c0,0.2,0,0.4,0,0.6
		C99.7,78.1,99.6,78.5,99.5,78.8z"/>
		<path class="Rhinoceros3D0" d="M97.9,70.1c0.1,0.5,0.2,1.1,0.3,1.6c0,0.5,0,1.1,0,1.6c-0.4-1.5-0.9-3-1.3-4.5c0.2,0.2,0.4,0.4,0.6,0.6
		c0,0,0,0,0,0C97.7,69.7,97.8,69.9,97.9,70.1z"/>
		<path class="Rhinoceros3D22" d="M98.2,73.3c0-0.5,0-1.1,0-1.6c0.4,0.9,0.8,1.7,1.3,2.6c-0.1,0.3-0.2,0.6-0.3,1c-0.3-0.3-0.6-0.6-1-1
		C98.2,74,98.2,73.7,98.2,73.3z"/>
		<path class="Rhinoceros3D11" d="M97.6,69.5c-0.2-0.2-0.4-0.4-0.6-0.6c-0.2-0.2-0.4-0.4-0.6-0.6c-0.1-0.3-0.2-0.6-0.3-1c0-0.4,0-0.9,0-1.3
		c0,0,0,0,0,0C96.5,67.1,97.1,68.3,97.6,69.5z"/>
		<path class="Rhinoceros3D22" d="M99.8,77.2c-0.3-0.1-0.6-0.2-1-0.3c0.1-0.3,0.2-0.6,0.3-1c0.3,0,0.6,0,1,0C100.1,76.3,99.9,76.8,99.8,77.2z"/>
		<path class="Rhinoceros3D16" d="M100.2,75.9c-0.3,0-0.6,0-1,0c0-0.2,0-0.4,0-0.6c0.1-0.3,0.2-0.6,0.3-1C99.7,74.8,99.9,75.4,100.2,75.9z"/>
		<path class="Rhinoceros3D22" d="M99.5,78.8c0.1-0.3,0.2-0.6,0.3-1c0.1,0,0.2,0,0.3,0C99.9,78.1,99.7,78.5,99.5,78.8z"/>
		<path class="Rhinoceros3D11" d="M97.9,70.1c-0.1-0.2-0.2-0.4-0.3-0.6C97.7,69.7,97.8,69.9,97.9,70.1z"/>
		<path class="Rhinoceros3D10" d="M125.8,148c-0.2-0.4-0.4-0.9-0.6-1.3c2.5-0.9,4.9-1.7,7.4-2.6c-0.5,1.7-1.9,2.3-3.3,2.8
		C128.1,147.4,126.9,147.7,125.8,148z"/>
		<path class="Rhinoceros3D13" d="M121.7,147.6c1.4,0.2,2.7,0.4,4.1,0.6c0,0.2,0.1,0.4,0.1,0.7c-0.1,0.1-0.3,0.3-0.4,0.4
		C124.2,148.8,122.9,148.2,121.7,147.6z"/>
		<path class="Rhinoceros3D10" d="M125.4,149.3c0.1-0.1,0.3-0.3,0.4-0.4c0.1,0,0.2,0,0.3,0c-0.1,0.3-0.2,0.5-0.3,0.8
		C125.7,149.6,125.6,149.5,125.4,149.3z"/>
		<path class="Rhinoceros3D18" d="M130.9,148.9c-1.1,1.5-2.6,2.1-4.5,2c0.2-0.3,0.3-0.8,0.6-0.9C128.3,149.6,129.6,149.3,130.9,148.9z"/>
		<path class="Rhinoceros3D13" d="M120.7,147.6c-0.1-0.2-0.3-0.4-0.4-0.5c0.4,0.2,0.7,0.3,1.1,0.5C121.2,147.6,120.9,147.6,120.7,147.6z"/>
		<path class="Rhinoceros3D19" d="M84.5,114.6c0.2,0.8,0.6,1.7,0.6,2.5c0,1.9-0.2,3.9-0.2,5.8c0,0.6,0,1.1-0.1,1.7c-0.9,0.3-1.8,0.6-2.8,0.9
		c0.3-1.5,0.6-3,0.9-4.5c0.4-2,0.8-4,1.3-6C84.3,114.9,84.4,114.8,84.5,114.6z"/>
		<path
			class="Rhinoceros3D2"
			d="M96,67.2c0.1,0.3,0.2,0.6,0.3,1c-0.1,0.8-0.4,1.7-0.2,2.5c0.7,2.8-2.2,2.4-3.2,3.6c-0.4,0.4-1.8,0.5-2.2,0.2
		c-1.5-1.4-3.1-2.8-3.4-5.2c-0.3-2.2-0.9-4.3-1.4-6.5c0-0.1-0.3-0.2-0.5-0.3c-0.2-1.2-0.4-2.3-0.6-3.5c0.4,0.5,1.1,1,1.2,1.6
		c0.9,3.2,1.6,6.4,3.6,9.2c0.6,0.8,1.1,1,1.9,0.3c0.5-0.4,1.2-0.6,1.8-0.8c0.8-0.2,1.4-0.5,1-1.5c-0.4-1.3-0.9-2.6-1.3-3.9
		c-0.1-0.2,0.1-0.5,0.2-0.7c0.2,0,0.4,0,0.6,0c0,0,0,0,0,0c0,0.1,0,0.2,0,0.3c0.2,0.3,0.4,0.6,0.6,1c0.2,0.3,0.4,0.6,0.6,1
		c0,0.2,0,0.4,0,0.6C94.7,66.8,95.3,67.1,96,67.2z"/>
		<path class="Rhinoceros3D2" d="M93.4,62.4c-1.1-0.2-1.3-1-1.3-1.9c0.5,0.6,1.1,1.3,1.6,1.9C93.6,62.4,93.5,62.4,93.4,62.4z"/>
		<path class="Rhinoceros3D6" d="M96,67.2c-0.7-0.2-1.3-0.4-0.6-1.3c0.2,0,0.4,0,0.6,0C96,66.4,96,66.8,96,67.2z"/>
		<path class="Rhinoceros3D6" d="M95.3,65.3c-0.2-0.3-0.4-0.6-0.6-1C94.9,64.7,95.1,65,95.3,65.3z"/>
		<path class="Rhinoceros3D6" d="M93.4,62.4c0.1,0,0.2,0,0.3,0c0.1,0.2,0.2,0.4,0.3,0.6c-0.2,0-0.4,0-0.6,0C93.4,62.9,93.4,62.7,93.4,62.4z"/>
		<path class="Rhinoceros3D6" d="M94.1,63.4c0-0.1,0-0.2,0-0.3C94.1,63.2,94.1,63.3,94.1,63.4z"/>
		<path class="Rhinoceros3D8" d="M46.6,51.2c-0.5-0.4-1.1-0.8-1.6-1.2c0.7,0.4,1.3,0.8,2,1.2C46.9,51.2,46.8,51.2,46.6,51.2z"/>
		<path class="Rhinoceros3D19" d="M46.6,51.2c0.1,0,0.2,0,0.4,0c0.2,0,0.4,0,0.6,0c0,0.3,0,0.6,0,1C47.3,51.9,47,51.6,46.6,51.2z"/>
		<path
			class="Rhinoceros3D13"
			d="M50.2,76.2c0.3-1.2,0.9-2.4,0.9-3.6c0.1-3.6,0.3-7.2,0-10.7c-0.2-2.2-1.2-4.4-1.8-6.5
		c0.7,0.9,1.6,1.7,1.9,2.7c0.5,1.8,0.5,3.7,0.8,5.5c0.1,0.5,0.2,1,0.2,1.6c-0.3,3.8-0.5,7.7-1,11.5c-0.1,1.1-0.8,2.1-1.2,3.1
		C50,78.6,50.1,77.4,50.2,76.2z"/>
		<path class="Rhinoceros3D13" d="M49.5,83.6c-0.1,0.2-0.2,0.5-0.3,0.7C49.3,84,49.4,83.8,49.5,83.6z"/>
		<path class="Rhinoceros3D5" d="M127.7,151.8c0,0,0.1-0.1,0.1-0.1C127.8,151.7,127.7,151.8,127.7,151.8C127.7,151.8,127.7,151.8,127.7,151.8z"/>
		<path class="Rhinoceros3D9" d="M70.7,58.6c0,0.1,0,0.2,0,0.3c0-0.1-0.1-0.2-0.1-0.2C70.6,58.7,70.6,58.6,70.7,58.6z"/>
		<path class="Rhinoceros3D15" d="M122.9,121.4c0,0.1,0,0.3,0,0.4c-0.3-0.2-0.7-0.5-1-0.7C122.3,121.2,122.6,121.3,122.9,121.4z"/>
		<path class="Rhinoceros3D8" d="M150.5,113.7c-0.1,0.1-0.2,0.2-0.3,0.3c0-0.2,0-0.4,0-0.6C150.3,113.5,150.4,113.6,150.5,113.7z"/>
		<path class="Rhinoceros3D16" d="M152.4,119.2c0.3-0.2,0.6-0.4,1-0.6c0.2,0,0.5,0,0.7,0c-0.6,0.4-1.1,0.8-1.7,1.2
		C152.4,119.6,152.4,119.4,152.4,119.2z"/>
		<path class="Rhinoceros3D3" d="M109.1,119.5c3.7-1.4,7.1-0.6,10.4,1.2c0.1,0.1,0.1,0.3,0.2,0.4c-2,0.2-4,0.4-6.1,0.7c-0.3,0-0.7,0.1-1,0.1
		c-1,0.1-2,0.3-3,0.4C109.5,121.3,109.3,120.4,109.1,119.5z"/>
		<path class="Rhinoceros3D20" d="M109.1,119.5c0.2,0.9,0.4,1.8,0.6,2.8c-0.3,0.1-0.6,0.2-0.9,0.4c-0.4,0.1-0.9,0.2-1.3,0.3
		c-0.4,0-0.7,0.1-1.1,0.1c0.4-0.6,0.9-1.2,1.3-1.8c0.3-0.4,0.5-0.9,0.8-1.4C108.7,119.7,108.9,119.6,109.1,119.5z"/>
		<path class="Rhinoceros3D20" d="M112.7,121.9c0.3,0,0.7-0.1,1-0.1C113.4,121.8,113,121.8,112.7,121.9z"/>
		<path class="Rhinoceros3D5" d="M108.5,119.8c-0.3,0.5-0.5,0.9-0.8,1.4c-0.4,0.6-0.9,1.2-1.3,1.8c0,0,0.1,0.1,0.1,0.1
		c-0.6,0.3-1.2,0.5-1.8,0.8c-0.3,0-0.6,0-0.9,0C104.7,121.9,106.4,120.6,108.5,119.8z"/>
		<path class="Rhinoceros3D19" d="M101.7,130c0.1-0.6,0.2-1.1,0.2-1.7c0.9,0.4,1.1,0.9,0.5,1.7C102.2,130,102,130,101.7,130z"/>
		<path class="Rhinoceros3D19" d="M105,133.6c-0.6-0.5-1.3-1.1-1.9-1.6C103.7,132.5,104.3,133,105,133.6z"/>
		<path class="Rhinoceros3D19" d="M106.6,134.5c-0.5-0.3-1.1-0.6-1.6-1C105.5,133.9,106,134.2,106.6,134.5z"/>
		<path class="Rhinoceros3D19" d="M103.1,132c-0.2-0.4-0.4-0.9-0.6-1.3C102.6,131.1,102.8,131.5,103.1,132z"/>
		<path
			class="Rhinoceros3D2"
			d="M106.5,123.1c0,0-0.1-0.1-0.1-0.1c0.4,0,0.7-0.1,1.1-0.1c0.8,2.2,1.6,4.3,3.8,5.6c2.1,1.2,3.9,3,5.9,4.3
		c1.6,1,3.3,1.9,5.1,2.6c0.6,0.3,1.6,0,2.3-0.3c1.7-0.8,3.9-0.7,4.9-2.8c0-0.1,0.3,0,0.5,0c-0.1,1.1,0.6,2.3-0.6,3.3
		c-1.2,1-6,2-7.3,1.1c-3-1.8-5.9-3.7-8.8-5.6c-1-0.6-2-1.4-3-2C107.9,127.9,107.1,125.6,106.5,123.1z"/>
		<path class="Rhinoceros3D10" d="M102.7,134.5c-0.1-0.4-0.2-0.8-0.4-1.5c1.8,0.9,3.1,1.7,4.5,2.4c3.2,1.9,6.3,3.7,9.5,5.6
		c1,0.6,1.8,1.4,2.7,2.1c-0.4,0-0.8,0-1.3,0.1c-3.7-2.3-7.4-4.7-11.1-7C105.5,135.5,104.1,135.1,102.7,134.5z"/>
		<path
			class="Rhinoceros3D6"
			d="M117.8,143.3c0.4,0,0.8,0,1.3-0.1c2.2,0.7,4.5,1.2,5.7,3.5c-0.7,0.1-1.5,0.4-2.2,0.2c-1.2-0.3-2.4-0.8-3.6-1.2
		c-1.2-0.3-1.7-1-1.5-2.2C117.6,143.5,117.7,143.4,117.8,143.3z M122,145.9c0-0.2,0.1-0.3,0.1-0.5c-1.2-1.3-2.6-1.6-3.9-0.5
		C119.6,145.3,120.8,145.6,122,145.9z"/>
		<path class="Rhinoceros3D3" d="M129.6,128.1c0,0,0.1,0,0.1,0.1C129.7,128.2,129.7,128.1,129.6,128.1C129.6,128.1,129.6,128.1,129.6,128.1z"/>
		<path class="Rhinoceros3D9" d="M52.7,73c0-3.5,0-7,0-10.5c0-0.6,0.2-1.1,0.3-1.7c1.2,3.8,1.5,7.7,0.3,11.6C53.3,72.7,52.9,72.8,52.7,73z"/>
		<path class="Rhinoceros3D9" d="M53,59.9c-1.4-0.5-0.8-1.6-1-2.6C52.4,58.2,52.7,59,53,59.9z"/>
		<path class="Rhinoceros3D9" d="M51.8,78.1c0.2-0.8-0.5-2,1-2.2C52.4,76.6,52.1,77.4,51.8,78.1z"/>
		<path class="Rhinoceros3D9" d="M51.8,56.7c-0.3-0.5-0.6-1.1-1-1.6C51.1,55.6,51.4,56.1,51.8,56.7z"/>
		<path class="Rhinoceros3D19" d="M49.2,53.5c-0.4-0.3-0.8-0.6-1.3-1C48.4,52.8,48.8,53.1,49.2,53.5z"/>
		<path class="Rhinoceros3D9" d="M50.8,55.1c-0.2-0.2-0.4-0.4-0.6-0.6C50.4,54.6,50.6,54.9,50.8,55.1z"/>
		<path class="Rhinoceros3D2" d="M51.5,96.1c-1.4-0.6-2.8-1.3-4.2-1.9C48.9,94.3,50.6,94.4,51.5,96.1z"/>
		<path class="Rhinoceros3D6" d="M64.3,105.4c-0.3-0.3-0.6-0.6-1-1C63.6,104.7,63.9,105.1,64.3,105.4z"/>
		<path class="Rhinoceros3D11" d="M62.3,104.4c-0.3-0.2-0.6-0.4-0.9-0.7c0.3,0,0.6,0,0.9,0C62.3,104,62.3,104.2,62.3,104.4L62.3,104.4z"/>
		<path class="Rhinoceros3D6" d="M62.4,104.4c0-0.2,0-0.4,0-0.6c0.2,0.2,0.4,0.4,0.6,0.6C62.8,104.4,62.6,104.4,62.4,104.4z"/>
		<path class="Rhinoceros3D4" d="M96.3,114.7c-1.1,0-1.6-0.5-1.6-1.6c0.4,0.2,0.9,0.4,1.3,0.6C96.1,114.1,96.2,114.4,96.3,114.7z"/>
		<path class="Rhinoceros3D20" d="M84.8,124.6c0-0.6,0-1.1,0.1-1.7c0.6,1.6,1.8,2.6,3.2,3.3c2.6,1.3,5.1,2.5,7.6,3.8c0.4,0.2,0.8,0.6,1.2,0.9
		c-0.3,0.2-0.7,0.4-1,0.6C91.8,129.9,87.8,128,84.8,124.6z"/>
		<path class="Rhinoceros3D7" d="M124.5,114.2c-0.1,0-0.2,0-0.2,0.1c-0.1,0-0.2-0.1-0.3-0.1c0.1-0.2,0.1-0.4,0.2-0.6c0.1,0.1,0.3,0.2,0.4,0.3
		C124.6,114,124.5,114.1,124.5,114.2z"/>
		<path class="Rhinoceros3D15" d="M124,114.2c0.1,0,0.2,0.1,0.3,0.1c-0.1,0.1-0.1,0.1-0.2,0.1C124,114.3,123.9,114.3,124,114.2z"/>
		<path class="Rhinoceros3D4" d="M97,115.3c-0.2-0.2-0.5-0.4-0.7-0.6C96.5,114.9,96.8,115.1,97,115.3z"/>
		<path class="Rhinoceros3D11" d="M92.2,118.2c0.8,0.5,1.6,0.9,2.4,1.4c-1.1,0.9-2.6,0.7-3.9-0.6C91.3,118.7,91.8,118.4,92.2,118.2z"/>
		<path class="Rhinoceros3D20" d="M97.2,119.4c0.1,1,0.3,1.8,0.1,2.4c-0.1,0.4-1,0.4-1.9,0.8C96.1,121.4,96.5,120.6,97.2,119.4z"/>
		<path class="Rhinoceros3D11" d="M94.3,121.7c-0.2-0.2-0.4-0.4-0.5-0.6c0.1-0.1,0.1-0.1,0.2-0.2c0.2,0.2,0.4,0.4,0.6,0.5
		C94.5,121.5,94.4,121.6,94.3,121.7z"/>
		<path class="Rhinoceros3D11" d="M89.6,117.9c0-0.1-0.1-0.1-0.1-0.2C89.5,117.8,89.6,117.8,89.6,117.9L89.6,117.9z"/>
		<path class="Rhinoceros3D11" d="M89.6,117.9c0,0.1,0.1,0.1,0.1,0.2C89.7,118,89.6,117.9,89.6,117.9C89.6,117.9,89.6,117.9,89.6,117.9z"/>
		<path class="Rhinoceros3D11" d="M84.5,61.5c-0.3,0-0.6,0-1,0c0-0.2,0-0.4,0-0.6c0.2,0,0.4,0,0.6,0C84.2,61.1,84.3,61.3,84.5,61.5z"/>
		<path class="Rhinoceros3D4" d="M66.8,96.1c0,0,0.1,0,0.1,0.1C66.9,96.1,66.9,96.1,66.8,96.1C66.8,96.1,66.8,96.1,66.8,96.1z"/>
		<path
			class="Rhinoceros3D6"
			d="M85.4,62.4c0.2,0.1,0.5,0.2,0.5,0.3c0.5,2.2,1.1,4.3,1.4,6.5c0.3,2.3,1.9,3.7,3.4,5.2c0.4,0.4,1.8,0.3,2.2-0.2
		c1-1.2,3.9-0.7,3.2-3.6c-0.2-0.8,0.2-1.7,0.2-2.5c0.2,0.2,0.4,0.4,0.6,0.6c0.4,1.5,0.9,3,1.3,4.5c0,0.3,0,0.6,0,1
		c-1,1.6-2.8,2-4.4,2.8c-1.9,1-5.2,0.4-6.1-2.4C86.5,70.7,85.7,66.6,85.4,62.4z"/>
		<path class="Rhinoceros3D22" d="M85.1,70.8c0,0-0.1,0-0.1,0.1c-1.1,1.9-0.7,7.3,1.8,8.2c0.5,0.2,0.8,0.7,1.2,1.1c-3-0.5-4.2-1.9-4.1-4.8
		c0.1-2.2,0.4-4.5,0.6-6.7C84.7,69.3,84.9,70,85.1,70.8z"/>
		<path class="Rhinoceros3D22" d="M88.9,80.1c1.7,0,3.5,0.1,5.2,0.1c1,0,2.1,0.2,3.1,0.2c0.8,0,1.5-0.4,2.2-0.6c-0.4,1.2-2.1,1.9-3.4,1.5
		c-0.6-0.2-1.4-0.2-2,0C92.2,81.8,90,81.4,88.9,80.1z"/>
		<path class="Rhinoceros3D8" d="M65.6,109.9c0.5,0.6,1.1,1.3,1.6,1.9C66.6,111.1,66.1,110.5,65.6,109.9z"/>
		<path class="Rhinoceros3D26" d="M122,145.9c-1.2-0.3-2.4-0.6-3.8-0.9c1.3-1.2,2.7-0.9,3.9,0.5C122.1,145.6,122,145.7,122,145.9z"/>
	</g>
</svg>
