<?xml version="1.0" encoding="utf-8"?>

<svg version="1.1" id="Layer_1" xmlns="http://www.w3.org/2000/svg" xmlns:xlink="http://www.w3.org/1999/xlink" x="0px" y="0px" viewBox="0 0 200 200" style="enable-background:new 0 0 200 200;" xml:space="preserve">
	<style type="text/css">
		.Solidworks0 {
			fill: #DC3326;
		}
		.Solidworks1 {
			fill: #A52422;
		}
		.Solidworks2 {
			fill: #EF4523;
		}
		.Solidworks3 {
			fill: #FFFFFF;
		}
	</style>
	<g>
		<path class="Solidworks0" d="M100,175l-71.2-30V47.5L100,70V175z"/>
		<path class="Solidworks1" d="M100,175l71.2-30V47.5L100,70V175z"/>
		<path class="Solidworks2" d="M28.8,47.5L100,25l71.2,22.5L100,70L28.8,47.5z"/>
		<path
			class="Solidworks3"
			d="M147,119.6l6.2-47.2L160,70l-9.1,62.8l-6.7,2.8l-7.8-41l-8.1,47.5l-7.1,2.9l-9.9-58.1l7.5-2.6l6.6,43.7l8-48.8
		l6-2.1L147,119.6z M73.2,126.6c0-1.2-0.1-2.3-0.4-3.4c-0.3-1-0.8-2.1-1.5-3.2c-0.7-1.1-1.7-2.2-3-3.3c-1.3-1.2-2.9-2.5-4.8-4
		c-2.1-1.6-4.1-3.2-5.9-4.9c-1.8-1.7-3.3-3.5-4.6-5.4c-1.3-1.9-2.3-3.9-3-6c-0.7-2.1-1.1-4.4-1.1-6.8c0-2.4,0.4-4.4,1.1-6.2
		c0.8-1.8,1.8-3.1,3.2-4.2c1.4-1,3-1.6,5-1.8c1.9-0.2,4.1,0.1,6.5,0.8c2.6,0.8,4.9,2,6.9,3.6c2.1,1.6,3.8,3.5,5.2,5.7
		c1.4,2.1,2.5,4.5,3.3,6.9c0.8,2.5,1.2,5,1.2,7.5l-8-2.7c0-1.5-0.2-2.9-0.5-4.2c-0.3-1.3-0.9-2.6-1.6-3.7c-0.7-1.1-1.6-2.1-2.7-3
		s-2.4-1.5-3.8-2C63.2,86.2,62,86,61,86.1c-1,0.1-1.8,0.4-2.5,0.9c-0.7,0.5-1.2,1.2-1.5,2.1c-0.3,0.9-0.5,1.9-0.5,3.1
		c0,2.2,0.8,4.3,2.3,6.3c1.6,2,4,4.2,7.2,6.5c2.6,1.9,4.8,3.7,6.7,5.6c1.9,1.9,3.5,3.8,4.7,5.8c1.3,2,2.2,4,2.8,6.2
		c0.6,2.1,0.9,4.4,0.9,6.9c0,2.6-0.4,4.7-1.2,6.5c-0.8,1.8-1.9,3.1-3.3,4c-1.4,0.9-3.2,1.4-5.2,1.4c-2,0-4.2-0.4-6.7-1.4
		c-2.2-0.8-4.3-2-6.4-3.5c-2.1-1.5-3.9-3.4-5.6-5.6c-1.6-2.2-3-4.6-3.9-7.3c-1-2.7-1.5-5.6-1.5-8.7l7.7,2.7c0,1.9,0.2,3.6,0.7,5.1
		c0.5,1.5,1.2,2.9,2,4c0.9,1.2,1.9,2.2,3.1,3c1.2,0.8,2.5,1.5,3.9,2c2.7,1,4.8,1,6.2,0.1C72.5,130.8,73.2,129.1,73.2,126.6z"/>
	</g>
</svg>
